G04*
G04 #@! TF.GenerationSoftware,Altium Limited,Altium Designer,18.1.9 (240)*
G04*
G04 Layer_Color=16711935*
%FSLAX25Y25*%
%MOIN*%
G70*
G01*
G75*
%ADD15C,0.01000*%
D15*
X413386Y122047D02*
X413296Y123073D01*
X413030Y124067D01*
X412595Y125000D01*
X412004Y125843D01*
X411276Y126571D01*
X410433Y127162D01*
X409500Y127597D01*
X408506Y127863D01*
X407480Y127953D01*
Y0D02*
X408506Y90D01*
X409500Y356D01*
X410433Y791D01*
X411276Y1382D01*
X412004Y2110D01*
X412595Y2953D01*
X413030Y3886D01*
X413296Y4880D01*
X413386Y5906D01*
X5906Y127953D02*
X4880Y127863D01*
X3886Y127597D01*
X2953Y127162D01*
X2110Y126571D01*
X1382Y125843D01*
X791Y125000D01*
X356Y124067D01*
X90Y123073D01*
X0Y122047D01*
X0Y5906D02*
X90Y4880D01*
X356Y3886D01*
X791Y2953D01*
X1382Y2110D01*
X2110Y1382D01*
X2953Y791D01*
X3886Y356D01*
X4880Y90D01*
X5906Y0D01*
X413382Y61035D02*
X414316Y61376D01*
X415233Y61761D01*
X416130Y62189D01*
X417005Y62660D01*
X417858Y63173D01*
X418684Y63725D01*
X419483Y64316D01*
X420253Y64946D01*
X420992Y65611D01*
X421698Y66311D01*
X422370Y67043D01*
X423006Y67807D01*
X423605Y68601D01*
X424165Y69422D01*
X424686Y70270D01*
X425165Y71141D01*
X425601Y72034D01*
X425995Y72947D01*
X426344Y73878D01*
X426649Y74824D01*
X426908Y75784D01*
X427120Y76755D01*
X427286Y77736D01*
X427405Y78723D01*
X427476Y79715D01*
X427500Y80709D01*
X427476Y81703D01*
X427405Y82694D01*
X427286Y83681D01*
X427120Y84662D01*
X426908Y85633D01*
X426649Y86593D01*
X426344Y87539D01*
X425995Y88470D01*
X425602Y89383D01*
X425165Y90276D01*
X424686Y91147D01*
X424165Y91995D01*
X423605Y92816D01*
X423007Y93610D01*
X422370Y94374D01*
X421699Y95107D01*
X420992Y95806D01*
X420253Y96472D01*
X419483Y97101D01*
X418684Y97692D01*
X417858Y98245D01*
X417006Y98757D01*
X416130Y99228D01*
X415233Y99656D01*
X414316Y100042D01*
X413382Y100382D01*
X413386Y5906D02*
Y61024D01*
X267717Y0D02*
X271654Y3937D01*
X360236D02*
X364173Y0D01*
X407480D01*
X271654Y3937D02*
X360236D01*
X5906Y127953D02*
X407480D01*
X413386Y100394D02*
Y122047D01*
X0Y5906D02*
Y122047D01*
X5906Y0D02*
X267717D01*
M02*
