M48
;Layer_Color=9474304
;FILE_FORMAT=2:5
INCH,LZ
;TYPE=PLATED
T1F00S00C0.01200
T2F00S00C0.01968
T4F00S00C0.03543
T5F00S00C0.04331
;TYPE=NON_PLATED
T6F00S00C0.07874
T7F00S00C0.13780
%
T01
X00225Y001
X003Y00052
Y00152
X0028Y00232
X00325
X00295Y00436
X00275Y00464
Y00496
X0067Y00511
Y00472
X0070866Y0049
Y0053
X0067Y00552
X008Y00456
X0091Y00548
X0112Y00476
X012Y00496
X013Y005
X0126Y0054
X01285Y0036018
Y0031
X01235
X0125984Y00335
X01235Y0036
X0107286Y00324
X0141Y0029
X01485Y003225
X01465Y00024
X01405Y00056
X01665Y0016416
X0185Y0012691
Y0020445
Y002839
Y0036264
Y0044138
X0205Y00432
X01975Y00352
Y00028
X019
X0205
X0082Y00192
X00685Y00188
X0226Y0020445
Y00376
X02125Y00352
Y00028
X022
X0249Y00055
X025Y00148
X0245Y002
X026Y0033
X02695Y0028126
X0295276Y004
X0307677
X032
X03145Y00152
X0309
X03035
X03635Y00252
X03605Y00512
X03645Y00552
X03685Y00512
X03845Y0032154
X039Y00276
X0407Y00212
X03925Y0004
X038275
X0373
X0401Y00644
X04175Y00708
X0412Y00812
X04175Y00904
X04085Y01088
X03895Y0122
X0355315Y0102362
X0340551
X0330708
X0311024
X0295276
X0283465
X0277953
X0271654
X0266142
X0265Y00948
X02725Y00875
X026Y0078321
X0254Y0059941
X0275Y00672
X0295276Y006
X03075Y007
X03175Y00772
X03305
X03385Y00608
X0358596Y00672
X03585Y0082
X03685Y00592
X0222969Y00572
X02175Y00828
X0231Y01004
X02425Y01024
X02505Y01076
X0244Y0090406
X0224Y01204
X0195Y012
X02Y01144
X019
X0179Y01085
Y01025
X0173
Y01085
X0176Y01055
X0182
X017
X015Y01024
X01275
Y01252
X015
X01675Y008
X01635Y00608
X01575
X01515
X0137992Y0074008
X01305Y00788
X01155
X0123Y00688
X0099213Y007559
Y00575
X008Y00692
X0085433Y0096
X00905Y01032
X0099
X00765Y01048
X00575
X0063375Y01248
X0077
X019Y0096
X02
X0195Y00848
X0199059Y0064
X0044508Y0090551
Y0102
X00335Y00896
Y00865
Y00835
X0013Y00876
X00105Y00908
X0013Y00936
X002Y011
X00225Y01248
X0036125
X004975
T02
X0021299Y0027854
Y0046949
T04
X0041614Y0005118
X0051614
X0061614
X0071614
X0081614
X0091614
X0101614
X0111614
X0121614
X0131614
X0007874Y0086024
Y0095079
T05
X0404724Y0070866
Y0090551
T06
X007874Y0055118
T07
X0009843Y0009843
X0403543
Y011811
X0009843
M30
