G04*
G04 #@! TF.GenerationSoftware,Altium Limited,Altium Designer,18.1.9 (240)*
G04*
G04 Layer_Color=32896*
%FSLAX25Y25*%
%MOIN*%
G70*
G01*
G75*
%ADD11C,0.01968*%
%ADD15C,0.01000*%
%ADD17C,0.00787*%
%ADD19C,0.00394*%
%ADD62C,0.00500*%
%ADD116C,0.00177*%
%ADD117C,0.00121*%
%ADD118C,0.00512*%
D11*
X110236Y86611D02*
X97117D01*
X103677Y93171D02*
Y80051D01*
X346457Y86611D02*
X333338D01*
D15*
X68799Y127264D02*
X372146D01*
Y106614D02*
Y127264D01*
Y45965D02*
Y66614D01*
X68799Y106614D02*
Y127264D01*
Y45965D02*
Y66614D01*
Y45965D02*
X372146Y45965D01*
X279823Y5000D02*
X352067D01*
X272638Y8071D02*
Y26772D01*
X359252Y8071D02*
Y26772D01*
X272638Y8071D02*
X279823Y5000D01*
X352067D02*
X359252Y8071D01*
X272638Y26772D02*
X274213D01*
X357677D02*
X359252D01*
X60120Y120820D02*
X63400D01*
Y118360D01*
X61760D01*
X63400D01*
Y115900D01*
X58480Y119180D02*
Y116720D01*
X57660Y115900D01*
X55200D01*
Y119180D01*
X52741Y120000D02*
Y119180D01*
X53561D01*
X51921D01*
X52741D01*
Y116720D01*
X51921Y115900D01*
X49461Y119180D02*
Y116720D01*
X48641Y115900D01*
X46181D01*
Y119180D01*
X44541D02*
Y115900D01*
Y117540D01*
X43721Y118360D01*
X42901Y119180D01*
X42081D01*
X37162Y115900D02*
X38802D01*
X39622Y116720D01*
Y118360D01*
X38802Y119180D01*
X37162D01*
X36342Y118360D01*
Y117540D01*
X39622D01*
X31422Y120000D02*
X32242Y120820D01*
X33882D01*
X34702Y120000D01*
Y119180D01*
X33882Y118360D01*
X32242D01*
X31422Y117540D01*
Y116720D01*
X32242Y115900D01*
X33882D01*
X34702Y116720D01*
X27322Y115900D02*
X28962D01*
X29782Y116720D01*
Y118360D01*
X28962Y119180D01*
X27322D01*
X26502Y118360D01*
Y117540D01*
X29782D01*
X21583Y119180D02*
X24043D01*
X24863Y118360D01*
Y116720D01*
X24043Y115900D01*
X21583D01*
D17*
X36614Y15748D02*
X41614Y21748D01*
X131614D02*
X136614Y15748D01*
X41614Y21748D02*
X131614D01*
X41614D02*
X46614Y27748D01*
X126614D02*
X131614Y21748D01*
X46614Y27748D02*
X126614D01*
X87000Y21748D02*
X92000Y27748D01*
X36614Y10000D02*
X136614D01*
X36614Y1012D02*
Y15748D01*
X136614Y618D02*
Y15748D01*
X133858Y618D02*
X136614Y3374D01*
X36614Y618D02*
X136614D01*
X372441Y45811D02*
Y55764D01*
X402756Y45811D02*
Y55764D01*
X384221Y42268D02*
X388976D01*
X381221Y37268D02*
X384221Y42268D01*
X381221Y23764D02*
Y37268D01*
X393976Y23764D02*
Y37268D01*
X390976Y42268D02*
X393976Y37268D01*
X388976Y42268D02*
X390976D01*
X372441Y48764D02*
X402756D01*
X367913Y38764D02*
Y45811D01*
X372441D01*
X407283Y38764D02*
Y45811D01*
X402756D02*
X407283D01*
X372441Y55764D02*
X402756D01*
X372441Y23764D02*
X402756D01*
D19*
X285236Y8071D02*
X284692Y8820D01*
X283812Y8534D01*
Y7608D01*
X284692Y7322D01*
X285236Y8071D01*
X348228D02*
X347684Y8820D01*
X346804Y8534D01*
Y7608D01*
X347684Y7322D01*
X348228Y8071D01*
D62*
X91543Y27200D02*
X127071D01*
X91210Y26800D02*
X127404D01*
X90877Y26400D02*
X127737D01*
X92000Y27748D02*
X126614D01*
X91877Y27600D02*
X126737D01*
X126614Y27748D02*
X131614Y21748D01*
X89877Y25200D02*
X128737D01*
X89543Y24800D02*
X129071D01*
X90543Y26000D02*
X128071D01*
X90210Y25600D02*
X128404D01*
X88543Y23600D02*
X130071D01*
X88210Y23200D02*
X130404D01*
X87877Y22800D02*
X130737D01*
X89210Y24400D02*
X129404D01*
X88877Y24000D02*
X129737D01*
X87210Y22000D02*
X131404D01*
X87000Y21748D02*
X131614D01*
X87000D02*
X92000Y27748D01*
X87543Y22400D02*
X131071D01*
D116*
X22707Y93670D02*
X24831D01*
X22707Y93493D02*
X24831D01*
X22707Y93316D02*
X24831D01*
X40223Y93139D02*
X47123D01*
X37569D02*
X39693D01*
X32969D02*
X37216D01*
X15277D02*
X31200D01*
X40223Y92962D02*
X47123D01*
X37569D02*
X39693D01*
X32969D02*
X37216D01*
X15277D02*
X31200D01*
X40223Y92785D02*
X47123D01*
X37569D02*
X39693D01*
X32969D02*
X37216D01*
X15277D02*
X31200D01*
X40223Y92608D02*
X47123D01*
X37569D02*
X39693D01*
X32969D02*
X37216D01*
X15277D02*
X31200D01*
X40223Y92431D02*
X47123D01*
X37569D02*
X39693D01*
X32969D02*
X37216D01*
X15277D02*
X31200D01*
X40223Y92254D02*
X47123D01*
X37569D02*
X39693D01*
X32969D02*
X37216D01*
X15277D02*
X31200D01*
X40223Y92077D02*
X47123D01*
X37569D02*
X39693D01*
X32969D02*
X37216D01*
X15277D02*
X31200D01*
X40223Y91900D02*
X47123D01*
X37569D02*
X39693D01*
X32969D02*
X37216D01*
X15277D02*
X31200D01*
X40223Y91723D02*
X47123D01*
X37569D02*
X39693D01*
X32969D02*
X37216D01*
X15277D02*
X31200D01*
X40223Y91546D02*
X47123D01*
X37569D02*
X39693D01*
X32969D02*
X37216D01*
X15277D02*
X31200D01*
X40223Y91370D02*
X47123D01*
X37569D02*
X39693D01*
X32969D02*
X37216D01*
X15277D02*
X31200D01*
X40223Y91193D02*
X47123D01*
X37569D02*
X39693D01*
X32969D02*
X37216D01*
X15277D02*
X31200D01*
X40223Y91016D02*
X47123D01*
X37569D02*
X39693D01*
X15277D02*
X31200D01*
X44646Y90839D02*
X47123D01*
X37569D02*
X39693D01*
X29077D02*
X31200D01*
X15277D02*
X17400D01*
X44646Y90662D02*
X47123D01*
X37569D02*
X39693D01*
X29077D02*
X31200D01*
X15277D02*
X17400D01*
X44646Y90485D02*
X47123D01*
X37569D02*
X39693D01*
X29077D02*
X31200D01*
X15277D02*
X17400D01*
X44646Y90308D02*
X47123D01*
X37569D02*
X39693D01*
X29077D02*
X31200D01*
X15277D02*
X17400D01*
X44646Y90131D02*
X47123D01*
X37569D02*
X39693D01*
X29077D02*
X31200D01*
X15277D02*
X17400D01*
X44646Y89954D02*
X47123D01*
X37569D02*
X39693D01*
X29077D02*
X31200D01*
X15277D02*
X17400D01*
X44646Y89777D02*
X47123D01*
X37569D02*
X39693D01*
X15277D02*
X17400D01*
X44646Y89600D02*
X47123D01*
X37569D02*
X39693D01*
X15277D02*
X17400D01*
X44646Y89423D02*
X47123D01*
X32969D02*
X44469D01*
X15277D02*
X17400D01*
X44646Y89246D02*
X47123D01*
X32969D02*
X44469D01*
X15277D02*
X17400D01*
X44646Y89069D02*
X47123D01*
X32969D02*
X44469D01*
X15277D02*
X17400D01*
X44646Y88893D02*
X47123D01*
X32969D02*
X44469D01*
X15277D02*
X17400D01*
X44646Y88716D02*
X47123D01*
X32969D02*
X44469D01*
X15277D02*
X31023D01*
X44646Y88539D02*
X47123D01*
X32969D02*
X44469D01*
X15277D02*
X31023D01*
X44646Y88362D02*
X47123D01*
X32969D02*
X44469D01*
X15277D02*
X31023D01*
X44646Y88185D02*
X47123D01*
X32969D02*
X44469D01*
X15277D02*
X31023D01*
X44646Y88008D02*
X47123D01*
X32969D02*
X44469D01*
X15277D02*
X31023D01*
X44646Y87831D02*
X47123D01*
X32969D02*
X44469D01*
X15277D02*
X31023D01*
X44646Y87654D02*
X47123D01*
X32969D02*
X44469D01*
X15277D02*
X31023D01*
X44646Y87477D02*
X47123D01*
X32969D02*
X44469D01*
X15277D02*
X31023D01*
X44646Y87300D02*
X47123D01*
X32969D02*
X44469D01*
X15277D02*
X31023D01*
X44646Y87123D02*
X47123D01*
X37569D02*
X39693D01*
X15277D02*
X31023D01*
X44646Y86946D02*
X47123D01*
X37569D02*
X39693D01*
X15277D02*
X31023D01*
X44646Y86769D02*
X47123D01*
X37569D02*
X39693D01*
X15277D02*
X31023D01*
X44646Y86593D02*
X47123D01*
X37569D02*
X39693D01*
X28723D02*
X31023D01*
X15277D02*
X17400D01*
X44646Y86416D02*
X47123D01*
X37569D02*
X39693D01*
X28723D02*
X31023D01*
X15277D02*
X17400D01*
X44646Y86239D02*
X47123D01*
X37569D02*
X39693D01*
X28723D02*
X31023D01*
X15277D02*
X17400D01*
X44646Y86062D02*
X47123D01*
X37569D02*
X39693D01*
X28723D02*
X31023D01*
X15277D02*
X17400D01*
X44646Y85885D02*
X47123D01*
X37569D02*
X39693D01*
X28723D02*
X31023D01*
X15277D02*
X17400D01*
X44646Y85708D02*
X47123D01*
X35092D02*
X42346D01*
X15277D02*
X31023D01*
X44646Y85531D02*
X47123D01*
X35092D02*
X42346D01*
X15277D02*
X31023D01*
X44646Y85354D02*
X47123D01*
X35092D02*
X42346D01*
X15277D02*
X31023D01*
X44646Y85177D02*
X47123D01*
X35092D02*
X42346D01*
X15277D02*
X31023D01*
X44646Y85000D02*
X47123D01*
X35092D02*
X42346D01*
X15277D02*
X31023D01*
X44646Y84823D02*
X47123D01*
X35092D02*
X42346D01*
X15277D02*
X31023D01*
X44646Y84646D02*
X47123D01*
X35092D02*
X42346D01*
X15277D02*
X31023D01*
X44646Y84469D02*
X47123D01*
X35092D02*
X42346D01*
X15277D02*
X31023D01*
X44646Y84293D02*
X47123D01*
X35092D02*
X42346D01*
X15277D02*
X31023D01*
X44646Y84116D02*
X47123D01*
X35092D02*
X42346D01*
X15277D02*
X31023D01*
X44646Y83939D02*
X47123D01*
X35092D02*
X42346D01*
X15277D02*
X31023D01*
X44646Y83762D02*
X47123D01*
X35092D02*
X42346D01*
X15277D02*
X31023D01*
X44646Y83585D02*
X47123D01*
X40223D02*
X42346D01*
X35092D02*
X37216D01*
X15277D02*
X31023D01*
X44646Y83408D02*
X47123D01*
X40223D02*
X42346D01*
X35092D02*
X37216D01*
X28723D02*
X31023D01*
X15277D02*
X17400D01*
X44646Y83231D02*
X47123D01*
X40223D02*
X42346D01*
X35092D02*
X37216D01*
X28723D02*
X31023D01*
X15277D02*
X17400D01*
X44646Y83054D02*
X47123D01*
X40223D02*
X42346D01*
X35092D02*
X37216D01*
X28723D02*
X31023D01*
X15277D02*
X17400D01*
X44646Y82877D02*
X47123D01*
X40223D02*
X42346D01*
X35092D02*
X37216D01*
X28723D02*
X31023D01*
X15277D02*
X17400D01*
X44646Y82700D02*
X47123D01*
X40223D02*
X42346D01*
X35092D02*
X37216D01*
X28723D02*
X31023D01*
X15277D02*
X17400D01*
X44646Y82523D02*
X47123D01*
X40223D02*
X42346D01*
X35092D02*
X37216D01*
X28723D02*
X31023D01*
X15277D02*
X17400D01*
X44646Y82346D02*
X47123D01*
X40223D02*
X42346D01*
X35092D02*
X37216D01*
X28723D02*
X31023D01*
X15277D02*
X17400D01*
X44646Y82169D02*
X47123D01*
X40223D02*
X42346D01*
X35092D02*
X37216D01*
X28723D02*
X31023D01*
X15277D02*
X17400D01*
X44646Y81992D02*
X47123D01*
X40223D02*
X42346D01*
X35092D02*
X37216D01*
X28723D02*
X31023D01*
X15277D02*
X17400D01*
X44646Y81815D02*
X47123D01*
X40223D02*
X42346D01*
X35092D02*
X37216D01*
X15277D02*
X31023D01*
X44646Y81639D02*
X47123D01*
X40223D02*
X42346D01*
X35092D02*
X37216D01*
X15277D02*
X31023D01*
X44646Y81462D02*
X47123D01*
X40223D02*
X42346D01*
X35092D02*
X37216D01*
X15277D02*
X31023D01*
X44646Y81285D02*
X47123D01*
X40223D02*
X42346D01*
X35092D02*
X37216D01*
X15277D02*
X31023D01*
X44646Y81108D02*
X47123D01*
X40223D02*
X42346D01*
X35092D02*
X37216D01*
X15277D02*
X31023D01*
X44646Y80931D02*
X47123D01*
X40223D02*
X42346D01*
X35092D02*
X37216D01*
X15277D02*
X31023D01*
X44646Y80754D02*
X47123D01*
X40223D02*
X42346D01*
X35092D02*
X37216D01*
X15277D02*
X31023D01*
X44646Y80577D02*
X47123D01*
X40223D02*
X42346D01*
X35092D02*
X37216D01*
X15277D02*
X31023D01*
X44646Y80400D02*
X47123D01*
X40223D02*
X42346D01*
X35092D02*
X37216D01*
X15277D02*
X31023D01*
X44646Y80223D02*
X47123D01*
X40223D02*
X42346D01*
X35092D02*
X37216D01*
X15277D02*
X31023D01*
X44646Y80046D02*
X47123D01*
X40223D02*
X42346D01*
X35092D02*
X37216D01*
X15277D02*
X31023D01*
X44646Y79869D02*
X47123D01*
X40223D02*
X42346D01*
X35092D02*
X37216D01*
X15277D02*
X31023D01*
X44646Y79692D02*
X47123D01*
X40223D02*
X42346D01*
X35092D02*
X37216D01*
X15277D02*
X31023D01*
X44646Y79515D02*
X47123D01*
X40223D02*
X42346D01*
X35092D02*
X37216D01*
X28723D02*
X31023D01*
X24654D02*
X26954D01*
X15277D02*
X17400D01*
X44646Y79339D02*
X47123D01*
X40223D02*
X42346D01*
X35092D02*
X37216D01*
X28723D02*
X31023D01*
X24654D02*
X26954D01*
X15277D02*
X17400D01*
X44646Y79162D02*
X47123D01*
X40223D02*
X42346D01*
X35092D02*
X37216D01*
X28723D02*
X31023D01*
X24654D02*
X26954D01*
X15277D02*
X17400D01*
X44646Y78985D02*
X47123D01*
X40223D02*
X42346D01*
X35092D02*
X37216D01*
X28723D02*
X31023D01*
X24654D02*
X26954D01*
X15277D02*
X17400D01*
X44646Y78808D02*
X47123D01*
X40223D02*
X42346D01*
X35092D02*
X37216D01*
X28723D02*
X31023D01*
X24654D02*
X26954D01*
X15277D02*
X17400D01*
X44646Y78631D02*
X47123D01*
X40223D02*
X42346D01*
X35092D02*
X37216D01*
X28723D02*
X31023D01*
X24654D02*
X26954D01*
X15277D02*
X17400D01*
X44646Y78454D02*
X47123D01*
X40223D02*
X42346D01*
X35092D02*
X37216D01*
X28723D02*
X31023D01*
X24654D02*
X26954D01*
X15277D02*
X17400D01*
X44646Y78277D02*
X47123D01*
X40223D02*
X42346D01*
X35092D02*
X37216D01*
X28723D02*
X31023D01*
X24654D02*
X26954D01*
X15277D02*
X17400D01*
X44646Y78100D02*
X47123D01*
X40223D02*
X42346D01*
X35092D02*
X37216D01*
X28723D02*
X31023D01*
X24654D02*
X26954D01*
X15277D02*
X22884D01*
X44646Y77923D02*
X47123D01*
X40223D02*
X42346D01*
X35092D02*
X37216D01*
X28723D02*
X31023D01*
X24654D02*
X26954D01*
X15277D02*
X22884D01*
X44646Y77746D02*
X47123D01*
X40223D02*
X42346D01*
X35092D02*
X37216D01*
X28723D02*
X31023D01*
X24654D02*
X26954D01*
X15277D02*
X22884D01*
X44646Y77569D02*
X47123D01*
X40223D02*
X42346D01*
X35092D02*
X37216D01*
X28723D02*
X31023D01*
X24654D02*
X26954D01*
X15277D02*
X22884D01*
X44646Y77392D02*
X47123D01*
X40223D02*
X42346D01*
X35092D02*
X37216D01*
X28723D02*
X31023D01*
X24654D02*
X26954D01*
X15277D02*
X22884D01*
X44646Y77215D02*
X47123D01*
X40223D02*
X42346D01*
X35092D02*
X37216D01*
X28723D02*
X31023D01*
X24654D02*
X26954D01*
X15277D02*
X22884D01*
X44646Y77039D02*
X47123D01*
X40223D02*
X42346D01*
X35092D02*
X37216D01*
X28723D02*
X31023D01*
X24654D02*
X26954D01*
X15277D02*
X22884D01*
X44646Y76862D02*
X47123D01*
X40223D02*
X42346D01*
X35092D02*
X37216D01*
X28723D02*
X31023D01*
X24654D02*
X26954D01*
X15277D02*
X22884D01*
X44646Y76685D02*
X47123D01*
X40223D02*
X42346D01*
X35092D02*
X37216D01*
X28723D02*
X31023D01*
X24654D02*
X26954D01*
X15277D02*
X22884D01*
X44646Y76508D02*
X47123D01*
X40223D02*
X42346D01*
X35092D02*
X37216D01*
X28723D02*
X31023D01*
X24654D02*
X26954D01*
X15277D02*
X22884D01*
X44646Y76331D02*
X47123D01*
X40223D02*
X42346D01*
X35092D02*
X37216D01*
X28723D02*
X31023D01*
X24654D02*
X26954D01*
X15277D02*
X22884D01*
X44646Y76154D02*
X47123D01*
X40223D02*
X42346D01*
X35092D02*
X37216D01*
X28723D02*
X31023D01*
X24654D02*
X26954D01*
X15277D02*
X22884D01*
X44646Y75977D02*
X47123D01*
X40223D02*
X42346D01*
X35092D02*
X37216D01*
X28723D02*
X31023D01*
X24654D02*
X26954D01*
X20584D02*
X22884D01*
X15277D02*
X17400D01*
X44646Y75800D02*
X47123D01*
X40223D02*
X42346D01*
X31200D02*
X37216D01*
X28723D02*
X31023D01*
X24654D02*
X26954D01*
X20584D02*
X22884D01*
X15277D02*
X17400D01*
X44646Y75623D02*
X47123D01*
X40223D02*
X42346D01*
X31200D02*
X37216D01*
X28723D02*
X31023D01*
X24654D02*
X26954D01*
X20584D02*
X22884D01*
X15277D02*
X17400D01*
X44646Y75446D02*
X47123D01*
X40223D02*
X42346D01*
X31200D02*
X37216D01*
X28723D02*
X31023D01*
X24654D02*
X26954D01*
X20584D02*
X22884D01*
X15277D02*
X17400D01*
X44646Y75269D02*
X47123D01*
X40223D02*
X42346D01*
X31200D02*
X37216D01*
X28723D02*
X31023D01*
X24654D02*
X26954D01*
X20584D02*
X22884D01*
X15277D02*
X17400D01*
X44646Y75092D02*
X46946D01*
X40223D02*
X42346D01*
X31200D02*
X37216D01*
X28723D02*
X31023D01*
X24654D02*
X26954D01*
X20584D02*
X22884D01*
X15277D02*
X17400D01*
X44646Y74915D02*
X46946D01*
X40223D02*
X42346D01*
X31200D02*
X37216D01*
X28723D02*
X31023D01*
X24654D02*
X26954D01*
X20584D02*
X22884D01*
X15277D02*
X17400D01*
X44646Y74738D02*
X46946D01*
X40223D02*
X42346D01*
X31200D02*
X37216D01*
X28723D02*
X31023D01*
X24654D02*
X26954D01*
X20584D02*
X22884D01*
X15277D02*
X17400D01*
X44646Y74562D02*
X46946D01*
X40223D02*
X42346D01*
X31200D02*
X37216D01*
X28723D02*
X31023D01*
X24654D02*
X26954D01*
X20584D02*
X22884D01*
X15277D02*
X17400D01*
X44646Y74385D02*
X46946D01*
X40223D02*
X42346D01*
X31200D02*
X37216D01*
X28723D02*
X31023D01*
X24654D02*
X26954D01*
X20584D02*
X22884D01*
X15277D02*
X17400D01*
X44646Y74208D02*
X46946D01*
X40223D02*
X42346D01*
X31200D02*
X37216D01*
X28723D02*
X31023D01*
X24654D02*
X26954D01*
X20584D02*
X22884D01*
X15453D02*
X17400D01*
X44646Y74031D02*
X46946D01*
X40223D02*
X42346D01*
X31200D02*
X37216D01*
X28723D02*
X31023D01*
X24654D02*
X26954D01*
X20584D02*
X22884D01*
X15453D02*
X17577D01*
X44469Y73854D02*
X46770D01*
X40223D02*
X42346D01*
X31200D02*
X37216D01*
X28723D02*
X31023D01*
X24654D02*
X26954D01*
X20584D02*
X22884D01*
X15453D02*
X17577D01*
X44469Y73677D02*
X46770D01*
X40223D02*
X42346D01*
X31200D02*
X33500D01*
X28723D02*
X31023D01*
X24654D02*
X26954D01*
X20584D02*
X22884D01*
X15453D02*
X17577D01*
X44469Y73500D02*
X46770D01*
X40223D02*
X42346D01*
X31200D02*
X33500D01*
X28723D02*
X31023D01*
X24654D02*
X26954D01*
X20584D02*
X22884D01*
X15453D02*
X17577D01*
X44469Y73323D02*
X46770D01*
X40223D02*
X42346D01*
X31200D02*
X33500D01*
X28723D02*
X31023D01*
X24654D02*
X26954D01*
X20584D02*
X22884D01*
X15630D02*
X17577D01*
X44293Y73146D02*
X46593D01*
X40223D02*
X42346D01*
X31200D02*
X33500D01*
X28723D02*
X31023D01*
X24654D02*
X26954D01*
X20584D02*
X22884D01*
X15630D02*
X17754D01*
X44293Y72969D02*
X46593D01*
X40223D02*
X42346D01*
X31200D02*
X33500D01*
X28723D02*
X31023D01*
X24654D02*
X26954D01*
X20584D02*
X22884D01*
X15630D02*
X17754D01*
X44293Y72792D02*
X46593D01*
X40223D02*
X42346D01*
X31200D02*
X33500D01*
X28723D02*
X31023D01*
X24654D02*
X26954D01*
X20584D02*
X22884D01*
X15630D02*
X17754D01*
X44293Y72615D02*
X46593D01*
X40223D02*
X42346D01*
X31200D02*
X33500D01*
X28723D02*
X31023D01*
X24654D02*
X26954D01*
X20584D02*
X22884D01*
X15807D02*
X17931D01*
X44116Y72438D02*
X46416D01*
X40223D02*
X42346D01*
X31200D02*
X33500D01*
X28723D02*
X31023D01*
X24654D02*
X26954D01*
X20584D02*
X22884D01*
X15807D02*
X17931D01*
X44116Y72262D02*
X46416D01*
X40223D02*
X42346D01*
X31200D02*
X33500D01*
X28723D02*
X31023D01*
X24654D02*
X26954D01*
X20584D02*
X22884D01*
X15807D02*
X17931D01*
X44116Y72084D02*
X46416D01*
X40223D02*
X42346D01*
X31200D02*
X33500D01*
X28723D02*
X31023D01*
X24654D02*
X26954D01*
X20584D02*
X22884D01*
X15984D02*
X18107D01*
X43939Y71908D02*
X46239D01*
X40223D02*
X42346D01*
X31200D02*
X33500D01*
X28723D02*
X31023D01*
X24654D02*
X26954D01*
X20584D02*
X22884D01*
X15984D02*
X18107D01*
X43939Y71731D02*
X46239D01*
X40223D02*
X42346D01*
X31200D02*
X33500D01*
X28723D02*
X31023D01*
X24654D02*
X26954D01*
X20584D02*
X22884D01*
X15984D02*
X18107D01*
X43762Y71554D02*
X46239D01*
X40223D02*
X42346D01*
X31200D02*
X33500D01*
X28723D02*
X31023D01*
X24654D02*
X26954D01*
X20584D02*
X22884D01*
X16161D02*
X18284D01*
X43762Y71377D02*
X46062D01*
X40223D02*
X42346D01*
X31200D02*
X33500D01*
X28723D02*
X31023D01*
X24654D02*
X26954D01*
X20584D02*
X22884D01*
X16161D02*
X18284D01*
X43762Y71200D02*
X46062D01*
X40223D02*
X42346D01*
X31200D02*
X33500D01*
X28723D02*
X31023D01*
X24654D02*
X26954D01*
X20584D02*
X22884D01*
X16161D02*
X18461D01*
X43585Y71023D02*
X46062D01*
X40223D02*
X42346D01*
X31200D02*
X33500D01*
X28723D02*
X31023D01*
X24654D02*
X26954D01*
X20584D02*
X22884D01*
X16338D02*
X18461D01*
X43585Y70846D02*
X45885D01*
X40223D02*
X42346D01*
X31200D02*
X33500D01*
X28723D02*
X31023D01*
X24654D02*
X26954D01*
X20584D02*
X22884D01*
X16338D02*
X18638D01*
X43408Y70669D02*
X45885D01*
X40223D02*
X42346D01*
X31200D02*
X33500D01*
X28723D02*
X31023D01*
X24654D02*
X26954D01*
X20584D02*
X22884D01*
X16515D02*
X18638D01*
X43231Y70492D02*
X45708D01*
X40223D02*
X42346D01*
X31200D02*
X33500D01*
X28723D02*
X31023D01*
X24654D02*
X26954D01*
X20584D02*
X22884D01*
X16515D02*
X18815D01*
X43231Y70315D02*
X45708D01*
X40223D02*
X42346D01*
X31200D02*
X33500D01*
X28723D02*
X31023D01*
X24654D02*
X26954D01*
X20584D02*
X22884D01*
X16692D02*
X18992D01*
X43054Y70138D02*
X45531D01*
X40223D02*
X42346D01*
X31200D02*
X33500D01*
X28723D02*
X31023D01*
X24654D02*
X26954D01*
X20584D02*
X22884D01*
X16692D02*
X18992D01*
X43054Y69961D02*
X45531D01*
X40223D02*
X42346D01*
X31200D02*
X33500D01*
X28723D02*
X31023D01*
X24654D02*
X26954D01*
X20584D02*
X22884D01*
X16869D02*
X19169D01*
X42877Y69784D02*
X45354D01*
X40223D02*
X42346D01*
X31200D02*
X33500D01*
X28723D02*
X31023D01*
X24654D02*
X26954D01*
X20584D02*
X22884D01*
X16869D02*
X19346D01*
X42700Y69608D02*
X45354D01*
X40223D02*
X42346D01*
X31200D02*
X33500D01*
X28723D02*
X31023D01*
X24654D02*
X26954D01*
X20584D02*
X22884D01*
X17046D02*
X19346D01*
X42700Y69431D02*
X45177D01*
X40223D02*
X42346D01*
X31200D02*
X33500D01*
X28723D02*
X31023D01*
X24654D02*
X26954D01*
X20584D02*
X22884D01*
X17046D02*
X19523D01*
X42523Y69254D02*
X45177D01*
X40223D02*
X42346D01*
X31200D02*
X33500D01*
X28723D02*
X31023D01*
X24654D02*
X26954D01*
X20584D02*
X22884D01*
X17223D02*
X19700D01*
X40223Y69077D02*
X45000D01*
X31200D02*
X33500D01*
X28723D02*
X31023D01*
X24654D02*
X26954D01*
X20584D02*
X22884D01*
X17223D02*
X19700D01*
X40223Y68900D02*
X45000D01*
X31200D02*
X33500D01*
X28723D02*
X31023D01*
X24654D02*
X26954D01*
X20584D02*
X22884D01*
X17400D02*
X19877D01*
X40223Y68723D02*
X44823D01*
X31200D02*
X33500D01*
X28723D02*
X31023D01*
X24654D02*
X26954D01*
X20584D02*
X22884D01*
X17577D02*
X20054D01*
X40223Y68546D02*
X44646D01*
X31200D02*
X33500D01*
X28723D02*
X31023D01*
X24654D02*
X26954D01*
X20584D02*
X22884D01*
X17577D02*
X20231D01*
X40223Y68369D02*
X44646D01*
X31200D02*
X33500D01*
X28723D02*
X31023D01*
X24654D02*
X26954D01*
X20584D02*
X22884D01*
X17754D02*
X20407D01*
X40223Y68192D02*
X44469D01*
X31200D02*
X33500D01*
X28723D02*
X31023D01*
X24654D02*
X26954D01*
X20584D02*
X22884D01*
X17931D02*
X20407D01*
X40223Y68015D02*
X44293D01*
X31200D02*
X33500D01*
X28723D02*
X31023D01*
X24654D02*
X26954D01*
X17931D02*
X22884D01*
X40223Y67838D02*
X44293D01*
X31200D02*
X33500D01*
X28723D02*
X31023D01*
X24654D02*
X26954D01*
X18107D02*
X22884D01*
X40223Y67661D02*
X44116D01*
X31200D02*
X33500D01*
X28723D02*
X31023D01*
X24654D02*
X26954D01*
X18284D02*
X22884D01*
X40223Y67484D02*
X43939D01*
X31200D02*
X33500D01*
X28723D02*
X31023D01*
X24654D02*
X26954D01*
X18284D02*
X22884D01*
X40223Y67308D02*
X43762D01*
X31200D02*
X33500D01*
X28723D02*
X31023D01*
X24654D02*
X26954D01*
X18461D02*
X22884D01*
X40223Y67131D02*
X43762D01*
X31200D02*
X33500D01*
X28723D02*
X31023D01*
X24654D02*
X26954D01*
X18638D02*
X22884D01*
X40223Y66954D02*
X43585D01*
X31200D02*
X33500D01*
X28723D02*
X31023D01*
X24654D02*
X26954D01*
X18815D02*
X22884D01*
X40223Y66777D02*
X43408D01*
X31200D02*
X33500D01*
X28723D02*
X31023D01*
X24654D02*
X26954D01*
X18815D02*
X22884D01*
X40046Y66600D02*
X43231D01*
X31200D02*
X33500D01*
X28723D02*
X31023D01*
X24654D02*
X26954D01*
X18992D02*
X22884D01*
X40046Y66423D02*
X43054D01*
X31200D02*
X33500D01*
X28723D02*
X31023D01*
X24654D02*
X26954D01*
X19169D02*
X22884D01*
X39869Y66246D02*
X42877D01*
X31200D02*
X33500D01*
X28723D02*
X31023D01*
X24654D02*
X26954D01*
X19346D02*
X22884D01*
X39516Y66069D02*
X42700D01*
X31200D02*
X33500D01*
X28723D02*
X31023D01*
X24654D02*
X26954D01*
X19523D02*
X22884D01*
X39339Y65892D02*
X42700D01*
X31200D02*
X33500D01*
X28723D02*
X31023D01*
X24654D02*
X26954D01*
X19700D02*
X22884D01*
X39162Y65715D02*
X42523D01*
X31200D02*
X33500D01*
X28723D02*
X31023D01*
X24654D02*
X26954D01*
X19877D02*
X23061D01*
X38985Y65538D02*
X42346D01*
X31200D02*
X33500D01*
X28723D02*
X31023D01*
X24654D02*
X26954D01*
X20054D02*
X23238D01*
X38808Y65361D02*
X42169D01*
X31200D02*
X33500D01*
X28723D02*
X31023D01*
X24654D02*
X26954D01*
X20231D02*
X23592D01*
X38454Y65184D02*
X41816D01*
X31200D02*
X33500D01*
X28723D02*
X31023D01*
X24654D02*
X26954D01*
X20407D02*
X23769D01*
X38277Y65008D02*
X41639D01*
X31200D02*
X33500D01*
X28723D02*
X31023D01*
X24654D02*
X26954D01*
X20584D02*
X23946D01*
X38100Y64830D02*
X41462D01*
X31200D02*
X33500D01*
X28723D02*
X31023D01*
X24654D02*
X26954D01*
X20761D02*
X24300D01*
X37746Y64654D02*
X41285D01*
X31200D02*
X33500D01*
X28723D02*
X31023D01*
X24654D02*
X26954D01*
X20938D02*
X24477D01*
X37569Y64477D02*
X41108D01*
X31200D02*
X33500D01*
X28723D02*
X31023D01*
X21115D02*
X26954D01*
X37392Y64300D02*
X40931D01*
X31200D02*
X33500D01*
X28723D02*
X31023D01*
X21469D02*
X26954D01*
X37039Y64123D02*
X40577D01*
X31200D02*
X33500D01*
X28723D02*
X31023D01*
X21646D02*
X26954D01*
X36862Y63946D02*
X40400D01*
X31200D02*
X33500D01*
X28723D02*
X31023D01*
X21823D02*
X26954D01*
X36508Y63769D02*
X40223D01*
X31200D02*
X33500D01*
X28723D02*
X31023D01*
X22000D02*
X26954D01*
X36154Y63592D02*
X40046D01*
X31200D02*
X33500D01*
X28723D02*
X31023D01*
X22354D02*
X26954D01*
X35977Y63415D02*
X39693D01*
X31200D02*
X33500D01*
X28723D02*
X31023D01*
X22531D02*
X26954D01*
X35623Y63238D02*
X39516D01*
X31200D02*
X33500D01*
X28723D02*
X31023D01*
X22707D02*
X26954D01*
X35269Y63061D02*
X39339D01*
X31200D02*
X33500D01*
X28723D02*
X31023D01*
X23061D02*
X26954D01*
X34916Y62884D02*
X38985D01*
X31200D02*
X33500D01*
X28723D02*
X31023D01*
X23238D02*
X27308D01*
X34562Y62707D02*
X38808D01*
X31200D02*
X33500D01*
X28723D02*
X31023D01*
X23592D02*
X27661D01*
X34385Y62530D02*
X38454D01*
X31200D02*
X33500D01*
X28723D02*
X31023D01*
X23769D02*
X28015D01*
X34031Y62353D02*
X38277D01*
X31200D02*
X33500D01*
X28723D02*
X31023D01*
X24123D02*
X28369D01*
X31200Y62177D02*
X37923D01*
X24300D02*
X31023D01*
X31200Y62000D02*
X37569D01*
X24654D02*
X31023D01*
X31200Y61823D02*
X37392D01*
X25008D02*
X31023D01*
X31200Y61646D02*
X37039D01*
X25185D02*
X31023D01*
X31200Y61469D02*
X36685D01*
X25538D02*
X31023D01*
X25892Y61292D02*
X36331D01*
X26246Y61115D02*
X35977D01*
X26600Y60938D02*
X35623D01*
X26954Y60761D02*
X35446D01*
X27308Y60584D02*
X34916D01*
X27661Y60407D02*
X34562D01*
X28015Y60230D02*
X34208D01*
X28369Y60053D02*
X33854D01*
X28900Y59877D02*
X33323D01*
X29254Y59700D02*
X32969D01*
X29785Y59523D02*
X32438D01*
X30138Y59346D02*
X32085D01*
D117*
X205282Y39881D02*
X205402D01*
X205282Y39761D02*
X205523D01*
X205282Y39640D02*
X205523D01*
X205282Y39519D02*
X205644D01*
X205402Y39399D02*
X205644D01*
X205402Y39278D02*
X205764D01*
X205402Y39158D02*
X205764D01*
X205402Y39037D02*
X205764D01*
X196842D02*
X196962D01*
X205402Y38916D02*
X205885D01*
X196842D02*
X196962D01*
X205402Y38796D02*
X205885D01*
X196842D02*
X197083D01*
X205402Y38675D02*
X205885D01*
X196721D02*
X197083D01*
X205402Y38555D02*
X205885D01*
X196721D02*
X197083D01*
X205402Y38434D02*
X205885D01*
X196721D02*
X197083D01*
X205402Y38314D02*
X206005D01*
X196721D02*
X197083D01*
X205402Y38193D02*
X206005D01*
X196721D02*
X196962D01*
X205402Y38072D02*
X206005D01*
X196600D02*
X196962D01*
X205402Y37952D02*
X206005D01*
X196600D02*
X196962D01*
X205402Y37831D02*
X206005D01*
X196600D02*
X196962D01*
X205282Y37711D02*
X206005D01*
X196480D02*
X196842D01*
X205282Y37590D02*
X206005D01*
X196480D02*
X196842D01*
X205282Y37470D02*
X206005D01*
X196480D02*
X196721D01*
X205161Y37349D02*
X206005D01*
X196359D02*
X196721D01*
X215651Y37228D02*
X215772D01*
X205161D02*
X206005D01*
X196359D02*
X196721D01*
X215772Y37108D02*
X215893D01*
X205041D02*
X206005D01*
X196239D02*
X196600D01*
X215772Y36987D02*
X215893D01*
X204920D02*
X206005D01*
X196239D02*
X196480D01*
X215772Y36867D02*
X216013D01*
X204920D02*
X206005D01*
X196118D02*
X196480D01*
X215772Y36746D02*
X216013D01*
X204800D02*
X206005D01*
X195998D02*
X196359D01*
X215772Y36625D02*
X216134D01*
X204679D02*
X206005D01*
X195998D02*
X196359D01*
X215772Y36505D02*
X216134D01*
X204558D02*
X205885D01*
X195877D02*
X196239D01*
X215772Y36384D02*
X216254D01*
X204438D02*
X205885D01*
X195756D02*
X196239D01*
X215893Y36264D02*
X216254D01*
X204317D02*
X205885D01*
X195636D02*
X196118D01*
X215893Y36143D02*
X216254D01*
X214325D02*
X214446D01*
X204197D02*
X205885D01*
X195636D02*
X196118D01*
X185628D02*
X185749D01*
X216013Y36023D02*
X216375D01*
X214205D02*
X214446D01*
X203956D02*
X205764D01*
X195515D02*
X195998D01*
X185507D02*
X185749D01*
X216013Y35902D02*
X216495D01*
X214205D02*
X214446D01*
X203835D02*
X205764D01*
X195395D02*
X195998D01*
X185507D02*
X185628D01*
X216013Y35781D02*
X216495D01*
X214084D02*
X214446D01*
X203714D02*
X205764D01*
X198650D02*
X198891D01*
X195274D02*
X195877D01*
X185387D02*
X185628D01*
X216134Y35661D02*
X216616D01*
X214084D02*
X214325D01*
X203473D02*
X205644D01*
X198650D02*
X199012D01*
X195153D02*
X195877D01*
X185387D02*
X185628D01*
X216134Y35540D02*
X216616D01*
X213963D02*
X214325D01*
X203353D02*
X205523D01*
X198771D02*
X199133D01*
X195033D02*
X195877D01*
X185387D02*
X185628D01*
X216254Y35420D02*
X216737D01*
X213963D02*
X214205D01*
X203232D02*
X205523D01*
X198771D02*
X199253D01*
X194912D02*
X195756D01*
X185266D02*
X185507D01*
X216254Y35299D02*
X216857D01*
X213843D02*
X214205D01*
X203112D02*
X205282D01*
X198891D02*
X199253D01*
X194792D02*
X195756D01*
X185266D02*
X185507D01*
X216254Y35179D02*
X216978D01*
X213722D02*
X214084D01*
X202991D02*
X205282D01*
X198891D02*
X199374D01*
X194792D02*
X195636D01*
X185146D02*
X185507D01*
X216375Y35058D02*
X216978D01*
X213722D02*
X214084D01*
X202870D02*
X205161D01*
X198891D02*
X199374D01*
X194671D02*
X195636D01*
X185025D02*
X185387D01*
X216375Y34937D02*
X217098D01*
X213602D02*
X213963D01*
X202750D02*
X205041D01*
X198891D02*
X199494D01*
X194551D02*
X195636D01*
X185025D02*
X185266D01*
X216495Y34817D02*
X217219D01*
X213481D02*
X213843D01*
X202629D02*
X204920D01*
X198891D02*
X199494D01*
X194430D02*
X195636D01*
X184905D02*
X185266D01*
X216495Y34696D02*
X217339D01*
X213361D02*
X213843D01*
X202509D02*
X204800D01*
X198891D02*
X199494D01*
X194430D02*
X195515D01*
X184784D02*
X185146D01*
X216616Y34576D02*
X217460D01*
X213240D02*
X213722D01*
X202388D02*
X204679D01*
X198891D02*
X199615D01*
X194430D02*
X195515D01*
X184663D02*
X185025D01*
X216616Y34455D02*
X217460D01*
X213119D02*
X213722D01*
X202268D02*
X204558D01*
X198891D02*
X199615D01*
X194309D02*
X195515D01*
X184543D02*
X185025D01*
X216737Y34335D02*
X217581D01*
X212999D02*
X213602D01*
X202147D02*
X204438D01*
X199012D02*
X199615D01*
X194309D02*
X195515D01*
X184422D02*
X184905D01*
X243625Y34214D02*
X243746D01*
X216737D02*
X217701D01*
X212878D02*
X213481D01*
X202147D02*
X204317D01*
X199012D02*
X199735D01*
X194189D02*
X195515D01*
X184181D02*
X184784D01*
X243625Y34093D02*
X243866D01*
X216737D02*
X217822D01*
X212878D02*
X213481D01*
X202026D02*
X204197D01*
X199012D02*
X199735D01*
X194189D02*
X195395D01*
X186954D02*
X187196D01*
X184061D02*
X184784D01*
X243625Y33973D02*
X243866D01*
X216857D02*
X217942D01*
X212758D02*
X213361D01*
X201906D02*
X204076D01*
X199012D02*
X199735D01*
X194189D02*
X195395D01*
X186954D02*
X187196D01*
X183940D02*
X184663D01*
X243746Y33852D02*
X243987D01*
X236993D02*
X237114D01*
X216857D02*
X217942D01*
X212637D02*
X213361D01*
X201906D02*
X203956D01*
X199012D02*
X199735D01*
X194068D02*
X195395D01*
X187075D02*
X187316D01*
X183819D02*
X184543D01*
X243746Y33732D02*
X243987D01*
X236993D02*
X237234D01*
X216857D02*
X218063D01*
X212637D02*
X213361D01*
X207452D02*
X207573D01*
X201785D02*
X203956D01*
X199012D02*
X199735D01*
X194068D02*
X195395D01*
X187075D02*
X187316D01*
X183699D02*
X184543D01*
X164768D02*
X164889D01*
X243746Y33611D02*
X243987D01*
X237114D02*
X237355D01*
X216978D02*
X218183D01*
X212516D02*
X213240D01*
X207452D02*
X207693D01*
X201785D02*
X203835D01*
X199012D02*
X199856D01*
X194068D02*
X195395D01*
X187075D02*
X187437D01*
X183578D02*
X184422D01*
X164648D02*
X164889D01*
X243746Y33490D02*
X243987D01*
X237114D02*
X237476D01*
X216978D02*
X218183D01*
X212396D02*
X213240D01*
X207573D02*
X207934D01*
X201665D02*
X203835D01*
X198891D02*
X199856D01*
X194068D02*
X195395D01*
X187075D02*
X187437D01*
X183458D02*
X184302D01*
X176102D02*
X176223D01*
X164648D02*
X164889D01*
X243625Y33370D02*
X243987D01*
X240490D02*
X240611D01*
X237234D02*
X237476D01*
X230965D02*
X231085D01*
X216978D02*
X218304D01*
X212396D02*
X213240D01*
X207573D02*
X207934D01*
X201665D02*
X203714D01*
X198891D02*
X199856D01*
X194068D02*
X195395D01*
X187075D02*
X187437D01*
X183337D02*
X184302D01*
X176102D02*
X176344D01*
X164527D02*
X164889D01*
X243625Y33249D02*
X243987D01*
X240490D02*
X240731D01*
X237234D02*
X237596D01*
X230965D02*
X231206D01*
X216978D02*
X218425D01*
X212396D02*
X213240D01*
X207573D02*
X208055D01*
X201665D02*
X203714D01*
X198891D02*
X199856D01*
X193948D02*
X195515D01*
X187075D02*
X187437D01*
X183217D02*
X184181D01*
X176102D02*
X176344D01*
X168024D02*
X168265D01*
X164527D02*
X164889D01*
X243625Y33129D02*
X244107D01*
X240611D02*
X240852D01*
X237234D02*
X237596D01*
X230965D02*
X231326D01*
X216978D02*
X218425D01*
X212396D02*
X213240D01*
X207693D02*
X208176D01*
X201544D02*
X203594D01*
X198891D02*
X199856D01*
X193948D02*
X195515D01*
X187075D02*
X187437D01*
X182975D02*
X184181D01*
X176102D02*
X176464D01*
X167903D02*
X168145D01*
X164527D02*
X164889D01*
X243625Y33008D02*
X244107D01*
X240611D02*
X240972D01*
X237355D02*
X237596D01*
X231085D02*
X231326D01*
X216978D02*
X218425D01*
X212275D02*
X213119D01*
X207693D02*
X208176D01*
X201544D02*
X203594D01*
X198771D02*
X199856D01*
X193948D02*
X195515D01*
X187075D02*
X187437D01*
X182855D02*
X184181D01*
X176102D02*
X176585D01*
X167783D02*
X168024D01*
X164527D02*
X164768D01*
X243625Y32888D02*
X244107D01*
X240731D02*
X240972D01*
X237355D02*
X237717D01*
X231085D02*
X231447D01*
X216978D02*
X218545D01*
X212275D02*
X213119D01*
X207693D02*
X208296D01*
X201544D02*
X203473D01*
X198771D02*
X199856D01*
X193948D02*
X195515D01*
X187075D02*
X187437D01*
X182855D02*
X184061D01*
X176223D02*
X176585D01*
X167662D02*
X168024D01*
X164527D02*
X164768D01*
X243625Y32767D02*
X244107D01*
X240731D02*
X241093D01*
X237476D02*
X237717D01*
X231206D02*
X231447D01*
X221801D02*
X222042D01*
X216978D02*
X218545D01*
X212275D02*
X213240D01*
X207814D02*
X208417D01*
X201424D02*
X203473D01*
X198650D02*
X199856D01*
X193948D02*
X195636D01*
X187075D02*
X187437D01*
X182734D02*
X184061D01*
X176223D02*
X176705D01*
X167662D02*
X167903D01*
X164527D02*
X164768D01*
X243625Y32647D02*
X243987D01*
X240852D02*
X241093D01*
X237476D02*
X237837D01*
X231206D02*
X231447D01*
X221921D02*
X222163D01*
X216978D02*
X218666D01*
X212275D02*
X213240D01*
X207814D02*
X208417D01*
X201424D02*
X203473D01*
X198650D02*
X199856D01*
X193948D02*
X195756D01*
X187075D02*
X187437D01*
X182614D02*
X183940D01*
X176223D02*
X176826D01*
X167542D02*
X167903D01*
X164527D02*
X164889D01*
X243625Y32526D02*
X243987D01*
X240852D02*
X241093D01*
X237476D02*
X237837D01*
X231206D02*
X231568D01*
X221921D02*
X222163D01*
X216978D02*
X218666D01*
X212275D02*
X213240D01*
X207814D02*
X208537D01*
X201424D02*
X203473D01*
X198530D02*
X199735D01*
X193948D02*
X195756D01*
X187075D02*
X187437D01*
X182493D02*
X183940D01*
X176223D02*
X176826D01*
X167542D02*
X167783D01*
X164527D02*
X164889D01*
X243625Y32405D02*
X243987D01*
X240852D02*
X241213D01*
X237596D02*
X237958D01*
X231326D02*
X231568D01*
X221921D02*
X222283D01*
X216978D02*
X218666D01*
X212275D02*
X213240D01*
X207814D02*
X208537D01*
X201424D02*
X203353D01*
X198409D02*
X199735D01*
X193948D02*
X195877D01*
X187075D02*
X187437D01*
X182493D02*
X183819D01*
X176223D02*
X176946D01*
X167542D02*
X167783D01*
X164527D02*
X164889D01*
X245554Y32285D02*
X245675D01*
X243625D02*
X244107D01*
X240972D02*
X241213D01*
X237596D02*
X237958D01*
X231326D02*
X231688D01*
X221921D02*
X222283D01*
X216978D02*
X218666D01*
X212275D02*
X213240D01*
X207814D02*
X208537D01*
X201424D02*
X203353D01*
X198289D02*
X199735D01*
X193948D02*
X195877D01*
X191295D02*
X191416D01*
X187075D02*
X187437D01*
X182372D02*
X183819D01*
X176223D02*
X177067D01*
X167421D02*
X167783D01*
X164527D02*
X164889D01*
X245554Y32164D02*
X245675D01*
X243625D02*
X244107D01*
X240972D02*
X241213D01*
X237596D02*
X237958D01*
X231326D02*
X231688D01*
X221921D02*
X222283D01*
X216857D02*
X218666D01*
X212275D02*
X213240D01*
X207814D02*
X208658D01*
X201424D02*
X203353D01*
X198168D02*
X199615D01*
X193948D02*
X195998D01*
X191174D02*
X191416D01*
X186954D02*
X187437D01*
X182252D02*
X183819D01*
X176223D02*
X177188D01*
X167421D02*
X167662D01*
X164527D02*
X164889D01*
X245554Y32044D02*
X245795D01*
X243625D02*
X244107D01*
X240972D02*
X241334D01*
X237596D02*
X237958D01*
X231326D02*
X231688D01*
X221921D02*
X222283D01*
X216857D02*
X218666D01*
X212275D02*
X213361D01*
X207814D02*
X208658D01*
X201303D02*
X203353D01*
X197927D02*
X199615D01*
X194068D02*
X196118D01*
X191054D02*
X191416D01*
X186954D02*
X187437D01*
X182252D02*
X183819D01*
X176344D02*
X177308D01*
X173812D02*
X174053D01*
X167421D02*
X167662D01*
X164527D02*
X164889D01*
X245675Y31923D02*
X245916D01*
X243625D02*
X244107D01*
X240972D02*
X241334D01*
X237717D02*
X238078D01*
X231326D02*
X231809D01*
X221921D02*
X222404D01*
X216857D02*
X218666D01*
X212275D02*
X213361D01*
X207934D02*
X208779D01*
X201303D02*
X203353D01*
X197806D02*
X199494D01*
X194068D02*
X196359D01*
X190933D02*
X191295D01*
X186954D02*
X187437D01*
X182252D02*
X183699D01*
X176344D02*
X177429D01*
X173691D02*
X173932D01*
X167300D02*
X167662D01*
X164527D02*
X164889D01*
X245675Y31802D02*
X246037D01*
X243746D02*
X244107D01*
X240972D02*
X241334D01*
X237717D02*
X238078D01*
X231326D02*
X231809D01*
X221921D02*
X222404D01*
X216737D02*
X218666D01*
X212396D02*
X213481D01*
X207934D02*
X208779D01*
X201303D02*
X203353D01*
X197324D02*
X199494D01*
X194189D02*
X196842D01*
X190933D02*
X191295D01*
X186834D02*
X187437D01*
X182131D02*
X183699D01*
X176344D02*
X177549D01*
X173691D02*
X173932D01*
X167300D02*
X167662D01*
X164527D02*
X164889D01*
X245795Y31682D02*
X246037D01*
X243746D02*
X244107D01*
X241093D02*
X241334D01*
X237717D02*
X238078D01*
X231326D02*
X231809D01*
X221921D02*
X222404D01*
X216737D02*
X218666D01*
X212396D02*
X213602D01*
X207934D02*
X208779D01*
X201303D02*
X203353D01*
X194189D02*
X199374D01*
X190813D02*
X191295D01*
X186834D02*
X187316D01*
X182131D02*
X183699D01*
X176344D02*
X177549D01*
X173570D02*
X173932D01*
X167300D02*
X167662D01*
X164527D02*
X164889D01*
X245916Y31561D02*
X246157D01*
X243746D02*
X244107D01*
X241093D02*
X241334D01*
X237717D02*
X238199D01*
X231326D02*
X231929D01*
X221921D02*
X222404D01*
X216616D02*
X218666D01*
X212396D02*
X213602D01*
X207934D02*
X208779D01*
X201303D02*
X203353D01*
X194309D02*
X199374D01*
X190692D02*
X191174D01*
X186713D02*
X187316D01*
X182011D02*
X183699D01*
X176344D02*
X177670D01*
X173450D02*
X173812D01*
X167300D02*
X167783D01*
X164407D02*
X164889D01*
X245916Y31441D02*
X246278D01*
X243746D02*
X244107D01*
X241093D02*
X241455D01*
X237717D02*
X238199D01*
X231326D02*
X231929D01*
X221921D02*
X222404D01*
X216495D02*
X218666D01*
X212396D02*
X213722D01*
X207934D02*
X208899D01*
X201303D02*
X203353D01*
X194309D02*
X199253D01*
X190692D02*
X191174D01*
X186713D02*
X187316D01*
X182011D02*
X183699D01*
X176344D02*
X177670D01*
X173450D02*
X173812D01*
X167300D02*
X167783D01*
X164407D02*
X165009D01*
X246037Y31320D02*
X246398D01*
X243746D02*
X244228D01*
X241093D02*
X241455D01*
X237717D02*
X238199D01*
X231326D02*
X231929D01*
X221921D02*
X222404D01*
X216375D02*
X218545D01*
X212396D02*
X213843D01*
X207934D02*
X208899D01*
X201303D02*
X203473D01*
X194430D02*
X199133D01*
X190572D02*
X191174D01*
X186593D02*
X187196D01*
X182011D02*
X183699D01*
X176344D02*
X177791D01*
X173450D02*
X173812D01*
X167300D02*
X167783D01*
X164407D02*
X165009D01*
X246037Y31200D02*
X246398D01*
X243746D02*
X244228D01*
X241093D02*
X241455D01*
X237717D02*
X238199D01*
X231326D02*
X231929D01*
X221801D02*
X222404D01*
X216013D02*
X218545D01*
X212516D02*
X214084D01*
X207934D02*
X208899D01*
X201303D02*
X203473D01*
X194430D02*
X199012D01*
X190572D02*
X191174D01*
X186593D02*
X187196D01*
X181890D02*
X183819D01*
X176464D02*
X177791D01*
X173329D02*
X173691D01*
X167180D02*
X167783D01*
X164407D02*
X165009D01*
X246157Y31079D02*
X246519D01*
X243746D02*
X244228D01*
X240972D02*
X241455D01*
X237717D02*
X238199D01*
X231326D02*
X232050D01*
X227709D02*
X227830D01*
X221801D02*
X222404D01*
X215169D02*
X218425D01*
X212516D02*
X214446D01*
X207814D02*
X208899D01*
X201182D02*
X203473D01*
X194430D02*
X199012D01*
X190451D02*
X191054D01*
X186472D02*
X187196D01*
X181890D02*
X183819D01*
X176464D02*
X177791D01*
X173329D02*
X173691D01*
X167180D02*
X167783D01*
X164407D02*
X165009D01*
X162719D02*
X162839D01*
X246157Y30958D02*
X246519D01*
X243746D02*
X244349D01*
X240972D02*
X241455D01*
X237717D02*
X238199D01*
X231326D02*
X232050D01*
X227709D02*
X227950D01*
X221680D02*
X222283D01*
X212516D02*
X218425D01*
X207814D02*
X209020D01*
X201182D02*
X203594D01*
X194551D02*
X198891D01*
X190451D02*
X191054D01*
X186352D02*
X187075D01*
X181890D02*
X183819D01*
X176464D02*
X177911D01*
X173329D02*
X173691D01*
X167180D02*
X167783D01*
X164407D02*
X165009D01*
X162598D02*
X162719D01*
X246278Y30838D02*
X246639D01*
X243746D02*
X244349D01*
X240972D02*
X241455D01*
X237717D02*
X238199D01*
X231326D02*
X232050D01*
X227830D02*
X227950D01*
X221680D02*
X222283D01*
X212516D02*
X218304D01*
X207814D02*
X209020D01*
X201182D02*
X203594D01*
X194551D02*
X198771D01*
X190331D02*
X191054D01*
X186231D02*
X187075D01*
X181890D02*
X183940D01*
X176464D02*
X177911D01*
X173329D02*
X173691D01*
X167180D02*
X167903D01*
X164407D02*
X165009D01*
X162477D02*
X162719D01*
X246278Y30717D02*
X246639D01*
X243746D02*
X244469D01*
X240972D02*
X241455D01*
X237717D02*
X238199D01*
X231326D02*
X232050D01*
X227830D02*
X228071D01*
X221560D02*
X222283D01*
X212637D02*
X218304D01*
X207693D02*
X209020D01*
X201182D02*
X203714D01*
X194671D02*
X198650D01*
X190331D02*
X191054D01*
X186110D02*
X186954D01*
X181890D02*
X184061D01*
X176464D02*
X177911D01*
X173329D02*
X173691D01*
X167180D02*
X167903D01*
X164407D02*
X165009D01*
X162357D02*
X162598D01*
X246278Y30597D02*
X246760D01*
X243746D02*
X244469D01*
X240972D02*
X241455D01*
X237717D02*
X238320D01*
X231206D02*
X232050D01*
X227830D02*
X228191D01*
X224936D02*
X225056D01*
X221439D02*
X222283D01*
X212637D02*
X218183D01*
X207693D02*
X209020D01*
X201182D02*
X203835D01*
X194792D02*
X198530D01*
X190210D02*
X191054D01*
X185869D02*
X186834D01*
X181890D02*
X184181D01*
X176344D02*
X177911D01*
X173209D02*
X173691D01*
X170677D02*
X170797D01*
X167180D02*
X167903D01*
X164286D02*
X165009D01*
X162236D02*
X162598D01*
X246278Y30476D02*
X246760D01*
X243866D02*
X244590D01*
X240972D02*
X241455D01*
X237717D02*
X238320D01*
X231206D02*
X232050D01*
X227950D02*
X228312D01*
X224936D02*
X225056D01*
X221319D02*
X222283D01*
X212637D02*
X218183D01*
X207573D02*
X209020D01*
X201182D02*
X203835D01*
X194792D02*
X198409D01*
X190089D02*
X191054D01*
X185628D02*
X186834D01*
X181890D02*
X184302D01*
X176344D02*
X177911D01*
X173209D02*
X173691D01*
X170435D02*
X170677D01*
X167180D02*
X167903D01*
X164286D02*
X165009D01*
X162116D02*
X162477D01*
X246278Y30356D02*
X246881D01*
X243866D02*
X244590D01*
X240972D02*
X241575D01*
X237596D02*
X238320D01*
X231206D02*
X232050D01*
X228071D02*
X228432D01*
X224936D02*
X225056D01*
X221319D02*
X222283D01*
X212758D02*
X218063D01*
X207573D02*
X209020D01*
X201182D02*
X203956D01*
X194912D02*
X198289D01*
X190089D02*
X191054D01*
X185387D02*
X186713D01*
X181890D02*
X184422D01*
X176344D02*
X178032D01*
X173209D02*
X173691D01*
X170435D02*
X170677D01*
X167180D02*
X167903D01*
X164286D02*
X165009D01*
X162116D02*
X162477D01*
X246398Y30235D02*
X246881D01*
X243987D02*
X244710D01*
X240972D02*
X241575D01*
X237596D02*
X238320D01*
X231085D02*
X232050D01*
X228191D02*
X228553D01*
X224936D02*
X225177D01*
X221198D02*
X222283D01*
X212758D02*
X218063D01*
X207452D02*
X209020D01*
X201182D02*
X204076D01*
X194912D02*
X198168D01*
X189969D02*
X191054D01*
X181890D02*
X186593D01*
X176344D02*
X178032D01*
X173209D02*
X173691D01*
X170315D02*
X170677D01*
X167180D02*
X167903D01*
X164286D02*
X165009D01*
X161995D02*
X162357D01*
X246278Y30114D02*
X246881D01*
X243987D02*
X244831D01*
X240972D02*
X241575D01*
X237596D02*
X238320D01*
X231085D02*
X232170D01*
X228191D02*
X228553D01*
X225056D02*
X225177D01*
X221198D02*
X222163D01*
X212758D02*
X218063D01*
X207452D02*
X209020D01*
X201182D02*
X204197D01*
X195033D02*
X198047D01*
X189969D02*
X191054D01*
X181890D02*
X186593D01*
X176344D02*
X178032D01*
X173209D02*
X173691D01*
X170315D02*
X170556D01*
X167180D02*
X167903D01*
X164165D02*
X165009D01*
X161995D02*
X162357D01*
X246278Y29994D02*
X246881D01*
X243987D02*
X244951D01*
X240972D02*
X241575D01*
X237596D02*
X238320D01*
X230965D02*
X232170D01*
X228312D02*
X228674D01*
X225056D02*
X225297D01*
X221198D02*
X222163D01*
X212878D02*
X218063D01*
X207332D02*
X209020D01*
X201182D02*
X204317D01*
X195033D02*
X198047D01*
X189848D02*
X191054D01*
X181890D02*
X186472D01*
X176223D02*
X178032D01*
X173209D02*
X173812D01*
X170315D02*
X170556D01*
X167180D02*
X167903D01*
X164165D02*
X164889D01*
X161874D02*
X162236D01*
X246157Y29873D02*
X246881D01*
X244107D02*
X245193D01*
X240972D02*
X241575D01*
X237596D02*
X238320D01*
X230965D02*
X232170D01*
X228432D02*
X228794D01*
X225056D02*
X225297D01*
X221077D02*
X222163D01*
X212878D02*
X217942D01*
X207211D02*
X209020D01*
X201182D02*
X204438D01*
X195033D02*
X197927D01*
X189848D02*
X191054D01*
X181890D02*
X186352D01*
X176223D02*
X178032D01*
X173209D02*
X173812D01*
X170194D02*
X170435D01*
X167180D02*
X167903D01*
X164165D02*
X164889D01*
X161874D02*
X162236D01*
X245795Y29753D02*
X247001D01*
X244107D02*
X245675D01*
X240972D02*
X241696D01*
X237476D02*
X238320D01*
X230723D02*
X232170D01*
X228432D02*
X229035D01*
X225056D02*
X225418D01*
X221077D02*
X222163D01*
X212878D02*
X217942D01*
X207090D02*
X209020D01*
X201182D02*
X204679D01*
X195033D02*
X197927D01*
X189848D02*
X191054D01*
X182011D02*
X186352D01*
X176102D02*
X178032D01*
X173209D02*
X173812D01*
X170194D02*
X170435D01*
X167180D02*
X167903D01*
X164045D02*
X164889D01*
X161874D02*
X162236D01*
X248448Y29632D02*
X248569D01*
X244107D02*
X247001D01*
X240972D02*
X241696D01*
X237476D02*
X238320D01*
X230482D02*
X232050D01*
X228553D02*
X229276D01*
X225056D02*
X225418D01*
X220957D02*
X222042D01*
X212999D02*
X217942D01*
X206849D02*
X209020D01*
X201182D02*
X204800D01*
X195033D02*
X197806D01*
X189728D02*
X191054D01*
X182011D02*
X186231D01*
X176102D02*
X178032D01*
X173209D02*
X173932D01*
X170194D02*
X170435D01*
X167180D02*
X167903D01*
X164045D02*
X164768D01*
X161754D02*
X162236D01*
X248448Y29511D02*
X248689D01*
X244228D02*
X246881D01*
X240972D02*
X241696D01*
X237476D02*
X238320D01*
X228674D02*
X232050D01*
X225177D02*
X225418D01*
X220957D02*
X222042D01*
X212999D02*
X217942D01*
X206367D02*
X209020D01*
X201182D02*
X205282D01*
X195153D02*
X197686D01*
X189728D02*
X191054D01*
X182011D02*
X186110D01*
X175982D02*
X178032D01*
X173329D02*
X173932D01*
X170194D02*
X170435D01*
X167180D02*
X167903D01*
X163924D02*
X164768D01*
X161754D02*
X162236D01*
X248448Y29391D02*
X248689D01*
X244228D02*
X246881D01*
X240972D02*
X241696D01*
X237476D02*
X238440D01*
X228674D02*
X232050D01*
X225177D02*
X225418D01*
X220836D02*
X222042D01*
X212999D02*
X217942D01*
X201182D02*
X209020D01*
X195153D02*
X197686D01*
X189728D02*
X191054D01*
X182131D02*
X186110D01*
X175861D02*
X178032D01*
X173329D02*
X174053D01*
X170194D02*
X170435D01*
X167180D02*
X167903D01*
X163924D02*
X164768D01*
X161754D02*
X162236D01*
X248448Y29270D02*
X248810D01*
X244228D02*
X246881D01*
X240972D02*
X241816D01*
X237476D02*
X238440D01*
X228794D02*
X232050D01*
X225177D02*
X225539D01*
X220836D02*
X221921D01*
X212999D02*
X217942D01*
X201182D02*
X209140D01*
X195153D02*
X197686D01*
X189607D02*
X191054D01*
X182131D02*
X185990D01*
X175741D02*
X178032D01*
X173329D02*
X174294D01*
X170194D02*
X170435D01*
X167180D02*
X167903D01*
X163804D02*
X164648D01*
X161754D02*
X162236D01*
X248569Y29150D02*
X248810D01*
X244349D02*
X246881D01*
X240972D02*
X241816D01*
X237355D02*
X238440D01*
X228915D02*
X232050D01*
X225177D02*
X225539D01*
X220836D02*
X221921D01*
X212999D02*
X217942D01*
X201182D02*
X209140D01*
X195153D02*
X197565D01*
X189607D02*
X191054D01*
X182131D02*
X185990D01*
X175379D02*
X177911D01*
X173329D02*
X174415D01*
X170194D02*
X170435D01*
X167059D02*
X167903D01*
X163683D02*
X164648D01*
X161754D02*
X162236D01*
X248569Y29029D02*
X248810D01*
X244349D02*
X246760D01*
X240972D02*
X241937D01*
X237355D02*
X238440D01*
X228915D02*
X232050D01*
X225177D02*
X225539D01*
X220716D02*
X221921D01*
X212999D02*
X217942D01*
X201182D02*
X209140D01*
X195153D02*
X197565D01*
X189486D02*
X191174D01*
X182131D02*
X185869D01*
X173450D02*
X177911D01*
X170194D02*
X170556D01*
X167059D02*
X167903D01*
X163683D02*
X164648D01*
X161633D02*
X162236D01*
X248569Y28909D02*
X248930D01*
X244349D02*
X246760D01*
X240972D02*
X242057D01*
X237476D02*
X238440D01*
X229035D02*
X232050D01*
X225177D02*
X225539D01*
X220716D02*
X221801D01*
X212999D02*
X217822D01*
X201182D02*
X209261D01*
X195153D02*
X197565D01*
X189486D02*
X191174D01*
X182252D02*
X185869D01*
X173450D02*
X177911D01*
X170194D02*
X170556D01*
X167059D02*
X167903D01*
X163442D02*
X164648D01*
X161633D02*
X162236D01*
X248569Y28788D02*
X248930D01*
X244349D02*
X246760D01*
X240972D02*
X242057D01*
X237476D02*
X238561D01*
X229035D02*
X231929D01*
X225177D02*
X225659D01*
X220716D02*
X221801D01*
X212999D02*
X217822D01*
X201182D02*
X209261D01*
X195153D02*
X197444D01*
X189486D02*
X191174D01*
X182252D02*
X185749D01*
X173570D02*
X177791D01*
X170194D02*
X170556D01*
X167059D02*
X167903D01*
X163201D02*
X164648D01*
X161633D02*
X162357D01*
X248569Y28668D02*
X248930D01*
X244349D02*
X246639D01*
X240972D02*
X242178D01*
X237476D02*
X238561D01*
X229156D02*
X231929D01*
X225177D02*
X225659D01*
X220595D02*
X221801D01*
X212999D02*
X217822D01*
X201182D02*
X209261D01*
X195153D02*
X197444D01*
X189366D02*
X191295D01*
X182252D02*
X185749D01*
X173570D02*
X177791D01*
X170194D02*
X170556D01*
X166939D02*
X167903D01*
X161633D02*
X164527D01*
X248569Y28547D02*
X248930D01*
X244228D02*
X246639D01*
X240972D02*
X242299D01*
X237476D02*
X238561D01*
X229156D02*
X231929D01*
X225177D02*
X225659D01*
X220595D02*
X221801D01*
X212999D02*
X217822D01*
X201182D02*
X209382D01*
X195033D02*
X197444D01*
X189366D02*
X191295D01*
X182372D02*
X185628D01*
X179479D02*
X179599D01*
X173570D02*
X177791D01*
X170194D02*
X170677D01*
X166939D02*
X167903D01*
X161633D02*
X164527D01*
X248569Y28426D02*
X248930D01*
X244228D02*
X246519D01*
X240972D02*
X242419D01*
X237476D02*
X238681D01*
X229276D02*
X231929D01*
X225177D02*
X225659D01*
X220595D02*
X221801D01*
X212878D02*
X217942D01*
X201182D02*
X209382D01*
X195033D02*
X197444D01*
X189366D02*
X191295D01*
X182372D02*
X185628D01*
X179358D02*
X179599D01*
X173691D02*
X177670D01*
X170194D02*
X170677D01*
X166818D02*
X167903D01*
X161633D02*
X164527D01*
X248569Y28306D02*
X248810D01*
X243987D02*
X246519D01*
X240852D02*
X242540D01*
X237476D02*
X238681D01*
X229397D02*
X231929D01*
X225056D02*
X225659D01*
X220474D02*
X221801D01*
X212878D02*
X217942D01*
X201182D02*
X209502D01*
X194912D02*
X197444D01*
X189245D02*
X191416D01*
X182372D02*
X185628D01*
X179237D02*
X179599D01*
X173691D02*
X177549D01*
X170194D02*
X170677D01*
X166698D02*
X167903D01*
X161633D02*
X164527D01*
X248569Y28185D02*
X248810D01*
X243746D02*
X246398D01*
X240852D02*
X242660D01*
X237476D02*
X238802D01*
X229397D02*
X231929D01*
X225056D02*
X225659D01*
X220474D02*
X221801D01*
X212878D02*
X217942D01*
X201182D02*
X209623D01*
X194912D02*
X197565D01*
X189245D02*
X191416D01*
X182372D02*
X185507D01*
X179237D02*
X179599D01*
X173691D02*
X177549D01*
X170194D02*
X170797D01*
X166577D02*
X167783D01*
X161633D02*
X164527D01*
X248569Y28065D02*
X248810D01*
X243384D02*
X246398D01*
X240852D02*
X243022D01*
X237476D02*
X238802D01*
X229518D02*
X231929D01*
X225056D02*
X225659D01*
X220354D02*
X221801D01*
X212878D02*
X218063D01*
X201182D02*
X209623D01*
X194912D02*
X197565D01*
X189245D02*
X191536D01*
X182372D02*
X185507D01*
X179117D02*
X179479D01*
X173691D02*
X177429D01*
X170194D02*
X170797D01*
X166456D02*
X167783D01*
X161633D02*
X164527D01*
X248569Y27944D02*
X248810D01*
X240731D02*
X246398D01*
X237476D02*
X238923D01*
X229518D02*
X231929D01*
X224936D02*
X225659D01*
X220354D02*
X221801D01*
X212758D02*
X218063D01*
X201182D02*
X209743D01*
X194792D02*
X197686D01*
X189125D02*
X191536D01*
X182493D02*
X185387D01*
X179117D02*
X179479D01*
X173691D02*
X177308D01*
X170074D02*
X170797D01*
X166456D02*
X167783D01*
X161633D02*
X164648D01*
X248448Y27823D02*
X248810D01*
X240731D02*
X246398D01*
X237476D02*
X239043D01*
X229638D02*
X231929D01*
X224936D02*
X225659D01*
X220113D02*
X221921D01*
X212637D02*
X218063D01*
X201182D02*
X209864D01*
X194671D02*
X197686D01*
X189125D02*
X191657D01*
X182493D02*
X185387D01*
X179117D02*
X179479D01*
X173691D02*
X177188D01*
X170074D02*
X170797D01*
X166215D02*
X167783D01*
X161754D02*
X164648D01*
X248448Y27703D02*
X248810D01*
X240611D02*
X246398D01*
X237476D02*
X239164D01*
X229638D02*
X231929D01*
X224936D02*
X225659D01*
X219992D02*
X221921D01*
X212637D02*
X218183D01*
X201062D02*
X209864D01*
X194551D02*
X197806D01*
X189125D02*
X191777D01*
X182493D02*
X185387D01*
X179117D02*
X179479D01*
X173812D02*
X177067D01*
X170074D02*
X170918D01*
X166095D02*
X167783D01*
X161754D02*
X164648D01*
X248448Y27582D02*
X248810D01*
X240370D02*
X246398D01*
X237476D02*
X239405D01*
X229638D02*
X231929D01*
X224815D02*
X225659D01*
X219751D02*
X221921D01*
X212516D02*
X218304D01*
X201062D02*
X209984D01*
X194430D02*
X197927D01*
X189125D02*
X191898D01*
X182493D02*
X185387D01*
X179117D02*
X179479D01*
X173812D02*
X176946D01*
X170074D02*
X170918D01*
X165854D02*
X167783D01*
X161754D02*
X164648D01*
X159463D02*
X159584D01*
X248448Y27462D02*
X248810D01*
X237596D02*
X246398D01*
X229759D02*
X231929D01*
X224815D02*
X225780D01*
X219510D02*
X222042D01*
X212396D02*
X218425D01*
X200941D02*
X210105D01*
X194309D02*
X198047D01*
X189004D02*
X192018D01*
X182493D02*
X185387D01*
X179117D02*
X179479D01*
X173812D02*
X176826D01*
X169953D02*
X170918D01*
X165612D02*
X167783D01*
X161874D02*
X164768D01*
X159343D02*
X159584D01*
X248327Y27341D02*
X248810D01*
X237596D02*
X246398D01*
X229759D02*
X231929D01*
X224695D02*
X225780D01*
X219148D02*
X222042D01*
X212155D02*
X218666D01*
X200821D02*
X210346D01*
X194068D02*
X198047D01*
X189004D02*
X192260D01*
X182493D02*
X185387D01*
X179117D02*
X179479D01*
X173812D02*
X176705D01*
X169953D02*
X170918D01*
X165251D02*
X167783D01*
X161874D02*
X165130D01*
X159222D02*
X159463D01*
X248327Y27221D02*
X248689D01*
X237476D02*
X246398D01*
X229879D02*
X231929D01*
X224574D02*
X225780D01*
X211914D02*
X222042D01*
X200821D02*
X210587D01*
X193707D02*
X198168D01*
X189004D02*
X192501D01*
X182493D02*
X185387D01*
X179117D02*
X179479D01*
X173812D02*
X176585D01*
X169833D02*
X170918D01*
X161995D02*
X167903D01*
X159222D02*
X159463D01*
X248327Y27100D02*
X248689D01*
X237476D02*
X246398D01*
X229879D02*
X231929D01*
X224574D02*
X225780D01*
X200700D02*
X222163D01*
X188883D02*
X198289D01*
X182493D02*
X185387D01*
X179237D02*
X179479D01*
X173812D02*
X176464D01*
X169712D02*
X170918D01*
X162116D02*
X167903D01*
X159101D02*
X159463D01*
X248327Y26979D02*
X248689D01*
X237476D02*
X246398D01*
X229879D02*
X231929D01*
X224453D02*
X225780D01*
X200459D02*
X222163D01*
X188883D02*
X198409D01*
X182493D02*
X185507D01*
X179237D02*
X179479D01*
X173812D02*
X176223D01*
X169712D02*
X170918D01*
X162116D02*
X168024D01*
X159101D02*
X159343D01*
X248327Y26859D02*
X248689D01*
X237476D02*
X246398D01*
X229879D02*
X231929D01*
X224333D02*
X225900D01*
X200218D02*
X222283D01*
X188763D02*
X198650D01*
X182493D02*
X185507D01*
X179237D02*
X179599D01*
X173812D02*
X176102D01*
X169471D02*
X170918D01*
X162116D02*
X168145D01*
X159101D02*
X159343D01*
X248207Y26738D02*
X248689D01*
X237476D02*
X246398D01*
X230000D02*
X231929D01*
X224212D02*
X225900D01*
X199977D02*
X222404D01*
X188642D02*
X199012D01*
X182493D02*
X185507D01*
X179237D02*
X179599D01*
X173812D02*
X175982D01*
X169230D02*
X170918D01*
X162236D02*
X168265D01*
X159101D02*
X159343D01*
X248207Y26618D02*
X248689D01*
X237476D02*
X246398D01*
X230000D02*
X231929D01*
X224092D02*
X225900D01*
X188642D02*
X222524D01*
X182493D02*
X185628D01*
X179237D02*
X179720D01*
X173812D02*
X175861D01*
X162236D02*
X170797D01*
X159101D02*
X159343D01*
X248207Y26497D02*
X248689D01*
X237476D02*
X246398D01*
X230000D02*
X231929D01*
X223851D02*
X226021D01*
X188522D02*
X222645D01*
X182372D02*
X185628D01*
X179237D02*
X179720D01*
X173691D02*
X175861D01*
X162357D02*
X170797D01*
X159101D02*
X159343D01*
X248207Y26377D02*
X248689D01*
X237476D02*
X246519D01*
X230000D02*
X232050D01*
X188522D02*
X226021D01*
X182372D02*
X185749D01*
X179237D02*
X179840D01*
X173691D02*
X175741D01*
X162357D02*
X170797D01*
X159101D02*
X159343D01*
X248207Y26256D02*
X248810D01*
X237476D02*
X246519D01*
X230000D02*
X232050D01*
X188401D02*
X226142D01*
X182372D02*
X185869D01*
X179237D02*
X179840D01*
X173691D02*
X175620D01*
X162357D02*
X170677D01*
X159101D02*
X159463D01*
X250860Y26135D02*
X250980D01*
X248207D02*
X248810D01*
X237476D02*
X246519D01*
X230000D02*
X232050D01*
X188160D02*
X226142D01*
X182372D02*
X185990D01*
X179237D02*
X179961D01*
X173570D02*
X175620D01*
X162357D02*
X170677D01*
X159101D02*
X159463D01*
X250860Y26015D02*
X251101D01*
X248207D02*
X248810D01*
X237476D02*
X246519D01*
X229879D02*
X232050D01*
X187798D02*
X226262D01*
X182372D02*
X186110D01*
X179237D02*
X179961D01*
X173450D02*
X175620D01*
X162357D02*
X170677D01*
X159101D02*
X159463D01*
X250860Y25894D02*
X251101D01*
X248207D02*
X248810D01*
X237476D02*
X246639D01*
X229879D02*
X232050D01*
X187075D02*
X226383D01*
X182252D02*
X186713D01*
X179237D02*
X180081D01*
X173450D02*
X175620D01*
X162357D02*
X170677D01*
X159101D02*
X159463D01*
X250860Y25774D02*
X251101D01*
X248207D02*
X248930D01*
X237476D02*
X246639D01*
X229879D02*
X232170D01*
X182252D02*
X226503D01*
X179237D02*
X180081D01*
X173329D02*
X175500D01*
X162477D02*
X170797D01*
X159222D02*
X159584D01*
X250860Y25653D02*
X251221D01*
X248086D02*
X248930D01*
X237355D02*
X246760D01*
X229759D02*
X232170D01*
X182252D02*
X226503D01*
X179237D02*
X180081D01*
X173209D02*
X175500D01*
X162477D02*
X170797D01*
X159222D02*
X159584D01*
X250860Y25532D02*
X251221D01*
X248086D02*
X248930D01*
X237355D02*
X246881D01*
X229759D02*
X232170D01*
X182131D02*
X226624D01*
X179117D02*
X180081D01*
X173088D02*
X175500D01*
X162477D02*
X170918D01*
X159222D02*
X159704D01*
X250860Y25412D02*
X251342D01*
X247966D02*
X249051D01*
X237355D02*
X247001D01*
X229638D02*
X232170D01*
X182011D02*
X226865D01*
X179117D02*
X180202D01*
X172847D02*
X175500D01*
X162477D02*
X171159D01*
X159222D02*
X159704D01*
X250980Y25291D02*
X251342D01*
X247845D02*
X249171D01*
X237234D02*
X247242D01*
X229518D02*
X232170D01*
X182011D02*
X226986D01*
X179117D02*
X180202D01*
X172485D02*
X175500D01*
X162477D02*
X171521D01*
X159222D02*
X159825D01*
X250980Y25171D02*
X251463D01*
X237234D02*
X249171D01*
X229397D02*
X232291D01*
X181890D02*
X227227D01*
X179117D02*
X180202D01*
X162477D02*
X175500D01*
X159222D02*
X159825D01*
X250980Y25050D02*
X251463D01*
X237114D02*
X249292D01*
X229156D02*
X232291D01*
X181770D02*
X227468D01*
X179117D02*
X180202D01*
X162477D02*
X175500D01*
X159222D02*
X159945D01*
X250980Y24930D02*
X251583D01*
X237114D02*
X249413D01*
X228915D02*
X232291D01*
X181649D02*
X227950D01*
X178996D02*
X180323D01*
X162357D02*
X175620D01*
X159222D02*
X159945D01*
X250980Y24809D02*
X251583D01*
X236993D02*
X249533D01*
X181287D02*
X232412D01*
X178996D02*
X180443D01*
X162357D02*
X175620D01*
X159343D02*
X160066D01*
X250860Y24689D02*
X251704D01*
X236993D02*
X249774D01*
X178876D02*
X232412D01*
X162357D02*
X175620D01*
X159343D02*
X160066D01*
X236873Y24568D02*
X251704D01*
X178876D02*
X232412D01*
X162357D02*
X175620D01*
X159343D02*
X160187D01*
X236873Y24447D02*
X251704D01*
X178755D02*
X232412D01*
X162236D02*
X175741D01*
X159343D02*
X160187D01*
X236752Y24327D02*
X251704D01*
X178755D02*
X232532D01*
X162236D02*
X175741D01*
X159343D02*
X160307D01*
X236632Y24206D02*
X251704D01*
X178635D02*
X232532D01*
X162116D02*
X175861D01*
X159222D02*
X160307D01*
X157293D02*
X157413D01*
X236511Y24086D02*
X251704D01*
X178514D02*
X232532D01*
X161995D02*
X175861D01*
X159222D02*
X160428D01*
X157172D02*
X157413D01*
X236390Y23965D02*
X251704D01*
X178393D02*
X232653D01*
X161874D02*
X175982D01*
X159222D02*
X160428D01*
X157052D02*
X157293D01*
X236270Y23844D02*
X251704D01*
X178273D02*
X232653D01*
X161754D02*
X176102D01*
X159222D02*
X160428D01*
X156931D02*
X157293D01*
X236149Y23724D02*
X251704D01*
X178152D02*
X232653D01*
X161633D02*
X176223D01*
X159222D02*
X160548D01*
X156931D02*
X157293D01*
X236149Y23603D02*
X251583D01*
X177911D02*
X232773D01*
X161392D02*
X176464D01*
X159222D02*
X160548D01*
X156810D02*
X157293D01*
X235908Y23483D02*
X251583D01*
X177549D02*
X232894D01*
X159101D02*
X176826D01*
X156810D02*
X157172D01*
X235788Y23362D02*
X251342D01*
X159101D02*
X232894D01*
X156690D02*
X157172D01*
X235546Y23242D02*
X251221D01*
X159101D02*
X233014D01*
X156690D02*
X157172D01*
X235305Y23121D02*
X251101D01*
X158981D02*
X233135D01*
X156569D02*
X157172D01*
X234944Y23000D02*
X250980D01*
X158981D02*
X233256D01*
X156569D02*
X157172D01*
X234461Y22880D02*
X250860D01*
X158860D02*
X233617D01*
X156569D02*
X157172D01*
X158740Y22759D02*
X250739D01*
X156449D02*
X157172D01*
X158619Y22639D02*
X250618D01*
X156449D02*
X157293D01*
X158498Y22518D02*
X250498D01*
X156449D02*
X157293D01*
X158257Y22398D02*
X250498D01*
X156449D02*
X157413D01*
X156328Y22277D02*
X250377D01*
X156328Y22156D02*
X250257D01*
X156328Y22036D02*
X250257D01*
X218786Y21915D02*
X250257D01*
X156328D02*
X217581D01*
X219148Y21795D02*
X250257D01*
X156328D02*
X217581D01*
X219389Y21674D02*
X250136D01*
X156328D02*
X218666D01*
X224574Y21553D02*
X250136D01*
X219510D02*
X223609D01*
X156328D02*
X218907D01*
X224815Y21433D02*
X250136D01*
X219751D02*
X223368D01*
X156328D02*
X218907D01*
X224936Y21312D02*
X250136D01*
X219872D02*
X223248D01*
X156328D02*
X219027D01*
X227468Y21192D02*
X250136D01*
X225177D02*
X227227D01*
X219992D02*
X223127D01*
X156449D02*
X219027D01*
X227468Y21071D02*
X250136D01*
X225177D02*
X227106D01*
X219992D02*
X223007D01*
X156449D02*
X219027D01*
X229759Y20951D02*
X250136D01*
X227468D02*
X229276D01*
X225297D02*
X227106D01*
X220113D02*
X223007D01*
X156449D02*
X218907D01*
X230241Y20830D02*
X250136D01*
X227468D02*
X228915D01*
X225297D02*
X227106D01*
X220233D02*
X222886D01*
X182614D02*
X218786D01*
X156569D02*
X182252D01*
X230362Y20709D02*
X250136D01*
X227468D02*
X228674D01*
X225418D02*
X227106D01*
X220233D02*
X222886D01*
X182614D02*
X218666D01*
X176464D02*
X182252D01*
X156569D02*
X174656D01*
X230482Y20589D02*
X250136D01*
X227468D02*
X228432D01*
X225418D02*
X227106D01*
X220233D02*
X222886D01*
X182734D02*
X218425D01*
X179720D02*
X182252D01*
X177308D02*
X179479D01*
X156690D02*
X174053D01*
X230603Y20468D02*
X250016D01*
X227468D02*
X228312D01*
X225418D02*
X227106D01*
X220233D02*
X222886D01*
X182734D02*
X218183D01*
X179599D02*
X182252D01*
X177670D02*
X179358D01*
X174535D02*
X174776D01*
X156690D02*
X174053D01*
X230723Y20348D02*
X250016D01*
X227468D02*
X228071D01*
X225297D02*
X227106D01*
X220354D02*
X223007D01*
X182855D02*
X217581D01*
X179599D02*
X182252D01*
X177911D02*
X179358D01*
X156690D02*
X175379D01*
X235305Y20227D02*
X250016D01*
X230723D02*
X234944D01*
X227588D02*
X227950D01*
X225297D02*
X227106D01*
X220354D02*
X223007D01*
X182855D02*
X217219D01*
X179479D02*
X182252D01*
X178152D02*
X179237D01*
X156810D02*
X175620D01*
X235788Y20107D02*
X250016D01*
X230844D02*
X234582D01*
X225297D02*
X227106D01*
X220354D02*
X223007D01*
X182975D02*
X216737D01*
X179479D02*
X182252D01*
X178273D02*
X179237D01*
X156810D02*
X175861D01*
X235908Y19986D02*
X250136D01*
X230844D02*
X234341D01*
X225177D02*
X227106D01*
X220354D02*
X223127D01*
X182975D02*
X216375D01*
X179358D02*
X182252D01*
X178393D02*
X179117D01*
X156810D02*
X175982D01*
X236149Y19865D02*
X250136D01*
X230844D02*
X234220D01*
X225056D02*
X227106D01*
X220354D02*
X223248D01*
X183096D02*
X216013D01*
X179358D02*
X182372D01*
X178514D02*
X179117D01*
X156810D02*
X176102D01*
X236270Y19745D02*
X250136D01*
X230844D02*
X234100D01*
X225056D02*
X227106D01*
X220354D02*
X223368D01*
X183096D02*
X215531D01*
X179358D02*
X182372D01*
X178514D02*
X179117D01*
X156931D02*
X176102D01*
X236390Y19624D02*
X250136D01*
X230965D02*
X234100D01*
X224936D02*
X227106D01*
X220233D02*
X223368D01*
X207693D02*
X215290D01*
X183217D02*
X207573D01*
X179237D02*
X182372D01*
X178635D02*
X178996D01*
X156931D02*
X176223D01*
X236390Y19504D02*
X250136D01*
X230965D02*
X233979D01*
X224815D02*
X227106D01*
X220233D02*
X223489D01*
X207934D02*
X214928D01*
X200097D02*
X207452D01*
X193345D02*
X199735D01*
X183337D02*
X193224D01*
X179237D02*
X182372D01*
X178635D02*
X178996D01*
X156931D02*
X176223D01*
X236390Y19383D02*
X250136D01*
X230965D02*
X233979D01*
X224695D02*
X227106D01*
X220233D02*
X223609D01*
X208176D02*
X214687D01*
X200218D02*
X207332D01*
X193465D02*
X199615D01*
X183337D02*
X193104D01*
X179117D02*
X182372D01*
X178755D02*
X178876D01*
X157052D02*
X176223D01*
X236511Y19263D02*
X250136D01*
X230965D02*
X233979D01*
X224574D02*
X227227D01*
X220113D02*
X223851D01*
X208417D02*
X214566D01*
X200459D02*
X207211D01*
X193707D02*
X199494D01*
X183458D02*
X192863D01*
X179117D02*
X182372D01*
X157052D02*
X176223D01*
X236511Y19142D02*
X250136D01*
X230965D02*
X233979D01*
X224333D02*
X227227D01*
X219992D02*
X223971D01*
X208779D02*
X214325D01*
X200700D02*
X207211D01*
X193827D02*
X199374D01*
X189245D02*
X192742D01*
X183458D02*
X189125D01*
X179117D02*
X182372D01*
X157052D02*
X176344D01*
X236511Y19021D02*
X250136D01*
X230965D02*
X233979D01*
X219992D02*
X227227D01*
X209020D02*
X214205D01*
X200821D02*
X207090D01*
X194068D02*
X199253D01*
X189366D02*
X192621D01*
X183578D02*
X189004D01*
X179117D02*
X182372D01*
X157052D02*
X176344D01*
X236390Y18901D02*
X250257D01*
X230965D02*
X234100D01*
X229879D02*
X230482D01*
X219872D02*
X227347D01*
X209261D02*
X214084D01*
X201062D02*
X206970D01*
X194189D02*
X199012D01*
X189486D02*
X192621D01*
X183699D02*
X189004D01*
X178996D02*
X182372D01*
X157172D02*
X176344D01*
X236390Y18780D02*
X250257D01*
X230965D02*
X234100D01*
X229638D02*
X230603D01*
X219751D02*
X227468D01*
X209623D02*
X213963D01*
X201303D02*
X206849D01*
X194430D02*
X198891D01*
X189486D02*
X192501D01*
X183819D02*
X188883D01*
X178996D02*
X182372D01*
X157172D02*
X176344D01*
X236390Y18660D02*
X250257D01*
X230965D02*
X234220D01*
X229518D02*
X230603D01*
X224092D02*
X227588D01*
X219630D02*
X223851D01*
X209864D02*
X213843D01*
X201544D02*
X206849D01*
X194551D02*
X198650D01*
X189607D02*
X192380D01*
X183819D02*
X188763D01*
X178996D02*
X182372D01*
X157172D02*
X176344D01*
X236270Y18539D02*
X250257D01*
X230965D02*
X234220D01*
X229276D02*
X230603D01*
X224212D02*
X227709D01*
X219389D02*
X223609D01*
X210105D02*
X213722D01*
X201906D02*
X206729D01*
X194671D02*
X198530D01*
X189848D02*
X192260D01*
X183940D02*
X188642D01*
X178996D02*
X182493D01*
X157293D02*
X176344D01*
X236149Y18418D02*
X250377D01*
X230965D02*
X234341D01*
X229035D02*
X230603D01*
X224333D02*
X227950D01*
X219148D02*
X223489D01*
X210346D02*
X213722D01*
X202147D02*
X206608D01*
X194912D02*
X198289D01*
X189969D02*
X192260D01*
X184061D02*
X188522D01*
X178996D02*
X182493D01*
X157293D02*
X176344D01*
X236149Y18298D02*
X250377D01*
X230965D02*
X234461D01*
X224453D02*
X230482D01*
X218907D02*
X223368D01*
X210587D02*
X213602D01*
X209261D02*
X209382D01*
X202509D02*
X206488D01*
X195033D02*
X198047D01*
X190089D02*
X192139D01*
X184181D02*
X188281D01*
X178996D02*
X182493D01*
X157293D02*
X176344D01*
X236029Y18177D02*
X250377D01*
X230965D02*
X234582D01*
X224574D02*
X230482D01*
X218666D02*
X223127D01*
X210828D02*
X213602D01*
X209140D02*
X209382D01*
X202870D02*
X206488D01*
X195274D02*
X197806D01*
X190331D02*
X192139D01*
X184302D02*
X188160D01*
X178996D02*
X182493D01*
X157293D02*
X176464D01*
X235788Y18057D02*
X250377D01*
X230844D02*
X234582D01*
X224695D02*
X230362D01*
X218304D02*
X223007D01*
X210949D02*
X213481D01*
X209140D02*
X209382D01*
X203232D02*
X206367D01*
X201544D02*
X201665D01*
X195395D02*
X197444D01*
X190451D02*
X192018D01*
X184422D02*
X188040D01*
X178996D02*
X182493D01*
X157293D02*
X176464D01*
X235667Y17936D02*
X250498D01*
X230844D02*
X234702D01*
X224815D02*
X230241D01*
X217822D02*
X222765D01*
X211190D02*
X213481D01*
X209020D02*
X209382D01*
X203473D02*
X206246D01*
X201303D02*
X201665D01*
X195515D02*
X197083D01*
X190813D02*
X192018D01*
X184543D02*
X187798D01*
X178996D02*
X182493D01*
X157413D02*
X176464D01*
X235546Y17816D02*
X250498D01*
X230844D02*
X234823D01*
X224936D02*
X230120D01*
X217581D02*
X222524D01*
X211311D02*
X213361D01*
X208899D02*
X209382D01*
X203714D02*
X206126D01*
X201182D02*
X201665D01*
X195756D02*
X196721D01*
X195033D02*
X195274D01*
X191054D02*
X192018D01*
X184663D02*
X187557D01*
X178996D02*
X182493D01*
X157413D02*
X176464D01*
X235426Y17695D02*
X250618D01*
X230844D02*
X235064D01*
X225177D02*
X229879D01*
X217581D02*
X222283D01*
X216737D02*
X217339D01*
X211431D02*
X213361D01*
X208899D02*
X209382D01*
X203956D02*
X206126D01*
X200941D02*
X201665D01*
X194792D02*
X196721D01*
X190933D02*
X192018D01*
X184784D02*
X187196D01*
X178996D02*
X182493D01*
X157413D02*
X176464D01*
X230844Y17574D02*
X250618D01*
X225297D02*
X229638D01*
X217701D02*
X222042D01*
X216495D02*
X217339D01*
X211552D02*
X213361D01*
X208779D02*
X209382D01*
X204076D02*
X206005D01*
X200821D02*
X201665D01*
X194671D02*
X197203D01*
X190813D02*
X192018D01*
X185025D02*
X187075D01*
X179117D02*
X181046D01*
X173812D02*
X176464D01*
X157413D02*
X173450D01*
X230844Y17454D02*
X250618D01*
X225418D02*
X229397D01*
X217822D02*
X221680D01*
X216254D02*
X217339D01*
X211552D02*
X213240D01*
X208658D02*
X209382D01*
X204076D02*
X205885D01*
X200579D02*
X201665D01*
X194671D02*
X197324D01*
X190692D02*
X192018D01*
X185146D02*
X187437D01*
X179117D02*
X180684D01*
X174053D02*
X176464D01*
X157413D02*
X173329D01*
X230844Y17333D02*
X250739D01*
X226744D02*
X228915D01*
X225539D02*
X226624D01*
X217942D02*
X221680D01*
X216013D02*
X217339D01*
X211672D02*
X213240D01*
X208658D02*
X209382D01*
X204076D02*
X205764D01*
X200338D02*
X201665D01*
X194671D02*
X197444D01*
X190572D02*
X192018D01*
X185387D02*
X187798D01*
X179117D02*
X180684D01*
X174294D02*
X176464D01*
X157413D02*
X173209D01*
X235064Y17213D02*
X250739D01*
X230844D02*
X234702D01*
X225659D02*
X226503D01*
X219872D02*
X222163D01*
X218304D02*
X219630D01*
X215893D02*
X217219D01*
X211672D02*
X213240D01*
X208537D02*
X209382D01*
X204197D02*
X205764D01*
X200218D02*
X201785D01*
X194671D02*
X197565D01*
X190572D02*
X192018D01*
X185749D02*
X187919D01*
X179117D02*
X180805D01*
X174535D02*
X176585D01*
X157293D02*
X173088D01*
X235185Y17092D02*
X250739D01*
X230844D02*
X234582D01*
X225780D02*
X226503D01*
X219872D02*
X222283D01*
X215772D02*
X217219D01*
X211793D02*
X213240D01*
X208417D02*
X209382D01*
X204197D02*
X205644D01*
X200218D02*
X201785D01*
X194671D02*
X197565D01*
X190572D02*
X192018D01*
X186110D02*
X187919D01*
X179117D02*
X180805D01*
X174776D02*
X176585D01*
X157293D02*
X173088D01*
X235305Y16972D02*
X250860D01*
X230844D02*
X234341D01*
X225900D02*
X226503D01*
X219872D02*
X222404D01*
X215772D02*
X217219D01*
X211793D02*
X213240D01*
X208417D02*
X209382D01*
X204197D02*
X205523D01*
X200218D02*
X201785D01*
X194671D02*
X197565D01*
X190692D02*
X192018D01*
X186231D02*
X188040D01*
X179117D02*
X180805D01*
X175017D02*
X176585D01*
X157293D02*
X172968D01*
X239405Y16851D02*
X250860D01*
X235426D02*
X239164D01*
X230844D02*
X234220D01*
X226021D02*
X226624D01*
X225177D02*
X225780D01*
X219872D02*
X222404D01*
X215772D02*
X217219D01*
X211793D02*
X213240D01*
X208296D02*
X209382D01*
X204197D02*
X205644D01*
X200218D02*
X201785D01*
X194671D02*
X197565D01*
X190692D02*
X192018D01*
X185749D02*
X188040D01*
X179117D02*
X180805D01*
X175259D02*
X176585D01*
X157293D02*
X172968D01*
X239526Y16730D02*
X250980D01*
X235546D02*
X238923D01*
X230844D02*
X233979D01*
X226021D02*
X226744D01*
X225177D02*
X225900D01*
X219872D02*
X222404D01*
X215772D02*
X217219D01*
X211793D02*
X213119D01*
X208176D02*
X209382D01*
X204197D02*
X205885D01*
X200218D02*
X201785D01*
X194671D02*
X197565D01*
X190692D02*
X192018D01*
X185146D02*
X188040D01*
X179117D02*
X180805D01*
X175500D02*
X176585D01*
X157293D02*
X172847D01*
X247242Y16610D02*
X250860D01*
X239646D02*
X246881D01*
X235667D02*
X238681D01*
X230844D02*
X233738D01*
X225056D02*
X226624D01*
X219751D02*
X222404D01*
X215651D02*
X217219D01*
X211793D02*
X213119D01*
X208176D02*
X209382D01*
X204197D02*
X206126D01*
X200218D02*
X201785D01*
X194671D02*
X197565D01*
X190692D02*
X192018D01*
X185146D02*
X188040D01*
X179237D02*
X180805D01*
X175741D02*
X176585D01*
X166939D02*
X172847D01*
X157293D02*
X166456D01*
X247725Y16489D02*
X250860D01*
X239767D02*
X246760D01*
X235788D02*
X238561D01*
X230844D02*
X233497D01*
X225056D02*
X226503D01*
X219751D02*
X222404D01*
X215651D02*
X217219D01*
X211793D02*
X213119D01*
X208055D02*
X209382D01*
X204317D02*
X206246D01*
X200218D02*
X201785D01*
X194671D02*
X197686D01*
X190692D02*
X192018D01*
X185146D02*
X188040D01*
X181770D02*
X182614D01*
X179237D02*
X180805D01*
X175982D02*
X176585D01*
X167421D02*
X172726D01*
X157293D02*
X166456D01*
X248086Y16369D02*
X250739D01*
X239887D02*
X247122D01*
X235908D02*
X238440D01*
X230965D02*
X233256D01*
X225056D02*
X226383D01*
X219751D02*
X222404D01*
X215651D02*
X217219D01*
X211914D02*
X213119D01*
X207934D02*
X209382D01*
X204317D02*
X206488D01*
X200218D02*
X201785D01*
X194671D02*
X197686D01*
X190692D02*
X192139D01*
X185266D02*
X188040D01*
X179237D02*
X182614D01*
X176344D02*
X176585D01*
X168024D02*
X172726D01*
X157293D02*
X166336D01*
X248327Y16248D02*
X250739D01*
X240008D02*
X247604D01*
X236029D02*
X238320D01*
X230965D02*
X233014D01*
X225056D02*
X226503D01*
X219751D02*
X222404D01*
X215651D02*
X217219D01*
X211914D02*
X213119D01*
X207934D02*
X209382D01*
X204317D02*
X206608D01*
X200218D02*
X201785D01*
X194671D02*
X197686D01*
X190692D02*
X192139D01*
X185266D02*
X188040D01*
X179237D02*
X182614D01*
X176585D02*
X176705D01*
X175620D02*
X175861D01*
X168506D02*
X172726D01*
X157293D02*
X166336D01*
X248569Y16128D02*
X250739D01*
X240128D02*
X247845D01*
X236149D02*
X238199D01*
X231085D02*
X232532D01*
X225056D02*
X227468D01*
X219751D02*
X222404D01*
X215651D02*
X217219D01*
X211914D02*
X213119D01*
X207814D02*
X209382D01*
X204317D02*
X206849D01*
X200218D02*
X201785D01*
X194671D02*
X197686D01*
X190692D02*
X192139D01*
X185266D02*
X188160D01*
X179237D02*
X182614D01*
X175379D02*
X176223D01*
X168989D02*
X172606D01*
X157293D02*
X166215D01*
X248689Y16007D02*
X250618D01*
X243384D02*
X248086D01*
X240249D02*
X243143D01*
X236270D02*
X238078D01*
X231206D02*
X232653D01*
X225056D02*
X227588D01*
X219751D02*
X222404D01*
X215651D02*
X217219D01*
X211914D02*
X213119D01*
X207693D02*
X209382D01*
X204317D02*
X207090D01*
X200218D02*
X201785D01*
X194671D02*
X197686D01*
X190692D02*
X192139D01*
X185266D02*
X188160D01*
X179237D02*
X182614D01*
X175259D02*
X176464D01*
X169591D02*
X172606D01*
X157293D02*
X166215D01*
X248810Y15886D02*
X250618D01*
X243625D02*
X248207D01*
X240490D02*
X243022D01*
X236390D02*
X237958D01*
X231688D02*
X233014D01*
X225056D02*
X227588D01*
X219751D02*
X222404D01*
X215651D02*
X217219D01*
X211914D02*
X213119D01*
X207814D02*
X209382D01*
X204317D02*
X207211D01*
X200218D02*
X201785D01*
X194671D02*
X197686D01*
X190692D02*
X192139D01*
X185266D02*
X188160D01*
X179237D02*
X182734D01*
X175138D02*
X176585D01*
X169953D02*
X172606D01*
X157293D02*
X166095D01*
X248930Y15766D02*
X250498D01*
X243746D02*
X248207D01*
X240611D02*
X242781D01*
X236511D02*
X237837D01*
X231688D02*
X233256D01*
X225056D02*
X227588D01*
X219751D02*
X222404D01*
X215651D02*
X217219D01*
X211914D02*
X213119D01*
X207934D02*
X209382D01*
X204317D02*
X207452D01*
X200218D02*
X201785D01*
X194671D02*
X197686D01*
X190692D02*
X192139D01*
X185266D02*
X188160D01*
X179237D02*
X182734D01*
X175138D02*
X176705D01*
X170194D02*
X172485D01*
X168506D02*
X168627D01*
X157293D02*
X166095D01*
X249051Y15645D02*
X250498D01*
X243866D02*
X248207D01*
X240731D02*
X242660D01*
X236632D02*
X237717D01*
X231688D02*
X233376D01*
X230603D02*
X231447D01*
X225056D02*
X227588D01*
X219751D02*
X222404D01*
X215651D02*
X217219D01*
X211914D02*
X213119D01*
X208176D02*
X209382D01*
X204317D02*
X207573D01*
X200218D02*
X201785D01*
X194671D02*
X197686D01*
X190692D02*
X192139D01*
X185266D02*
X188160D01*
X179358D02*
X182734D01*
X175138D02*
X176705D01*
X170435D02*
X172485D01*
X168506D02*
X168627D01*
X161754D02*
X165974D01*
X157172D02*
X161392D01*
X249171Y15525D02*
X250377D01*
X243987D02*
X248086D01*
X240852D02*
X242540D01*
X236752D02*
X237717D01*
X230603D02*
X233376D01*
X224936D02*
X227588D01*
X219751D02*
X222404D01*
X215651D02*
X217219D01*
X211914D02*
X213119D01*
X208417D02*
X209382D01*
X204317D02*
X207814D01*
X200218D02*
X201785D01*
X194671D02*
X197686D01*
X190692D02*
X192139D01*
X185266D02*
X188160D01*
X179358D02*
X182734D01*
X175138D02*
X176705D01*
X170677D02*
X172485D01*
X168386D02*
X168627D01*
X161995D02*
X165974D01*
X157172D02*
X161272D01*
X249171Y15404D02*
X250377D01*
X244107D02*
X247845D01*
X240972D02*
X242299D01*
X236873D02*
X237596D01*
X236149D02*
X236511D01*
X230603D02*
X233376D01*
X224936D02*
X227588D01*
X219751D02*
X222283D01*
X215651D02*
X217219D01*
X211914D02*
X213119D01*
X208537D02*
X209382D01*
X204317D02*
X208055D01*
X200218D02*
X201785D01*
X194671D02*
X197686D01*
X190692D02*
X192139D01*
X185266D02*
X188160D01*
X179358D02*
X182734D01*
X175138D02*
X176705D01*
X170797D02*
X172606D01*
X168386D02*
X168627D01*
X162236D02*
X165854D01*
X157172D02*
X161151D01*
X249292Y15283D02*
X250257D01*
X244228D02*
X247242D01*
X241093D02*
X242178D01*
X236993D02*
X237596D01*
X236029D02*
X236752D01*
X230603D02*
X233376D01*
X224936D02*
X227588D01*
X219751D02*
X222283D01*
X215651D02*
X217219D01*
X211914D02*
X213119D01*
X208779D02*
X209382D01*
X204317D02*
X208176D01*
X200218D02*
X201785D01*
X194671D02*
X197686D01*
X190692D02*
X192139D01*
X185266D02*
X188160D01*
X179358D02*
X182734D01*
X175138D02*
X176826D01*
X170918D02*
X172606D01*
X168265D02*
X168747D01*
X162477D02*
X165854D01*
X157172D02*
X161030D01*
X249292Y15163D02*
X250257D01*
X244349D02*
X246519D01*
X241213D02*
X242057D01*
X236993D02*
X237596D01*
X236029D02*
X236873D01*
X230603D02*
X233256D01*
X224936D02*
X227588D01*
X219751D02*
X222283D01*
X215651D02*
X217098D01*
X211914D02*
X212999D01*
X209020D02*
X209261D01*
X204317D02*
X208417D01*
X200218D02*
X201785D01*
X194671D02*
X197686D01*
X190692D02*
X192139D01*
X185266D02*
X188160D01*
X179358D02*
X182734D01*
X175138D02*
X176826D01*
X171038D02*
X172606D01*
X168265D02*
X168747D01*
X162719D02*
X165854D01*
X157172D02*
X160910D01*
X249413Y15042D02*
X250136D01*
X244469D02*
X246157D01*
X241334D02*
X241937D01*
X240490D02*
X240852D01*
X236029D02*
X237476D01*
X230482D02*
X233256D01*
X224936D02*
X227588D01*
X219751D02*
X222283D01*
X215651D02*
X217098D01*
X211914D02*
X212999D01*
X204317D02*
X208537D01*
X200218D02*
X201785D01*
X194671D02*
X197686D01*
X190692D02*
X192139D01*
X185387D02*
X188160D01*
X179358D02*
X182734D01*
X175138D02*
X176826D01*
X171038D02*
X172606D01*
X168145D02*
X168747D01*
X162960D02*
X165733D01*
X157172D02*
X160789D01*
X249413Y14922D02*
X250136D01*
X244590D02*
X246037D01*
X241455D02*
X241816D01*
X240249D02*
X241093D01*
X235908D02*
X237476D01*
X230482D02*
X233256D01*
X224936D02*
X227588D01*
X219751D02*
X222283D01*
X215651D02*
X217098D01*
X211914D02*
X212999D01*
X204317D02*
X208779D01*
X200218D02*
X201785D01*
X194792D02*
X197686D01*
X190813D02*
X192139D01*
X185387D02*
X188160D01*
X179358D02*
X182734D01*
X175138D02*
X176826D01*
X171159D02*
X172606D01*
X168145D02*
X168747D01*
X163080D02*
X165733D01*
X157172D02*
X160789D01*
X249413Y14801D02*
X250016D01*
X244710D02*
X246037D01*
X240128D02*
X241213D01*
X235908D02*
X237476D01*
X230482D02*
X233256D01*
X224936D02*
X227588D01*
X219751D02*
X222283D01*
X215651D02*
X217098D01*
X211914D02*
X212999D01*
X204317D02*
X209020D01*
X200218D02*
X201785D01*
X194792D02*
X197686D01*
X190813D02*
X192139D01*
X185387D02*
X188160D01*
X179358D02*
X182734D01*
X175138D02*
X176826D01*
X171159D02*
X172606D01*
X168145D02*
X168747D01*
X163321D02*
X165612D01*
X158016D02*
X160669D01*
X157172D02*
X157896D01*
X249413Y14681D02*
X250016D01*
X244831D02*
X245916D01*
X240008D02*
X241334D01*
X235908D02*
X237476D01*
X230482D02*
X233256D01*
X224936D02*
X227588D01*
X219751D02*
X222283D01*
X215651D02*
X217098D01*
X211914D02*
X212999D01*
X204317D02*
X209140D01*
X200218D02*
X201785D01*
X194792D02*
X197686D01*
X190813D02*
X192139D01*
X185387D02*
X188160D01*
X179479D02*
X182734D01*
X175259D02*
X176826D01*
X171280D02*
X172606D01*
X168024D02*
X168747D01*
X163563D02*
X165612D01*
X158257D02*
X160669D01*
X157172D02*
X157775D01*
X249533Y14560D02*
X249895D01*
X245072D02*
X245916D01*
X240008D02*
X241455D01*
X235908D02*
X237355D01*
X230482D02*
X233256D01*
X224936D02*
X227588D01*
X219751D02*
X222283D01*
X215531D02*
X217098D01*
X211914D02*
X212999D01*
X204317D02*
X209261D01*
X200218D02*
X201785D01*
X194792D02*
X197686D01*
X190813D02*
X192139D01*
X185387D02*
X188160D01*
X179479D02*
X182855D01*
X175259D02*
X176826D01*
X171280D02*
X172606D01*
X168024D02*
X168868D01*
X163804D02*
X165492D01*
X158498D02*
X160548D01*
X157172D02*
X157775D01*
X249533Y14439D02*
X249895D01*
X245193D02*
X245795D01*
X240008D02*
X241575D01*
X235908D02*
X237355D01*
X230362D02*
X233256D01*
X224936D02*
X227588D01*
X219630D02*
X222283D01*
X215531D02*
X217098D01*
X211793D02*
X212999D01*
X204317D02*
X209261D01*
X200218D02*
X201785D01*
X194792D02*
X197686D01*
X190813D02*
X192260D01*
X185387D02*
X188160D01*
X179479D02*
X182855D01*
X175259D02*
X176826D01*
X171280D02*
X172726D01*
X167903D02*
X168868D01*
X164045D02*
X165492D01*
X158619D02*
X160548D01*
X157172D02*
X157654D01*
X249413Y14319D02*
X249895D01*
X245313D02*
X245795D01*
X240008D02*
X241575D01*
X235908D02*
X237355D01*
X230362D02*
X233135D01*
X224936D02*
X227588D01*
X219630D02*
X222283D01*
X215531D02*
X217098D01*
X211793D02*
X212999D01*
X204317D02*
X209140D01*
X200218D02*
X201785D01*
X194792D02*
X197686D01*
X190813D02*
X192260D01*
X185387D02*
X188160D01*
X179479D02*
X182855D01*
X175259D02*
X176946D01*
X171400D02*
X172726D01*
X167903D02*
X168868D01*
X164286D02*
X165371D01*
X158860D02*
X160548D01*
X157172D02*
X157654D01*
X249413Y14198D02*
X249895D01*
X245434D02*
X245795D01*
X244349D02*
X244831D01*
X239887D02*
X241575D01*
X235908D02*
X237355D01*
X230362D02*
X233135D01*
X224815D02*
X227588D01*
X219630D02*
X222283D01*
X215531D02*
X217098D01*
X211793D02*
X212999D01*
X204317D02*
X209140D01*
X200218D02*
X201785D01*
X194792D02*
X197686D01*
X190813D02*
X192260D01*
X185387D02*
X188160D01*
X179479D02*
X182855D01*
X175259D02*
X176946D01*
X171400D02*
X172726D01*
X167783D02*
X168868D01*
X164407D02*
X165371D01*
X159101D02*
X160428D01*
X157172D02*
X157534D01*
X249413Y14078D02*
X249895D01*
X245554D02*
X245675D01*
X244228D02*
X245072D01*
X239887D02*
X241575D01*
X235788D02*
X237355D01*
X230362D02*
X233135D01*
X224815D02*
X227588D01*
X219630D02*
X222163D01*
X215531D02*
X217098D01*
X211793D02*
X212999D01*
X204317D02*
X209020D01*
X200218D02*
X201785D01*
X194792D02*
X197686D01*
X190813D02*
X192260D01*
X185387D02*
X188281D01*
X179479D02*
X182855D01*
X175259D02*
X176946D01*
X171400D02*
X172726D01*
X167783D02*
X168868D01*
X164286D02*
X165251D01*
X163321D02*
X164165D01*
X159343D02*
X160428D01*
X157052D02*
X157534D01*
X249413Y13957D02*
X249774D01*
X244107D02*
X245193D01*
X239887D02*
X241455D01*
X235788D02*
X237234D01*
X230362D02*
X233135D01*
X224815D02*
X227588D01*
X219630D02*
X222163D01*
X215531D02*
X217098D01*
X211793D02*
X212999D01*
X204317D02*
X209020D01*
X200218D02*
X201785D01*
X194792D02*
X197686D01*
X190813D02*
X192260D01*
X185387D02*
X188281D01*
X179479D02*
X182855D01*
X175259D02*
X176946D01*
X171521D02*
X172726D01*
X167783D02*
X168868D01*
X163080D02*
X165251D01*
X159463D02*
X160428D01*
X157052D02*
X157534D01*
X249292Y13837D02*
X249774D01*
X244107D02*
X245434D01*
X239887D02*
X241455D01*
X235788D02*
X237234D01*
X230241D02*
X233135D01*
X224815D02*
X227588D01*
X219630D02*
X222163D01*
X215531D02*
X217098D01*
X211793D02*
X212999D01*
X204317D02*
X208899D01*
X200218D02*
X201785D01*
X194792D02*
X197686D01*
X190813D02*
X192260D01*
X185387D02*
X188281D01*
X179479D02*
X182855D01*
X175259D02*
X176946D01*
X171521D02*
X172726D01*
X167662D02*
X168989D01*
X163080D02*
X165130D01*
X159704D02*
X160428D01*
X156931D02*
X157413D01*
X249292Y13716D02*
X249774D01*
X244107D02*
X245554D01*
X239887D02*
X241455D01*
X235788D02*
X237234D01*
X230241D02*
X233135D01*
X224815D02*
X227588D01*
X219630D02*
X222163D01*
X215531D02*
X217098D01*
X211793D02*
X212999D01*
X204317D02*
X208779D01*
X200218D02*
X201785D01*
X194792D02*
X197686D01*
X190813D02*
X192260D01*
X185387D02*
X188281D01*
X179599D02*
X182855D01*
X175379D02*
X176946D01*
X171521D02*
X172726D01*
X167662D02*
X168989D01*
X163080D02*
X165130D01*
X159945D02*
X160428D01*
X156931D02*
X157413D01*
X249171Y13596D02*
X249654D01*
X243987D02*
X245675D01*
X239767D02*
X241455D01*
X235788D02*
X237234D01*
X230241D02*
X233135D01*
X224815D02*
X227588D01*
X219630D02*
X222163D01*
X215531D02*
X217098D01*
X211672D02*
X213119D01*
X204317D02*
X208658D01*
X200218D02*
X201785D01*
X194792D02*
X197686D01*
X190813D02*
X192260D01*
X185507D02*
X188281D01*
X179599D02*
X182855D01*
X175379D02*
X176946D01*
X171521D02*
X172726D01*
X167542D02*
X168989D01*
X163080D02*
X165251D01*
X160187D02*
X160428D01*
X156931D02*
X157293D01*
X249051Y13475D02*
X249654D01*
X243987D02*
X245554D01*
X239767D02*
X241455D01*
X235788D02*
X237234D01*
X230241D02*
X233014D01*
X224815D02*
X227588D01*
X219630D02*
X222163D01*
X215531D02*
X217098D01*
X211672D02*
X213119D01*
X205402D02*
X208537D01*
X204317D02*
X205282D01*
X200218D02*
X201785D01*
X194792D02*
X197686D01*
X190813D02*
X192260D01*
X185507D02*
X188281D01*
X179599D02*
X182855D01*
X175379D02*
X176946D01*
X171521D02*
X172847D01*
X167542D02*
X168989D01*
X163080D02*
X165492D01*
X156810D02*
X157293D01*
X248930Y13354D02*
X249533D01*
X243987D02*
X245554D01*
X239767D02*
X241334D01*
X235788D02*
X237114D01*
X230241D02*
X233014D01*
X224815D02*
X227588D01*
X219630D02*
X222163D01*
X215531D02*
X217098D01*
X212637D02*
X213119D01*
X211672D02*
X212034D01*
X205644D02*
X208417D01*
X204317D02*
X205282D01*
X200218D02*
X201785D01*
X194912D02*
X197686D01*
X190813D02*
X192260D01*
X185507D02*
X188281D01*
X179599D02*
X182855D01*
X175379D02*
X177067D01*
X171641D02*
X172847D01*
X167421D02*
X168989D01*
X163080D02*
X165854D01*
X159825D02*
X160066D01*
X156810D02*
X157293D01*
X248810Y13234D02*
X249413D01*
X243987D02*
X245554D01*
X239767D02*
X241334D01*
X235667D02*
X237114D01*
X230120D02*
X233014D01*
X224815D02*
X227588D01*
X219630D02*
X222163D01*
X215531D02*
X216978D01*
X212637D02*
X213119D01*
X211552D02*
X212034D01*
X205885D02*
X208176D01*
X204317D02*
X205402D01*
X200218D02*
X201785D01*
X194912D02*
X197686D01*
X190813D02*
X192260D01*
X185507D02*
X188281D01*
X179599D02*
X182975D01*
X175379D02*
X177067D01*
X171641D02*
X172847D01*
X167421D02*
X168989D01*
X163080D02*
X166095D01*
X159825D02*
X160307D01*
X156690D02*
X157172D01*
X248569Y13113D02*
X249292D01*
X243987D02*
X245554D01*
X239767D02*
X241334D01*
X235667D02*
X237114D01*
X230120D02*
X233014D01*
X224815D02*
X227588D01*
X219630D02*
X222163D01*
X215531D02*
X216737D01*
X212758D02*
X213119D01*
X211552D02*
X212034D01*
X206126D02*
X207934D01*
X204920D02*
X205644D01*
X204317D02*
X204800D01*
X200218D02*
X201785D01*
X194912D02*
X197686D01*
X190813D02*
X192260D01*
X185507D02*
X188281D01*
X179599D02*
X182975D01*
X175379D02*
X177067D01*
X171641D02*
X172847D01*
X167421D02*
X169109D01*
X163201D02*
X166456D01*
X159825D02*
X160548D01*
X156690D02*
X157172D01*
X248327Y12993D02*
X249171D01*
X243866D02*
X245554D01*
X239646D02*
X241334D01*
X235667D02*
X237114D01*
X230120D02*
X233014D01*
X224815D02*
X227588D01*
X219630D02*
X222163D01*
X215531D02*
X216495D01*
X212758D02*
X213240D01*
X211552D02*
X211914D01*
X206367D02*
X207693D01*
X205041D02*
X205764D01*
X204317D02*
X204800D01*
X200338D02*
X201785D01*
X194912D02*
X197565D01*
X190813D02*
X192260D01*
X185507D02*
X188281D01*
X179599D02*
X182975D01*
X175379D02*
X177067D01*
X171641D02*
X172847D01*
X167542D02*
X169109D01*
X163201D02*
X166818D01*
X159704D02*
X160548D01*
X156569D02*
X157052D01*
X248086Y12872D02*
X249051D01*
X243866D02*
X245434D01*
X239646D02*
X241334D01*
X235667D02*
X237114D01*
X230120D02*
X233014D01*
X224695D02*
X227588D01*
X219630D02*
X222163D01*
X215531D02*
X216254D01*
X212758D02*
X213240D01*
X211431D02*
X211914D01*
X205161D02*
X206005D01*
X204317D02*
X204800D01*
X200459D02*
X201785D01*
X195033D02*
X197565D01*
X190933D02*
X192260D01*
X185507D02*
X188281D01*
X179599D02*
X182975D01*
X175379D02*
X177067D01*
X171641D02*
X172847D01*
X167903D02*
X169109D01*
X163201D02*
X167059D01*
X159704D02*
X160548D01*
X156569D02*
X157052D01*
X248086Y12752D02*
X248810D01*
X243866D02*
X245434D01*
X239646D02*
X241213D01*
X235667D02*
X236993D01*
X230000D02*
X233014D01*
X224695D02*
X227588D01*
X219630D02*
X222042D01*
X215531D02*
X216013D01*
X212878D02*
X213361D01*
X211431D02*
X211914D01*
X205402D02*
X206126D01*
X204317D02*
X204800D01*
X200700D02*
X201785D01*
X196600D02*
X197444D01*
X195274D02*
X196480D01*
X191174D02*
X192260D01*
X185507D02*
X188281D01*
X179720D02*
X182975D01*
X175500D02*
X177067D01*
X171641D02*
X172847D01*
X168265D02*
X169109D01*
X163201D02*
X167421D01*
X159584D02*
X160548D01*
X156569D02*
X156931D01*
X248086Y12631D02*
X248810D01*
X243866D02*
X245434D01*
X239646D02*
X241213D01*
X235667D02*
X236993D01*
X230000D02*
X232894D01*
X224695D02*
X227588D01*
X219751D02*
X222042D01*
X215531D02*
X215772D01*
X212878D02*
X213361D01*
X211311D02*
X211793D01*
X205523D02*
X206246D01*
X204317D02*
X204800D01*
X200941D02*
X201665D01*
X200218D02*
X200459D01*
X196962D02*
X197324D01*
X195756D02*
X196480D01*
X191416D02*
X192139D01*
X185507D02*
X188160D01*
X179720D02*
X182975D01*
X175500D02*
X177067D01*
X171762D02*
X172847D01*
X168506D02*
X169109D01*
X163201D02*
X167662D01*
X160187D02*
X160669D01*
X159584D02*
X160066D01*
X156449D02*
X156931D01*
X247966Y12510D02*
X248689D01*
X243866D02*
X245434D01*
X239646D02*
X241213D01*
X235667D02*
X236993D01*
X230000D02*
X232894D01*
X226383D02*
X227588D01*
X224695D02*
X225177D01*
X219872D02*
X222042D01*
X215531D02*
X215651D01*
X212999D02*
X213602D01*
X211190D02*
X211672D01*
X205764D02*
X206488D01*
X204317D02*
X204679D01*
X200218D02*
X200579D01*
X195636D02*
X196600D01*
X191657D02*
X192018D01*
X190933D02*
X191054D01*
X185507D02*
X188040D01*
X179720D02*
X182855D01*
X175500D02*
X177067D01*
X171762D02*
X172968D01*
X168868D02*
X169109D01*
X163321D02*
X168024D01*
X160187D02*
X160669D01*
X159584D02*
X159945D01*
X156449D02*
X156931D01*
X247966Y12390D02*
X248569D01*
X243746D02*
X245434D01*
X239526D02*
X241213D01*
X235546D02*
X236993D01*
X230000D02*
X232894D01*
X226865D02*
X227588D01*
X224695D02*
X225177D01*
X220113D02*
X222042D01*
X212999D02*
X213722D01*
X211069D02*
X211672D01*
X205885D02*
X206608D01*
X204317D02*
X204679D01*
X200097D02*
X200821D01*
X195515D02*
X196842D01*
X190933D02*
X191295D01*
X187316D02*
X187919D01*
X185628D02*
X186954D01*
X181287D02*
X182855D01*
X179720D02*
X181167D01*
X175500D02*
X177188D01*
X171762D02*
X172968D01*
X163321D02*
X168386D01*
X160187D02*
X160669D01*
X159463D02*
X159945D01*
X156328D02*
X157052D01*
X247966Y12269D02*
X248569D01*
X243746D02*
X245313D01*
X239526D02*
X241093D01*
X235546D02*
X236993D01*
X230000D02*
X232894D01*
X227227D02*
X227588D01*
X224695D02*
X225177D01*
X221077D02*
X222042D01*
X220233D02*
X220836D01*
X213119D02*
X213963D01*
X210949D02*
X211552D01*
X206126D02*
X206849D01*
X204317D02*
X204679D01*
X200097D02*
X201062D01*
X196239D02*
X196962D01*
X195274D02*
X196118D01*
X190933D02*
X191536D01*
X186352D02*
X187075D01*
X185990D02*
X186110D01*
X181528D02*
X182734D01*
X179720D02*
X181046D01*
X175500D02*
X177188D01*
X171762D02*
X172968D01*
X163321D02*
X168627D01*
X160307D02*
X160669D01*
X159463D02*
X159945D01*
X156449D02*
X157293D01*
X247966Y12149D02*
X248448D01*
X243746D02*
X245313D01*
X239526D02*
X241093D01*
X235546D02*
X236873D01*
X229879D02*
X232894D01*
X227227D02*
X227588D01*
X224695D02*
X225177D01*
X221319D02*
X221801D01*
X220113D02*
X220836D01*
X213361D02*
X214205D01*
X210828D02*
X211431D01*
X206246D02*
X206970D01*
X204197D02*
X204679D01*
X200097D02*
X201182D01*
X196359D02*
X197203D01*
X195153D02*
X195877D01*
X190933D02*
X191657D01*
X186472D02*
X187316D01*
X181890D02*
X182493D01*
X179720D02*
X181287D01*
X175500D02*
X177188D01*
X171762D02*
X172968D01*
X163321D02*
X168989D01*
X160307D02*
X160669D01*
X159343D02*
X159825D01*
X156690D02*
X157413D01*
X247966Y12028D02*
X248448D01*
X243746D02*
X245313D01*
X239526D02*
X241093D01*
X235546D02*
X236873D01*
X229879D02*
X232894D01*
X227227D02*
X227588D01*
X224695D02*
X225056D01*
X219630D02*
X220957D01*
X213481D02*
X214566D01*
X210708D02*
X211311D01*
X206367D02*
X207090D01*
X204076D02*
X204679D01*
X200579D02*
X201424D01*
X199977D02*
X200459D01*
X196600D02*
X197324D01*
X194912D02*
X195756D01*
X190813D02*
X191898D01*
X186110D02*
X187437D01*
X181528D02*
X182011D01*
X179720D02*
X181408D01*
X175500D02*
X177188D01*
X171762D02*
X172968D01*
X163321D02*
X169230D01*
X160307D02*
X160789D01*
X159343D02*
X159825D01*
X156810D02*
X157654D01*
X247845Y11907D02*
X248327D01*
X243746D02*
X245313D01*
X239526D02*
X241093D01*
X235546D02*
X236873D01*
X229879D02*
X232894D01*
X227227D02*
X227588D01*
X224695D02*
X225056D01*
X219269D02*
X221198D01*
X213722D02*
X214928D01*
X210587D02*
X211190D01*
X206608D02*
X207332D01*
X204076D02*
X204558D01*
X200821D02*
X201544D01*
X199856D02*
X200338D01*
X196721D02*
X197444D01*
X194792D02*
X195515D01*
X190813D02*
X192139D01*
X185869D02*
X187557D01*
X179720D02*
X181890D01*
X175500D02*
X177188D01*
X171762D02*
X172968D01*
X163442D02*
X169230D01*
X160307D02*
X160789D01*
X159343D02*
X159825D01*
X157052D02*
X157775D01*
X247845Y11787D02*
X248327D01*
X243625D02*
X245313D01*
X239405D02*
X241093D01*
X235546D02*
X236873D01*
X229879D02*
X232894D01*
X227227D02*
X227588D01*
X224695D02*
X225056D01*
X220595D02*
X221319D01*
X218907D02*
X220354D01*
X213963D02*
X215290D01*
X210467D02*
X211069D01*
X206729D02*
X207452D01*
X203956D02*
X204438D01*
X200941D02*
X201785D01*
X199735D02*
X200338D01*
X196962D02*
X197686D01*
X194671D02*
X195395D01*
X191416D02*
X192380D01*
X190692D02*
X191174D01*
X187075D02*
X187798D01*
X185628D02*
X186954D01*
X179840D02*
X181770D01*
X175620D02*
X177188D01*
X171762D02*
X172968D01*
X163442D02*
X169109D01*
X160307D02*
X160789D01*
X159222D02*
X159704D01*
X157172D02*
X158016D01*
X247845Y11666D02*
X248327D01*
X243625D02*
X245193D01*
X239405D02*
X240972D01*
X235546D02*
X236873D01*
X229759D02*
X232773D01*
X227227D02*
X227588D01*
X224574D02*
X225056D01*
X220836D02*
X221439D01*
X218545D02*
X219872D01*
X214325D02*
X215531D01*
X210226D02*
X210949D01*
X206849D02*
X207573D01*
X203835D02*
X204438D01*
X201182D02*
X201906D01*
X199615D02*
X200218D01*
X197083D02*
X197806D01*
X194551D02*
X195153D01*
X191657D02*
X192501D01*
X190692D02*
X191174D01*
X187196D02*
X187919D01*
X185507D02*
X186472D01*
X179961D02*
X182011D01*
X175620D02*
X177188D01*
X171762D02*
X172968D01*
X163442D02*
X169109D01*
X160428D02*
X160789D01*
X159222D02*
X159704D01*
X157413D02*
X158257D01*
X247845Y11546D02*
X248207D01*
X243625D02*
X245193D01*
X239405D02*
X240972D01*
X235426D02*
X236752D01*
X229759D02*
X232773D01*
X227227D02*
X227588D01*
X224574D02*
X225056D01*
X220957D02*
X221560D01*
X218304D02*
X219510D01*
X214687D02*
X215772D01*
X209984D02*
X210828D01*
X207090D02*
X207814D01*
X203594D02*
X204317D01*
X201303D02*
X202026D01*
X199494D02*
X200097D01*
X197203D02*
X197927D01*
X194430D02*
X195033D01*
X191898D02*
X192742D01*
X190572D02*
X191054D01*
X187437D02*
X188160D01*
X185266D02*
X186110D01*
X180202D02*
X182131D01*
X175620D02*
X177188D01*
X171762D02*
X173088D01*
X163442D02*
X169109D01*
X160428D02*
X160910D01*
X159222D02*
X159584D01*
X157654D02*
X158378D01*
X247845Y11425D02*
X248207D01*
X243625D02*
X245193D01*
X239405D02*
X240972D01*
X235426D02*
X236752D01*
X229759D02*
X232773D01*
X227227D02*
X227588D01*
X224574D02*
X225056D01*
X221077D02*
X221680D01*
X218063D02*
X219148D01*
X215049D02*
X215893D01*
X209743D02*
X210587D01*
X207211D02*
X207934D01*
X203473D02*
X204197D01*
X201544D02*
X202268D01*
X199374D02*
X199977D01*
X197444D02*
X198168D01*
X194309D02*
X194912D01*
X192139D02*
X192983D01*
X190451D02*
X191054D01*
X187557D02*
X188281D01*
X185146D02*
X185869D01*
X181528D02*
X182372D01*
X180564D02*
X181287D01*
X175620D02*
X177188D01*
X171762D02*
X173088D01*
X163563D02*
X169109D01*
X160428D02*
X160910D01*
X159101D02*
X159584D01*
X157775D02*
X158619D01*
X247725Y11305D02*
X248207D01*
X243625D02*
X245193D01*
X239405D02*
X240972D01*
X235426D02*
X236752D01*
X229759D02*
X232773D01*
X227227D02*
X227709D01*
X224453D02*
X224936D01*
X221198D02*
X221801D01*
X217822D02*
X218786D01*
X215290D02*
X216013D01*
X209382D02*
X210467D01*
X207332D02*
X208055D01*
X203353D02*
X204076D01*
X201665D02*
X202388D01*
X199253D02*
X199856D01*
X197565D02*
X198289D01*
X194189D02*
X194792D01*
X192260D02*
X193104D01*
X190331D02*
X190933D01*
X187678D02*
X188522D01*
X185025D02*
X185749D01*
X181770D02*
X182493D01*
X180443D02*
X181167D01*
X175620D02*
X177188D01*
X171762D02*
X173088D01*
X163563D02*
X168989D01*
X160428D02*
X160910D01*
X159101D02*
X159584D01*
X158016D02*
X158860D01*
X247725Y11184D02*
X248207D01*
X243505D02*
X245072D01*
X239284D02*
X240972D01*
X235426D02*
X236752D01*
X229638D02*
X232773D01*
X227227D02*
X227709D01*
X224333D02*
X224936D01*
X221319D02*
X221921D01*
X217581D02*
X218545D01*
X215531D02*
X216134D01*
X209140D02*
X210226D01*
X207573D02*
X208176D01*
X203112D02*
X203835D01*
X201785D02*
X202509D01*
X199133D02*
X199735D01*
X197686D02*
X198409D01*
X194068D02*
X194671D01*
X192501D02*
X193345D01*
X190210D02*
X190813D01*
X187919D02*
X188642D01*
X184905D02*
X185507D01*
X181890D02*
X182734D01*
X180323D02*
X181046D01*
X175620D02*
X177188D01*
X172606D02*
X173088D01*
X171762D02*
X172124D01*
X163563D02*
X168989D01*
X160548D02*
X160910D01*
X158257D02*
X159463D01*
X247725Y11063D02*
X248207D01*
X243505D02*
X245072D01*
X239284D02*
X240852D01*
X235426D02*
X236752D01*
X231688D02*
X232653D01*
X230482D02*
X231447D01*
X229638D02*
X230120D01*
X227227D02*
X227709D01*
X224333D02*
X224815D01*
X221439D02*
X222042D01*
X217460D02*
X218304D01*
X215651D02*
X216254D01*
X208779D02*
X209984D01*
X207693D02*
X208296D01*
X202991D02*
X203714D01*
X202026D02*
X202750D01*
X198891D02*
X199615D01*
X197927D02*
X198530D01*
X194068D02*
X194551D01*
X192742D02*
X193586D01*
X190089D02*
X190692D01*
X188040D02*
X188763D01*
X184784D02*
X185387D01*
X182131D02*
X182855D01*
X180202D02*
X180805D01*
X176585D02*
X176826D01*
X175620D02*
X176223D01*
X172606D02*
X173088D01*
X171762D02*
X172124D01*
X163563D02*
X168868D01*
X160548D02*
X160910D01*
X158378D02*
X159463D01*
X247725Y10943D02*
X248086D01*
X243505D02*
X245072D01*
X239284D02*
X240852D01*
X235426D02*
X236873D01*
X231809D02*
X232653D01*
X230844D02*
X231568D01*
X229638D02*
X230120D01*
X227227D02*
X227709D01*
X224212D02*
X224695D01*
X221560D02*
X222163D01*
X217219D02*
X218063D01*
X215772D02*
X216375D01*
X207814D02*
X209743D01*
X202147D02*
X203594D01*
X198047D02*
X199494D01*
X193948D02*
X194430D01*
X192983D02*
X193827D01*
X189969D02*
X190572D01*
X188281D02*
X189004D01*
X184663D02*
X185266D01*
X182252D02*
X183096D01*
X179961D02*
X180684D01*
X175620D02*
X176344D01*
X172726D02*
X173088D01*
X171641D02*
X172124D01*
X163563D02*
X168747D01*
X160548D02*
X161030D01*
X158619D02*
X159463D01*
X247725Y10822D02*
X248086D01*
X243505D02*
X245072D01*
X239284D02*
X240852D01*
X235426D02*
X236873D01*
X232170D02*
X232412D01*
X231085D02*
X231688D01*
X229638D02*
X230000D01*
X227227D02*
X227709D01*
X224092D02*
X224574D01*
X221680D02*
X222404D01*
X216978D02*
X217822D01*
X215893D02*
X216495D01*
X207934D02*
X209382D01*
X202268D02*
X203353D01*
X198168D02*
X199374D01*
X193104D02*
X194430D01*
X189848D02*
X190451D01*
X188401D02*
X189125D01*
X184663D02*
X185146D01*
X182493D02*
X183217D01*
X179840D02*
X180564D01*
X175741D02*
X176585D01*
X172726D02*
X173209D01*
X171641D02*
X172124D01*
X163683D02*
X168747D01*
X160548D02*
X161030D01*
X158860D02*
X159343D01*
X247604Y10702D02*
X248086D01*
X243384D02*
X245072D01*
X239164D02*
X240852D01*
X235305D02*
X236993D01*
X231206D02*
X231809D01*
X229518D02*
X230000D01*
X227227D02*
X227709D01*
X223971D02*
X224574D01*
X221801D02*
X222524D01*
X216857D02*
X217581D01*
X216013D02*
X216495D01*
X208055D02*
X209020D01*
X202509D02*
X203232D01*
X198289D02*
X199133D01*
X193345D02*
X194309D01*
X189607D02*
X190331D01*
X188522D02*
X189366D01*
X184543D02*
X185025D01*
X182614D02*
X183458D01*
X179720D02*
X180443D01*
X175741D02*
X176826D01*
X172726D02*
X173209D01*
X171641D02*
X172124D01*
X163683D02*
X168627D01*
X160548D02*
X161030D01*
X158981D02*
X159343D01*
X247604Y10581D02*
X248086D01*
X243384D02*
X244951D01*
X239164D02*
X240852D01*
X235305D02*
X237114D01*
X231326D02*
X231929D01*
X229518D02*
X230000D01*
X227227D02*
X227709D01*
X223851D02*
X224453D01*
X221921D02*
X222645D01*
X216737D02*
X217460D01*
X216134D02*
X216616D01*
X208296D02*
X208658D01*
X202629D02*
X202991D01*
X198409D02*
X198891D01*
X193586D02*
X194189D01*
X188763D02*
X190210D01*
X184422D02*
X185025D01*
X182855D02*
X183578D01*
X179599D02*
X180202D01*
X175741D02*
X177067D01*
X172726D02*
X173209D01*
X171521D02*
X172003D01*
X163683D02*
X168506D01*
X160669D02*
X161030D01*
X247604Y10460D02*
X248086D01*
X243384D02*
X244951D01*
X239164D02*
X240731D01*
X235305D02*
X237234D01*
X231447D02*
X232050D01*
X229518D02*
X230000D01*
X227227D02*
X227709D01*
X223730D02*
X224333D01*
X222163D02*
X222765D01*
X216134D02*
X217219D01*
X198530D02*
X198771D01*
X193707D02*
X194068D01*
X188883D02*
X190089D01*
X184302D02*
X184905D01*
X182975D02*
X183819D01*
X179479D02*
X180081D01*
X176344D02*
X177308D01*
X175741D02*
X176223D01*
X172847D02*
X173209D01*
X171521D02*
X172003D01*
X163683D02*
X168386D01*
X160669D02*
X161030D01*
X247604Y10340D02*
X247966D01*
X243384D02*
X244951D01*
X239164D02*
X240731D01*
X235305D02*
X237355D01*
X231568D02*
X232170D01*
X229518D02*
X229879D01*
X227227D02*
X227709D01*
X223489D02*
X224212D01*
X222283D02*
X222886D01*
X216254D02*
X217098D01*
X193948D02*
X194068D01*
X189125D02*
X189848D01*
X184302D02*
X184784D01*
X183217D02*
X183940D01*
X179358D02*
X179961D01*
X176585D02*
X177549D01*
X175741D02*
X176223D01*
X172847D02*
X173329D01*
X171521D02*
X171882D01*
X163683D02*
X168145D01*
X160669D02*
X161151D01*
X247604Y10219D02*
X247966D01*
X243384D02*
X244951D01*
X239164D02*
X240731D01*
X235305D02*
X237596D01*
X231688D02*
X232291D01*
X229397D02*
X229879D01*
X227227D02*
X227709D01*
X223368D02*
X224092D01*
X222404D02*
X223007D01*
X216254D02*
X216978D01*
X189245D02*
X189607D01*
X183337D02*
X184663D01*
X179237D02*
X179840D01*
X176826D02*
X177791D01*
X175741D02*
X176223D01*
X172847D02*
X173329D01*
X171400D02*
X171882D01*
X165612D02*
X168024D01*
X163804D02*
X165492D01*
X160669D02*
X161151D01*
X247483Y10099D02*
X247966D01*
X243263D02*
X244951D01*
X239043D02*
X240370D01*
X236390D02*
X237717D01*
X235185D02*
X235667D01*
X231809D02*
X232412D01*
X229397D02*
X229879D01*
X227347D02*
X227709D01*
X222524D02*
X223971D01*
X216375D02*
X216737D01*
X183578D02*
X184663D01*
X179117D02*
X179720D01*
X177067D02*
X178032D01*
X175741D02*
X176223D01*
X172968D02*
X173329D01*
X171280D02*
X171762D01*
X166095D02*
X167783D01*
X163804D02*
X165492D01*
X160669D02*
X161151D01*
X247483Y9978D02*
X247966D01*
X243263D02*
X244831D01*
X239043D02*
X239767D01*
X237114D02*
X237958D01*
X235185D02*
X235667D01*
X231929D02*
X232532D01*
X229397D02*
X229759D01*
X227347D02*
X227709D01*
X222645D02*
X223730D01*
X216375D02*
X216616D01*
X183699D02*
X184543D01*
X178996D02*
X179599D01*
X177308D02*
X178273D01*
X175741D02*
X176223D01*
X172968D02*
X173450D01*
X171280D02*
X171762D01*
X166456D02*
X167421D01*
X163804D02*
X165733D01*
X160789D02*
X161151D01*
X247483Y9858D02*
X247966D01*
X243263D02*
X244831D01*
X237355D02*
X238199D01*
X235064D02*
X235546D01*
X231929D02*
X232653D01*
X229397D02*
X229759D01*
X227347D02*
X227709D01*
X222765D02*
X223609D01*
X183940D02*
X184422D01*
X178876D02*
X179479D01*
X177549D02*
X178393D01*
X175861D02*
X176223D01*
X172968D02*
X173450D01*
X171159D02*
X171641D01*
X163924D02*
X165974D01*
X160789D02*
X161272D01*
X247483Y9737D02*
X247845D01*
X243263D02*
X244831D01*
X237476D02*
X238320D01*
X234944D02*
X235546D01*
X232050D02*
X232773D01*
X229276D02*
X229759D01*
X227347D02*
X227709D01*
X222886D02*
X223248D01*
X184061D02*
X184422D01*
X178755D02*
X179358D01*
X177791D02*
X178514D01*
X175861D02*
X176223D01*
X173088D02*
X173570D01*
X171038D02*
X171641D01*
X164045D02*
X166215D01*
X160789D02*
X161272D01*
X247363Y9617D02*
X247845D01*
X243263D02*
X244831D01*
X237717D02*
X238561D01*
X234823D02*
X235426D01*
X232170D02*
X232894D01*
X229276D02*
X229759D01*
X227347D02*
X227709D01*
X178032D02*
X179237D01*
X175861D02*
X176223D01*
X173088D02*
X173570D01*
X170918D02*
X171521D01*
X164286D02*
X166456D01*
X160789D02*
X161272D01*
X247363Y9496D02*
X247845D01*
X243143D02*
X244831D01*
X237958D02*
X238681D01*
X234702D02*
X235305D01*
X232291D02*
X232894D01*
X229276D02*
X229638D01*
X227347D02*
X227709D01*
X178152D02*
X179117D01*
X175861D02*
X176344D01*
X173209D02*
X173570D01*
X170797D02*
X171400D01*
X165009D02*
X166818D01*
X160910D02*
X161272D01*
X158498D02*
X158740D01*
X247363Y9375D02*
X247845D01*
X243263D02*
X244710D01*
X238078D02*
X238923D01*
X234582D02*
X235185D01*
X232412D02*
X233014D01*
X229156D02*
X229638D01*
X227347D02*
X227709D01*
X178273D02*
X179117D01*
X175861D02*
X176344D01*
X173209D02*
X173691D01*
X170677D02*
X171280D01*
X165974D02*
X167059D01*
X164768D02*
X165492D01*
X160910D02*
X161272D01*
X158498D02*
X158981D01*
X247363Y9255D02*
X247725D01*
X243263D02*
X244710D01*
X238320D02*
X239043D01*
X234461D02*
X235064D01*
X232532D02*
X233135D01*
X229156D02*
X229638D01*
X227347D02*
X227709D01*
X178514D02*
X178996D01*
X175861D02*
X176344D01*
X173209D02*
X173691D01*
X170556D02*
X171159D01*
X166215D02*
X167300D01*
X164648D02*
X165371D01*
X160789D02*
X161272D01*
X158378D02*
X159222D01*
X247363Y9134D02*
X247725D01*
X243384D02*
X244710D01*
X238561D02*
X239284D01*
X234341D02*
X234944D01*
X232653D02*
X233256D01*
X229156D02*
X229638D01*
X227347D02*
X227830D01*
X178635D02*
X178996D01*
X175982D02*
X176344D01*
X173329D02*
X173812D01*
X170435D02*
X171038D01*
X166577D02*
X167542D01*
X164407D02*
X165251D01*
X160669D02*
X161272D01*
X158378D02*
X159584D01*
X247242Y9014D02*
X247725D01*
X243505D02*
X244590D01*
X238681D02*
X239405D01*
X234220D02*
X234823D01*
X232773D02*
X233376D01*
X229156D02*
X229518D01*
X227347D02*
X227830D01*
X178755D02*
X178876D01*
X175982D02*
X176464D01*
X173450D02*
X173932D01*
X170194D02*
X170918D01*
X166818D02*
X167783D01*
X164286D02*
X165009D01*
X160548D02*
X161151D01*
X158257D02*
X159945D01*
X247242Y8893D02*
X247725D01*
X243625D02*
X244228D01*
X238802D02*
X239526D01*
X233979D02*
X234702D01*
X232894D02*
X233497D01*
X229035D02*
X229518D01*
X227347D02*
X227830D01*
X175982D02*
X176464D01*
X173450D02*
X173932D01*
X170074D02*
X170797D01*
X167059D02*
X168024D01*
X164165D02*
X164889D01*
X158981D02*
X161030D01*
X158257D02*
X158740D01*
X247242Y8772D02*
X247725D01*
X243384D02*
X243987D01*
X239043D02*
X239646D01*
X233014D02*
X234582D01*
X229035D02*
X229518D01*
X227347D02*
X227830D01*
X176102D02*
X176585D01*
X173570D02*
X174053D01*
X169833D02*
X170677D01*
X167300D02*
X168265D01*
X163924D02*
X164648D01*
X159343D02*
X160910D01*
X158137D02*
X158740D01*
X247242Y8652D02*
X247966D01*
X242660D02*
X244107D01*
X239164D02*
X239767D01*
X233135D02*
X234461D01*
X229035D02*
X229518D01*
X227347D02*
X227830D01*
X176102D02*
X176585D01*
X173570D02*
X174173D01*
X169591D02*
X170435D01*
X167542D02*
X168506D01*
X163804D02*
X164527D01*
X159584D02*
X160789D01*
X158137D02*
X158981D01*
X247363Y8531D02*
X248327D01*
X242178D02*
X244228D01*
X239284D02*
X239887D01*
X233256D02*
X234220D01*
X229035D02*
X229397D01*
X227347D02*
X227830D01*
X176223D02*
X176705D01*
X173691D02*
X174173D01*
X169471D02*
X170315D01*
X167783D02*
X168627D01*
X163683D02*
X164407D01*
X160187D02*
X160428D01*
X158257D02*
X159222D01*
X247483Y8411D02*
X248448D01*
X241816D02*
X244469D01*
X239405D02*
X240008D01*
X233376D02*
X233858D01*
X228915D02*
X229397D01*
X227347D02*
X227830D01*
X176223D02*
X176705D01*
X173812D02*
X174294D01*
X169230D02*
X170074D01*
X168024D02*
X168868D01*
X163563D02*
X164165D01*
X158498D02*
X159584D01*
X247725Y8290D02*
X248448D01*
X243866D02*
X244590D01*
X241455D02*
X243022D01*
X239526D02*
X240128D01*
X228915D02*
X229397D01*
X227347D02*
X227830D01*
X176344D02*
X176826D01*
X173812D02*
X174415D01*
X168265D02*
X169833D01*
X163442D02*
X164045D01*
X158740D02*
X159825D01*
X247966Y8170D02*
X248448D01*
X243987D02*
X244710D01*
X241213D02*
X242540D01*
X239646D02*
X240128D01*
X228915D02*
X229276D01*
X227347D02*
X227830D01*
X176344D02*
X176946D01*
X173932D02*
X174535D01*
X168386D02*
X169712D01*
X163321D02*
X163924D01*
X158981D02*
X160066D01*
X247966Y8049D02*
X248448D01*
X244228D02*
X244831D01*
X240972D02*
X242057D01*
X239767D02*
X240249D01*
X228794D02*
X229276D01*
X227468D02*
X227830D01*
X176464D02*
X176946D01*
X174053D02*
X174656D01*
X168627D02*
X169471D01*
X163201D02*
X163804D01*
X159343D02*
X160307D01*
X247363Y7928D02*
X248327D01*
X244349D02*
X244951D01*
X240611D02*
X241696D01*
X239887D02*
X240370D01*
X228794D02*
X229276D01*
X227468D02*
X227830D01*
X176585D02*
X177067D01*
X174173D02*
X174776D01*
X168868D02*
X169109D01*
X163201D02*
X163683D01*
X159584D02*
X160548D01*
X247122Y7808D02*
X248327D01*
X244469D02*
X244951D01*
X239887D02*
X241455D01*
X228794D02*
X229276D01*
X227468D02*
X227830D01*
X176585D02*
X177188D01*
X174294D02*
X174897D01*
X163080D02*
X163563D01*
X159825D02*
X160910D01*
X246881Y7687D02*
X248327D01*
X244590D02*
X245072D01*
X240008D02*
X241213D01*
X228794D02*
X229156D01*
X227468D02*
X227830D01*
X176705D02*
X177308D01*
X174415D02*
X175017D01*
X162960D02*
X163442D01*
X160066D02*
X161151D01*
X246639Y7567D02*
X247604D01*
X244590D02*
X245193D01*
X240008D02*
X240852D01*
X228674D02*
X229156D01*
X227468D02*
X227830D01*
X176826D02*
X177429D01*
X174535D02*
X175259D01*
X162839D02*
X163442D01*
X160428D02*
X161392D01*
X246398Y7446D02*
X247363D01*
X244710D02*
X245313D01*
X240008D02*
X240611D01*
X228674D02*
X229156D01*
X227468D02*
X227830D01*
X176946D02*
X177549D01*
X174656D02*
X175500D01*
X162719D02*
X163321D01*
X160669D02*
X161633D01*
X246278Y7326D02*
X247122D01*
X244831D02*
X245313D01*
X240128D02*
X240370D01*
X228674D02*
X229035D01*
X227468D02*
X227830D01*
X177067D02*
X177791D01*
X174897D02*
X175741D01*
X162598D02*
X163201D01*
X160910D02*
X161995D01*
X246157Y7205D02*
X246881D01*
X244951D02*
X245434D01*
X228553D02*
X229035D01*
X227468D02*
X227950D01*
X177188D02*
X177911D01*
X175017D02*
X175982D01*
X162477D02*
X163080D01*
X161151D02*
X162236D01*
X245916Y7084D02*
X246639D01*
X244951D02*
X245554D01*
X228553D02*
X229035D01*
X227468D02*
X227950D01*
X177308D02*
X178152D01*
X175259D02*
X176344D01*
X161392D02*
X162960D01*
X245795Y6964D02*
X246519D01*
X245072D02*
X245554D01*
X228553D02*
X229035D01*
X227468D02*
X227950D01*
X177549D02*
X178514D01*
X175500D02*
X176585D01*
X161754D02*
X162839D01*
X245795Y6843D02*
X246398D01*
X245193D02*
X245554D01*
X228553D02*
X228915D01*
X227468D02*
X227950D01*
X177670D02*
X178996D01*
X175741D02*
X176946D01*
X161995D02*
X162719D01*
X245193Y6723D02*
X246157D01*
X228432D02*
X228915D01*
X227468D02*
X227950D01*
X177911D02*
X179720D01*
X176102D02*
X177308D01*
X162236D02*
X162598D01*
X245193Y6602D02*
X246157D01*
X228432D02*
X228915D01*
X227468D02*
X227950D01*
X178152D02*
X179599D01*
X176344D02*
X177670D01*
X245313Y6481D02*
X246037D01*
X228432D02*
X228794D01*
X227468D02*
X227950D01*
X178635D02*
X179599D01*
X176705D02*
X177911D01*
X245313Y6361D02*
X245916D01*
X228312D02*
X228794D01*
X227588D02*
X227950D01*
X178876D02*
X179479D01*
X177067D02*
X178273D01*
X245313Y6240D02*
X245795D01*
X228312D02*
X228794D01*
X227588D02*
X227950D01*
X178876D02*
X179358D01*
X177308D02*
X178635D01*
X245434Y6120D02*
X245795D01*
X228312D02*
X228794D01*
X227588D02*
X227950D01*
X177670D02*
X179237D01*
X245434Y5999D02*
X245675D01*
X227588D02*
X228674D01*
X178032D02*
X179237D01*
X245434Y5879D02*
X245675D01*
X227588D02*
X228674D01*
X178393D02*
X179237D01*
X227588Y5758D02*
X228674D01*
X178635D02*
X179117D01*
X227950Y5638D02*
X228553D01*
X178996D02*
X179117D01*
D118*
X43149Y15099D02*
Y13000D01*
X41574D01*
X42099Y14050D01*
Y14574D01*
X41574Y15099D01*
X40525D01*
X40000Y14574D01*
Y13525D01*
X40525Y13000D01*
X43149Y16149D02*
X41050D01*
X40000Y17198D01*
X41050Y18248D01*
X43149D01*
X52624Y13851D02*
X53149Y13326D01*
Y12277D01*
X52624Y11752D01*
X50525D01*
X50000Y12277D01*
Y13326D01*
X50525Y13851D01*
X51574D01*
Y12801D01*
X50000Y14901D02*
X53149D01*
X50000Y17000D01*
X53149D01*
Y18049D02*
X50000D01*
Y19623D01*
X50525Y20148D01*
X52624D01*
X53149Y19623D01*
Y18049D01*
X62624Y11752D02*
X63149Y12277D01*
Y13326D01*
X62624Y13851D01*
X62099D01*
X61574Y13326D01*
Y12801D01*
Y13326D01*
X61049Y13851D01*
X60525D01*
X60000Y13326D01*
Y12277D01*
X60525Y11752D01*
X63149Y14901D02*
X61049D01*
X60000Y15950D01*
X61049Y17000D01*
X63149D01*
X62624Y18049D02*
X63149Y18574D01*
Y19623D01*
X62624Y20148D01*
X62099D01*
X61574Y19623D01*
Y19099D01*
Y19623D01*
X61049Y20148D01*
X60525D01*
X60000Y19623D01*
Y18574D01*
X60525Y18049D01*
X70000Y17099D02*
Y15000D01*
X72099Y17099D01*
X72624D01*
X73149Y16574D01*
Y15525D01*
X72624Y15000D01*
X82624D02*
X83149Y15525D01*
Y16574D01*
X82624Y17099D01*
X80525D01*
X80000Y16574D01*
Y15525D01*
X80525Y15000D01*
X82624D01*
X92624Y13851D02*
X93149Y13326D01*
Y12277D01*
X92624Y11752D01*
X92099D01*
X91574Y12277D01*
Y13326D01*
X91049Y13851D01*
X90525D01*
X90000Y13326D01*
Y12277D01*
X90525Y11752D01*
X92624Y17000D02*
X93149Y16475D01*
Y15425D01*
X92624Y14901D01*
X90525D01*
X90000Y15425D01*
Y16475D01*
X90525Y17000D01*
X93149Y18049D02*
X90000D01*
Y20148D01*
X102624Y13851D02*
X103149Y13326D01*
Y12277D01*
X102624Y11752D01*
X102099D01*
X101574Y12277D01*
Y13326D01*
X101049Y13851D01*
X100525D01*
X100000Y13326D01*
Y12277D01*
X100525Y11752D01*
X103149Y14901D02*
X100000D01*
Y16475D01*
X100525Y17000D01*
X102624D01*
X103149Y16475D01*
Y14901D01*
X100000Y18049D02*
X102099D01*
X103149Y19099D01*
X102099Y20148D01*
X100000D01*
X101574D01*
Y18049D01*
X113149Y11752D02*
Y13851D01*
Y12801D01*
X110000D01*
X113149Y14901D02*
X110000Y17000D01*
X113149D02*
X110000Y14901D01*
X113149Y18049D02*
X110000D01*
Y19623D01*
X110525Y20148D01*
X112624D01*
X113149Y19623D01*
Y18049D01*
X86000Y26361D02*
Y23213D01*
X84426D01*
X83901Y23737D01*
Y24262D01*
X84426Y24787D01*
X86000D01*
X84426D01*
X83901Y25312D01*
Y25836D01*
X84426Y26361D01*
X86000D01*
X82851Y25312D02*
Y23213D01*
Y24262D01*
X82327Y24787D01*
X81802Y25312D01*
X81277D01*
X78128Y23213D02*
X79178D01*
X79703Y23737D01*
Y24787D01*
X79178Y25312D01*
X78128D01*
X77604Y24787D01*
Y24262D01*
X79703D01*
X76029Y25312D02*
X74980D01*
X74455Y24787D01*
Y23213D01*
X76029D01*
X76554Y23737D01*
X76029Y24262D01*
X74455D01*
X73406Y23213D02*
Y26361D01*
Y24262D02*
X71831Y25312D01*
X73406Y24262D02*
X71831Y23213D01*
X69732D02*
X68683D01*
X68158Y23737D01*
Y24787D01*
X68683Y25312D01*
X69732D01*
X70257Y24787D01*
Y23737D01*
X69732Y23213D01*
X67109Y25312D02*
Y23737D01*
X66584Y23213D01*
X65009D01*
Y25312D01*
X63435Y25836D02*
Y25312D01*
X63960D01*
X62910D01*
X63435D01*
Y23737D01*
X62910Y23213D01*
X58188D02*
Y26361D01*
X56613D01*
X56088Y25836D01*
Y24787D01*
X56613Y24262D01*
X58188D01*
X55039Y23213D02*
X53989D01*
X54514D01*
Y25312D01*
X55039D01*
X52415Y23213D02*
Y25312D01*
X50841D01*
X50316Y24787D01*
Y23213D01*
X49266D02*
X47692D01*
X47167Y23737D01*
X47692Y24262D01*
X48742D01*
X49266Y24787D01*
X48742Y25312D01*
X47167D01*
X120000Y11500D02*
X123149D01*
Y13074D01*
X122624Y13599D01*
X121574D01*
X121049Y13074D01*
Y11500D01*
Y12550D02*
X120000Y13599D01*
X123149Y14649D02*
X120000Y16748D01*
X123149D02*
X120000Y14649D01*
X123149Y17797D02*
X120000D01*
Y19372D01*
X120525Y19896D01*
X122624D01*
X123149Y19372D01*
Y17797D01*
X130000Y12500D02*
Y13550D01*
Y13025D01*
X133149D01*
X132624Y12500D01*
X133149Y17223D02*
X132624Y16173D01*
X131574Y15124D01*
X130525D01*
X130000Y15649D01*
Y16698D01*
X130525Y17223D01*
X131050D01*
X131574Y16698D01*
Y15124D01*
M02*
