G04*
G04 #@! TF.GenerationSoftware,Altium Limited,Altium Designer,18.1.9 (240)*
G04*
G04 Layer_Physical_Order=2*
G04 Layer_Color=16711680*
%FSLAX25Y25*%
%MOIN*%
G70*
G01*
G75*
%ADD15C,0.01000*%
%ADD20C,0.01500*%
%ADD62C,0.00500*%
%ADD95C,0.02000*%
%ADD97C,0.05000*%
%ADD98C,0.03500*%
%ADD99C,0.04331*%
%ADD100C,0.07874*%
%ADD101C,0.06693*%
%ADD102R,0.06693X0.06693*%
%ADD103R,0.07874X0.05906*%
%ADD104R,0.03937X0.03150*%
%ADD105C,0.13780*%
%ADD106C,0.02400*%
%ADD107R,0.23622X0.31496*%
%ADD108R,0.01575X0.14961*%
%ADD109R,0.07087X0.11811*%
%ADD110R,0.04724X0.11811*%
%ADD111C,0.12500*%
G36*
X47244Y104000D02*
X47244Y21200D01*
X25500Y21200D01*
Y51500D01*
X36000D01*
X36000Y104000D01*
X47244Y104000D01*
D02*
G37*
G36*
X53335Y102400D02*
X53819Y102362D01*
Y87114D01*
X65630D01*
Y86614D01*
X66130D01*
Y70866D01*
X73000D01*
X73000Y44000D01*
X51500Y44000D01*
X51500Y102400D01*
X53335D01*
D02*
G37*
G36*
X380177Y65878D02*
X380152Y66830D01*
X380077Y67681D01*
X379952Y68433D01*
X379777Y69084D01*
X379552Y69636D01*
X379277Y70087D01*
X378952Y70438D01*
X378577Y70689D01*
X378152Y70839D01*
X377677Y70890D01*
X387114Y70878D01*
X386746Y70828D01*
X386417Y70678D01*
X386126Y70428D01*
X385874Y70078D01*
X385661Y69628D01*
X385487Y69078D01*
X385351Y68428D01*
X385255Y67678D01*
X385196Y66828D01*
X385177Y65878D01*
X380177D01*
D02*
G37*
G36*
X392114Y79500D02*
X391162Y79475D01*
X390310Y79400D01*
X389558Y79275D01*
X388906Y79100D01*
X388355Y78875D01*
X387904Y78600D01*
X387553Y78275D01*
X387302Y77900D01*
X387152Y77475D01*
X387102Y77000D01*
Y87000D01*
X387152Y86525D01*
X387302Y86100D01*
X387553Y85725D01*
X387904Y85400D01*
X388355Y85125D01*
X388906Y84900D01*
X389558Y84725D01*
X390310Y84600D01*
X391162Y84525D01*
X392114Y84500D01*
Y79500D01*
D02*
G37*
%LPC*%
G36*
X45008Y103109D02*
Y102500D01*
X45617D01*
X45373Y102865D01*
X45008Y103109D01*
D02*
G37*
G36*
X44008D02*
X43643Y102865D01*
X43399Y102500D01*
X44008D01*
Y103109D01*
D02*
G37*
G36*
X45617Y101500D02*
X45008D01*
Y100891D01*
X45373Y101135D01*
X45617Y101500D01*
D02*
G37*
G36*
X44008D02*
X43399D01*
X43643Y101135D01*
X44008Y100891D01*
Y101500D01*
D02*
G37*
G36*
X45008Y91660D02*
Y91051D01*
X45617D01*
X45373Y91416D01*
X45008Y91660D01*
D02*
G37*
G36*
X44008D02*
X43643Y91416D01*
X43399Y91051D01*
X44008D01*
Y91660D01*
D02*
G37*
G36*
X45617Y90051D02*
X45008D01*
Y89442D01*
X45373Y89686D01*
X45617Y90051D01*
D02*
G37*
G36*
X44008D02*
X43399D01*
X43643Y89686D01*
X44008Y89442D01*
Y90051D01*
D02*
G37*
G36*
X28000Y50709D02*
Y50100D01*
X28609D01*
X28365Y50465D01*
X28000Y50709D01*
D02*
G37*
G36*
X27000D02*
X26635Y50465D01*
X26391Y50100D01*
X27000D01*
Y50709D01*
D02*
G37*
G36*
X28609Y49100D02*
X28000D01*
Y48491D01*
X28365Y48735D01*
X28609Y49100D01*
D02*
G37*
G36*
X27000D02*
X26391D01*
X26635Y48735D01*
X27000Y48491D01*
Y49100D01*
D02*
G37*
G36*
X28000Y47509D02*
Y46900D01*
X28609D01*
X28365Y47265D01*
X28000Y47509D01*
D02*
G37*
G36*
X27000D02*
X26635Y47265D01*
X26391Y46900D01*
X27000D01*
Y47509D01*
D02*
G37*
G36*
X28609Y45900D02*
X28000D01*
Y45291D01*
X28365Y45535D01*
X28609Y45900D01*
D02*
G37*
G36*
X27000D02*
X26391D01*
X26635Y45535D01*
X27000Y45291D01*
Y45900D01*
D02*
G37*
G36*
X30000Y44709D02*
Y44100D01*
X30609D01*
X30365Y44465D01*
X30000Y44709D01*
D02*
G37*
G36*
X29000D02*
X28635Y44465D01*
X28391Y44100D01*
X29000D01*
Y44709D01*
D02*
G37*
G36*
X30609Y43100D02*
X30000D01*
Y42491D01*
X30365Y42735D01*
X30609Y43100D01*
D02*
G37*
G36*
X29000D02*
X28391D01*
X28635Y42735D01*
X29000Y42491D01*
Y43100D01*
D02*
G37*
G36*
X33000Y24309D02*
Y23700D01*
X33609D01*
X33365Y24065D01*
X33000Y24309D01*
D02*
G37*
G36*
X32000D02*
X31635Y24065D01*
X31391Y23700D01*
X32000D01*
Y24309D01*
D02*
G37*
G36*
X28500D02*
Y23700D01*
X29109D01*
X28865Y24065D01*
X28500Y24309D01*
D02*
G37*
G36*
X27500D02*
X27135Y24065D01*
X26891Y23700D01*
X27500D01*
Y24309D01*
D02*
G37*
G36*
X33609Y22700D02*
X33000D01*
Y22091D01*
X33365Y22335D01*
X33609Y22700D01*
D02*
G37*
G36*
X32000D02*
X31391D01*
X31635Y22335D01*
X32000Y22091D01*
Y22700D01*
D02*
G37*
G36*
X29109D02*
X28500D01*
Y22091D01*
X28865Y22335D01*
X29109Y22700D01*
D02*
G37*
G36*
X27500D02*
X26891D01*
X27135Y22335D01*
X27500Y22091D01*
Y22700D01*
D02*
G37*
G36*
X65130Y86114D02*
X53819D01*
Y70866D01*
X65130D01*
Y86114D01*
D02*
G37*
G36*
X67500Y56309D02*
Y55700D01*
X68109D01*
X67865Y56065D01*
X67500Y56309D01*
D02*
G37*
G36*
X66500D02*
X66135Y56065D01*
X65891Y55700D01*
X66500D01*
Y56309D01*
D02*
G37*
G36*
X68109Y54700D02*
X67500D01*
Y54091D01*
X67865Y54335D01*
X68109Y54700D01*
D02*
G37*
G36*
X66500D02*
X65891D01*
X66135Y54335D01*
X66500Y54091D01*
Y54700D01*
D02*
G37*
G36*
X71366Y54109D02*
Y53500D01*
X71975D01*
X71731Y53865D01*
X71366Y54109D01*
D02*
G37*
G36*
X70366D02*
X70001Y53865D01*
X69757Y53500D01*
X70366D01*
Y54109D01*
D02*
G37*
G36*
X71975Y52500D02*
X71366D01*
Y51891D01*
X71731Y52135D01*
X71975Y52500D01*
D02*
G37*
G36*
X70366D02*
X69757D01*
X70001Y52135D01*
X70366Y51891D01*
Y52500D01*
D02*
G37*
G36*
X67500Y52209D02*
Y51600D01*
X68109D01*
X67865Y51965D01*
X67500Y52209D01*
D02*
G37*
G36*
X66500D02*
X66135Y51965D01*
X65891Y51600D01*
X66500D01*
Y52209D01*
D02*
G37*
G36*
X68109Y50600D02*
X67500D01*
Y49991D01*
X67865Y50235D01*
X68109Y50600D01*
D02*
G37*
G36*
X66500D02*
X65891D01*
X66135Y50235D01*
X66500Y49991D01*
Y50600D01*
D02*
G37*
G36*
X71366Y50109D02*
Y49500D01*
X71975D01*
X71731Y49865D01*
X71366Y50109D01*
D02*
G37*
G36*
X70366D02*
X70001Y49865D01*
X69757Y49500D01*
X70366D01*
Y50109D01*
D02*
G37*
G36*
X71975Y48500D02*
X71366D01*
Y47891D01*
X71731Y48135D01*
X71975Y48500D01*
D02*
G37*
G36*
X70366D02*
X69757D01*
X70001Y48135D01*
X70366Y47891D01*
Y48500D01*
D02*
G37*
G36*
X67500Y48309D02*
Y47700D01*
X68109D01*
X67865Y48065D01*
X67500Y48309D01*
D02*
G37*
G36*
X66500D02*
X66135Y48065D01*
X65891Y47700D01*
X66500D01*
Y48309D01*
D02*
G37*
G36*
X68109Y46700D02*
X67500D01*
Y46091D01*
X67865Y46335D01*
X68109Y46700D01*
D02*
G37*
G36*
X66500D02*
X65891D01*
X66135Y46335D01*
X66500Y46091D01*
Y46700D01*
D02*
G37*
%LPD*%
D15*
X353149Y26772D02*
Y35252D01*
X355905Y26772D02*
Y35252D01*
Y26772D02*
X357693D01*
X355905Y18291D02*
Y26772D01*
X353149Y18291D02*
Y26772D01*
X342126D02*
Y35252D01*
X339370Y26772D02*
Y35252D01*
X333858Y26772D02*
Y35252D01*
X336614Y26772D02*
Y35252D01*
X339370Y18291D02*
Y26772D01*
X342126Y18291D02*
Y26772D01*
X333858Y18291D02*
Y26772D01*
X336614Y18291D02*
Y26772D01*
X331102D02*
Y35252D01*
X320079Y18291D02*
Y26772D01*
X331102Y18291D02*
Y26772D01*
X317323D02*
Y35252D01*
X314567Y26772D02*
Y35252D01*
X320079Y26772D02*
Y35252D01*
X306299Y26772D02*
Y35252D01*
X309055Y26772D02*
Y35252D01*
X314567Y18291D02*
Y26772D01*
X317323Y18291D02*
Y26772D01*
X306299Y18291D02*
Y26772D01*
X309055Y18291D02*
Y26772D01*
X300787D02*
Y35252D01*
X295276Y26772D02*
Y35252D01*
Y18291D02*
Y26772D01*
X300787Y18291D02*
Y26772D01*
X292520D02*
Y35252D01*
X275984Y26772D02*
Y35252D01*
X274197Y26772D02*
X275984D01*
X292520Y18291D02*
Y26772D01*
X275984Y18291D02*
Y26772D01*
X21299Y46949D02*
Y49524D01*
X18331Y46949D02*
X21299D01*
Y44374D02*
Y46949D01*
X10630Y51673D02*
X15567D01*
X10630D02*
Y55626D01*
X5693Y51673D02*
X10630D01*
Y47721D02*
Y51673D01*
X18331Y27854D02*
X21299D01*
Y30429D01*
Y25280D02*
Y27854D01*
X10630Y23130D02*
Y27083D01*
X51614Y5118D02*
Y9465D01*
X47268Y5118D02*
X51614D01*
X55961D01*
X51614Y772D02*
Y5118D01*
X10630Y19177D02*
Y23130D01*
X15567D01*
X5693D02*
X10630D01*
X118400Y54000D02*
X126000D01*
X112000Y47600D02*
X118400Y54000D01*
X320500Y7500D02*
X328346Y15346D01*
X266941Y7500D02*
X320500D01*
X250441Y24000D02*
X266941Y7500D01*
X196000Y24000D02*
X250441D01*
X192445Y20445D02*
X196000Y24000D01*
X196945Y20445D02*
X226000D01*
X192916Y16416D02*
X196945Y20445D01*
X166500Y16416D02*
X192916D01*
X185000Y20445D02*
X192445D01*
X328346Y15346D02*
Y26772D01*
X317809Y11000D02*
X322834Y16026D01*
X269500Y11000D02*
X317809D01*
X252110Y28390D02*
X269500Y11000D01*
X196500Y16000D02*
X241500D01*
X189500Y9000D02*
X196500Y16000D01*
X185000Y28390D02*
X252110D01*
X322834Y16026D02*
Y26772D01*
X100163Y23667D02*
X172403D01*
X81614Y5118D02*
X100163Y23667D01*
X107829Y21333D02*
X177944D01*
X91614Y5118D02*
X107829Y21333D01*
X177944D02*
X185000Y28390D01*
X172403Y23667D02*
X185000Y36264D01*
X166862Y26000D02*
X185000Y44138D01*
X92496Y26000D02*
X166862D01*
X71614Y5118D02*
X92496Y26000D01*
X183500Y19000D02*
X184945Y20445D01*
X115496Y19000D02*
X183500D01*
X101614Y5118D02*
X115496Y19000D01*
X130191Y12691D02*
X185000D01*
X122618Y5118D02*
X130191Y12691D01*
X121614Y5118D02*
X122618D01*
X184945Y20445D02*
X185000D01*
X327500Y36500D02*
X328346Y35654D01*
X326437Y36500D02*
X327500D01*
X325590Y35654D02*
X326437Y36500D01*
X325590Y26772D02*
Y35654D01*
X328346Y26772D02*
Y35654D01*
X260000Y33000D02*
Y78321D01*
X135496Y9000D02*
X189500D01*
X131614Y5118D02*
X135496Y9000D01*
X249000Y5500D02*
Y8500D01*
X241500Y16000D02*
X249000Y8500D01*
X164059Y29000D02*
X199059Y64000D01*
X141000Y29000D02*
X164059D01*
D20*
X289764Y14736D02*
Y26772D01*
X298031Y16532D02*
Y26772D01*
X303543D02*
Y94095D01*
X295276Y102362D02*
X303543Y94095D01*
X278740Y26772D02*
Y89764D01*
X266142Y102362D02*
X278740Y89764D01*
X281496Y26772D02*
Y92520D01*
X271654Y102362D02*
X281496Y92520D01*
X284252Y26772D02*
Y96063D01*
X277953Y102362D02*
X284252Y96063D01*
X287008Y26772D02*
Y98819D01*
X283465Y102362D02*
X287008Y98819D01*
X311811Y26772D02*
Y97713D01*
X311024Y98500D02*
X311811Y97713D01*
X311024Y98500D02*
Y102362D01*
X344794Y26772D02*
Y72706D01*
X330708Y86792D02*
X344794Y72706D01*
X330708Y86792D02*
Y102362D01*
X347594Y26772D02*
Y90406D01*
X340551Y97449D02*
X347594Y90406D01*
X340551Y97449D02*
Y102362D01*
X350394Y26772D02*
Y97441D01*
X355315Y102362D01*
D62*
X413386Y122047D02*
X413296Y123073D01*
X413030Y124067D01*
X412595Y125000D01*
X412004Y125843D01*
X411276Y126571D01*
X410433Y127162D01*
X409500Y127597D01*
X408506Y127863D01*
X407480Y127953D01*
X411683Y118110D02*
X411621Y119111D01*
X411437Y120096D01*
X411133Y121051D01*
X410714Y121961D01*
X410187Y122813D01*
X409559Y123594D01*
X408839Y124292D01*
X408039Y124896D01*
X407171Y125397D01*
X406249Y125787D01*
X405285Y126062D01*
X404294Y126215D01*
X403293Y126246D01*
X402295Y126154D01*
X401316Y125939D01*
X400371Y125606D01*
X399473Y125160D01*
X398638Y124606D01*
X397877Y123954D01*
X397202Y123213D01*
X396623Y122395D01*
X396149Y121512D01*
X395787Y120578D01*
X395542Y119606D01*
X395419Y118611D01*
Y117609D01*
X395542Y116615D01*
X395787Y115643D01*
X396149Y114708D01*
X396623Y113825D01*
X397202Y113007D01*
X397877Y112267D01*
X398638Y111615D01*
X399473Y111061D01*
X400371Y110614D01*
X401316Y110281D01*
X402295Y110067D01*
X403293Y109974D01*
X404294Y110005D01*
X405285Y110159D01*
X406249Y110433D01*
X407171Y110824D01*
X408039Y111325D01*
X408839Y111929D01*
X409559Y112627D01*
X410187Y113407D01*
X410715Y114259D01*
X411133Y115170D01*
X411437Y116125D01*
X411621Y117110D01*
X411683Y118110D01*
X411621Y119111D01*
X411437Y120096D01*
X411133Y121051D01*
X410714Y121961D01*
X410187Y122813D01*
X409559Y123594D01*
X408839Y124292D01*
X408039Y124896D01*
X407171Y125397D01*
X406249Y125787D01*
X405285Y126062D01*
X404294Y126215D01*
X403293Y126246D01*
X402295Y126154D01*
X401316Y125939D01*
X400371Y125606D01*
X399473Y125160D01*
X398638Y124606D01*
X397877Y123954D01*
X397202Y123213D01*
X396623Y122395D01*
X396149Y121512D01*
X395787Y120578D01*
X395542Y119606D01*
X395419Y118611D01*
Y117609D01*
X395542Y116615D01*
X395787Y115643D01*
X396149Y114708D01*
X396623Y113825D01*
X397202Y113007D01*
X397877Y112267D01*
X398638Y111615D01*
X399473Y111061D01*
X400371Y110614D01*
X401316Y110281D01*
X402295Y110067D01*
X403293Y109974D01*
X404294Y110005D01*
X405285Y110159D01*
X406249Y110433D01*
X407171Y110824D01*
X408039Y111325D01*
X408839Y111929D01*
X409559Y112627D01*
X410187Y113407D01*
X410715Y114259D01*
X411133Y115170D01*
X411437Y116125D01*
X411621Y117110D01*
X411683Y118110D01*
X382615Y103685D02*
X382553Y104638D01*
X382366Y105574D01*
X382059Y106479D01*
X381637Y107335D01*
X381106Y108129D01*
X380477Y108847D01*
X382615Y103685D02*
X382553Y104638D01*
X382366Y105574D01*
X382059Y106479D01*
X381637Y107335D01*
X381106Y108129D01*
X380477Y108847D01*
X427500Y80709D02*
X427476Y81703D01*
X427405Y82694D01*
X427286Y83681D01*
X427120Y84662D01*
X426908Y85633D01*
X426649Y86593D01*
X426344Y87539D01*
X425995Y88470D01*
X425601Y89383D01*
X425165Y90276D01*
X424686Y91148D01*
X424165Y91995D01*
X423605Y92816D01*
X423006Y93610D01*
X422370Y94374D01*
X421698Y95107D01*
X420992Y95807D01*
X420253Y96472D01*
X419483Y97101D01*
X418684Y97692D01*
X417858Y98245D01*
X417005Y98757D01*
X416130Y99228D01*
X415233Y99657D01*
X414316Y100042D01*
X413382Y100382D01*
X408140Y90551D02*
X407988Y91558D01*
X407546Y92475D01*
X406854Y93221D01*
X405972Y93730D01*
X404980Y93957D01*
X403964Y93881D01*
X403017Y93509D01*
X402221Y92874D01*
X401647Y92033D01*
X401347Y91060D01*
Y90042D01*
X401647Y89069D01*
X402221Y88228D01*
X403017Y87593D01*
X403964Y87221D01*
X404980Y87145D01*
X405972Y87372D01*
X406854Y87881D01*
X407546Y88627D01*
X407988Y89544D01*
X408140Y90551D01*
X407988Y91558D01*
X407546Y92475D01*
X406854Y93221D01*
X405972Y93730D01*
X404980Y93957D01*
X403964Y93881D01*
X403017Y93509D01*
X402221Y92874D01*
X401647Y92033D01*
X401347Y91060D01*
Y90042D01*
X401647Y89069D01*
X402221Y88228D01*
X403017Y87593D01*
X403964Y87221D01*
X404980Y87145D01*
X405972Y87372D01*
X406854Y87881D01*
X407546Y88627D01*
X407988Y89544D01*
X408140Y90551D01*
X367662Y121662D02*
X366944Y122292D01*
X366150Y122822D01*
X365294Y123244D01*
X364389Y123551D01*
X363453Y123738D01*
X362500Y123800D01*
X367662Y121662D02*
X366944Y122292D01*
X366150Y122822D01*
X365294Y123244D01*
X364389Y123551D01*
X363453Y123738D01*
X362500Y123800D01*
X357765Y102362D02*
X357583Y103288D01*
X357065Y104077D01*
X356286Y104611D01*
X355364Y104812D01*
X354434Y104648D01*
X353635Y104146D01*
X353085Y103378D01*
X352867Y102460D01*
X355413Y99914D02*
X356320Y100128D01*
X357082Y100665D01*
X357588Y101447D01*
X357765Y102362D01*
X349123Y98716D02*
X348594Y97441D01*
X349121Y98714D02*
X348594Y97441D01*
X406210Y84510D02*
X405475Y85074D01*
X404619Y85429D01*
X403700Y85550D01*
X406210Y84510D02*
X405475Y85074D01*
X404619Y85429D01*
X403700Y85550D01*
X416050Y73200D02*
X415929Y74119D01*
X415574Y74975D01*
X415010Y75710D01*
X416050Y73200D02*
X415929Y74119D01*
X415574Y74975D01*
X415010Y75710D01*
X413382Y61035D02*
X414316Y61376D01*
X415233Y61761D01*
X416130Y62189D01*
X417005Y62660D01*
X417858Y63173D01*
X418684Y63725D01*
X419483Y64316D01*
X420253Y64946D01*
X420992Y65611D01*
X421698Y66311D01*
X422370Y67043D01*
X423006Y67807D01*
X423605Y68601D01*
X424165Y69422D01*
X424686Y70270D01*
X425165Y71141D01*
X425601Y72034D01*
X425995Y72947D01*
X426344Y73878D01*
X426649Y74824D01*
X426908Y75784D01*
X427120Y76755D01*
X427286Y77736D01*
X427405Y78723D01*
X427476Y79715D01*
X427500Y80709D01*
X415010Y64828D02*
X415574Y65564D01*
X415929Y66420D01*
X416050Y67339D01*
X415010Y64828D02*
X415574Y65564D01*
X415929Y66420D01*
X416050Y67339D01*
X408140Y70866D02*
X407988Y71873D01*
X407546Y72790D01*
X406854Y73536D01*
X405972Y74045D01*
X404980Y74272D01*
X403964Y74196D01*
X403017Y73824D01*
X402221Y73189D01*
X401647Y72348D01*
X401347Y71375D01*
Y70357D01*
X401647Y69384D01*
X402221Y68543D01*
X403017Y67908D01*
X403964Y67536D01*
X404980Y67460D01*
X405972Y67687D01*
X406854Y68196D01*
X407546Y68942D01*
X407988Y69859D01*
X408140Y70866D01*
X407988Y71873D01*
X407546Y72790D01*
X406854Y73536D01*
X405972Y74045D01*
X404980Y74272D01*
X403964Y74196D01*
X403017Y73824D01*
X402221Y73189D01*
X401647Y72348D01*
X401347Y71375D01*
Y70357D01*
X401647Y69384D01*
X402221Y68543D01*
X403017Y67908D01*
X403964Y67536D01*
X404980Y67460D01*
X405972Y67687D01*
X406854Y68196D01*
X407546Y68942D01*
X407988Y69859D01*
X408140Y70866D01*
X343001Y102362D02*
X342818Y103291D01*
X342297Y104081D01*
X341515Y104614D01*
X340590Y104812D01*
X339658Y104644D01*
X338860Y104136D01*
X338314Y103363D01*
X338102Y102440D01*
X338255Y101506D01*
X338751Y100700D01*
X342351D02*
X342833Y101470D01*
X343001Y102362D01*
X333158D02*
X332976Y103291D01*
X332454Y104081D01*
X331673Y104614D01*
X330747Y104812D01*
X329816Y104644D01*
X329018Y104136D01*
X328472Y103363D01*
X328260Y102440D01*
X328413Y101506D01*
X328908Y100700D01*
X332508D02*
X332990Y101470D01*
X333158Y102362D01*
X338751Y97449D02*
X339278Y96176D01*
X338751Y97449D02*
X339280Y96174D01*
X313474Y102362D02*
X313291Y103291D01*
X312770Y104081D01*
X311988Y104614D01*
X311063Y104812D01*
X310131Y104644D01*
X309333Y104136D01*
X308787Y103363D01*
X308575Y102440D01*
X308728Y101506D01*
X309224Y100700D01*
X312824D02*
X313305Y101470D01*
X313474Y102362D01*
X313611Y97713D02*
X313081Y98988D01*
X313611Y97713D02*
X313084Y98985D01*
X309224Y98500D02*
X309751Y97227D01*
X309224Y98500D02*
X309753Y97225D01*
X328908Y86792D02*
X329438Y85517D01*
X328908Y86792D02*
X329436Y85519D01*
X297724Y102460D02*
X297470Y103452D01*
X296833Y104254D01*
X295923Y104725D01*
X294901Y104783D01*
X293944Y104419D01*
X293219Y103694D01*
X292854Y102737D01*
X292913Y101715D01*
X293384Y100805D01*
X294186Y100168D01*
X295178Y99914D01*
X285913Y102460D02*
X285662Y103445D01*
X285033Y104244D01*
X284135Y104719D01*
X283120Y104788D01*
X282165Y104439D01*
X281434Y103733D01*
X281052Y102790D01*
X281086Y101774D01*
X280401Y102460D02*
X280182Y103378D01*
X279633Y104146D01*
X278834Y104648D01*
X277904Y104812D01*
X276981Y104611D01*
X276203Y104077D01*
X275685Y103288D01*
X275503Y102362D01*
X274102Y102460D02*
X273851Y103445D01*
X273222Y104244D01*
X272323Y104719D01*
X271309Y104788D01*
X270354Y104439D01*
X269623Y103733D01*
X269241Y102790D01*
X269275Y101774D01*
X268590Y102460D02*
X268336Y103452D01*
X267699Y104254D01*
X266789Y104725D01*
X265767Y104783D01*
X264810Y104419D01*
X264086Y103694D01*
X263721Y102737D01*
X263779Y101715D01*
X264250Y100805D01*
X265052Y100168D01*
X266044Y99914D01*
X288808Y98819D02*
X288278Y100094D01*
X288808Y98819D02*
X288281Y100092D01*
X305343Y94095D02*
X304814Y95370D01*
X305343Y94095D02*
X304816Y95367D01*
X273050Y78500D02*
X272929Y79419D01*
X272574Y80275D01*
X272010Y81010D01*
X273050Y78500D02*
X272929Y79419D01*
X272574Y80275D01*
X272010Y81010D01*
X402124Y61983D02*
X401559Y61247D01*
X401205Y60391D01*
X401084Y59472D01*
X402124Y61983D02*
X401559Y61247D01*
X401205Y60391D01*
X401084Y59472D01*
X395030Y37663D02*
X395594Y38398D01*
X395949Y39255D01*
X396070Y40173D01*
X395030Y37663D02*
X395594Y38398D01*
X395949Y39255D01*
X396070Y40173D01*
X381990Y34664D02*
X381384Y33855D01*
X381031Y32908D01*
X380959Y31900D01*
X381174Y30913D01*
X381658Y30026D01*
X382373Y29312D01*
X383259Y28828D01*
X384247Y28613D01*
X385255Y28685D01*
X386201Y29038D01*
X387010Y29643D01*
X407480Y0D02*
X408506Y90D01*
X409500Y356D01*
X410433Y791D01*
X411276Y1382D01*
X412004Y2110D01*
X412595Y2953D01*
X413030Y3886D01*
X413296Y4880D01*
X413386Y5906D01*
X411683Y9843D02*
X411621Y10843D01*
X411437Y11828D01*
X411133Y12783D01*
X410714Y13693D01*
X410187Y14546D01*
X409559Y15326D01*
X408839Y16024D01*
X408039Y16628D01*
X407171Y17129D01*
X406249Y17520D01*
X405285Y17794D01*
X404294Y17948D01*
X403293Y17978D01*
X402295Y17886D01*
X401316Y17672D01*
X400371Y17338D01*
X399473Y16892D01*
X398638Y16338D01*
X397877Y15686D01*
X397202Y14945D01*
X396623Y14128D01*
X396149Y13245D01*
X395787Y12310D01*
X395542Y11338D01*
X395419Y10344D01*
Y9341D01*
X395542Y8347D01*
X395787Y7375D01*
X396149Y6440D01*
X396623Y5557D01*
X397202Y4739D01*
X397877Y3999D01*
X398638Y3347D01*
X399473Y2793D01*
X400371Y2347D01*
X401316Y2014D01*
X402295Y1799D01*
X403293Y1707D01*
X404294Y1737D01*
X405285Y1891D01*
X406249Y2166D01*
X407171Y2556D01*
X408039Y3057D01*
X408839Y3661D01*
X409559Y4359D01*
X410187Y5140D01*
X410715Y5992D01*
X411133Y6902D01*
X411437Y7857D01*
X411621Y8842D01*
X411683Y9843D01*
X411621Y10843D01*
X411437Y11828D01*
X411133Y12783D01*
X410714Y13693D01*
X410187Y14546D01*
X409559Y15326D01*
X408839Y16024D01*
X408039Y16628D01*
X407171Y17129D01*
X406249Y17520D01*
X405285Y17794D01*
X404294Y17948D01*
X403293Y17978D01*
X402295Y17886D01*
X401316Y17672D01*
X400371Y17338D01*
X399473Y16892D01*
X398638Y16338D01*
X397877Y15686D01*
X397202Y14945D01*
X396623Y14128D01*
X396149Y13245D01*
X395787Y12310D01*
X395542Y11338D01*
X395419Y10344D01*
Y9341D01*
X395542Y8347D01*
X395787Y7375D01*
X396149Y6440D01*
X396623Y5557D01*
X397202Y4739D01*
X397877Y3999D01*
X398638Y3347D01*
X399473Y2793D01*
X400371Y2347D01*
X401316Y2014D01*
X402295Y1799D01*
X403293Y1707D01*
X404294Y1737D01*
X405285Y1891D01*
X406249Y2166D01*
X407171Y2556D01*
X408039Y3057D01*
X408839Y3661D01*
X409559Y4359D01*
X410187Y5140D01*
X410715Y5992D01*
X411133Y6902D01*
X411437Y7857D01*
X411621Y8842D01*
X411683Y9843D01*
X392500Y13950D02*
X393419Y14071D01*
X394275Y14426D01*
X395010Y14990D01*
X392500Y13950D02*
X393419Y14071D01*
X394275Y14426D01*
X395010Y14990D01*
X367013Y21937D02*
X367134Y21018D01*
X367489Y20162D01*
X368053Y19427D01*
X372490Y14990D02*
X373225Y14426D01*
X374081Y14071D01*
X375000Y13950D01*
X372490Y14990D02*
X373225Y14426D01*
X374081Y14071D01*
X375000Y13950D01*
X367013Y21937D02*
X367134Y21018D01*
X367489Y20162D01*
X368053Y19427D01*
X328596Y37596D02*
X327500Y38050D01*
X328596Y37596D02*
X327500Y38050D01*
X326437D02*
X325341Y37596D01*
X326437Y38050D02*
X325341Y37596D01*
X329896Y35654D02*
X329442Y36750D01*
X329896Y35654D02*
X329442Y36750D01*
X324494D02*
X324041Y35654D01*
X324494Y36750D02*
X324041Y35654D01*
X329442Y14250D02*
X329896Y15346D01*
X329442Y14250D02*
X329896Y15346D01*
X320500Y5950D02*
X321596Y6404D01*
X320500Y5950D02*
X321596Y6404D01*
X300081Y16532D02*
X299831Y17513D01*
X299481Y15082D02*
X299925Y15747D01*
X300081Y16532D01*
X296236Y12686D02*
X297021Y12842D01*
X297686Y13287D01*
X296236Y12686D02*
X297021Y12842D01*
X297686Y13287D01*
X265950Y28126D02*
X266094Y27126D01*
X266513Y26207D01*
X267175Y25443D01*
X268025Y24897D01*
X268995Y24612D01*
X270005D01*
X270975Y24897D01*
X271825Y25443D01*
X272486Y26207D01*
X272906Y27126D01*
X273050Y28126D01*
X262450Y33000D02*
X262214Y34050D01*
X261550Y34897D01*
X270314Y13287D02*
X270979Y12842D01*
X271764Y12686D01*
X270314Y13287D02*
X270979Y12842D01*
X271764Y12686D01*
X265845Y6404D02*
X266941Y5950D01*
X265845Y6404D02*
X266941Y5950D01*
X234000Y123800D02*
X233047Y123738D01*
X232111Y123551D01*
X231206Y123244D01*
X230350Y122822D01*
X229556Y122292D01*
X228838Y121662D01*
X234000Y123800D02*
X233047Y123738D01*
X232111Y123551D01*
X231206Y123244D01*
X230350Y122822D01*
X229556Y122292D01*
X228838Y121662D01*
X170000Y112800D02*
X169006Y112732D01*
X168031Y112529D01*
X167092Y112196D01*
X166207Y111737D01*
X165393Y111163D01*
X164665Y110483D01*
X164036Y109710D01*
X163518Y108859D01*
X163121Y107945D01*
X162853Y106985D01*
X162717Y105998D01*
Y105002D01*
X162853Y104015D01*
X163121Y103055D01*
X163518Y102141D01*
X164036Y101290D01*
X164665Y100517D01*
X165393Y99837D01*
X166207Y99263D01*
X167092Y98804D01*
X168031Y98471D01*
X169006Y98268D01*
X170000Y98200D01*
X223000D02*
X223953Y98263D01*
X224889Y98449D01*
X225794Y98756D01*
X226650Y99178D01*
X227444Y99708D01*
X228162Y100338D01*
X223000Y98200D02*
X223953Y98263D01*
X224889Y98449D01*
X225794Y98756D01*
X226650Y99178D01*
X227444Y99708D01*
X228162Y100338D01*
X260104Y92917D02*
X259369Y93481D01*
X258512Y93836D01*
X257594Y93956D01*
X260104Y92917D02*
X259369Y93481D01*
X258512Y93836D01*
X257594Y93956D01*
X261550Y76423D02*
X262214Y77271D01*
X262450Y78321D01*
X262254Y79281D01*
X261697Y80088D01*
X260869Y80611D01*
X259902Y80769D01*
X258950Y80534D01*
X258166Y79946D01*
X257676Y79097D01*
X257558Y78124D01*
X257830Y77183D01*
X258450Y76423D01*
X118083Y87896D02*
X118819Y87332D01*
X119675Y86977D01*
X120594Y86856D01*
X241913Y75988D02*
X241005Y76595D01*
X239933Y76808D01*
X137992D02*
X136921Y76595D01*
X136012Y75988D01*
X135405Y75079D01*
X135192Y74008D01*
X137992Y76808D02*
X136921Y76595D01*
X136012Y75988D01*
X135405Y75079D01*
X135192Y74008D01*
X118083Y87896D02*
X118819Y87332D01*
X119675Y86977D01*
X120594Y86856D01*
X241913Y75988D02*
X241005Y76595D01*
X239933Y76808D01*
X108800Y83300D02*
X108587Y84372D01*
X107980Y85280D01*
X108800Y83300D02*
X108587Y84372D01*
X107980Y85280D01*
X201509Y64000D02*
X201310Y64966D01*
X200747Y65775D01*
X199910Y66297D01*
X198936Y66447D01*
X197981Y66200D01*
X197201Y65597D01*
X196722Y64735D01*
X196621Y63754D01*
X198813Y61562D02*
X199823Y61672D01*
X200702Y62183D01*
X201298Y63006D01*
X201509Y64000D01*
X256800Y59941D02*
X256587Y61013D01*
X255980Y61921D01*
X256050Y58034D02*
X256606Y58916D01*
X256800Y59941D01*
X107980Y57004D02*
X108587Y57912D01*
X108800Y58984D01*
X128450Y54000D02*
X128247Y54975D01*
X127673Y55789D01*
X126823Y56308D01*
X125836Y56445D01*
X124876Y56177D01*
X124103Y55550D01*
X118400D02*
X117304Y55096D01*
X118400Y55550D02*
X117304Y55096D01*
X107980Y57004D02*
X108587Y57912D01*
X108800Y58984D01*
X102510Y113510D02*
X101775Y114074D01*
X100919Y114429D01*
X100000Y114550D01*
X102510Y113510D02*
X101775Y114074D01*
X100919Y114429D01*
X100000Y114550D01*
X73145D02*
X72226Y114429D01*
X71370Y114074D01*
X70634Y113510D01*
X73145Y114550D02*
X72226Y114429D01*
X71370Y114074D01*
X70634Y113510D01*
X95280Y97980D02*
X94371Y98587D01*
X93300Y98800D01*
X63120Y105996D02*
X62577Y105297D01*
X62224Y104486D01*
X62082Y103612D01*
X63120Y105996D02*
X62577Y105297D01*
X62224Y104486D01*
X62082Y103612D01*
X95280Y97980D02*
X94371Y98587D01*
X93300Y98800D01*
X85433D02*
X84475Y98631D01*
X83633Y98145D01*
X83008Y97400D01*
X82676Y96486D01*
Y95514D01*
X83008Y94600D01*
X83633Y93855D01*
X84475Y93369D01*
X85433Y93200D01*
X17982Y118110D02*
X17921Y119111D01*
X17736Y120096D01*
X17433Y121051D01*
X17014Y121961D01*
X16486Y122813D01*
X15858Y123594D01*
X15138Y124292D01*
X14339Y124896D01*
X13471Y125397D01*
X12548Y125787D01*
X11584Y126062D01*
X10594Y126215D01*
X9592Y126246D01*
X8594Y126154D01*
X7615Y125939D01*
X6670Y125606D01*
X5773Y125160D01*
X4937Y124606D01*
X4176Y123954D01*
X3501Y123213D01*
X2922Y122395D01*
X2448Y121512D01*
X2086Y120578D01*
X1841Y119606D01*
X1718Y118611D01*
Y117609D01*
X1841Y116615D01*
X2086Y115643D01*
X2448Y114708D01*
X2922Y113825D01*
X3501Y113007D01*
X4176Y112267D01*
X4937Y111615D01*
X5773Y111061D01*
X6670Y110614D01*
X7615Y110281D01*
X8594Y110067D01*
X9592Y109974D01*
X10594Y110005D01*
X11584Y110159D01*
X12548Y110433D01*
X13471Y110824D01*
X14339Y111325D01*
X15138Y111929D01*
X15858Y112627D01*
X16486Y113407D01*
X17014Y114259D01*
X17433Y115170D01*
X17736Y116125D01*
X17921Y117110D01*
X17982Y118110D01*
X17921Y119111D01*
X17736Y120096D01*
X17433Y121051D01*
X17014Y121961D01*
X16486Y122813D01*
X15858Y123594D01*
X15138Y124292D01*
X14339Y124896D01*
X13471Y125397D01*
X12548Y125787D01*
X11584Y126062D01*
X10594Y126215D01*
X9592Y126246D01*
X8594Y126154D01*
X7615Y125939D01*
X6670Y125606D01*
X5773Y125160D01*
X4937Y124606D01*
X4176Y123954D01*
X3501Y123213D01*
X2922Y122395D01*
X2448Y121512D01*
X2086Y120578D01*
X1841Y119606D01*
X1718Y118611D01*
Y117609D01*
X1841Y116615D01*
X2086Y115643D01*
X2448Y114708D01*
X2922Y113825D01*
X3501Y113007D01*
X4176Y112267D01*
X4937Y111615D01*
X5773Y111061D01*
X6670Y110614D01*
X7615Y110281D01*
X8594Y110067D01*
X9592Y109974D01*
X10594Y110005D01*
X11584Y110159D01*
X12548Y110433D01*
X13471Y110824D01*
X14339Y111325D01*
X15138Y111929D01*
X15858Y112627D01*
X16486Y113407D01*
X17014Y114259D01*
X17433Y115170D01*
X17736Y116125D01*
X17921Y117110D01*
X17982Y118110D01*
X5906Y127953D02*
X4880Y127863D01*
X3886Y127597D01*
X2953Y127162D01*
X2110Y126571D01*
X1382Y125843D01*
X791Y125000D01*
X356Y124067D01*
X90Y123073D01*
X0Y122047D01*
X10896Y95079D02*
X10732Y96060D01*
X10259Y96935D01*
X9527Y97608D01*
X8616Y98008D01*
X7625Y98090D01*
X6660Y97846D01*
X5827Y97302D01*
X5217Y96517D01*
X4894Y95576D01*
Y94581D01*
X5217Y93641D01*
X5827Y92856D01*
X6660Y92312D01*
X7625Y92067D01*
X8616Y92150D01*
X9527Y92549D01*
X10259Y93223D01*
X10732Y94098D01*
X10896Y95079D01*
Y86024D02*
X10732Y87005D01*
X10259Y87880D01*
X9527Y88553D01*
X8616Y88953D01*
X7625Y89035D01*
X6660Y88791D01*
X5827Y88247D01*
X5217Y87462D01*
X4894Y86521D01*
Y85526D01*
X5217Y84585D01*
X5827Y83801D01*
X6660Y83257D01*
X7625Y83012D01*
X8616Y83094D01*
X9527Y83494D01*
X10259Y84168D01*
X10732Y85043D01*
X10896Y86024D01*
X101263Y74249D02*
X101663Y75590D01*
X101456Y76575D01*
X100872Y77393D01*
X100008Y77908D01*
X99010Y78032D01*
X98046Y77745D01*
X97279Y77094D01*
X96838Y76191D01*
X96797Y75186D01*
X97163Y74249D01*
X101481Y58425D02*
X101263Y58842D01*
X97163D02*
X96786Y57839D01*
X96874Y56771D01*
X97408Y55843D01*
X98288Y55231D01*
X83927Y55118D02*
X83837Y56079D01*
X83571Y57006D01*
X83138Y57868D01*
X82553Y58635D01*
X81835Y59280D01*
X81011Y59782D01*
X80108Y60122D01*
X79158Y60288D01*
X78193Y60276D01*
X77247Y60086D01*
X76353Y59723D01*
X75541Y59201D01*
X74840Y58538D01*
X74274Y57757D01*
X83927Y55118D02*
X83837Y56079D01*
X83571Y57006D01*
X83138Y57868D01*
X82553Y58635D01*
X81835Y59280D01*
X81011Y59782D01*
X80108Y60122D01*
X79158Y60288D01*
X78193Y60276D01*
X77247Y60086D01*
X76353Y59723D01*
X75541Y59201D01*
X74840Y58538D01*
X74274Y57757D01*
X139972Y50270D02*
X140579Y51178D01*
X140792Y52250D01*
X139972Y50270D02*
X140579Y51178D01*
X140792Y52250D01*
X187450Y44138D02*
X187263Y45076D01*
X186731Y45871D01*
X185936Y46402D01*
X184997Y46588D01*
X184059Y46400D01*
X184754Y41700D02*
X185765Y41810D01*
X186643Y42321D01*
X187239Y43144D01*
X187450Y44138D01*
Y36264D02*
X187252Y37230D01*
X186688Y38039D01*
X185852Y38561D01*
X184877Y38711D01*
X183922Y38464D01*
X183142Y37861D01*
X182663Y36999D01*
X182562Y36018D01*
X184754Y33826D02*
X185765Y33936D01*
X186643Y34447D01*
X187239Y35270D01*
X187450Y36264D01*
X124103Y52450D02*
X124876Y51823D01*
X125836Y51556D01*
X126823Y51692D01*
X127673Y52211D01*
X128247Y53025D01*
X128450Y54000D01*
X122450Y49600D02*
X122244Y50584D01*
X121659Y51403D01*
X120795Y51917D01*
X119797Y52042D01*
X118833Y51754D01*
X118066Y51104D01*
X117625Y50200D01*
X117584Y49195D01*
X117950Y48258D01*
X122050D02*
X122450Y49600D01*
X126242Y37700D02*
X127314Y37913D01*
X128222Y38520D01*
X126242Y37700D02*
X127314Y37913D01*
X128222Y38520D01*
X112246Y50038D02*
X111275Y49940D01*
X110418Y49471D01*
X109813Y48705D01*
X109555Y47764D01*
X109686Y46797D01*
X110183Y45957D01*
X110969Y45378D01*
X111918Y45151D01*
X112881Y45314D01*
X113703Y45839D01*
X114256Y46643D01*
X114450Y47600D01*
X97860Y43300D02*
X96788Y43087D01*
X95880Y42480D01*
X97860Y43300D02*
X96788Y43087D01*
X95880Y42480D01*
X258450Y34897D02*
X257830Y34138D01*
X257558Y33197D01*
X257676Y32224D01*
X258166Y31375D01*
X258950Y30786D01*
X259902Y30552D01*
X260869Y30709D01*
X261697Y31233D01*
X262254Y32040D01*
X262450Y33000D01*
X253206Y29486D02*
X252110Y29940D01*
X251950Y32500D02*
X252106Y31716D01*
X252550Y31050D01*
X253206Y29486D02*
X252110Y29940D01*
X251950Y32500D02*
X252106Y31716D01*
X252550Y31050D01*
X228450Y20445D02*
X228174Y21575D01*
X227408Y22450D01*
X242596Y17096D02*
X241500Y17550D01*
X242596Y17096D02*
X241500Y17550D01*
X226000Y17995D02*
X226938Y18181D01*
X227732Y18712D01*
X228263Y19507D01*
X228450Y20445D01*
X250550Y8500D02*
X250096Y9596D01*
X250550Y8500D02*
X250096Y9596D01*
X247450Y7397D02*
X246830Y6638D01*
X246558Y5697D01*
X246676Y4724D01*
X247166Y3875D01*
X247950Y3286D01*
X248902Y3052D01*
X249869Y3209D01*
X250697Y3733D01*
X251254Y4540D01*
X251450Y5500D01*
X251214Y6550D01*
X250550Y7397D01*
X189500Y7450D02*
X190596Y7904D01*
X189500Y7450D02*
X190596Y7904D01*
X151300Y32250D02*
X151087Y33321D01*
X150480Y34230D01*
X150725Y30550D02*
X151152Y31352D01*
X151300Y32250D01*
X186897Y29940D02*
X186087Y30586D01*
X185082Y30838D01*
X184062Y30653D01*
X183211Y30063D01*
X182679Y29174D01*
X182562Y28144D01*
X142897Y30550D02*
X142174Y31151D01*
X141277Y31434D01*
X140340Y31359D01*
X139499Y30937D01*
X138880Y30229D01*
X138574Y29340D01*
X138624Y28401D01*
X139025Y27550D01*
X92496D02*
X91400Y27096D01*
X92502Y27550D02*
X91400Y27096D01*
X74274Y52479D02*
X74840Y51698D01*
X75541Y51035D01*
X76353Y50513D01*
X77247Y50151D01*
X78193Y49960D01*
X79158Y49948D01*
X80108Y50115D01*
X81011Y50455D01*
X81835Y50956D01*
X82553Y51601D01*
X83138Y52368D01*
X83571Y53230D01*
X83837Y54158D01*
X83927Y55118D01*
X74274Y52479D02*
X74840Y51698D01*
X75541Y51035D01*
X76353Y50513D01*
X77247Y50151D01*
X78193Y49960D01*
X79158Y49948D01*
X80108Y50115D01*
X81011Y50455D01*
X81835Y50956D01*
X82553Y51601D01*
X83138Y52368D01*
X83571Y53230D01*
X83837Y54158D01*
X83927Y55118D01*
X72096Y38400D02*
X71025Y38187D01*
X70116Y37580D01*
X72096Y38400D02*
X71025Y38187D01*
X70116Y37580D01*
X82616Y32800D02*
X83688Y33013D01*
X84596Y33620D01*
X82616Y32800D02*
X83688Y33013D01*
X84596Y33620D01*
X73578Y9274D02*
X72747Y9573D01*
X71874Y9707D01*
X70992Y9672D01*
X62924Y9524D02*
X61964Y9701D01*
X60988Y9672D01*
X60040Y9437D01*
X59163Y9007D01*
X58397Y8401D01*
X57776Y7647D01*
X57328Y6779D01*
X57074Y5836D01*
X57025Y4861D01*
X57183Y3897D01*
X57541Y2989D01*
X58082Y2176D01*
X58784Y1497D01*
X59613Y980D01*
X60532Y651D01*
X61500Y523D01*
X56211Y5118D02*
X56100Y6120D01*
X55774Y7074D01*
X55247Y7933D01*
X54546Y8658D01*
X53704Y9212D01*
X52762Y9569D01*
X51764Y9712D01*
X50759Y9634D01*
X49795Y9339D01*
X47393Y6937D02*
X47096Y5964D01*
X47021Y4950D01*
X47170Y3943D01*
X47538Y2994D01*
X48105Y2150D01*
X48844Y1451D01*
X49718Y931D01*
X50686Y616D01*
X51698Y522D01*
X52707Y654D01*
X53663Y1003D01*
X54518Y1555D01*
X55230Y2281D01*
X55766Y3145D01*
X56098Y4107D01*
X56211Y5118D01*
X46211D02*
X46172Y5716D01*
X42212Y9675D02*
X41202Y9696D01*
X40213Y9496D01*
X39291Y9084D01*
X38481Y8481D01*
X37822Y7716D01*
X37346Y6825D01*
X37077Y5852D01*
X37026Y4843D01*
X37197Y3848D01*
X37581Y2914D01*
X38159Y2087D01*
X38905Y1405D01*
X39781Y903D01*
X40745Y605D01*
X41752Y524D01*
X42752Y665D01*
X43696Y1020D01*
X44541Y1574D01*
X45244Y2299D01*
X45772Y3159D01*
X46100Y4115D01*
X46211Y5118D01*
X17982Y9843D02*
X17921Y10843D01*
X17736Y11828D01*
X17433Y12783D01*
X17014Y13693D01*
X16486Y14546D01*
X15858Y15326D01*
X15138Y16024D01*
X14339Y16628D01*
X13471Y17129D01*
X12548Y17520D01*
X11584Y17794D01*
X10594Y17948D01*
X9592Y17978D01*
X8594Y17886D01*
X7615Y17672D01*
X6670Y17338D01*
X5773Y16892D01*
X4937Y16338D01*
X4176Y15686D01*
X3501Y14945D01*
X2922Y14128D01*
X2448Y13245D01*
X2086Y12310D01*
X1841Y11338D01*
X1718Y10344D01*
Y9341D01*
X1841Y8347D01*
X2086Y7375D01*
X2448Y6440D01*
X2922Y5557D01*
X3501Y4739D01*
X4176Y3999D01*
X4937Y3347D01*
X5773Y2793D01*
X6670Y2347D01*
X7615Y2014D01*
X8594Y1799D01*
X9592Y1707D01*
X10594Y1737D01*
X11584Y1891D01*
X12548Y2166D01*
X13471Y2556D01*
X14339Y3057D01*
X15138Y3661D01*
X15858Y4359D01*
X16486Y5140D01*
X17014Y5992D01*
X17433Y6902D01*
X17736Y7857D01*
X17921Y8842D01*
X17982Y9843D01*
X17921Y10843D01*
X17736Y11828D01*
X17433Y12783D01*
X17014Y13693D01*
X16486Y14546D01*
X15858Y15326D01*
X15138Y16024D01*
X14339Y16628D01*
X13471Y17129D01*
X12548Y17520D01*
X11584Y17794D01*
X10594Y17948D01*
X9592Y17978D01*
X8594Y17886D01*
X7615Y17672D01*
X6670Y17338D01*
X5773Y16892D01*
X4937Y16338D01*
X4176Y15686D01*
X3501Y14945D01*
X2922Y14128D01*
X2448Y13245D01*
X2086Y12310D01*
X1841Y11338D01*
X1718Y10344D01*
Y9341D01*
X1841Y8347D01*
X2086Y7375D01*
X2448Y6440D01*
X2922Y5557D01*
X3501Y4739D01*
X4176Y3999D01*
X4937Y3347D01*
X5773Y2793D01*
X6670Y2347D01*
X7615Y2014D01*
X8594Y1799D01*
X9592Y1707D01*
X10594Y1737D01*
X11584Y1891D01*
X12548Y2166D01*
X13471Y2556D01*
X14339Y3057D01*
X15138Y3661D01*
X15858Y4359D01*
X16486Y5140D01*
X17014Y5992D01*
X17433Y6902D01*
X17736Y7857D01*
X17921Y8842D01*
X17982Y9843D01*
X0Y5906D02*
X90Y4880D01*
X356Y3886D01*
X791Y2953D01*
X1382Y2110D01*
X2110Y1382D01*
X2953Y791D01*
X3886Y356D01*
X4880Y90D01*
X5906Y0D01*
X411678Y118400D02*
X413386D01*
X411654Y118800D02*
X413386D01*
X411682Y118000D02*
X413386D01*
X411546Y119600D02*
X413386D01*
X411610Y119200D02*
X413386D01*
X411577Y116800D02*
X413386D01*
X411501Y116400D02*
X413386D01*
X411667Y117600D02*
X413386D01*
X411632Y117200D02*
X413386D01*
X411074Y121200D02*
X413386D01*
X410897Y121600D02*
X413386D01*
X411226Y120800D02*
X413386D01*
X410694Y122000D02*
X413386D01*
X411405Y116000D02*
X413386D01*
X411286Y115600D02*
X413386D01*
X411354Y120400D02*
X413386D01*
X411461Y120000D02*
X413386D01*
X410788Y114400D02*
X413386D01*
X410569Y114000D02*
X413386D01*
X410319Y113600D02*
X413386D01*
X411145Y115200D02*
X413386D01*
X410980Y114800D02*
X413386D01*
X409344Y112400D02*
X413386D01*
X408921Y112000D02*
X413386D01*
X410035Y113200D02*
X413386D01*
X409712Y112800D02*
X413386D01*
X380523Y108800D02*
X413386D01*
X380888Y108400D02*
X413386D01*
X408429Y111600D02*
X413386D01*
X380124Y109200D02*
X413386D01*
X381713Y107200D02*
X413386D01*
X381917Y106800D02*
X413386D01*
X381203Y108000D02*
X413386D01*
X381476Y107600D02*
X413386D01*
X409162Y124000D02*
X413054D01*
X408710Y124400D02*
X412897D01*
X409553Y123600D02*
X413178D01*
X407542Y125200D02*
X412474D01*
X408180Y124800D02*
X412705D01*
X410461Y122400D02*
X413375D01*
X407845Y111200D02*
X413386D01*
X409896Y123200D02*
X413272D01*
X410196Y122800D02*
X413338D01*
X405545Y126000D02*
X411868D01*
X406731Y125600D02*
X412198D01*
X376924Y112400D02*
X397743D01*
X377324Y112000D02*
X398165D01*
X377724Y111600D02*
X398657D01*
X378124Y111200D02*
X399242D01*
X404236Y110000D02*
X413386D01*
X382359Y105600D02*
X413386D01*
X382456Y105200D02*
X413386D01*
X407123Y110800D02*
X413386D01*
X406152Y110400D02*
X413386D01*
X382529Y104800D02*
X413386D01*
X382580Y104400D02*
X413386D01*
X382608Y104000D02*
X413386D01*
X382615Y103612D02*
X388376D01*
X379324Y110000D02*
X402851D01*
X379724Y109600D02*
X413386D01*
X378524Y110800D02*
X399963D01*
X378924Y110400D02*
X400934D01*
X382091Y106400D02*
X413386D01*
X382238Y106000D02*
X413386D01*
X388376Y97600D02*
X418814D01*
X388376Y98000D02*
X418234D01*
X388376Y97200D02*
X419355D01*
X388376Y99200D02*
X416185D01*
X388376Y98800D02*
X416930D01*
X407295Y92800D02*
X423617D01*
X406264Y93600D02*
X423014D01*
X406880Y93200D02*
X423323D01*
X388376Y96000D02*
X420785D01*
X388376Y96400D02*
X420336D01*
X388376Y95600D02*
X421208D01*
X388376Y98400D02*
X417609D01*
X388376Y96800D02*
X419861D01*
X388376Y94400D02*
X422348D01*
X388376Y94000D02*
X422689D01*
X388376Y95200D02*
X421608D01*
X388376Y94800D02*
X421988D01*
X408131Y90800D02*
X424883D01*
X408078Y91200D02*
X424655D01*
X408136Y90400D02*
X425100D01*
X407817Y92000D02*
X424162D01*
X407975Y91600D02*
X424415D01*
X407861Y89200D02*
X425685D01*
X407657Y88800D02*
X425859D01*
X408095Y90000D02*
X425306D01*
X408005Y89600D02*
X425500D01*
X406995Y88000D02*
X426178D01*
X406444Y87600D02*
X426323D01*
X407596Y92400D02*
X423896D01*
X407377Y88400D02*
X426023D01*
X388712Y86400D02*
X426705D01*
X389724Y86000D02*
X426815D01*
X405383Y87200D02*
X426459D01*
X388407Y86800D02*
X426587D01*
X388376Y102400D02*
X413386D01*
X388376Y102800D02*
X413386D01*
X388376Y102000D02*
X413386D01*
X388376Y103600D02*
X413386D01*
X388376Y103200D02*
X413386D01*
Y100394D02*
Y122047D01*
X388376Y87072D02*
Y103612D01*
Y100800D02*
X413386D01*
X388376Y100400D02*
X413386D01*
X388376Y101600D02*
X413386D01*
X388376Y101200D02*
X413386D01*
X388376Y100000D02*
X414422D01*
X388376Y99600D02*
X415358D01*
X388376Y93600D02*
X403185D01*
X388376Y93200D02*
X402568D01*
X388376Y88400D02*
X402072D01*
X388376Y88800D02*
X401792D01*
X388376Y88000D02*
X402454D01*
X388376Y89600D02*
X401444D01*
X388376Y89200D02*
X401588D01*
X388376Y87600D02*
X403005D01*
X388376Y87200D02*
X404065D01*
X388931Y86266D02*
X389314Y86110D01*
X389828Y85972D01*
X388376Y92800D02*
X402154D01*
X388376Y92400D02*
X401853D01*
X388376Y92000D02*
X401632D01*
X388376Y91600D02*
X401474D01*
X388376Y91200D02*
X401371D01*
X388376Y90000D02*
X401354D01*
X388376Y90800D02*
X401318D01*
X388376Y90400D02*
X401312D01*
X368524Y120800D02*
X395861D01*
X368124Y121200D02*
X396013D01*
X368924Y120400D02*
X395732D01*
X369324Y120000D02*
X395626D01*
X369724Y119600D02*
X395541D01*
X370124Y119200D02*
X395477D01*
X370524Y118800D02*
X395433D01*
X370924Y118400D02*
X395409D01*
X371324Y118000D02*
X395404D01*
X365398Y123200D02*
X397191D01*
X364197Y123600D02*
X397533D01*
X366188Y122800D02*
X396890D01*
X366799Y122400D02*
X396626D01*
X367300Y122000D02*
X396393D01*
X367662Y121662D02*
X380477Y108847D01*
X367724Y121600D02*
X396190D01*
X374524Y114800D02*
X396107D01*
X374124Y115200D02*
X395942D01*
X374924Y114400D02*
X396298D01*
X373324Y116000D02*
X395682D01*
X373724Y115600D02*
X395800D01*
X376124Y113200D02*
X397051D01*
X376524Y112800D02*
X397374D01*
X375324Y114000D02*
X396517D01*
X375724Y113600D02*
X396767D01*
X372524Y116800D02*
X395510D01*
X372924Y116400D02*
X395585D01*
X371724Y117600D02*
X395420D01*
X372124Y117200D02*
X395455D01*
X359476Y109200D02*
X365064Y103612D01*
X362254D02*
X365064D01*
X356675Y104400D02*
X364276D01*
X357137Y104000D02*
X364676D01*
X357429Y103600D02*
X362254D01*
X355559Y104800D02*
X363876D01*
X357617Y103200D02*
X362254D01*
X357726Y102800D02*
X362254D01*
X357765Y102400D02*
X362254D01*
X357738Y102000D02*
X362254D01*
X349123Y98716D02*
X352867Y102460D01*
X340795Y104800D02*
X355071D01*
X341911Y104400D02*
X353955D01*
X342373Y104000D02*
X353493D01*
X342665Y103600D02*
X353201D01*
X342853Y103200D02*
X353013D01*
X342961Y102800D02*
X352904D01*
X343001Y102400D02*
X352807D01*
X342974Y102000D02*
X352407D01*
X357202Y100800D02*
X362254D01*
X356782Y100400D02*
X362254D01*
X355965Y100000D02*
X362254D01*
X357643Y101600D02*
X362254D01*
X357472Y101200D02*
X362254D01*
X354298Y98800D02*
X362254D01*
X353898Y98400D02*
X362254D01*
X355098Y99600D02*
X362254D01*
X354698Y99200D02*
X362254D01*
X342879Y101600D02*
X352007D01*
X342708Y101200D02*
X351607D01*
X342438Y100800D02*
X351207D01*
X342351Y100400D02*
X350807D01*
X342351Y100000D02*
X350407D01*
X342351Y99600D02*
X350007D01*
X342351Y99200D02*
X349607D01*
X342351Y98800D02*
X349207D01*
X353498Y98000D02*
X362254D01*
X353098Y97600D02*
X362254D01*
X352698Y97200D02*
X362254D01*
X352194Y96695D02*
X355413Y99914D01*
X352298Y96800D02*
X362254D01*
Y69616D02*
Y103612D01*
X352194Y93600D02*
X362254D01*
X352194Y96400D02*
X362254D01*
X352194Y96000D02*
X362254D01*
X352194Y95200D02*
X362254D01*
X352194Y94800D02*
X362254D01*
X352194Y95600D02*
X362254D01*
X352194Y93200D02*
X362254D01*
X352194Y92800D02*
X362254D01*
X352194Y94400D02*
X362254D01*
X352194Y94000D02*
X362254D01*
X352194Y88000D02*
X362254D01*
X352194Y88400D02*
X362254D01*
X352194Y87600D02*
X362254D01*
X352194Y89200D02*
X362254D01*
X352194Y88800D02*
X362254D01*
X352194Y86400D02*
X362254D01*
X352194Y86000D02*
X362254D01*
X352194Y87200D02*
X362254D01*
X352194Y86800D02*
X362254D01*
X352194Y91600D02*
X362254D01*
X352194Y91200D02*
X362254D01*
X352194Y92400D02*
X362254D01*
X352194Y92000D02*
X362254D01*
X352194Y90000D02*
X362254D01*
X352194Y89600D02*
X362254D01*
X352194Y90800D02*
X362254D01*
X352194Y90400D02*
X362254D01*
X344546Y96000D02*
X348594D01*
X344946Y95600D02*
X348594D01*
X345346Y95200D02*
X348594D01*
X345746Y94800D02*
X348594D01*
Y91952D02*
Y97441D01*
X346946Y93600D02*
X348594D01*
X346146Y94400D02*
X348594D01*
X346546Y94000D02*
X348594D01*
X342351Y98400D02*
X348870D01*
X342546Y98000D02*
X348683D01*
X342946Y97600D02*
X348601D01*
X343346Y97200D02*
X348594D01*
X343746Y96800D02*
X348594D01*
X344146Y96400D02*
X348594D01*
X342351Y98195D02*
X348594Y91952D01*
X339280Y96174D02*
X345794Y89661D01*
X347746Y92800D02*
X348594D01*
X347346Y93200D02*
X348594D01*
X348146Y92400D02*
X348594D01*
X332508Y90800D02*
X344654D01*
X332508Y90000D02*
X345454D01*
X345794Y74252D02*
Y89661D01*
X333646Y86400D02*
X345794D01*
X332846Y87200D02*
X345794D01*
X333246Y86800D02*
X345794D01*
X332508Y89200D02*
X345794D01*
X332508Y88800D02*
X345794D01*
X332508Y90400D02*
X345054D01*
X332508Y89600D02*
X345794D01*
X332508Y87600D02*
X345794D01*
X332508Y87537D02*
X345794Y74252D01*
X332508Y88400D02*
X345794D01*
X332508Y88000D02*
X345794D01*
X409921Y80800D02*
X427500D01*
X409520Y81200D02*
X427494D01*
X410321Y80400D02*
X427498D01*
X408720Y82000D02*
X427460D01*
X409121Y81600D02*
X427481D01*
X410720Y80000D02*
X427488D01*
X411121Y79600D02*
X427470D01*
X411520Y79200D02*
X427445D01*
X411920Y78800D02*
X427412D01*
X406320Y84400D02*
X427169D01*
X405882Y84800D02*
X427093D01*
X406720Y84000D02*
X427238D01*
X392723Y85600D02*
X426916D01*
X405237Y85200D02*
X427008D01*
X407921Y82800D02*
X427394D01*
X408321Y82400D02*
X427431D01*
X407121Y83600D02*
X427298D01*
X407520Y83200D02*
X427350D01*
X415669Y74800D02*
X426642D01*
X415433Y75200D02*
X426756D01*
X415841Y74400D02*
X426519D01*
X415959Y74000D02*
X426387D01*
X416027Y73600D02*
X426245D01*
X416050Y73200D02*
X426095D01*
X416050Y72800D02*
X425935D01*
X416050Y72400D02*
X425766D01*
X416050Y72000D02*
X425586D01*
X412321Y78400D02*
X427371D01*
X412720Y78000D02*
X427323D01*
X413121Y77600D02*
X427266D01*
X413520Y77200D02*
X427202D01*
X413920Y76800D02*
X427129D01*
X414321Y76400D02*
X427048D01*
X414720Y76000D02*
X426959D01*
X415116Y75600D02*
X426862D01*
X392794Y85550D02*
X403700D01*
X391234Y85798D02*
X392147Y85774D01*
X392794Y78450D02*
X402229D01*
X406210Y84510D02*
X415010Y75710D01*
X402229Y78450D02*
X408950Y71729D01*
X392723Y78400D02*
X402280D01*
X391234Y78202D02*
X392147Y78226D01*
X390470Y85865D02*
X391234Y85798D01*
X390470Y78135D02*
X391234Y78202D01*
X389828Y85972D02*
X390470Y85865D01*
X389828Y78028D02*
X390470Y78135D01*
X389724Y78000D02*
X402679D01*
X388712Y77600D02*
X403080D01*
X389314Y77890D02*
X389828Y78028D01*
X388931Y77734D02*
X389314Y77890D01*
X406082Y74000D02*
X406679D01*
X406772Y73600D02*
X407080D01*
X388407Y77200D02*
X403479D01*
X388376Y74800D02*
X405879D01*
X407946Y72000D02*
X408679D01*
X407540Y72800D02*
X407879D01*
X407776Y72400D02*
X408280D01*
X388376Y76000D02*
X404679D01*
X388376Y74400D02*
X406280D01*
X388376Y76800D02*
X403879D01*
X388376Y74000D02*
X403367D01*
X388376Y73600D02*
X402677D01*
X388376Y73200D02*
X402231D01*
X388376Y72800D02*
X401909D01*
X388376Y72400D02*
X401673D01*
X416050Y71200D02*
X425195D01*
X416050Y71600D02*
X425396D01*
X416050Y70800D02*
X424984D01*
X416050Y70400D02*
X424761D01*
X416050Y70000D02*
X424526D01*
X416050Y69600D02*
X424279D01*
X416050Y69200D02*
X424019D01*
X416050Y67339D02*
Y73200D01*
Y68000D02*
X423157D01*
X416050Y68800D02*
X423746D01*
X416050Y68400D02*
X423459D01*
X408950Y68809D02*
Y71729D01*
X416050Y67600D02*
X422840D01*
X416047Y67200D02*
X422506D01*
X416009Y66800D02*
X422154D01*
X415924Y66400D02*
X421784D01*
X415788Y66000D02*
X421393D01*
X415595Y65600D02*
X420981D01*
X415334Y65200D02*
X420544D01*
X414982Y64800D02*
X420082D01*
X414582Y64400D02*
X419590D01*
X414182Y64000D02*
X419066D01*
X413782Y63600D02*
X418504D01*
X413382Y63200D02*
X417901D01*
X412982Y62800D02*
X417247D01*
X412582Y62400D02*
X416534D01*
X412182Y62000D02*
X415747D01*
X411782Y61600D02*
X414865D01*
X411382Y61200D02*
X413852D01*
X410982Y60800D02*
X413386D01*
X410582Y60400D02*
X413386D01*
X408139Y70800D02*
X408950D01*
X408108Y70400D02*
X408950D01*
X408028Y70000D02*
X408950D01*
X408060Y71600D02*
X408950D01*
X408123Y71200D02*
X408950D01*
X407896Y69600D02*
X408950D01*
X407706Y69200D02*
X408950D01*
X407444Y68800D02*
X408941D01*
X407087Y68400D02*
X408541D01*
X388376Y70000D02*
X401421D01*
X406582Y68000D02*
X408141D01*
X388376Y69616D02*
Y70814D01*
Y70400D02*
X401341D01*
X402124Y61983D02*
X408950Y68809D01*
X405723Y67600D02*
X407741D01*
X396132Y63200D02*
X403341D01*
X396132Y63600D02*
X403741D01*
X396132Y62800D02*
X402941D01*
X396132Y62400D02*
X402541D01*
X396132Y62000D02*
X402141D01*
X396132Y61600D02*
X401792D01*
X396132Y61200D02*
X401533D01*
X396132Y60800D02*
X401341D01*
X396132Y60400D02*
X401207D01*
X396132Y66400D02*
X406541D01*
X396132Y66000D02*
X406141D01*
X388908Y66530D02*
X396132D01*
Y65600D02*
X405741D01*
X396132Y65200D02*
X405341D01*
X396132Y64800D02*
X404941D01*
X396132Y64400D02*
X404541D01*
X396132Y64000D02*
X404141D01*
X352194Y80000D02*
X362254D01*
X352194Y80400D02*
X362254D01*
X352194Y79600D02*
X362254D01*
X352194Y81200D02*
X362254D01*
X352194Y80800D02*
X362254D01*
X352194Y78400D02*
X362254D01*
X352194Y78000D02*
X362254D01*
X352194Y79200D02*
X362254D01*
X352194Y78800D02*
X362254D01*
X352194Y84000D02*
X362254D01*
X352194Y84400D02*
X362254D01*
X352194Y83600D02*
X362254D01*
X352194Y85600D02*
X362254D01*
X352194Y85200D02*
X362254D01*
X352194Y82000D02*
X362254D01*
X352194Y81600D02*
X362254D01*
X352194Y83200D02*
X362254D01*
X352194Y82800D02*
X362254D01*
X352194Y77200D02*
X362254D01*
X352194Y77600D02*
X362254D01*
X388376Y76400D02*
X404280D01*
X352194Y76800D02*
X362254D01*
X352194Y76400D02*
X362254D01*
X388376Y75600D02*
X405080D01*
X388376Y75200D02*
X405479D01*
X388376Y72000D02*
X401503D01*
X388376Y71600D02*
X401389D01*
X352194Y74000D02*
X362254D01*
X352194Y73600D02*
X362254D01*
X352194Y74800D02*
X362254D01*
X352194Y74400D02*
X362254D01*
X352194Y72400D02*
X362254D01*
X352194Y72000D02*
X362254D01*
X352194Y73200D02*
X362254D01*
X352194Y72800D02*
X362254D01*
X352194Y82400D02*
X362254D01*
X352194Y84800D02*
X362254D01*
X338046Y82000D02*
X345794D01*
X337246Y82800D02*
X345794D01*
X337646Y82400D02*
X345794D01*
X339246Y80800D02*
X345794D01*
X339646Y80400D02*
X345794D01*
X338446Y81600D02*
X345794D01*
X338846Y81200D02*
X345794D01*
X334846Y85200D02*
X345794D01*
X335246Y84800D02*
X345794D01*
X334046Y86000D02*
X345794D01*
X334446Y85600D02*
X345794D01*
X336446Y83600D02*
X345794D01*
X336846Y83200D02*
X345794D01*
X335646Y84400D02*
X345794D01*
X336046Y84000D02*
X345794D01*
X352194Y76000D02*
X362254D01*
X343246Y76800D02*
X345794D01*
X352194Y75600D02*
X362254D01*
X343646Y76400D02*
X345794D01*
X344046Y76000D02*
X345794D01*
X344446Y75600D02*
X345794D01*
X352194Y75200D02*
X362254D01*
X344846D02*
X345794D01*
X345246Y74800D02*
X345794D01*
X340846Y79200D02*
X345794D01*
X341246Y78800D02*
X345794D01*
X340046Y80000D02*
X345794D01*
X340446Y79600D02*
X345794D01*
X342446Y77600D02*
X345794D01*
X342846Y77200D02*
X345794D01*
X341646Y78400D02*
X345794D01*
X342046Y78000D02*
X345794D01*
X388376Y70800D02*
X401310D01*
X388376Y71200D02*
X401325D01*
X387173Y69600D02*
X401552D01*
X388376Y71052D02*
Y76928D01*
X387288Y69616D02*
X388376D01*
X386736Y68800D02*
X402005D01*
X386648Y68400D02*
X402362D01*
X386869Y69200D02*
X401743D01*
X386721Y68755D02*
X386850Y69161D01*
X386581Y68000D02*
X402867D01*
X386530Y67600D02*
X403726D01*
X386609Y68216D02*
X386721Y68755D01*
X386524Y67553D02*
X386609Y68216D01*
X386499Y67200D02*
X407341D01*
X386472Y66800D02*
X406941D01*
X386470Y66772D02*
X386524Y67553D01*
X386451Y65852D02*
X386470Y66772D01*
X386396Y65600D02*
X388908D01*
X386289Y65200D02*
X388908D01*
X386289Y64800D02*
X388908D01*
X386463Y66400D02*
X388908D01*
X386454Y66000D02*
X388908D01*
X386289Y63600D02*
X388908D01*
X386289Y63200D02*
X388908D01*
X386289Y64400D02*
X388908D01*
X386289Y64000D02*
X388908D01*
X386289Y62000D02*
X388908D01*
X386289Y61600D02*
X388908D01*
X386289Y62800D02*
X388908D01*
X386289Y62400D02*
X388908D01*
X386289Y60800D02*
X388908D01*
X386289Y60400D02*
X388908D01*
X352194Y61600D02*
X379065D01*
X386289Y61200D02*
X388908D01*
X352194Y70000D02*
X362254D01*
X352194Y70400D02*
X362254D01*
Y69616D02*
X377605D01*
X352194Y71600D02*
X362254D01*
X352194Y71200D02*
X362254D01*
X378705Y68162D02*
X378812Y67521D01*
X378879Y66757D01*
X378411Y69059D02*
X378567Y68677D01*
X378705Y68162D01*
X352194Y69200D02*
X378325D01*
X352194Y68800D02*
X378517D01*
X352194Y70800D02*
X362254D01*
X352194Y69600D02*
X377756D01*
X352194Y67600D02*
X378799D01*
X352194Y67200D02*
X378840D01*
X352194Y68400D02*
X378641D01*
X352194Y68000D02*
X378732D01*
X378879Y66757D02*
X378903Y65845D01*
X352194Y66000D02*
X378899D01*
X352194Y65600D02*
X378958D01*
X352194Y66800D02*
X378875D01*
X352194Y66400D02*
X378889D01*
X352194Y64400D02*
X379065D01*
X352194Y64000D02*
X379065D01*
X352194Y65200D02*
X379065D01*
X352194Y64800D02*
X379065D01*
X352194Y62800D02*
X379065D01*
X352194Y62400D02*
X379065D01*
X352194Y63600D02*
X379065D01*
X352194Y63200D02*
X379065D01*
X352194Y60800D02*
X379065D01*
X352194Y60400D02*
X379065D01*
X352194Y62000D02*
X379065D01*
X352194Y61200D02*
X379065D01*
X333119Y102800D02*
X338140D01*
X333011Y103200D02*
X338249D01*
X333037Y101600D02*
X338222D01*
X333158Y102400D02*
X338101D01*
X333131Y102000D02*
X338128D01*
X338751Y97449D02*
Y100700D01*
X342351Y98195D02*
Y100700D01*
X332068Y104400D02*
X339191D01*
X330953Y104800D02*
X340307D01*
X332530Y104000D02*
X338729D01*
X311268Y104800D02*
X330464D01*
X332823Y103600D02*
X338437D01*
X332865Y101200D02*
X338394D01*
X332596Y100800D02*
X338664D01*
X332508Y99200D02*
X338751D01*
X332508Y99600D02*
X338751D01*
X332508Y98800D02*
X338751D01*
X332508Y100400D02*
X338751D01*
X332508Y100000D02*
X338751D01*
X332508Y98400D02*
X338751D01*
X332508Y98000D02*
X338751D01*
X332508Y96800D02*
X338872D01*
X332508Y96400D02*
X339088D01*
X332508Y97600D02*
X338751D01*
X332508Y97200D02*
X338768D01*
X332508Y95200D02*
X340254D01*
X332508Y94800D02*
X340654D01*
X332508Y96000D02*
X339454D01*
X332508Y95600D02*
X339854D01*
X313138Y103600D02*
X328594D01*
X312846Y104000D02*
X328886D01*
X313326Y103200D02*
X328406D01*
X313434Y102800D02*
X328298D01*
X313473Y102400D02*
X328259D01*
X313180Y101200D02*
X328552D01*
X312911Y100800D02*
X328821D01*
X313447Y102000D02*
X328285D01*
X313352Y101600D02*
X328380D01*
X312384Y104400D02*
X329348D01*
X312824Y100400D02*
X328908D01*
X312824Y100000D02*
X328908D01*
X312824Y99600D02*
X328908D01*
X309224Y98500D02*
Y100700D01*
X312824Y99246D02*
Y100700D01*
X313611Y97200D02*
X328908D01*
X313611Y97600D02*
X328908D01*
X313611Y96800D02*
X328908D01*
X313474Y98400D02*
X328908D01*
X313588Y98000D02*
X328908D01*
X313611Y95600D02*
X328908D01*
X313611Y95200D02*
X328908D01*
X313611Y96400D02*
X328908D01*
X313611Y96000D02*
X328908D01*
X312869Y99200D02*
X328908D01*
X313245Y98800D02*
X328908D01*
X312824Y99246D02*
X313081Y98988D01*
X309753Y97225D02*
X310011Y96967D01*
X332508Y93200D02*
X342254D01*
X332508Y93600D02*
X341854D01*
X332508Y92800D02*
X342654D01*
X332508Y94400D02*
X341054D01*
X332508Y94000D02*
X341454D01*
X332508Y92000D02*
X343454D01*
X332508Y91600D02*
X343854D01*
X332508Y87537D02*
Y100700D01*
Y92400D02*
X343054D01*
X313611Y92000D02*
X328908D01*
X313611Y92400D02*
X328908D01*
X313611Y91600D02*
X328908D01*
X313611Y93600D02*
X328908D01*
X313611Y92800D02*
X328908D01*
X313611Y91200D02*
X328908D01*
X332508D02*
X344254D01*
X328908Y86792D02*
Y100700D01*
X313611Y90800D02*
X328908D01*
X313611Y88800D02*
X328908D01*
X313611Y89200D02*
X328908D01*
X313611Y87200D02*
X328908D01*
X313611Y90400D02*
X328908D01*
X313611Y90000D02*
X328908D01*
X329438Y85517D02*
X342994Y71961D01*
X313611Y86800D02*
X328908D01*
X313611Y86000D02*
X329092D01*
X313611Y85600D02*
X329359D01*
X313611Y89600D02*
X328908D01*
X313611Y86400D02*
X328952D01*
X313611Y84400D02*
X330554D01*
X313611Y84000D02*
X330954D01*
X313611Y85200D02*
X329754D01*
X313611Y84800D02*
X330154D01*
X313611Y94400D02*
X328908D01*
X313611Y94800D02*
X328908D01*
X313611Y94000D02*
X328908D01*
X305343D02*
X310011D01*
X305343Y93600D02*
X310011D01*
X305343Y93200D02*
X310011D01*
X313611D02*
X328908D01*
X305343Y92800D02*
X310011D01*
X305343Y92400D02*
X310011D01*
X305343Y91200D02*
X310011D01*
X305343Y90800D02*
X310011D01*
X305343Y92000D02*
X310011D01*
X305343Y91600D02*
X310011D01*
X305343Y89600D02*
X310011D01*
X305343Y89200D02*
X310011D01*
X305343Y90400D02*
X310011D01*
X305343Y90000D02*
X310011D01*
X313611Y88400D02*
X328908D01*
X305343Y88800D02*
X310011D01*
X313611Y88000D02*
X328908D01*
X305343Y88400D02*
X310011D01*
X305343Y88000D02*
X310011D01*
X305343Y87600D02*
X310011D01*
X313611D02*
X328908D01*
X305343Y87200D02*
X310011D01*
X305343Y86800D02*
X310011D01*
X305343Y85600D02*
X310011D01*
X305343Y85200D02*
X310011D01*
X305343Y86400D02*
X310011D01*
X305343Y86000D02*
X310011D01*
X305343Y84000D02*
X310011D01*
X305343Y83600D02*
X310011D01*
X305343Y84800D02*
X310011D01*
X305343Y84400D02*
X310011D01*
X297098Y104000D02*
X309202D01*
X296636Y104400D02*
X309664D01*
X297390Y103600D02*
X308909D01*
X297578Y103200D02*
X308721D01*
X297686Y102800D02*
X308613D01*
X298583Y101600D02*
X308695D01*
X298983Y101200D02*
X308867D01*
X297783Y102400D02*
X308574D01*
X298183Y102000D02*
X308600D01*
X295520Y104800D02*
X310779D01*
X283709D02*
X295031D01*
X284825Y104400D02*
X293916D01*
X285287Y104000D02*
X293454D01*
X285579Y103600D02*
X293161D01*
X287172Y101200D02*
X293119D01*
X285767Y103200D02*
X292973D01*
X286772Y101600D02*
X292947D01*
X300583Y99600D02*
X309224D01*
X300183Y100000D02*
X309224D01*
X300983Y99200D02*
X309224D01*
X299383Y100800D02*
X309136D01*
X299783Y100400D02*
X309224D01*
X302183Y98000D02*
X309295D01*
X302583Y97600D02*
X309465D01*
X301383Y98800D02*
X309224D01*
X301783Y98400D02*
X309226D01*
X288366Y100000D02*
X294626D01*
X288630Y99600D02*
X295492D01*
X287572Y100800D02*
X293388D01*
X287972Y100400D02*
X293809D01*
X288808Y98400D02*
X296692D01*
X288808Y98000D02*
X297092D01*
X288767Y99200D02*
X295892D01*
X288808Y98800D02*
X296292D01*
X279313Y104400D02*
X282104D01*
X278197Y104800D02*
X283220D01*
X279775Y104000D02*
X281643D01*
X273014Y104400D02*
X276593D01*
X273476Y104000D02*
X276131D01*
X280067Y103600D02*
X281350D01*
X273768D02*
X275838D01*
X266386Y104800D02*
X271409D01*
X271898D02*
X277709D01*
X267502Y104400D02*
X270293D01*
X267964Y104000D02*
X269831D01*
X268256Y103600D02*
X269539D01*
X268444Y103200D02*
X269351D01*
X285972Y102400D02*
X292826D01*
X285875Y102800D02*
X292865D01*
X286372Y102000D02*
X292852D01*
X280363Y102800D02*
X281054D01*
X280461Y102400D02*
X281015D01*
X280401Y102460D02*
X281086Y101774D01*
X285913Y102460D02*
X288278Y100094D01*
X273956Y103200D02*
X275651D01*
X280255D02*
X281162D01*
X268552Y102800D02*
X269243D01*
X274064D02*
X275542D01*
X274161Y102400D02*
X275503D01*
X274199Y102362D02*
X275503D01*
X268590Y102460D02*
X269275Y101774D01*
X268650Y102400D02*
X269204D01*
X304583Y95600D02*
X310011D01*
X304183Y96000D02*
X310011D01*
X304964Y95200D02*
X310011D01*
X303383Y96800D02*
X310011D01*
X303783Y96400D02*
X310011D01*
X305199Y94800D02*
X310011D01*
X305317Y94400D02*
X310011D01*
X297724Y102460D02*
X304814Y95370D01*
X302983Y97200D02*
X309778D01*
X295178Y99914D02*
X301743Y93349D01*
X288808Y93200D02*
X301743D01*
X288808Y92000D02*
X301743D01*
X288808Y91600D02*
X301743D01*
X288808Y92800D02*
X301743D01*
X288808Y92400D02*
X301743D01*
X288808Y86800D02*
X301743D01*
X288808Y87200D02*
X301743D01*
X288808Y86400D02*
X301743D01*
X288808Y88000D02*
X301743D01*
X288808Y87600D02*
X301743D01*
X288808Y84000D02*
X301743D01*
X288808Y83600D02*
X301743D01*
X288808Y86000D02*
X301743D01*
X288808Y85600D02*
X301743D01*
X288808Y90400D02*
X301743D01*
X288808Y90000D02*
X301743D01*
X288808Y91200D02*
X301743D01*
X288808Y90800D02*
X301743D01*
X288808Y88800D02*
X301743D01*
X288808Y88400D02*
X301743D01*
X288808Y89600D02*
X301743D01*
X288808Y89200D02*
X301743D01*
X288808Y96400D02*
X298692D01*
X288808Y96800D02*
X298292D01*
X288808Y96000D02*
X299092D01*
X288808Y97600D02*
X297492D01*
X288808Y97200D02*
X297892D01*
X288808Y94800D02*
X300292D01*
X288808Y93600D02*
X301492D01*
X288808Y95600D02*
X299492D01*
X288808Y95200D02*
X299892D01*
X288808Y94400D02*
X300692D01*
X288808Y94000D02*
X301092D01*
X261821Y91200D02*
X274758D01*
X262221Y90800D02*
X275158D01*
X266044Y99914D02*
X276940Y89018D01*
X263421Y89600D02*
X276358D01*
X262620Y90400D02*
X275558D01*
X263020Y90000D02*
X275958D01*
X288808Y85200D02*
X301743D01*
X267021Y86000D02*
X276940D01*
X288808Y84800D02*
X301743D01*
X267421Y85600D02*
X276940D01*
X267821Y85200D02*
X276940D01*
X268220Y84800D02*
X276940D01*
X288808Y84400D02*
X301743D01*
X268620D02*
X276940D01*
X269021Y84000D02*
X276940D01*
X264620Y88400D02*
X276940D01*
X265020Y88000D02*
X276940D01*
X263821Y89200D02*
X276758D01*
X264220Y88800D02*
X276940D01*
X266220Y86800D02*
X276940D01*
X266620Y86400D02*
X276940D01*
X265421Y87600D02*
X276940D01*
X265821Y87200D02*
X276940D01*
X313611Y82400D02*
X332554D01*
X313611Y82800D02*
X332154D01*
X313611Y82000D02*
X332954D01*
X313611Y83600D02*
X331354D01*
X313611Y83200D02*
X331754D01*
X313611Y80800D02*
X334154D01*
X313611Y79200D02*
X335754D01*
X313611Y81600D02*
X333354D01*
X313611Y81200D02*
X333754D01*
X313611Y80400D02*
X334554D01*
X305343Y82000D02*
X310011D01*
X313611Y80000D02*
X334954D01*
X305343Y83200D02*
X310011D01*
X305343Y82400D02*
X310011D01*
X305343Y80000D02*
X310011D01*
X313611Y79600D02*
X335354D01*
X305343D02*
X310011D01*
X305343Y79200D02*
X310011D01*
X313611Y77600D02*
X337354D01*
X313611Y78000D02*
X336954D01*
X313611Y77200D02*
X337754D01*
X313611Y78800D02*
X336154D01*
X313611Y78400D02*
X336554D01*
X313611Y76000D02*
X338954D01*
X313611Y73600D02*
X341354D01*
X313611Y76800D02*
X338154D01*
X313611Y76400D02*
X338554D01*
X313611Y75200D02*
X339754D01*
X313611Y74800D02*
X340154D01*
X305343Y78800D02*
X310011D01*
X313611Y75600D02*
X339354D01*
X313611Y73200D02*
X341754D01*
X313611Y72800D02*
X342154D01*
X313611Y74400D02*
X340554D01*
X313611Y74000D02*
X340954D01*
X305343Y80800D02*
X310011D01*
X305343Y81200D02*
X310011D01*
X305343Y80400D02*
X310011D01*
X305343Y82800D02*
X310011D01*
X305343Y81600D02*
X310011D01*
X305343Y76800D02*
X310011D01*
X305343Y76400D02*
X310011D01*
X305343Y78400D02*
X310011D01*
X305343Y78000D02*
X310011D01*
X288808Y82000D02*
X301743D01*
X305343Y77600D02*
X310011D01*
X288808Y83200D02*
X301743D01*
X288808Y82400D02*
X301743D01*
X288808Y77200D02*
X301743D01*
X305343D02*
X310011D01*
X288808Y76800D02*
X301743D01*
X288808Y76400D02*
X301743D01*
X305343Y74800D02*
X310011D01*
X305343Y75200D02*
X310011D01*
X305343Y74400D02*
X310011D01*
X305343Y76000D02*
X310011D01*
X305343Y75600D02*
X310011D01*
X305343Y72800D02*
X310011D01*
X305343Y72400D02*
X310011D01*
X305343Y74000D02*
X310011D01*
X305343Y73600D02*
X310011D01*
X288808Y75200D02*
X301743D01*
X288808Y74800D02*
X301743D01*
X288808Y76000D02*
X301743D01*
X288808Y75600D02*
X301743D01*
X288808Y73200D02*
X301743D01*
X305343D02*
X310011D01*
X288808Y72800D02*
X301743D01*
X288808Y72400D02*
X301743D01*
X313611Y71200D02*
X342994D01*
X313611Y71600D02*
X342994D01*
X313611Y70800D02*
X342994D01*
X313611Y72400D02*
X342554D01*
X313611Y72000D02*
X342954D01*
X313611Y68000D02*
X342994D01*
X313611Y67600D02*
X342994D01*
X313611Y70400D02*
X342994D01*
X313611Y70000D02*
X342994D01*
X305343Y70400D02*
X310011D01*
X313611Y69600D02*
X342994D01*
X305343Y72000D02*
X310011D01*
X305343Y70800D02*
X310011D01*
X313611Y68400D02*
X342994D01*
X313611Y67200D02*
X342994D01*
X313611Y69200D02*
X342994D01*
X313611Y68800D02*
X342994D01*
X313611Y62400D02*
X342994D01*
X313611Y62800D02*
X342994D01*
X313611Y62000D02*
X342994D01*
X313611Y63600D02*
X342994D01*
X313611Y63200D02*
X342994D01*
X313611Y60800D02*
X342994D01*
X313611Y60400D02*
X342994D01*
X313611Y61600D02*
X342994D01*
X313611Y61200D02*
X342994D01*
X313611Y66000D02*
X342994D01*
X313611Y65600D02*
X342994D01*
X313611Y66800D02*
X342994D01*
X313611Y66400D02*
X342994D01*
X313611Y64400D02*
X342994D01*
X313611Y64000D02*
X342994D01*
X313611Y65200D02*
X342994D01*
X313611Y64800D02*
X342994D01*
X305343Y69600D02*
X310011D01*
X305343Y70000D02*
X310011D01*
X305343Y69200D02*
X310011D01*
X305343Y71600D02*
X310011D01*
X305343Y71200D02*
X310011D01*
X305343Y68000D02*
X310011D01*
X305343Y66400D02*
X310011D01*
X305343Y68800D02*
X310011D01*
X305343Y68400D02*
X310011D01*
X305343Y67200D02*
X310011D01*
X305343Y66800D02*
X310011D01*
X288808Y72000D02*
X301743D01*
X305343Y67600D02*
X310011D01*
X305343Y66000D02*
X310011D01*
X305343Y65600D02*
X310011D01*
X288808D02*
X301743D01*
X288808Y65200D02*
X301743D01*
X305343Y64000D02*
X310011D01*
X305343Y64400D02*
X310011D01*
X305343Y63600D02*
X310011D01*
X305343Y65200D02*
X310011D01*
X305343Y64800D02*
X310011D01*
X305343Y61200D02*
X310011D01*
X305343Y60800D02*
X310011D01*
X305343Y63200D02*
X310011D01*
X305343Y62800D02*
X310011D01*
X288808Y64000D02*
X301743D01*
X305343Y62400D02*
X310011D01*
X288808Y64800D02*
X301743D01*
X288808Y64400D02*
X301743D01*
X305343Y62000D02*
X310011D01*
X305343Y61600D02*
X310011D01*
X288808Y60400D02*
X301743D01*
X305343D02*
X310011D01*
X288808Y80800D02*
X301743D01*
X288808Y81200D02*
X301743D01*
X288808Y80400D02*
X301743D01*
X288808Y82800D02*
X301743D01*
X288808Y81600D02*
X301743D01*
X288808Y80000D02*
X301743D01*
X288808Y79600D02*
X301743D01*
X272717Y80000D02*
X276940D01*
X272875Y79600D02*
X276940D01*
X270620Y82400D02*
X276940D01*
X270220Y82800D02*
X276940D01*
X271021Y82000D02*
X276940D01*
X269421Y83600D02*
X276940D01*
X269820Y83200D02*
X276940D01*
X272204Y80800D02*
X276940D01*
X272499Y80400D02*
X276940D01*
X271421Y81600D02*
X276940D01*
X271820Y81200D02*
X276940D01*
X288808Y78000D02*
X301743D01*
X288808Y78400D02*
X301743D01*
X288808Y77600D02*
X301743D01*
X288808Y79200D02*
X301743D01*
X288808Y78800D02*
X301743D01*
X288808Y70800D02*
X301743D01*
X288808Y70400D02*
X301743D01*
X288808Y74400D02*
X301743D01*
X288808Y71200D02*
X301743D01*
X273050Y78400D02*
X276940D01*
X273050Y78000D02*
X276940D01*
X272980Y79200D02*
X276940D01*
X273037Y78800D02*
X276940D01*
X288808Y73600D02*
X301743D01*
X288808Y71600D02*
X301743D01*
X273050Y77600D02*
X276940D01*
X288808Y74000D02*
X301743D01*
X273050Y77200D02*
X276940D01*
X262449Y78400D02*
X264580D01*
X262429Y78000D02*
X264980D01*
X273050Y76000D02*
X276940D01*
X273050Y75600D02*
X276940D01*
X273050Y76800D02*
X276940D01*
X273050Y76400D02*
X276940D01*
X262287Y79200D02*
X263779D01*
X262403Y78800D02*
X264179D01*
X261784Y80000D02*
X262980D01*
X262089Y79600D02*
X263380D01*
X261921Y76800D02*
X265950D01*
X261550Y75200D02*
X265950D01*
X262342Y77600D02*
X265380D01*
X262179Y77200D02*
X265779D01*
X273050Y74000D02*
X276940D01*
X273050Y74400D02*
X276940D01*
X273050Y73600D02*
X276940D01*
X273050Y75200D02*
X276940D01*
X273050Y74800D02*
X276940D01*
X273050Y72400D02*
X276940D01*
X273050Y72000D02*
X276940D01*
X273050Y73200D02*
X276940D01*
X273050Y72800D02*
X276940D01*
X273050Y71600D02*
X276940D01*
X273050Y71200D02*
X276940D01*
X261550Y71600D02*
X265950D01*
X261550Y71200D02*
X265950D01*
X273050Y70800D02*
X276940D01*
X273050Y70400D02*
X276940D01*
X261550Y70800D02*
X265950D01*
X261550Y70400D02*
X265950D01*
X288808Y68800D02*
X301743D01*
X288808Y69200D02*
X301743D01*
X288808Y68400D02*
X301743D01*
X288808Y70000D02*
X301743D01*
X288808Y69600D02*
X301743D01*
X288808Y67200D02*
X301743D01*
X288808Y66800D02*
X301743D01*
X288808Y68000D02*
X301743D01*
X288808Y67600D02*
X301743D01*
X273050Y69200D02*
X276940D01*
X273050Y68800D02*
X276940D01*
X273050Y70000D02*
X276940D01*
X273050Y69600D02*
X276940D01*
X273050Y67600D02*
X276940D01*
X273050Y67200D02*
X276940D01*
X273050Y68400D02*
X276940D01*
X273050Y68000D02*
X276940D01*
X288808Y63200D02*
X301743D01*
X288808Y63600D02*
X301743D01*
X288808Y62800D02*
X301743D01*
X288808Y66400D02*
X301743D01*
X288808Y66000D02*
X301743D01*
X288808Y61200D02*
X301743D01*
X288808Y60800D02*
X301743D01*
X288808Y62400D02*
X301743D01*
X288808Y61600D02*
X301743D01*
X273050Y66000D02*
X276940D01*
X273050Y65600D02*
X276940D01*
X273050Y66800D02*
X276940D01*
X273050Y66400D02*
X276940D01*
X273050Y65200D02*
X276940D01*
X288808Y62000D02*
X301743D01*
X273050Y63600D02*
X276940D01*
X273050Y61600D02*
X276940D01*
X261550Y68800D02*
X265950D01*
X261550Y69200D02*
X265950D01*
X261550Y68400D02*
X265950D01*
X261550Y70000D02*
X265950D01*
X261550Y69600D02*
X265950D01*
X273050Y64800D02*
X276940D01*
X273050Y64400D02*
X276940D01*
X261550Y68000D02*
X265950D01*
X261550Y67600D02*
X265950D01*
X261550Y66400D02*
X265950D01*
X261550Y66000D02*
X265950D01*
X261550Y67200D02*
X265950D01*
X261550Y66800D02*
X265950D01*
X261550Y64800D02*
X265950D01*
X261550Y64400D02*
X265950D01*
X261550Y65600D02*
X265950D01*
X261550Y65200D02*
X265950D01*
X273050Y63200D02*
X276940D01*
X273050Y64000D02*
X276940D01*
X273050Y62800D02*
X276940D01*
X261550Y63600D02*
X265950D01*
X261550Y62800D02*
X265950D01*
X273050Y61200D02*
X276940D01*
X273050Y60800D02*
X276940D01*
X273050Y62400D02*
X276940D01*
X273050Y62000D02*
X276940D01*
X261550Y62400D02*
X265950D01*
X261550Y62000D02*
X265950D01*
X261550Y64000D02*
X265950D01*
X261550Y63200D02*
X265950D01*
X261550Y60800D02*
X265950D01*
X261550Y60400D02*
X265950D01*
X261550Y61600D02*
X265950D01*
X261550Y61200D02*
X265950D01*
X409382Y59200D02*
X413386D01*
X408982Y58800D02*
X413386D01*
X408582Y58400D02*
X413386D01*
X410182Y60000D02*
X413386D01*
X409782Y59600D02*
X413386D01*
X408184Y58002D02*
X415010Y64828D01*
X408184Y58000D02*
X413386D01*
X408184Y57600D02*
X413386D01*
X408184Y57200D02*
X413386D01*
X408184Y56000D02*
X413386D01*
X408184Y56400D02*
X413386D01*
X408184Y55600D02*
X413386D01*
X408184Y56800D02*
X413386D01*
X408184Y54400D02*
X413386D01*
X408184Y54000D02*
X413386D01*
X408184Y55200D02*
X413386D01*
X408184Y54800D02*
X413386D01*
X408184Y49200D02*
X413386D01*
X408184Y49600D02*
X413386D01*
X408184Y48800D02*
X413386D01*
X408184Y50400D02*
X413386D01*
X408184Y50000D02*
X413386D01*
X408184Y47600D02*
X413386D01*
X408184Y47200D02*
X413386D01*
X408184Y48400D02*
X413386D01*
X408184Y48000D02*
X413386D01*
X408184Y52800D02*
X413386D01*
X408184Y52400D02*
X413386D01*
X408184Y53600D02*
X413386D01*
X408184Y53200D02*
X413386D01*
X408184Y51200D02*
X413386D01*
X408184Y50800D02*
X413386D01*
X408184Y52000D02*
X413386D01*
X408184Y51600D02*
X413386D01*
X396132Y60000D02*
X401123D01*
X396132Y59600D02*
X401086D01*
X396132Y59200D02*
X401084D01*
X396132Y58800D02*
X401084D01*
X396132Y58400D02*
X401084D01*
X396132Y58000D02*
X401084D01*
X396132Y52219D02*
Y66530D01*
Y57600D02*
X401084D01*
X396132Y56400D02*
X401084D01*
X396132Y56000D02*
X401084D01*
X396132Y57200D02*
X401084D01*
X396132Y56800D02*
X401084D01*
X396132Y54800D02*
X401084D01*
X396132Y54400D02*
X401084D01*
X396132Y55600D02*
X401084D01*
X396132Y55200D02*
X401084D01*
X396132Y52800D02*
X401084D01*
X396132Y53200D02*
X401084D01*
X396132Y52400D02*
X401084D01*
X396132Y54000D02*
X401084D01*
X396132Y53600D02*
X401084D01*
X396070Y51200D02*
X401084D01*
X396070Y50800D02*
X401084D01*
X396070Y52000D02*
X401084D01*
X396070Y51600D02*
X401084D01*
X396070Y49600D02*
X401084D01*
X396070Y49200D02*
X401084D01*
X396070Y50400D02*
X401084D01*
X396070Y50000D02*
X401084D01*
X396070Y48000D02*
X401084D01*
X396070Y47600D02*
X401084D01*
X396070Y48800D02*
X401084D01*
X396070Y48400D02*
X401084D01*
X408184Y45600D02*
X413386D01*
X408184Y46000D02*
X413386D01*
X408184Y45200D02*
X413386D01*
X408184Y46800D02*
X413386D01*
X408184Y46400D02*
X413386D01*
X408184Y44800D02*
X413386D01*
X408184Y44400D02*
X413386D01*
Y5906D02*
Y61024D01*
X408184Y38455D02*
Y58002D01*
Y43600D02*
X413386D01*
X408184Y44000D02*
X413386D01*
X408184Y42800D02*
X413386D01*
X396070Y44000D02*
X401084D01*
X408184Y43200D02*
X413386D01*
X408184Y42000D02*
X413386D01*
X408184Y41600D02*
X413386D01*
X396070Y42800D02*
X401084D01*
X408184Y42400D02*
X413386D01*
X409427Y37200D02*
X413386D01*
X409427Y37600D02*
X413386D01*
X409427Y36800D02*
X413386D01*
X409427Y38400D02*
X413386D01*
X409427Y38000D02*
X413386D01*
X409427Y36400D02*
X413386D01*
X409427Y36000D02*
X413386D01*
X409427Y24144D02*
Y38455D01*
Y35600D02*
X413386D01*
X408184Y40400D02*
X413386D01*
X408184Y40000D02*
X413386D01*
X408184Y41200D02*
X413386D01*
X408184Y40800D02*
X413386D01*
X408184Y39600D02*
X413386D01*
X408184Y39200D02*
X413386D01*
X408184Y38800D02*
X413386D01*
X408184Y38455D02*
X409427D01*
X396070Y46000D02*
X401084D01*
X396070Y46400D02*
X401084D01*
X396070Y45600D02*
X401084D01*
X396070Y47200D02*
X401084D01*
X396070Y46800D02*
X401084D01*
X396070Y45200D02*
X401084D01*
X396070Y44800D02*
X401084D01*
Y38455D02*
Y59472D01*
X396070Y40173D02*
Y52219D01*
Y43200D02*
X401084D01*
X396070Y42400D02*
X401084D01*
X396070Y44400D02*
X401084D01*
X396070Y43600D02*
X401084D01*
X396070Y41200D02*
X401084D01*
X396070Y40800D02*
X401084D01*
X396070Y42000D02*
X401084D01*
X396070Y41600D02*
X401084D01*
X396023Y39600D02*
X401084D01*
X395934Y39200D02*
X401084D01*
X395793Y38800D02*
X401084D01*
X396070Y40400D02*
X401084D01*
X396065Y40000D02*
X401084D01*
X399840Y38455D02*
X401084D01*
X395595Y38400D02*
X399840D01*
Y29861D02*
Y38455D01*
X395327Y38000D02*
X399840D01*
X394967Y37600D02*
X399840D01*
X394567Y37200D02*
X399840D01*
X393367Y36000D02*
X399840D01*
X392967Y35600D02*
X399840D01*
X394167Y36800D02*
X399840D01*
X393767Y36400D02*
X399840D01*
X386289Y58800D02*
X388908D01*
X386289Y59200D02*
X388908D01*
X386289Y58400D02*
X388908D01*
X386289Y60000D02*
X388908D01*
X386289Y59600D02*
X388908D01*
Y52219D02*
Y66530D01*
X386289Y57200D02*
X388908D01*
X386289Y58000D02*
X388908D01*
X386289Y57600D02*
X388908D01*
X386289Y55600D02*
X388908D01*
X386289Y56000D02*
X388908D01*
X386289Y55200D02*
X388908D01*
X386289Y56800D02*
X388908D01*
X386289Y56400D02*
X388908D01*
X386289Y54000D02*
X388908D01*
X386289Y53600D02*
X388908D01*
X386289Y54800D02*
X388908D01*
X386289Y54400D02*
X388908D01*
X352194Y47600D02*
X388970D01*
X352194Y48000D02*
X388970D01*
X352194Y47200D02*
X388970D01*
X352194Y48800D02*
X388970D01*
X352194Y48400D02*
X388970D01*
X352194Y46000D02*
X388970D01*
X352194Y45600D02*
X388970D01*
X352194Y46800D02*
X388970D01*
X352194Y46400D02*
X388970D01*
X352194Y51200D02*
X388970D01*
X352194Y50800D02*
X388970D01*
X352194Y52000D02*
X388970D01*
X352194Y51600D02*
X388970D01*
X352194Y49600D02*
X388970D01*
X352194Y49200D02*
X388970D01*
X352194Y50400D02*
X388970D01*
X352194Y50000D02*
X388970D01*
X352194Y58800D02*
X379065D01*
X352194Y59200D02*
X379065D01*
X352194Y58400D02*
X379065D01*
X352194Y60000D02*
X379065D01*
X352194Y59600D02*
X379065D01*
X386289Y52219D02*
Y65288D01*
X352194Y58000D02*
X379065D01*
Y52219D02*
Y65286D01*
X352194Y56000D02*
X379065D01*
X352194Y57600D02*
X379065D01*
X352194Y57200D02*
X379065D01*
X313611Y60000D02*
X342994D01*
X313611Y59600D02*
X342994D01*
X352194Y55600D02*
X379065D01*
X352194Y55200D02*
X379065D01*
X352194Y56800D02*
X379065D01*
X352194Y56400D02*
X379065D01*
X386289Y53200D02*
X388908D01*
X352194D02*
X379065D01*
X386289Y52800D02*
X388908D01*
X352194Y54800D02*
X379065D01*
X352194Y53600D02*
X379065D01*
X386289Y52400D02*
X388908D01*
X379065Y52219D02*
X386289D01*
X352194Y52800D02*
X379065D01*
X352194Y52400D02*
X379065D01*
X352194Y54400D02*
X379065D01*
X352194Y54000D02*
X379065D01*
X313611Y47200D02*
X342994D01*
X313611Y46800D02*
X342994D01*
X313611Y45600D02*
X342994D01*
X313611Y45200D02*
X342994D01*
X313611Y46400D02*
X342994D01*
X313611Y46000D02*
X342994D01*
X352194Y44000D02*
X388970D01*
X352194Y44400D02*
X388970D01*
X352194Y43600D02*
X388970D01*
X352194Y45200D02*
X388970D01*
X352194Y44800D02*
X388970D01*
Y41644D02*
Y52219D01*
X381990Y34664D02*
X388970Y41644D01*
X352194Y43200D02*
X388970D01*
X352194Y42800D02*
X388970D01*
X352194Y42400D02*
X388970D01*
X352194Y42000D02*
X388970D01*
X352194Y41600D02*
X388926D01*
X352194Y41200D02*
X388526D01*
X352194Y40800D02*
X388126D01*
X352194Y40400D02*
X387726D01*
X352194Y40000D02*
X387326D01*
X352194Y39600D02*
X386926D01*
X375356Y38000D02*
X385326D01*
X375356Y38400D02*
X385726D01*
X375356Y37600D02*
X384926D01*
X375356Y37200D02*
X384526D01*
X375356Y36400D02*
X383726D01*
X387010Y29643D02*
X395030Y37663D01*
X375356Y36000D02*
X383326D01*
X375356Y24144D02*
Y38455D01*
Y35600D02*
X382926D01*
X352194Y39200D02*
X386526D01*
X352194Y38800D02*
X386126D01*
X365770Y38455D02*
X375356D01*
Y36800D02*
X384126D01*
X365770Y24144D02*
Y38455D01*
X352194Y35600D02*
X365770D01*
X352194Y36800D02*
X365770D01*
X352194Y36400D02*
X365770D01*
X313611Y43600D02*
X342994D01*
X313611Y44000D02*
X342994D01*
X313611Y43200D02*
X342994D01*
X313611Y44800D02*
X342994D01*
X313611Y44400D02*
X342994D01*
X352194Y35502D02*
Y96695D01*
X313611Y42000D02*
X342994D01*
X313611Y42800D02*
X342994D01*
X313611Y42400D02*
X342994D01*
X313611Y40800D02*
X342994D01*
X313611Y40400D02*
X342994D01*
X313611Y41600D02*
X342994D01*
X313611Y41200D02*
X342994D01*
X313611Y39200D02*
X342994D01*
X313611Y38800D02*
X342994D01*
X313611Y40000D02*
X342994D01*
X313611Y39600D02*
X342994D01*
X352194Y38000D02*
X365770D01*
X352194Y38400D02*
X365770D01*
X352194Y37600D02*
X365770D01*
X352194Y37200D02*
X365770D01*
X353868Y35502D02*
X355187D01*
X357943Y18041D02*
Y35502D01*
X355187D02*
X357943D01*
X352431D02*
X353868D01*
X355187D01*
X328592Y37600D02*
X342994D01*
X328992Y37200D02*
X342994D01*
X313611Y38400D02*
X342994D01*
X327890Y38000D02*
X342994D01*
X329857Y36000D02*
X342994D01*
X352194D02*
X365770D01*
X329392Y36800D02*
X342994D01*
X329705Y36400D02*
X342994D01*
X409427Y30400D02*
X413386D01*
X409427Y30800D02*
X413386D01*
X409427Y30000D02*
X413386D01*
X409427Y31600D02*
X413386D01*
X409427Y31200D02*
X413386D01*
X409427Y28800D02*
X413386D01*
X409427Y28400D02*
X413386D01*
X409427Y29600D02*
X413386D01*
X409427Y29200D02*
X413386D01*
X409427Y34000D02*
X413386D01*
X409427Y34400D02*
X413386D01*
X409427Y33600D02*
X413386D01*
X409427Y35200D02*
X413386D01*
X409427Y34800D02*
X413386D01*
X409427Y32400D02*
X413386D01*
X409427Y32000D02*
X413386D01*
X409427Y33200D02*
X413386D01*
X409427Y32800D02*
X413386D01*
X409427Y26800D02*
X413386D01*
X409427Y27200D02*
X413386D01*
X409427Y26400D02*
X413386D01*
X409427Y28000D02*
X413386D01*
X409427Y27600D02*
X413386D01*
X409427Y25200D02*
X413386D01*
X409427Y24800D02*
X413386D01*
X409427Y26000D02*
X413386D01*
X409427Y25600D02*
X413386D01*
X403620Y23600D02*
X413386D01*
X403221Y23200D02*
X413386D01*
X409427Y24400D02*
X413386D01*
X404021Y24000D02*
X413386D01*
X402021Y22000D02*
X413386D01*
X401620Y21600D02*
X413386D01*
X402820Y22800D02*
X413386D01*
X402421Y22400D02*
X413386D01*
X391767Y34400D02*
X399840D01*
X391367Y34000D02*
X399840D01*
X390967Y33600D02*
X399840D01*
X392567Y35200D02*
X399840D01*
X392167Y34800D02*
X399840D01*
X389767Y32400D02*
X399840D01*
X389367Y32000D02*
X399840D01*
X390567Y33200D02*
X399840D01*
X390167Y32800D02*
X399840D01*
X375356Y35200D02*
X382526D01*
X375356Y34800D02*
X382126D01*
X375356Y34400D02*
X381751D01*
X375356Y34000D02*
X381468D01*
X388967Y31600D02*
X399840D01*
X375356Y32000D02*
X380953D01*
X375356Y31600D02*
X380993D01*
X388567Y31200D02*
X399840D01*
X388167Y30800D02*
X399840D01*
X387767Y30400D02*
X399840D01*
X387367Y30000D02*
X399840D01*
X386966Y29600D02*
X399580D01*
X386469Y29200D02*
X399180D01*
X404164Y24144D02*
X409427D01*
X385664Y28800D02*
X398780D01*
X375921Y21600D02*
X391580D01*
X375356Y28800D02*
X383336D01*
X375356Y28400D02*
X398379D01*
X375356Y29600D02*
X382034D01*
X375356Y29200D02*
X382531D01*
X375356Y26800D02*
X396779D01*
X375356Y24800D02*
X394779D01*
X375356Y24400D02*
X394379D01*
X375520Y22000D02*
X391980D01*
X407768Y16800D02*
X413386D01*
X407025Y17200D02*
X413386D01*
X408366Y16400D02*
X413386D01*
X401221Y21200D02*
X413386D01*
X406008Y17600D02*
X413386D01*
X409671Y15200D02*
X413386D01*
X409999Y14800D02*
X413386D01*
X408867Y16000D02*
X413386D01*
X409297Y15600D02*
X413386D01*
X400021Y20000D02*
X413386D01*
X399621Y19600D02*
X413386D01*
X400820Y20800D02*
X413386D01*
X400421Y20400D02*
X413386D01*
X398421Y18400D02*
X413386D01*
X398021Y18000D02*
X413386D01*
X399220Y19200D02*
X413386D01*
X398820Y18800D02*
X413386D01*
X411491Y11600D02*
X413386D01*
X411392Y12000D02*
X413386D01*
X411569Y11200D02*
X413386D01*
X411127Y12800D02*
X413386D01*
X411271Y12400D02*
X413386D01*
X411368Y7600D02*
X413386D01*
X411242Y7200D02*
X413386D01*
X411554Y8400D02*
X413386D01*
X411472Y8000D02*
X413386D01*
X410764Y13600D02*
X413386D01*
X410958Y13200D02*
X413386D01*
X410288Y14400D02*
X413386D01*
X410541Y14000D02*
X413386D01*
X410719Y6000D02*
X413386D01*
X411093Y6800D02*
X413386D01*
X410919Y6400D02*
X413386D01*
X397621Y17600D02*
X401078D01*
X397220Y17200D02*
X400062D01*
X396820Y16800D02*
X399319D01*
X396421Y16400D02*
X398721D01*
X396021Y16000D02*
X398220D01*
X395620Y15600D02*
X397789D01*
X395220Y15200D02*
X397415D01*
X391030Y21050D02*
X399840Y29861D01*
X395010Y14990D02*
X404164Y24144D01*
X376321Y21200D02*
X391179D01*
X376470Y21050D02*
X391030D01*
X394805Y14800D02*
X397087D01*
X394230Y14400D02*
X396799D01*
X411682Y10000D02*
X413386D01*
X411680Y9600D02*
X413386D01*
X411658Y9200D02*
X413386D01*
X411627Y10800D02*
X413386D01*
X411664Y10400D02*
X413386D01*
X411616Y8800D02*
X413386D01*
X410490Y5600D02*
X413378D01*
X410229Y5200D02*
X413343D01*
X409933Y4800D02*
X413281D01*
X409596Y4400D02*
X413191D01*
X409211Y4000D02*
X413070D01*
X393094Y14000D02*
X396545D01*
X408767Y3600D02*
X412917D01*
X408248Y3200D02*
X412730D01*
X407625Y2800D02*
X412503D01*
X406840Y2400D02*
X412233D01*
X405723Y2000D02*
X411910D01*
X375356Y33200D02*
X381108D01*
X375356Y33600D02*
X381258D01*
X375356Y31200D02*
X381081D01*
X375356Y32800D02*
X381009D01*
X375356Y32400D02*
X380959D01*
X375356Y30000D02*
X381678D01*
X375356Y28000D02*
X397979D01*
X375356Y30800D02*
X381218D01*
X375356Y30400D02*
X381413D01*
X375356Y27200D02*
X397180D01*
X375356Y27600D02*
X397580D01*
X375356Y26400D02*
X396379D01*
X375356Y26000D02*
X395979D01*
X375356Y25600D02*
X395580D01*
X375356Y25200D02*
X395180D01*
X374113Y24144D02*
X375356D01*
X367013Y21937D02*
Y24144D01*
X374113Y23407D02*
Y24144D01*
Y23600D02*
X393580D01*
X374113Y24000D02*
X393980D01*
X374321Y23200D02*
X393179D01*
X357943Y24000D02*
X367013D01*
X357943Y23200D02*
X367013D01*
X374721Y22800D02*
X392779D01*
X375120Y22400D02*
X392379D01*
X374113Y23407D02*
X376470Y21050D01*
X357943Y21600D02*
X367029D01*
X357943Y21200D02*
X367090D01*
X357943Y23600D02*
X367013D01*
X357943Y22800D02*
X367013D01*
X357943Y20000D02*
X367588D01*
X357943Y19600D02*
X367891D01*
X357943Y20800D02*
X367200D01*
X357943Y20400D02*
X367363D01*
X357943Y34000D02*
X365770D01*
X357943Y34400D02*
X365770D01*
X357943Y33600D02*
X365770D01*
X357943Y35200D02*
X365770D01*
X357943Y34800D02*
X365770D01*
X357943Y32400D02*
X365770D01*
X357943Y30400D02*
X365770D01*
X357943Y33200D02*
X365770D01*
X357943Y32800D02*
X365770D01*
X357943Y31200D02*
X365770D01*
X357943Y30800D02*
X365770D01*
X357943Y32000D02*
X365770D01*
X357943Y31600D02*
X365770D01*
X357943Y30000D02*
X365770D01*
X357943Y29600D02*
X365770D01*
X357943Y28000D02*
X365770D01*
X357943Y28400D02*
X365770D01*
X357943Y27600D02*
X365770D01*
X357943Y29200D02*
X365770D01*
X357943Y28800D02*
X365770D01*
X357943Y26400D02*
X365770D01*
Y24144D02*
X367013D01*
X357943Y27200D02*
X365770D01*
X357943Y26800D02*
X365770D01*
X357943Y25600D02*
X365770D01*
X357943Y25200D02*
X365770D01*
X357943Y26000D02*
X365770D01*
X357943Y22400D02*
X367013D01*
X357943Y22000D02*
X367013D01*
X357943Y24800D02*
X365770D01*
X357943Y24400D02*
X365770D01*
X375000Y13950D02*
X392500D01*
X328792Y13600D02*
X396323D01*
X329192Y14000D02*
X374406D01*
X328392Y13200D02*
X396128D01*
X327992Y12800D02*
X395960D01*
X327592Y12400D02*
X395816D01*
X327192Y12000D02*
X395695D01*
X326792Y11600D02*
X395596D01*
X326392Y11200D02*
X395517D01*
X325992Y10800D02*
X395460D01*
X325592Y10400D02*
X395423D01*
X324392Y9200D02*
X395429D01*
X323992Y8800D02*
X395471D01*
X325192Y10000D02*
X395405D01*
X324792Y9600D02*
X395407D01*
X362173Y2000D02*
X401364D01*
X361773Y2400D02*
X400247D01*
X362573Y1600D02*
X411522D01*
X360973Y3200D02*
X398839D01*
X361373Y2800D02*
X399462D01*
X362973Y1200D02*
X411049D01*
X363373Y800D02*
X410448D01*
X363773Y400D02*
X409617D01*
X364173Y0D02*
X407480D01*
X322792Y7600D02*
X395719D01*
X322392Y7200D02*
X395844D01*
X323592Y8400D02*
X395532D01*
X323192Y8000D02*
X395615D01*
X320890Y6000D02*
X396368D01*
X360573Y3600D02*
X398320D01*
X321992Y6800D02*
X395994D01*
X321592Y6400D02*
X396167D01*
X357943Y18800D02*
X368679D01*
X357943Y19200D02*
X368280D01*
X357943Y18400D02*
X369079D01*
X368053Y19427D02*
X372490Y14990D01*
X355187Y18041D02*
X357943D01*
X353868D02*
X355187D01*
X353868D02*
X355187D01*
X352431D02*
X353868D01*
X345600D02*
X346919D01*
X348356D01*
X344163D02*
X345600D01*
X346919D01*
X342844D02*
X344163D01*
X342844D02*
X344163D01*
X351112D02*
X352431D01*
X349675D02*
X351112D01*
X352431D01*
X348356D02*
X349675D01*
X348356D02*
X349675D01*
X329896Y17600D02*
X369880D01*
X329896Y17200D02*
X370280D01*
X329896Y18000D02*
X369479D01*
X360236Y3937D02*
X364173Y0D01*
X329896Y16000D02*
X371480D01*
X329896Y15600D02*
X371880D01*
X329896Y16800D02*
X370679D01*
X329896Y16400D02*
X371079D01*
X329797Y14800D02*
X372695D01*
X329574Y14400D02*
X373270D01*
X329889Y15200D02*
X372280D01*
X271654Y3937D02*
X360236D01*
X313611Y58000D02*
X342994D01*
X313611Y58400D02*
X342994D01*
X313611Y57600D02*
X342994D01*
X313611Y59200D02*
X342994D01*
X313611Y58800D02*
X342994D01*
X313611Y56400D02*
X342994D01*
X313611Y56000D02*
X342994D01*
X313611Y57200D02*
X342994D01*
X313611Y56800D02*
X342994D01*
X305343Y57600D02*
X310011D01*
X305343Y58000D02*
X310011D01*
X305343Y56800D02*
X310011D01*
X305343Y58800D02*
X310011D01*
X305343Y58400D02*
X310011D01*
X305343Y56400D02*
X310011D01*
X313611Y55600D02*
X342994D01*
X305343Y56000D02*
X310011D01*
X305343Y55600D02*
X310011D01*
X313611Y54000D02*
X342994D01*
X313611Y54400D02*
X342994D01*
X313611Y53600D02*
X342994D01*
X313611Y55200D02*
X342994D01*
X313611Y54800D02*
X342994D01*
X313611Y52400D02*
X342994D01*
X313611Y51200D02*
X342994D01*
X313611Y53200D02*
X342994D01*
X313611Y52800D02*
X342994D01*
X313611Y52000D02*
X342994D01*
X313611Y51600D02*
X342994D01*
X305343Y55200D02*
X310011D01*
X305343Y51200D02*
X310011D01*
X313611Y50800D02*
X342994D01*
X313611Y50400D02*
X342994D01*
X305343Y50800D02*
X310011D01*
X305343Y50400D02*
X310011D01*
X305343Y59600D02*
X310011D01*
X305343Y60000D02*
X310011D01*
X305343Y59200D02*
X310011D01*
X288808Y60000D02*
X301743D01*
X288808Y59600D02*
X301743D01*
X305343Y57200D02*
X310011D01*
X305343Y54800D02*
X310011D01*
X288808Y59200D02*
X301743D01*
X288808Y58800D02*
X301743D01*
X288808Y57600D02*
X301743D01*
X288808Y56400D02*
X301743D01*
X288808Y58400D02*
X301743D01*
X288808Y58000D02*
X301743D01*
X288808Y55200D02*
X301743D01*
X288808Y54800D02*
X301743D01*
X288808Y56000D02*
X301743D01*
X288808Y55600D02*
X301743D01*
X305343Y54000D02*
X310011D01*
X305343Y54400D02*
X310011D01*
X305343Y53200D02*
X310011D01*
X288808Y54000D02*
X301743D01*
X305343Y53600D02*
X310011D01*
X305343Y52000D02*
X310011D01*
X305343Y51600D02*
X310011D01*
X305343Y52800D02*
X310011D01*
X305343Y52400D02*
X310011D01*
X288808Y53200D02*
X301743D01*
X288808Y52800D02*
X301743D01*
X288808Y54400D02*
X301743D01*
X288808Y53600D02*
X301743D01*
X288808Y50800D02*
X301743D01*
X288808Y50400D02*
X301743D01*
X288808Y52000D02*
X301743D01*
X288808Y51200D02*
X301743D01*
X313611Y48800D02*
X342994D01*
X313611Y49200D02*
X342994D01*
X313611Y48400D02*
X342994D01*
X313611Y50000D02*
X342994D01*
X313611Y49600D02*
X342994D01*
X313611Y48000D02*
X342994D01*
X313611Y47600D02*
X342994D01*
X313611Y35502D02*
Y97713D01*
X342994Y35502D02*
Y71961D01*
X305343Y46000D02*
X310011D01*
X305343Y46400D02*
X310011D01*
X305343Y45600D02*
X310011D01*
X305343Y49200D02*
X310011D01*
X305343Y46800D02*
X310011D01*
X305343Y44400D02*
X310011D01*
X305343Y44000D02*
X310011D01*
X305343Y45200D02*
X310011D01*
X305343Y44800D02*
X310011D01*
X326437Y38050D02*
X327500D01*
X324494Y36750D02*
X325341Y37596D01*
X328596D02*
X329442Y36750D01*
X313611Y38000D02*
X326046D01*
X313611Y37600D02*
X325345D01*
X313611Y37200D02*
X324945D01*
X313611Y36800D02*
X324545D01*
X313611Y36400D02*
X324232D01*
X313611Y36000D02*
X324080D01*
X305343Y48400D02*
X310011D01*
X305343Y48800D02*
X310011D01*
X305343Y43600D02*
X310011D01*
X305343Y50000D02*
X310011D01*
X305343Y49600D02*
X310011D01*
X305343Y43200D02*
X310011D01*
X305343Y42800D02*
X310011D01*
Y35502D02*
Y96967D01*
X305343Y35502D02*
Y94095D01*
X288808Y49200D02*
X301743D01*
X305343Y48000D02*
X310011D01*
X288808Y50000D02*
X301743D01*
X288808Y49600D02*
X301743D01*
X305343Y47600D02*
X310011D01*
X305343Y47200D02*
X310011D01*
X288808Y35502D02*
Y98819D01*
X301743Y35502D02*
Y93349D01*
X305343Y38000D02*
X310011D01*
X305343Y38400D02*
X310011D01*
X305343Y37600D02*
X310011D01*
X305343Y39200D02*
X310011D01*
X305343Y38800D02*
X310011D01*
X305343Y36400D02*
X310011D01*
X305343Y36000D02*
X310011D01*
X305343Y37200D02*
X310011D01*
X305343Y36800D02*
X310011D01*
X305343Y41600D02*
X310011D01*
X305343Y41200D02*
X310011D01*
X305343Y42400D02*
X310011D01*
X305343Y42000D02*
X310011D01*
X305343Y40000D02*
X310011D01*
X305343Y39600D02*
X310011D01*
X305343Y40800D02*
X310011D01*
X305343Y40400D02*
X310011D01*
X273050Y58000D02*
X276940D01*
X273050Y58400D02*
X276940D01*
X273050Y57600D02*
X276940D01*
X273050Y60400D02*
X276940D01*
X273050Y59200D02*
X276940D01*
X288808Y57200D02*
X301743D01*
X288808Y56800D02*
X301743D01*
X273050Y57200D02*
X276940D01*
X273050Y53200D02*
X276940D01*
X273050Y55600D02*
X276940D01*
X273050Y56000D02*
X276940D01*
X273050Y55200D02*
X276940D01*
X273050Y58800D02*
X276940D01*
X273050Y56400D02*
X276940D01*
X273050Y54000D02*
X276940D01*
X273050Y53600D02*
X276940D01*
X273050Y54800D02*
X276940D01*
X273050Y54400D02*
X276940D01*
X288808Y48400D02*
X301743D01*
X288808Y48800D02*
X301743D01*
X288808Y48000D02*
X301743D01*
X288808Y52400D02*
X301743D01*
X288808Y51600D02*
X301743D01*
X288808Y45200D02*
X301743D01*
X288808Y44800D02*
X301743D01*
X288808Y47600D02*
X301743D01*
X288808Y47200D02*
X301743D01*
X273050Y52000D02*
X276940D01*
X288808Y46800D02*
X301743D01*
X273050Y52800D02*
X276940D01*
X273050Y52400D02*
X276940D01*
X288808Y45600D02*
X301743D01*
X288808Y44400D02*
X301743D01*
X288808Y46400D02*
X301743D01*
X288808Y46000D02*
X301743D01*
X273050Y59600D02*
X276940D01*
X273050Y60000D02*
X276940D01*
X273050Y56800D02*
X276940D01*
X261550Y59600D02*
X265950D01*
X261550Y58800D02*
X265950D01*
X273050Y50800D02*
X276940D01*
X273050Y50400D02*
X276940D01*
X273050Y51600D02*
X276940D01*
X273050Y51200D02*
X276940D01*
X261550Y52400D02*
X265950D01*
X261550Y52000D02*
X265950D01*
X261550Y60000D02*
X265950D01*
X261550Y59200D02*
X265950D01*
X261550Y50800D02*
X265950D01*
X261550Y50400D02*
X265950D01*
X261550Y51600D02*
X265950D01*
X261550Y51200D02*
X265950D01*
X273050Y48800D02*
X276940D01*
X273050Y49200D02*
X276940D01*
X273050Y48400D02*
X276940D01*
X273050Y50000D02*
X276940D01*
X273050Y49600D02*
X276940D01*
X273050Y45600D02*
X276940D01*
X273050Y45200D02*
X276940D01*
X273050Y48000D02*
X276940D01*
X273050Y47600D02*
X276940D01*
X261550Y49200D02*
X265950D01*
X273050Y47200D02*
X276940D01*
X261550Y50000D02*
X265950D01*
X261550Y49600D02*
X265950D01*
X273050Y46000D02*
X276940D01*
X273050Y44800D02*
X276940D01*
X273050Y46800D02*
X276940D01*
X273050Y46400D02*
X276940D01*
X288808Y42800D02*
X301743D01*
X288808Y43200D02*
X301743D01*
X288808Y42400D02*
X301743D01*
X288808Y44000D02*
X301743D01*
X288808Y43600D02*
X301743D01*
X288808Y41200D02*
X301743D01*
X288808Y40800D02*
X301743D01*
X288808Y42000D02*
X301743D01*
X288808Y41600D02*
X301743D01*
X273050Y42400D02*
X276940D01*
X273050Y42000D02*
X276940D01*
X273050Y44000D02*
X276940D01*
X273050Y42800D02*
X276940D01*
X273050Y40800D02*
X276940D01*
X273050Y40400D02*
X276940D01*
X273050Y41600D02*
X276940D01*
X273050Y41200D02*
X276940D01*
X288808Y39200D02*
X301743D01*
X288808Y39600D02*
X301743D01*
X288808Y38800D02*
X301743D01*
X288808Y40400D02*
X301743D01*
X288808Y40000D02*
X301743D01*
X288808Y37600D02*
X301743D01*
X288808Y36800D02*
X301743D01*
X288808Y38400D02*
X301743D01*
X288808Y38000D02*
X301743D01*
X273050Y37600D02*
X276940D01*
X288808Y37200D02*
X301743D01*
X273050Y40000D02*
X276940D01*
X273050Y39600D02*
X276940D01*
X288808Y36400D02*
X301743D01*
X288808Y36000D02*
X301743D01*
X273050Y37200D02*
X276940D01*
X273050Y36800D02*
X276940D01*
X273050Y43600D02*
X276940D01*
X273050Y44400D02*
X276940D01*
X273050Y43200D02*
X276940D01*
X261550Y44400D02*
X265950D01*
X261550Y41600D02*
X265950D01*
X276940Y35502D02*
Y89018D01*
X273050Y28126D02*
Y78500D01*
X265950Y28126D02*
Y77030D01*
X261550Y34897D02*
Y76423D01*
Y43200D02*
X265950D01*
X261550Y42800D02*
X265950D01*
X261550Y44000D02*
X265950D01*
X261550Y43600D02*
X265950D01*
X261550Y41200D02*
X265950D01*
X261550Y40800D02*
X265950D01*
X261550Y42400D02*
X265950D01*
X261550Y42000D02*
X265950D01*
X273050Y39200D02*
X276940D01*
X261550Y40000D02*
X265950D01*
X273050Y38800D02*
X276940D01*
X261550Y39600D02*
X265950D01*
X261550Y39200D02*
X265950D01*
X273050Y36400D02*
X276940D01*
X273050Y36000D02*
X276940D01*
X273050Y38400D02*
X276940D01*
X273050Y38000D02*
X276940D01*
X261550Y38400D02*
X265950D01*
X261550Y38000D02*
X265950D01*
X261550Y40400D02*
X265950D01*
X261550Y38800D02*
X265950D01*
X261550Y36800D02*
X265950D01*
X261550Y36400D02*
X265950D01*
X261550Y37600D02*
X265950D01*
X261550Y37200D02*
X265950D01*
X335896Y35502D02*
X337333D01*
X334577D02*
X335896D01*
X337333D02*
X338651D01*
X333140D02*
X334577D01*
X335896D01*
X340089D02*
X341407D01*
X340089D02*
X341407D01*
X337333D02*
X338651D01*
X340089D01*
X331821D02*
X333140D01*
X329896Y35600D02*
X342994D01*
X331821Y35502D02*
X333140D01*
X313611Y35600D02*
X324041D01*
X323553Y35502D02*
X324041D01*
X320797D02*
X322116D01*
X323553D01*
X319360D02*
X320797D01*
X322116D01*
X341407D02*
X342844D01*
X329896D02*
X330384D01*
X331821D01*
X323553D02*
X324041D01*
X329896D02*
X330384D01*
Y18041D02*
X331821D01*
X313848Y35502D02*
X315285D01*
X308336D02*
X309773D01*
X315285D02*
X316604D01*
X307018D02*
X308336D01*
X307018D02*
X308336D01*
X318041D02*
X319360D01*
X318041D02*
X319360D01*
X315285D02*
X316604D01*
X318041D01*
X305343Y35600D02*
X310011D01*
X305581Y35502D02*
X307018D01*
X298750D02*
X300069D01*
X301506D01*
X297313D02*
X298750D01*
X300069D01*
X295994D02*
X297313D01*
X295994D02*
X297313D01*
X294557D02*
X295994D01*
X293238D02*
X294557D01*
X300069Y18041D02*
X301506D01*
X305581D02*
X307018D01*
X337333D02*
X338651D01*
X335896D02*
X337333D01*
X338651D01*
X334577D02*
X335896D01*
X334577D02*
X335896D01*
X340089D02*
X341407D01*
X342844D01*
X338651D02*
X340089D01*
X341407D01*
X329896D02*
X330384D01*
X331821D02*
X333140D01*
X319360D02*
X320797D01*
X329896D02*
X330384D01*
X321285Y16668D02*
Y18041D01*
X329896Y15346D02*
Y18041D01*
X320797D02*
X321285D01*
X320797D02*
X321285D01*
X333140D02*
X334577D01*
X331821D02*
X333140D01*
X300077Y16400D02*
X321017D01*
X321596Y6404D02*
X329442Y14250D01*
X317167Y12550D02*
X321285Y16668D01*
X299969Y17200D02*
X321285D01*
X300064Y16800D02*
X321285D01*
X299831Y18000D02*
X321285D01*
X299831Y17600D02*
X321285D01*
X300011Y16000D02*
X320617D01*
X299858Y15600D02*
X320217D01*
X299590Y15200D02*
X319817D01*
X299199Y14800D02*
X319417D01*
X313848Y18041D02*
X315285D01*
X312529D02*
X313848D01*
X315285D02*
X316604D01*
X311092D02*
X312529D01*
X313848D01*
X318041D02*
X319360D01*
X318041D02*
X319360D01*
X315285D02*
X316604D01*
X318041D01*
X304262D02*
X305581D01*
X307018D02*
X308336D01*
X293238D02*
X294557D01*
X295994D01*
X309773D02*
X311092D01*
X309773D02*
X311092D01*
X307018D02*
X308336D01*
X309773D01*
X302825D02*
X304262D01*
X301506D02*
X302825D01*
X304262D02*
X305581D01*
X299831Y17513D02*
Y18041D01*
X301506D02*
X302825D01*
X298799Y14400D02*
X319017D01*
X298399Y14000D02*
X318617D01*
X297686Y13287D02*
X299481Y15082D01*
X297999Y13600D02*
X318217D01*
X296231Y17631D02*
Y18041D01*
X295387Y16786D02*
X296231Y17631D01*
X297594Y13200D02*
X317817D01*
X296910Y12800D02*
X317417D01*
X293238Y35502D02*
X294557D01*
X288808Y35600D02*
X301743D01*
X291801Y35502D02*
X293238D01*
X290482D02*
X291801D01*
X290482D02*
X291801D01*
X289045D02*
X290482D01*
X273947D02*
X276703D01*
X273050Y35200D02*
X273947D01*
X273050Y35600D02*
X276940D01*
X273050Y34800D02*
X273947D01*
X273050Y34400D02*
X273947D01*
X273050Y34000D02*
X273947D01*
X273050Y32800D02*
X273947D01*
X273050Y32400D02*
X273947D01*
X273050Y33600D02*
X273947D01*
X273050Y33200D02*
X273947D01*
X273050Y30800D02*
X273947D01*
X273050Y31200D02*
X273947D01*
X273050Y30400D02*
X273947D01*
X273050Y32000D02*
X273947D01*
X273050Y31600D02*
X273947D01*
X273050Y29200D02*
X273947D01*
X273050Y30000D02*
X273947D01*
X273050Y29600D02*
X273947D01*
X272343Y26000D02*
X273947D01*
X271510Y25200D02*
X273947D01*
X273050Y28800D02*
X273947D01*
X273050Y28400D02*
X273947D01*
X266999Y22400D02*
X273947D01*
X267399Y22000D02*
X273947D01*
X265399Y24000D02*
X273947D01*
X266199Y23200D02*
X273947D01*
X262442Y32800D02*
X265950D01*
X262442Y33200D02*
X265950D01*
X262375Y32400D02*
X265950D01*
X262237Y34000D02*
X265950D01*
X262375Y33600D02*
X265950D01*
X273048Y28000D02*
X273947D01*
X273011Y27600D02*
X273947D01*
X262237Y32000D02*
X265950D01*
X261550Y35200D02*
X265950D01*
X261662Y34800D02*
X265950D01*
X261550Y36000D02*
X265950D01*
X261550Y35600D02*
X265950D01*
X262011Y34400D02*
X265950D01*
X262011Y31600D02*
X265950D01*
X261662Y31200D02*
X265950D01*
X272602Y26400D02*
X273947D01*
X271994Y25600D02*
X273947D01*
X270741Y24800D02*
X273947D01*
X272927Y27200D02*
X273947D01*
X272793Y26800D02*
X273947D01*
X266599Y22800D02*
X273947D01*
X267799Y21600D02*
X273947D01*
X264999Y24400D02*
X273947D01*
X265799Y23600D02*
X273947D01*
X262599Y26800D02*
X266207D01*
X262999Y26400D02*
X266398D01*
X261799Y27600D02*
X265989D01*
X262199Y27200D02*
X266073D01*
X264199Y25200D02*
X267490D01*
X264599Y24800D02*
X268259D01*
X263399Y26000D02*
X266657D01*
X263799Y25600D02*
X267006D01*
X291801Y18041D02*
X293238D01*
X294557D01*
X283533D02*
X284970D01*
X286289D02*
X287726D01*
X287964Y16786D02*
Y18041D01*
X291564Y16786D02*
Y18041D01*
X284970D02*
X286289D01*
X284970D02*
X286289D01*
X278022D02*
X279459D01*
X280778D01*
X268599Y20800D02*
X273947D01*
X276703Y18041D02*
X278022D01*
X280778D02*
X282215D01*
X273947D02*
X276703D01*
X278022D01*
X291564Y18000D02*
X296231D01*
X282215Y18041D02*
X283533D01*
X291564Y17600D02*
X296201D01*
X279459Y18041D02*
X280778D01*
X282215D02*
X283533D01*
X291564Y17200D02*
X295801D01*
X289764Y12686D02*
X296236D01*
X291564Y16800D02*
X295401D01*
X291564Y16786D02*
X295387D01*
X272199Y17200D02*
X287964D01*
X272599Y16800D02*
X287964D01*
X271399Y18000D02*
X287964D01*
X271799Y17600D02*
X287964D01*
X270142Y12550D02*
X317167D01*
X266941Y5950D02*
X320500D01*
X272613Y16786D02*
X287964D01*
X271764Y12686D02*
X289764D01*
X269799Y19600D02*
X273947D01*
X269399Y20000D02*
X273947D01*
X270199Y19200D02*
X273947D01*
X268199Y21200D02*
X273947D01*
X268999Y20400D02*
X273947D01*
X270599Y18800D02*
X273947D01*
X270999Y18400D02*
X273947D01*
Y18041D02*
Y35502D01*
X265092Y17600D02*
X266001D01*
X262692Y20000D02*
X263601D01*
X263092Y19600D02*
X264001D01*
X261892Y20800D02*
X262801D01*
X262292Y20400D02*
X263201D01*
X264292Y18400D02*
X265201D01*
X264692Y18000D02*
X265601D01*
X263492Y19200D02*
X264401D01*
X263892Y18800D02*
X264801D01*
X269092Y13600D02*
X270001D01*
X268692Y14000D02*
X269601D01*
X269492Y13200D02*
X270406D01*
X267892Y14800D02*
X268801D01*
X268292Y14400D02*
X269201D01*
X269892Y12800D02*
X271090D01*
X267717Y0D02*
X271654Y3937D01*
X266292Y16400D02*
X267201D01*
X266692Y16000D02*
X267601D01*
X265492Y17200D02*
X266401D01*
X265892Y16800D02*
X266801D01*
X267092Y15600D02*
X268001D01*
X267492Y15200D02*
X268401D01*
X236624Y108800D02*
X359876D01*
X236224Y108400D02*
X360276D01*
X235824Y108000D02*
X360676D01*
X237024Y109200D02*
X359476D01*
X237024D02*
X359476D01*
X234624Y106800D02*
X361876D01*
X234224Y106400D02*
X362276D01*
X235424Y107600D02*
X361076D01*
X235024Y107200D02*
X361476D01*
X234000Y123800D02*
X362500D01*
X233824Y106000D02*
X362676D01*
X233424Y105600D02*
X363076D01*
X233024Y105200D02*
X363476D01*
X232624Y104800D02*
X265897D01*
X228162Y100338D02*
X237024Y109200D01*
X232224Y104400D02*
X264782D01*
X231824Y104000D02*
X264320D01*
X231424Y103600D02*
X264027D01*
X231024Y103200D02*
X263839D01*
X230624Y102800D02*
X263731D01*
X230224Y102400D02*
X263692D01*
X229024Y101200D02*
X263985D01*
X228624Y100800D02*
X264254D01*
X229824Y102000D02*
X263719D01*
X229424Y101600D02*
X263813D01*
X227299Y99600D02*
X266358D01*
X226688Y99200D02*
X266758D01*
X228224Y100400D02*
X264675D01*
X227800Y100000D02*
X265492D01*
X118020Y98000D02*
X267958D01*
X118421Y97600D02*
X268358D01*
X225898Y98800D02*
X267158D01*
X224697Y98400D02*
X267558D01*
X219976Y112800D02*
X228838Y121662D01*
X170000Y112800D02*
X219976D01*
X182000D02*
X219976D01*
X170000D02*
X176000D01*
X182000D01*
X112820Y103200D02*
X163072D01*
X112021Y104000D02*
X162856D01*
X112420Y103600D02*
X162952D01*
X108820Y107200D02*
X162901D01*
X109221Y106800D02*
X162817D01*
X109620Y106400D02*
X162756D01*
X110020Y106000D02*
X162717D01*
X111221Y104800D02*
X162734D01*
X111620Y104400D02*
X162783D01*
X110421Y105600D02*
X162701D01*
X110820Y105200D02*
X162706D01*
X117621Y98400D02*
X168303D01*
X117220Y98800D02*
X167102D01*
X170000Y98200D02*
X176000D01*
X116420Y99600D02*
X165701D01*
X116821Y99200D02*
X166312D01*
X176000Y98200D02*
X182000D01*
X223000D01*
X114021Y102000D02*
X163594D01*
X114420Y101600D02*
X163829D01*
X113221Y102800D02*
X163218D01*
X113620Y102400D02*
X163391D01*
X115621Y100400D02*
X164777D01*
X116021Y100000D02*
X165200D01*
X114821Y101200D02*
X164101D01*
X115220Y100800D02*
X164414D01*
X259784Y93200D02*
X272758D01*
X259144Y93600D02*
X272358D01*
X260221Y92800D02*
X273158D01*
X261020Y92000D02*
X273958D01*
X261420Y91600D02*
X274358D01*
X260104Y92917D02*
X272010Y81010D01*
X260620Y92400D02*
X273558D01*
X120020Y96000D02*
X269958D01*
X119621Y96400D02*
X269558D01*
X120421Y95600D02*
X270358D01*
X118821Y97200D02*
X268758D01*
X119220Y96800D02*
X269158D01*
X121621Y94400D02*
X271558D01*
X122020Y94000D02*
X271958D01*
X120820Y95200D02*
X270758D01*
X121221Y94800D02*
X271158D01*
X261550Y76000D02*
X265950D01*
X261550Y76400D02*
X265950D01*
X261550Y75600D02*
X265950D01*
X261296Y80400D02*
X262579D01*
X261550Y74000D02*
X265950D01*
X261550Y73600D02*
X265950D01*
X261550Y74800D02*
X265950D01*
X261550Y74400D02*
X265950D01*
X108800Y82000D02*
X260980D01*
X108800Y81600D02*
X261380D01*
X108800Y82800D02*
X260179D01*
X108800Y82400D02*
X260579D01*
X256123Y86856D02*
X265950Y77030D01*
X108800Y81200D02*
X261779D01*
X108800Y80800D02*
X262179D01*
X244000Y93956D02*
X257594D01*
X122064D02*
X244000D01*
Y86856D02*
X256123D01*
X120594D02*
X244000D01*
X137992Y76808D02*
X239933D01*
X108800Y80400D02*
X258704D01*
X108800Y80000D02*
X258216D01*
X108800Y79600D02*
X257911D01*
X108800Y79200D02*
X257713D01*
X108800Y77200D02*
X257821D01*
X108800Y78800D02*
X257597D01*
X108800Y78400D02*
X257551D01*
X242301Y75600D02*
X258450D01*
X241901Y76000D02*
X258450D01*
X242701Y75200D02*
X258450D01*
X240143Y76800D02*
X258079D01*
X241388Y76400D02*
X258450D01*
X243101Y74800D02*
X258450D01*
X243501Y74400D02*
X258450D01*
X241913Y75988D02*
X255980Y61921D01*
X243901Y74000D02*
X258450D01*
X108800Y76400D02*
X136537D01*
X108800Y75600D02*
X135689D01*
X108800Y75200D02*
X135459D01*
X108800Y74800D02*
X135307D01*
X108800Y74400D02*
X135220D01*
X135192Y53409D02*
Y74008D01*
X108800Y74000D02*
X135192D01*
X15461Y124000D02*
X397925D01*
X15009Y124400D02*
X398377D01*
X15852Y123600D02*
X232303D01*
X16195Y123200D02*
X231102D01*
X16496Y122800D02*
X230312D01*
X16760Y122400D02*
X229701D01*
X16993Y122000D02*
X229200D01*
X17196Y121600D02*
X228776D01*
X17373Y121200D02*
X228376D01*
X3020Y127200D02*
X410365D01*
X2400Y126800D02*
X410986D01*
X1915Y126400D02*
X411471D01*
X5906Y127953D02*
X407480D01*
X3895Y127600D02*
X409491D01*
X11844Y126000D02*
X401541D01*
X13030Y125600D02*
X400356D01*
X13841Y125200D02*
X399544D01*
X14480Y124800D02*
X398906D01*
X17909Y119200D02*
X226376D01*
X17845Y119600D02*
X226776D01*
X17953Y118800D02*
X225976D01*
X17977Y118400D02*
X225576D01*
X17981Y118000D02*
X225176D01*
X17966Y117600D02*
X224776D01*
X17931Y117200D02*
X224376D01*
X17876Y116800D02*
X223976D01*
X101021Y114400D02*
X221576D01*
X17525Y120800D02*
X227976D01*
X17654Y120400D02*
X227576D01*
X17760Y120000D02*
X227176D01*
X17801Y116400D02*
X223576D01*
X17704Y116000D02*
X223176D01*
X17586Y115600D02*
X222776D01*
X17444Y115200D02*
X222376D01*
X17279Y114800D02*
X221976D01*
X105621Y110400D02*
X164589D01*
X105220Y110800D02*
X164980D01*
X106020Y110000D02*
X164252D01*
X106421Y109600D02*
X163960D01*
X106820Y109200D02*
X163707D01*
X107220Y108800D02*
X163488D01*
X107621Y108400D02*
X163301D01*
X108020Y108000D02*
X163141D01*
X108421Y107600D02*
X163009D01*
X101898Y114000D02*
X221176D01*
X102417Y113600D02*
X220776D01*
X102821Y113200D02*
X220376D01*
X103220Y112800D02*
X170000D01*
X103621Y112400D02*
X167617D01*
X104021Y112000D02*
X166677D01*
X104420Y111600D02*
X165990D01*
X104821Y111200D02*
X165439D01*
X93300Y98800D02*
X107179D01*
X78691Y99200D02*
X106780D01*
X94742Y98400D02*
X107580D01*
X78691Y100000D02*
X105980D01*
X78691Y99600D02*
X106379D01*
X96060Y97200D02*
X108780D01*
X96460Y96800D02*
X109179D01*
X95260Y98000D02*
X107980D01*
X95660Y97600D02*
X108379D01*
X78691Y102400D02*
X103579D01*
X78691Y102000D02*
X103980D01*
X78691Y103200D02*
X102779D01*
X78691Y102800D02*
X103180D01*
X78691Y100800D02*
X105180D01*
X78691Y100400D02*
X105579D01*
X78691Y101600D02*
X104379D01*
X78691Y101200D02*
X104780D01*
X102860Y90400D02*
X115579D01*
X102510Y113510D02*
X122064Y93956D01*
X103260Y90000D02*
X115980D01*
X102060Y91200D02*
X114779D01*
X102460Y90800D02*
X115180D01*
X104460Y88800D02*
X117180D01*
X104860Y88400D02*
X117579D01*
X103660Y89600D02*
X116379D01*
X104060Y89200D02*
X116779D01*
X100060Y93200D02*
X112779D01*
X100460Y92800D02*
X113180D01*
X99260Y94000D02*
X111979D01*
X99660Y93600D02*
X112380D01*
X98529Y107450D02*
X118083Y87896D01*
X101660Y91600D02*
X114380D01*
X100860Y92400D02*
X113579D01*
X101260Y92000D02*
X113979D01*
X108784Y83600D02*
X259380D01*
X108711Y84000D02*
X258980D01*
X108800Y83200D02*
X259780D01*
X108364Y84800D02*
X258179D01*
X108575Y84400D02*
X258579D01*
X108800Y78000D02*
X257571D01*
X108800Y77600D02*
X257658D01*
X108800Y76800D02*
X137782D01*
X108800Y76000D02*
X136024D01*
X106060Y87200D02*
X119070D01*
X106460Y86800D02*
X256179D01*
X105260Y88000D02*
X117980D01*
X105660Y87600D02*
X118420D01*
X107660Y85600D02*
X257380D01*
X108057Y85200D02*
X257780D01*
X106860Y86400D02*
X256579D01*
X107260Y86000D02*
X256979D01*
X98460Y94800D02*
X111179D01*
X98060Y95200D02*
X110780D01*
X98860Y94400D02*
X111580D01*
X97260Y96000D02*
X109979D01*
X97660Y95600D02*
X110380D01*
X108800Y58984D02*
Y83300D01*
X103200Y60144D02*
Y82140D01*
X95280Y97980D02*
X107980Y85280D01*
X96860Y96400D02*
X109580D01*
X92140Y93200D02*
X103200Y82140D01*
X78691Y82400D02*
X102940D01*
X78691Y81200D02*
X103200D01*
X78691Y80800D02*
X103200D01*
X78691Y82000D02*
X103200D01*
X78691Y81600D02*
X103200D01*
X101628Y76000D02*
X103200D01*
X101525Y76400D02*
X103200D01*
X101663Y75600D02*
X103200D01*
X101060Y77200D02*
X103200D01*
X101344Y76800D02*
X103200D01*
X101354Y74400D02*
X103200D01*
X101263Y74000D02*
X103200D01*
X101632Y75200D02*
X103200D01*
X101532Y74800D02*
X103200D01*
X78691Y79600D02*
X103200D01*
X78691Y79200D02*
X103200D01*
X78691Y80400D02*
X103200D01*
X78691Y80000D02*
X103200D01*
X99657Y78000D02*
X103200D01*
X100615Y77600D02*
X103200D01*
X78691Y78800D02*
X103200D01*
X78691Y78400D02*
X103200D01*
X261550Y72800D02*
X265950D01*
X261550Y73200D02*
X265950D01*
X261550Y72400D02*
X265950D01*
X261550Y72000D02*
X265950D01*
X247901Y70000D02*
X258450D01*
X249101Y68800D02*
X258450D01*
X249501Y68400D02*
X258450D01*
X248301Y69600D02*
X258450D01*
X248701Y69200D02*
X258450D01*
X245501Y72400D02*
X258450D01*
X245101Y72800D02*
X258450D01*
X245901Y72000D02*
X258450D01*
X244301Y73600D02*
X258450D01*
X244701Y73200D02*
X258450D01*
X247101Y70800D02*
X258450D01*
X247501Y70400D02*
X258450D01*
X246301Y71600D02*
X258450D01*
X246701Y71200D02*
X258450D01*
X253901Y64000D02*
X258450D01*
X253501Y64400D02*
X258450D01*
X254301Y63600D02*
X258450D01*
X252701Y65200D02*
X258450D01*
X253101Y64800D02*
X258450D01*
X255501Y62400D02*
X258450D01*
X255901Y62000D02*
X258450D01*
X254701Y63200D02*
X258450D01*
X255101Y62800D02*
X258450D01*
X250701Y67200D02*
X258450D01*
X251101Y66800D02*
X258450D01*
X249901Y68000D02*
X258450D01*
X250301Y67600D02*
X258450D01*
X251501Y66400D02*
X258450D01*
X251901Y66000D02*
X258450D01*
X252301Y65600D02*
X258450D01*
X200474Y62000D02*
X247981D01*
X140792Y70000D02*
X239981D01*
X140792Y70400D02*
X239581D01*
X140792Y69600D02*
X240381D01*
X140792Y71208D02*
X238773D01*
X140792Y71200D02*
X238781D01*
X199551Y66400D02*
X243581D01*
X200474Y66000D02*
X243981D01*
X140792Y69200D02*
X240781D01*
X140792Y68400D02*
X241581D01*
X140792Y68000D02*
X241981D01*
X140792Y70800D02*
X239181D01*
X140792Y68800D02*
X241181D01*
X140792Y67600D02*
X242381D01*
X140792Y67200D02*
X242781D01*
X140792Y66400D02*
X198566D01*
X140792Y66000D02*
X197644D01*
X201476Y64400D02*
X245581D01*
X201375Y64800D02*
X245181D01*
X201509Y64000D02*
X245981D01*
X200914Y65600D02*
X244381D01*
X201195Y65200D02*
X244781D01*
X201195Y62800D02*
X247181D01*
X200914Y62400D02*
X247581D01*
X201476Y63600D02*
X246381D01*
X201375Y63200D02*
X246781D01*
X140792Y65600D02*
X197203D01*
X140792Y65200D02*
X196923D01*
X140792Y64800D02*
X196743D01*
X140792Y63600D02*
X196467D01*
X140792Y63200D02*
X196067D01*
X140792Y62800D02*
X195667D01*
X140792Y62400D02*
X195267D01*
X140792Y62000D02*
X194867D01*
X256799Y60000D02*
X258450D01*
X256779Y59600D02*
X258450D01*
X256700Y59200D02*
X258450D01*
X256665Y60800D02*
X258450D01*
X256762Y60400D02*
X258450D01*
X261550Y57600D02*
X265950D01*
X261550Y57200D02*
X265950D01*
X261550Y58400D02*
X265950D01*
X261550Y58000D02*
X265950D01*
X256557Y58800D02*
X258450D01*
X256338Y58400D02*
X258450D01*
X256256Y61600D02*
X258450D01*
X256501Y61200D02*
X258450D01*
X256050Y57200D02*
X258450D01*
X256050Y56800D02*
X258450D01*
X256050Y58000D02*
X258450D01*
X256050Y57600D02*
X258450D01*
X261550Y55200D02*
X265950D01*
X261550Y55600D02*
X265950D01*
X261550Y54800D02*
X265950D01*
X261550Y56800D02*
X265950D01*
X261550Y56000D02*
X265950D01*
X261550Y53200D02*
X265950D01*
X261550Y52800D02*
X265950D01*
X261550Y54400D02*
X265950D01*
X261550Y54000D02*
X265950D01*
X256050Y56400D02*
X258450D01*
X261550D02*
X265950D01*
X256050Y56000D02*
X258450D01*
X256050Y54800D02*
X258450D01*
X256050Y54000D02*
X258450D01*
X261550Y53600D02*
X265950D01*
X256050D02*
X258450D01*
X256050Y53200D02*
X258450D01*
X198451Y61200D02*
X248781D01*
X198051Y60800D02*
X249181D01*
X197651Y60400D02*
X249581D01*
X199551Y61600D02*
X248381D01*
X238773Y71208D02*
X251950Y58031D01*
X197251Y60000D02*
X249981D01*
X196051Y58800D02*
X251181D01*
X195651Y58400D02*
X251581D01*
X196851Y59600D02*
X250381D01*
X196451Y59200D02*
X250781D01*
X195251Y58000D02*
X251950D01*
X194851Y57600D02*
X251950D01*
X140792Y52250D02*
Y71208D01*
X194451Y57200D02*
X251950D01*
X194051Y56800D02*
X251950D01*
X193651Y56400D02*
X251950D01*
X256050Y55600D02*
X258450D01*
X193251Y56000D02*
X251950D01*
X192851Y55600D02*
X251950D01*
X256050Y52800D02*
X258450D01*
X256050Y52400D02*
X258450D01*
X256050Y55200D02*
X258450D01*
X256050Y54400D02*
X258450D01*
X191651D02*
X251950D01*
X191251Y54000D02*
X251950D01*
X192451Y55200D02*
X251950D01*
X192051Y54800D02*
X251950D01*
X190051Y52800D02*
X251950D01*
X189651Y52400D02*
X251950D01*
X190851Y53600D02*
X251950D01*
X190451Y53200D02*
X251950D01*
X108800Y68800D02*
X135192D01*
X108800Y69200D02*
X135192D01*
X108800Y68400D02*
X135192D01*
X108800Y70000D02*
X135192D01*
X108800Y69600D02*
X135192D01*
X108800Y67200D02*
X135192D01*
X140792Y66800D02*
X243181D01*
X108800Y68000D02*
X135192D01*
X108800Y67600D02*
X135192D01*
X108800Y72400D02*
X135192D01*
X108800Y72800D02*
X135192D01*
X108800Y72000D02*
X135192D01*
X108800Y73600D02*
X135192D01*
X108800Y73200D02*
X135192D01*
X108800Y70800D02*
X135192D01*
X108800Y70400D02*
X135192D01*
X108800Y71600D02*
X135192D01*
X108800Y71200D02*
X135192D01*
X108800Y65200D02*
X135192D01*
X108800Y65600D02*
X135192D01*
X108800Y64800D02*
X135192D01*
X108800Y66800D02*
X135192D01*
X108800Y66400D02*
X135192D01*
X140792Y64400D02*
X196642D01*
X140792Y64000D02*
X196609D01*
X140792Y61600D02*
X194467D01*
X140792Y61200D02*
X194067D01*
X108800Y63200D02*
X135192D01*
X108800Y62800D02*
X135192D01*
X108800Y66000D02*
X135192D01*
X108800Y64400D02*
X135192D01*
X108800Y61600D02*
X135192D01*
X108800Y61200D02*
X135192D01*
X108800Y62400D02*
X135192D01*
X108800Y62000D02*
X135192D01*
X101263Y69200D02*
X103200D01*
X101263Y69600D02*
X103200D01*
X101263Y68800D02*
X103200D01*
X101263Y70400D02*
X103200D01*
X101263Y70000D02*
X103200D01*
X101263Y67600D02*
X103200D01*
X101263Y67200D02*
X103200D01*
X101263Y68400D02*
X103200D01*
X101263Y68000D02*
X103200D01*
X101263Y72800D02*
X103200D01*
X101263Y72400D02*
X103200D01*
X101263Y73600D02*
X103200D01*
X101263Y73200D02*
X103200D01*
X101263Y71200D02*
X103200D01*
X101263Y70800D02*
X103200D01*
X101263Y72000D02*
X103200D01*
X101263Y71600D02*
X103200D01*
X101263Y65600D02*
X103200D01*
X101263Y66000D02*
X103200D01*
X101263Y65200D02*
X103200D01*
X101263Y66800D02*
X103200D01*
X101263Y66400D02*
X103200D01*
X108800Y64000D02*
X135192D01*
X108800Y63600D02*
X135192D01*
X101263Y64800D02*
X103200D01*
X101263Y64400D02*
X103200D01*
X101263Y63200D02*
X103200D01*
X101263Y62800D02*
X103200D01*
X101263Y64000D02*
X103200D01*
X101263Y63600D02*
X103200D01*
X101263Y61600D02*
X103200D01*
X101263Y61200D02*
X103200D01*
X101263Y62400D02*
X103200D01*
X101263Y62000D02*
X103200D01*
X140792Y60400D02*
X193267D01*
X140792Y60800D02*
X193667D01*
X140792Y60000D02*
X192867D01*
X140792Y59600D02*
X192467D01*
X140792Y59200D02*
X192067D01*
X140792Y58800D02*
X191667D01*
X140792Y58400D02*
X191267D01*
X140792Y58000D02*
X190867D01*
X140792Y57600D02*
X190467D01*
X108800Y60000D02*
X135192D01*
X108800Y59600D02*
X135192D01*
X108800Y60800D02*
X135192D01*
X108800Y60400D02*
X135192D01*
X108622Y58000D02*
X135192D01*
X108434Y57600D02*
X135192D01*
X108800Y59200D02*
X135192D01*
X108794Y58800D02*
X135192D01*
X140792Y56800D02*
X189667D01*
X140792Y57200D02*
X190067D01*
X140792Y56400D02*
X189267D01*
X140792Y56000D02*
X188867D01*
X140792Y55600D02*
X188467D01*
X140792Y55200D02*
X188067D01*
X140792Y54800D02*
X187667D01*
X140792Y53200D02*
X186067D01*
X140792Y52800D02*
X185667D01*
X126492Y56400D02*
X135192D01*
X140792Y54400D02*
X187267D01*
X108158Y57200D02*
X135192D01*
X107776Y56800D02*
X135192D01*
X140792Y54000D02*
X186867D01*
X140792Y53600D02*
X186467D01*
X140792Y52400D02*
X185267D01*
X140781Y52000D02*
X184867D01*
X127415Y56000D02*
X135192D01*
X108739Y58400D02*
X135192D01*
X127855Y55600D02*
X135192D01*
X118400Y55550D02*
X124103D01*
X128136Y55200D02*
X135192D01*
X101263Y60800D02*
X103200D01*
X101263Y60400D02*
X103200D01*
X101481Y58425D02*
X103200Y60144D01*
X101263Y60000D02*
X103056D01*
X107376Y56400D02*
X125508D01*
X106976Y56000D02*
X124585D01*
X106576Y55600D02*
X124145D01*
X128417Y54400D02*
X135192D01*
X128316Y54800D02*
X135192D01*
X128450Y54000D02*
X135192D01*
X128417Y53600D02*
X135192D01*
X128316Y53200D02*
X134983D01*
X128136Y52800D02*
X134583D01*
X127855Y52400D02*
X134183D01*
X119042Y52450D02*
X124103D01*
X118992Y52400D02*
X124145D01*
X106176Y55200D02*
X117419D01*
X105776Y54800D02*
X117008D01*
X105376Y54400D02*
X116608D01*
X104976Y54000D02*
X116208D01*
X104576Y53600D02*
X115808D01*
X104176Y53200D02*
X115408D01*
X103776Y52800D02*
X115008D01*
X103376Y52400D02*
X114608D01*
X73145Y114550D02*
X100000D01*
X74615Y107450D02*
X98529D01*
X73965Y106800D02*
X99180D01*
X73565Y106400D02*
X99580D01*
X70777Y103612D02*
X74615Y107450D01*
X74365Y107200D02*
X98779D01*
X17087Y114400D02*
X72124D01*
X16868Y114000D02*
X71247D01*
X16619Y113600D02*
X70727D01*
X16334Y113200D02*
X70324D01*
X63120Y105996D02*
X70634Y113510D01*
X16012Y112800D02*
X69924D01*
X15643Y112400D02*
X69524D01*
X15220Y112000D02*
X69124D01*
X73165Y106000D02*
X99980D01*
X72765Y105600D02*
X100380D01*
X78691Y103600D02*
X102380D01*
X85433Y98800D02*
X93300D01*
X85433D02*
X93300D01*
X78691D02*
X85433D01*
X78691Y98400D02*
X83991D01*
X78691Y98000D02*
X83473D01*
X71965Y104800D02*
X101180D01*
X71565Y104400D02*
X101579D01*
X47618Y105200D02*
X62521D01*
X72365D02*
X100779D01*
X71165Y104000D02*
X101979D01*
X70777Y103612D02*
X78691D01*
X48439Y104400D02*
X62200D01*
X48213Y104800D02*
X62332D01*
X48519Y104000D02*
X62117D01*
X48422Y104488D02*
X48519Y104000D01*
X51500Y103674D02*
X53335D01*
X53434Y103671D02*
X53918Y103633D01*
X53991Y103612D02*
X62082D01*
X51012Y103577D02*
X51500Y103674D01*
X48519Y103600D02*
X51125D01*
X36000Y105274D02*
X47244Y105274D01*
X47732Y105177D01*
X35512Y105177D02*
X36000Y105274D01*
X35099Y104901D02*
X35512Y105177D01*
X47732Y105177D02*
X48145Y104901D01*
X48422Y104488D01*
X34822Y104488D02*
X35099Y104901D01*
X34725Y104000D02*
X34822Y104488D01*
X50599Y103301D02*
X51012Y103577D01*
X50323Y102888D02*
X50599Y103301D01*
X48519Y103200D02*
X50531D01*
X50226Y102400D02*
X50323Y102888D01*
X48519Y102800D02*
X50305D01*
X48519Y101600D02*
X50226D01*
X48519Y101200D02*
X50226D01*
X48519Y102400D02*
X50226D01*
X48519Y102000D02*
X50226D01*
X48519Y100000D02*
X50226D01*
X48519Y99600D02*
X50226D01*
X48519Y100800D02*
X50226D01*
X48519Y100400D02*
X50226D01*
X48519Y98400D02*
X50226D01*
X48519Y98000D02*
X50226D01*
X48519Y99200D02*
X50226D01*
X48519Y98800D02*
X50226D01*
X78691Y97600D02*
X83135D01*
X78691Y97200D02*
X82903D01*
X78691Y96400D02*
X82662D01*
X78691Y95600D02*
X82662D01*
X85433Y93200D02*
X92140D01*
X85433D02*
X92140D01*
X78691Y95200D02*
X82750D01*
X78691Y94000D02*
X83473D01*
X78691Y94400D02*
X83135D01*
X78691Y93600D02*
X83991D01*
X78691Y96800D02*
X82750D01*
X78691Y94800D02*
X82903D01*
X78691Y92400D02*
X92940D01*
X78691Y92000D02*
X93340D01*
X78691Y93200D02*
X85433D01*
X78691Y92800D02*
X92540D01*
X78691Y87200D02*
X98140D01*
X78691Y87600D02*
X97740D01*
X78691Y86800D02*
X98540D01*
X78691Y88400D02*
X96940D01*
X78691Y88000D02*
X97340D01*
X78691Y85600D02*
X99740D01*
X78691Y85200D02*
X100140D01*
X78691Y86400D02*
X98940D01*
X78691Y86000D02*
X99340D01*
X78691Y90800D02*
X94540D01*
X78691Y90400D02*
X94940D01*
X78691Y91600D02*
X93740D01*
X78691Y91200D02*
X94140D01*
X78691Y89200D02*
X96140D01*
X78691Y88800D02*
X96540D01*
X78691Y90000D02*
X95340D01*
X78691Y89600D02*
X95740D01*
X48519Y96400D02*
X50226D01*
X48519Y96800D02*
X50226D01*
X48519Y96000D02*
X50226D01*
X48519Y97600D02*
X50226D01*
X48519Y97200D02*
X50226D01*
X78691Y69616D02*
Y103612D01*
Y96000D02*
X82633D01*
X48519Y95600D02*
X50226D01*
X48519Y93200D02*
X50226D01*
X48519Y94400D02*
X50226D01*
X48519Y94000D02*
X50226D01*
X48519Y95200D02*
X50226D01*
X48519Y94800D02*
X50226D01*
X48519Y93600D02*
X50226D01*
X48519Y92800D02*
X50226D01*
X34725Y104000D02*
X34725Y52775D01*
X48519Y92400D02*
X50226D01*
X48519Y87600D02*
X50226D01*
X48519Y88000D02*
X50226D01*
X48519Y87200D02*
X50226D01*
X48519Y88800D02*
X50226D01*
X48519Y88400D02*
X50226D01*
X48519Y86000D02*
X50226D01*
X48519Y85600D02*
X50226D01*
X48519Y86800D02*
X50226D01*
X48519Y86400D02*
X50226D01*
X48519Y91200D02*
X50226D01*
X48519Y90800D02*
X50226D01*
X48519Y92000D02*
X50226D01*
X48519Y91600D02*
X50226D01*
X48519Y89600D02*
X50226D01*
X48519Y89200D02*
X50226D01*
X48519Y90400D02*
X50226D01*
X48519Y90000D02*
X50226D01*
X14728Y111600D02*
X68724D01*
X14144Y111200D02*
X68324D01*
X13422Y110800D02*
X67924D01*
X1518Y126000D02*
X7841D01*
X1188Y125600D02*
X6655D01*
X12452Y110400D02*
X67524D01*
X10535Y110000D02*
X67124D01*
X0Y110800D02*
X6262D01*
X0Y110400D02*
X7233D01*
X912Y125200D02*
X5844D01*
X0Y111200D02*
X5541D01*
X0Y109600D02*
X66724D01*
X0Y109200D02*
X66324D01*
X0Y110000D02*
X9150D01*
X0Y108800D02*
X65924D01*
X0Y104800D02*
X35031D01*
X0Y105200D02*
X35625D01*
X0Y104400D02*
X34805D01*
X0Y104000D02*
X34725D01*
X0Y103600D02*
X34725D01*
X0Y102400D02*
X34725D01*
X0Y102000D02*
X34725D01*
X0Y103200D02*
X34725D01*
X0Y102800D02*
X34725D01*
X0Y108400D02*
X65524D01*
X0Y108000D02*
X65124D01*
X0Y107600D02*
X64724D01*
X0Y107200D02*
X64324D01*
X0Y106800D02*
X63924D01*
X0Y106400D02*
X63524D01*
X0Y106000D02*
X63124D01*
X0Y105600D02*
X62779D01*
X681Y124800D02*
X5205D01*
X489Y124400D02*
X4676D01*
X332Y124000D02*
X4224D01*
X208Y123600D02*
X3833D01*
X114Y123200D02*
X3490D01*
X48Y122800D02*
X3190D01*
X11Y122400D02*
X2925D01*
X0Y122000D02*
X2692D01*
X0Y121600D02*
X2489D01*
X0Y121200D02*
X2312D01*
X0Y120800D02*
X2160D01*
X0Y120400D02*
X2031D01*
X0Y120000D02*
X1925D01*
X0Y119600D02*
X1840D01*
X0Y119200D02*
X1776D01*
X0Y118800D02*
X1732D01*
X0Y118400D02*
X1708D01*
X0Y113600D02*
X3067D01*
X0Y114000D02*
X2817D01*
X0Y113200D02*
X3351D01*
X0Y114800D02*
X2406D01*
X0Y114400D02*
X2598D01*
X0Y112000D02*
X4465D01*
X0Y111600D02*
X4957D01*
X0Y112800D02*
X3673D01*
X0Y112400D02*
X4042D01*
X0Y117200D02*
X1754D01*
X0Y116800D02*
X1809D01*
X0Y118000D02*
X1704D01*
X0Y117600D02*
X1719D01*
X0Y115600D02*
X2100D01*
X0Y115200D02*
X2241D01*
X0Y116400D02*
X1884D01*
X0Y116000D02*
X1981D01*
X10357Y96800D02*
X34725D01*
X10026Y97200D02*
X34725D01*
X10592Y96400D02*
X34725D01*
X8647Y98000D02*
X34725D01*
X9539Y97600D02*
X34725D01*
X10893Y95200D02*
X34725D01*
X10883Y94800D02*
X34725D01*
X10752Y96000D02*
X34725D01*
X10850Y95600D02*
X34725D01*
X0Y100800D02*
X34725D01*
X0Y100400D02*
X34725D01*
X0Y101600D02*
X34725D01*
X0Y101200D02*
X34725D01*
X0Y98800D02*
X34725D01*
X0Y98400D02*
X34725D01*
X0Y100000D02*
X34725D01*
X0Y99600D02*
X34725D01*
X10657Y87200D02*
X34725D01*
X10452Y87600D02*
X34725D01*
X10794Y86800D02*
X34725D01*
X10819Y94400D02*
X34725D01*
X10697Y94000D02*
X34725D01*
X10866Y85600D02*
X34725D01*
X10781Y85200D02*
X34725D01*
X10872Y86400D02*
X34725D01*
X10896Y86000D02*
X34725D01*
X0Y90000D02*
X34725D01*
X0Y89600D02*
X34725D01*
X0Y90800D02*
X34725D01*
X0Y90400D02*
X34725D01*
X9740Y88400D02*
X34725D01*
X10160Y88000D02*
X34725D01*
X0Y89200D02*
X34725D01*
X9067Y88800D02*
X34725D01*
X0Y98000D02*
X7102D01*
X0Y99200D02*
X34725D01*
X0Y97600D02*
X6209D01*
X0Y97200D02*
X5722D01*
X0Y96800D02*
X5390D01*
X10509Y93600D02*
X34725D01*
X10241Y93200D02*
X34725D01*
X0Y96400D02*
X5156D01*
X0Y96000D02*
X4996D01*
X0Y95600D02*
X4898D01*
X0Y95200D02*
X4855D01*
X0Y94800D02*
X4865D01*
X0Y93600D02*
X5239D01*
X0Y93200D02*
X5507D01*
X0Y94400D02*
X4930D01*
X0Y94000D02*
X5051D01*
X9858Y92800D02*
X34725D01*
X9272Y92400D02*
X34725D01*
X0Y92000D02*
X34725D01*
X0Y92800D02*
X5890D01*
X0Y92400D02*
X6476D01*
X0Y91600D02*
X34725D01*
X0Y91200D02*
X34725D01*
X0Y88800D02*
X6681D01*
X0Y88400D02*
X6008D01*
X0Y88000D02*
X5588D01*
X0Y87600D02*
X5296D01*
X0Y87200D02*
X5091D01*
X0Y86800D02*
X4954D01*
X0Y85600D02*
X4882D01*
X0Y86400D02*
X4876D01*
X0Y86000D02*
X4853D01*
X78691Y83600D02*
X101740D01*
X78691Y84000D02*
X101340D01*
X78691Y83200D02*
X102140D01*
X78691Y84800D02*
X100540D01*
X78691Y84400D02*
X100940D01*
X78691Y82800D02*
X102540D01*
X78691Y78000D02*
X98769D01*
X78691Y77200D02*
X97366D01*
X78691Y77600D02*
X97811D01*
X78691Y76800D02*
X97082D01*
X78691Y76400D02*
X96900D01*
X78691Y76000D02*
X96797D01*
X78691Y74800D02*
X96894D01*
X78691Y74400D02*
X97072D01*
X78691Y75600D02*
X96763D01*
X78691Y75200D02*
X96794D01*
X78691Y72800D02*
X97163D01*
X78691Y73200D02*
X97163D01*
X78691Y72400D02*
X97163D01*
X78691Y74000D02*
X97163D01*
X78691Y73600D02*
X97163D01*
X78691Y71200D02*
X97163D01*
X78691Y70800D02*
X97163D01*
X78691Y72000D02*
X97163D01*
X78691Y71600D02*
X97163D01*
X78691Y70400D02*
X97163D01*
X78691Y70000D02*
X97163D01*
X74274Y69616D02*
X78691D01*
X74274Y69600D02*
X97163D01*
X74274Y68400D02*
X97163D01*
X74274Y68000D02*
X97163D01*
X74274Y69200D02*
X97163D01*
X74274Y68800D02*
X97163D01*
X48519Y78800D02*
X50226D01*
X48519Y79200D02*
X50226D01*
X48519Y76800D02*
X50226D01*
X48519Y80000D02*
X50226D01*
X48519Y79600D02*
X50226D01*
X48519Y75600D02*
X50226D01*
X48519Y75200D02*
X50226D01*
X48519Y76400D02*
X50226D01*
X48519Y76000D02*
X50226D01*
X48519Y82400D02*
X50226D01*
X48519Y82000D02*
X50226D01*
X48519Y83200D02*
X50226D01*
X48519Y82800D02*
X50226D01*
X48519Y80800D02*
X50226D01*
X48519Y80400D02*
X50226D01*
X48519Y81600D02*
X50226D01*
X48519Y81200D02*
X50226D01*
X48519Y70400D02*
X50226D01*
X48519Y70800D02*
X50226D01*
X48519Y70000D02*
X50226D01*
X48519Y71600D02*
X50226D01*
X48519Y71200D02*
X50226D01*
X48519Y68800D02*
X50226D01*
X48519Y68400D02*
X50226D01*
X48519Y69600D02*
X50226D01*
X48519Y69200D02*
X50226D01*
X48519Y74000D02*
X50226D01*
X48519Y73600D02*
X50226D01*
X48519Y74800D02*
X50226D01*
X48519Y74400D02*
X50226D01*
X48519Y72400D02*
X50226D01*
X48519Y72000D02*
X50226D01*
X48519Y73200D02*
X50226D01*
X48519Y72800D02*
X50226D01*
X74274Y63200D02*
X97163D01*
X74274Y63600D02*
X97163D01*
X74274Y62800D02*
X97163D01*
X74274Y66800D02*
X97163D01*
X74274Y66400D02*
X97163D01*
X101263Y58842D02*
Y74249D01*
X74274Y62400D02*
X97163D01*
Y58842D02*
Y74249D01*
X74274Y62000D02*
X97163D01*
X74274Y66000D02*
X97163D01*
X74274Y65600D02*
X97163D01*
X74274Y67600D02*
X97163D01*
X74274Y67200D02*
X97163D01*
X74274Y64400D02*
X97163D01*
X74274Y64000D02*
X97163D01*
X74274Y65200D02*
X97163D01*
X74274Y64800D02*
X97163D01*
X101263Y59200D02*
X102256D01*
X101263Y59600D02*
X102656D01*
X101290Y58800D02*
X101856D01*
X83905Y55600D02*
X97666D01*
X83926Y55200D02*
X98256D01*
X83917Y54800D02*
X97856D01*
X83877Y54400D02*
X97456D01*
X74274Y60800D02*
X97163D01*
X74274Y60400D02*
X97163D01*
X74274Y61600D02*
X97163D01*
X74274Y61200D02*
X97163D01*
X81941Y59200D02*
X97163D01*
X83852Y56000D02*
X97276D01*
X80493Y60000D02*
X97163D01*
X81351Y59600D02*
X97163D01*
X82757Y58400D02*
X96934D01*
X82394Y58800D02*
X97136D01*
X83053Y58000D02*
X96815D01*
X74274Y60000D02*
X76987D01*
X74274Y59600D02*
X76129D01*
X83491Y57200D02*
X96781D01*
X83647Y56800D02*
X96865D01*
X83295Y57600D02*
X96765D01*
X74274Y59200D02*
X75540D01*
X74274Y58800D02*
X75087D01*
X48519Y68000D02*
X50226D01*
X74274Y58400D02*
X74723D01*
X74274Y69616D02*
X74274Y57757D01*
X48519Y57200D02*
X50226D01*
X48519Y56800D02*
X50226D01*
X83805Y54000D02*
X97056D01*
X83766Y56400D02*
X97024D01*
X83700Y53600D02*
X96656D01*
X48519Y55600D02*
X50226D01*
X48519Y55200D02*
X50226D01*
X83560Y53200D02*
X96256D01*
X83380Y52800D02*
X95856D01*
X83158Y52400D02*
X95456D01*
X74274Y52000D02*
X74595D01*
X48519Y54800D02*
X50226D01*
X48519Y54400D02*
X50226D01*
X48519Y56400D02*
X50226D01*
X48519Y56000D02*
X50226D01*
X48519Y52800D02*
X50226D01*
X48519Y52400D02*
X50226D01*
X48519Y54000D02*
X50226D01*
X48519Y53600D02*
X50226D01*
X48519Y84800D02*
X50226D01*
X48519Y85200D02*
X50226D01*
X48519Y84400D02*
X50226D01*
X10637Y84800D02*
X34725D01*
X10422Y84400D02*
X34725D01*
X48519Y84000D02*
X50226D01*
X48519Y83600D02*
X50226D01*
X10118Y84000D02*
X34725D01*
X9679Y83600D02*
X34725D01*
X0Y81600D02*
X34725D01*
X0Y82400D02*
X34725D01*
X0Y81200D02*
X34725D01*
X8950Y83200D02*
X34725D01*
X0Y82800D02*
X34725D01*
X0Y80000D02*
X34725D01*
X0Y79600D02*
X34725D01*
X0Y80800D02*
X34725D01*
X0Y80400D02*
X34725D01*
X48519Y77200D02*
X50226D01*
X48519Y77600D02*
X50226D01*
X48519Y67600D02*
X50226D01*
X48519Y78400D02*
X50226D01*
X48519Y78000D02*
X50226D01*
X48519Y66000D02*
X50226D01*
X48519Y65600D02*
X50226D01*
X48519Y67200D02*
X50226D01*
X48519Y66800D02*
X50226D01*
X0Y78400D02*
X34725D01*
X0Y78000D02*
X34725D01*
X0Y79200D02*
X34725D01*
X0Y78800D02*
X34725D01*
X0Y77600D02*
X34725D01*
X48519Y66400D02*
X50226D01*
X0D02*
X34725D01*
X0Y66000D02*
X34725D01*
X0Y75600D02*
X34725D01*
X0Y76000D02*
X34725D01*
X0Y75200D02*
X34725D01*
X0Y76800D02*
X34725D01*
X0Y76400D02*
X34725D01*
X0Y74000D02*
X34725D01*
X0Y73600D02*
X34725D01*
X0Y74800D02*
X34725D01*
X0Y74400D02*
X34725D01*
X0Y84400D02*
X5326D01*
X0Y84000D02*
X5630D01*
X0Y85200D02*
X4967D01*
X0Y84800D02*
X5111D01*
X0Y82000D02*
X34725D01*
X0Y77200D02*
X34725D01*
X0Y83600D02*
X6069D01*
X0Y83200D02*
X6798D01*
X0Y68800D02*
X34725D01*
X0Y69200D02*
X34725D01*
X0Y68400D02*
X34725D01*
X0Y70000D02*
X34725D01*
X0Y69600D02*
X34725D01*
X0Y67200D02*
X34725D01*
X0Y66800D02*
X34725D01*
X0Y68000D02*
X34725D01*
X0Y67600D02*
X34725D01*
X0Y72400D02*
X34725D01*
X0Y72000D02*
X34725D01*
X0Y73200D02*
X34725D01*
X0Y72800D02*
X34725D01*
X0Y70800D02*
X34725D01*
X0Y70400D02*
X34725D01*
X0Y71600D02*
X34725D01*
X0Y71200D02*
X34725D01*
X48519Y64000D02*
X50226D01*
X48519Y64400D02*
X50226D01*
X48519Y63600D02*
X50226D01*
X48519Y65200D02*
X50226D01*
X48519Y64800D02*
X50226D01*
X48519Y62000D02*
X50226D01*
X48519Y61600D02*
X50226D01*
X48519Y63200D02*
X50226D01*
X48519Y62800D02*
X50226D01*
X0Y64000D02*
X34725D01*
X48519Y62400D02*
X50226D01*
X0Y65200D02*
X34725D01*
X0Y64400D02*
X34725D01*
X0Y61600D02*
X34725D01*
X48519Y61200D02*
X50226D01*
X0Y62400D02*
X34725D01*
X0Y62000D02*
X34725D01*
X48519Y59600D02*
X50226D01*
X48519Y60000D02*
X50226D01*
X48519Y59200D02*
X50226D01*
X48519Y60800D02*
X50226D01*
X48519Y60400D02*
X50226D01*
X48519Y57600D02*
X50226D01*
X48519Y53200D02*
X50226D01*
X48519Y58800D02*
X50226D01*
X48519Y58400D02*
X50226D01*
X0Y60400D02*
X34725D01*
X0Y60000D02*
X34725D01*
X0Y61200D02*
X34725D01*
X0Y60800D02*
X34725D01*
X48519Y58000D02*
X50226D01*
X15817Y54000D02*
X34725D01*
X15817Y53600D02*
X34725D01*
X15817Y53200D02*
X34725D01*
X0Y57200D02*
X34725D01*
X0Y57600D02*
X34725D01*
X0Y56800D02*
X34725D01*
X0Y58400D02*
X34725D01*
X0Y58000D02*
X34725D01*
X0Y56400D02*
X34725D01*
X0Y56000D02*
X34725D01*
X5443Y55876D02*
X15817D01*
Y55600D02*
X34725D01*
X0Y63600D02*
X34725D01*
X0Y63200D02*
X34725D01*
X0Y65600D02*
X34725D01*
X0Y64800D02*
X34725D01*
X0Y59200D02*
X34725D01*
X0Y58800D02*
X34725D01*
X0Y62800D02*
X34725D01*
X0Y59600D02*
X34725D01*
X15817Y54800D02*
X34725D01*
X15817Y55200D02*
X34725D01*
X15817Y52800D02*
X34725D01*
X0Y54800D02*
X5443D01*
X15817Y54400D02*
X34725D01*
X25012Y52678D02*
X25500Y52775D01*
X34725D01*
X24599Y52401D02*
X25012Y52678D01*
X15817Y52400D02*
X24598D01*
X0Y54400D02*
X5443D01*
X0Y54000D02*
X5443D01*
X0Y55600D02*
X5443D01*
X0Y55200D02*
X5443D01*
X0Y52800D02*
X5443D01*
X0Y52400D02*
X5443D01*
X0Y53600D02*
X5443D01*
X0Y53200D02*
X5443D01*
X256050Y50000D02*
X258450D01*
X256050Y50800D02*
X258450D01*
X256050Y49600D02*
X258450D01*
X256050Y51600D02*
X258450D01*
X256050Y51200D02*
X258450D01*
X261550Y48000D02*
X265950D01*
X261550Y47600D02*
X265950D01*
X261550Y48800D02*
X265950D01*
X261550Y48400D02*
X265950D01*
X256050Y50400D02*
X258450D01*
X256050Y52000D02*
X258450D01*
X256050Y48800D02*
X258450D01*
X186451Y49200D02*
X251950D01*
X256050D02*
X258450D01*
X256050Y47600D02*
X258450D01*
X256050Y47200D02*
X258450D01*
X256050Y48400D02*
X258450D01*
X256050Y48000D02*
X258450D01*
X261550Y46800D02*
X265950D01*
X261550Y47200D02*
X265950D01*
X261550Y46000D02*
X265950D01*
X256050Y46400D02*
X258450D01*
X261550D02*
X265950D01*
X261550Y45600D02*
X265950D01*
X261550Y45200D02*
X265950D01*
X261550Y44800D02*
X265950D01*
X256050Y44000D02*
X258450D01*
X256050Y45600D02*
X258450D01*
X256050Y45200D02*
X258450D01*
X256050Y46800D02*
X258450D01*
X256050Y46000D02*
X258450D01*
X256050Y44800D02*
X258450D01*
X256050Y44400D02*
X258450D01*
X187390Y43600D02*
X251950D01*
X256050D02*
X258450D01*
X188451Y51200D02*
X251950D01*
X188051Y50800D02*
X251950D01*
X187651Y50400D02*
X251950D01*
X189251Y52000D02*
X251950D01*
X188851Y51600D02*
X251950D01*
X186051Y48800D02*
X251950D01*
X185651Y48400D02*
X251950D01*
X187251Y50000D02*
X251950D01*
X186851Y49600D02*
X251950D01*
X140716Y51600D02*
X184467D01*
X140588Y51200D02*
X184067D01*
X140388Y50800D02*
X183667D01*
X140094Y50400D02*
X183267D01*
X183855Y46604D02*
X198813Y61562D01*
X139702Y50000D02*
X182867D01*
X186592Y46000D02*
X251950D01*
X185941Y46400D02*
X251950D01*
X186966Y45600D02*
X251950D01*
X185251Y48000D02*
X251950D01*
X184851Y47600D02*
X251950D01*
X187436Y44400D02*
X251950D01*
X187446Y44000D02*
X251950D01*
X187208Y45200D02*
X251950D01*
X187359Y44800D02*
X251950D01*
X184451Y47200D02*
X251950D01*
X184051Y46800D02*
X251950D01*
X139509Y45200D02*
X178067D01*
X139910Y44800D02*
X177667D01*
X140310Y44400D02*
X177267D01*
X140709Y44000D02*
X176867D01*
X141110Y43600D02*
X176467D01*
X256050Y42000D02*
X258450D01*
X256050Y42400D02*
X258450D01*
X256050Y41600D02*
X258450D01*
X256050Y43200D02*
X258450D01*
X256050Y42800D02*
X258450D01*
X256050Y41200D02*
X258450D01*
X256050Y40400D02*
X258450D01*
Y34897D02*
Y76423D01*
X256050Y33349D02*
Y58034D01*
X186727Y42400D02*
X251950D01*
X186197Y42000D02*
X251950D01*
X184654Y41600D02*
X251950D01*
X187263Y43200D02*
X251950D01*
X187053Y42800D02*
X251950D01*
X184254Y41200D02*
X251950D01*
X256050Y40800D02*
X258450D01*
X183854D02*
X251950D01*
X183454Y40400D02*
X251950D01*
X256050Y38800D02*
X258450D01*
X256050Y39200D02*
X258450D01*
X256050Y38400D02*
X258450D01*
X256050Y40000D02*
X258450D01*
X256050Y39600D02*
X258450D01*
X256050Y36800D02*
X258450D01*
X256050Y36400D02*
X258450D01*
X256050Y38000D02*
X258450D01*
X256050Y37600D02*
X258450D01*
X182254Y39200D02*
X251950D01*
X181854Y38800D02*
X251950D01*
X183054Y40000D02*
X251950D01*
X182654Y39600D02*
X251950D01*
X186729Y38000D02*
X251950D01*
X256050Y37200D02*
X258450D01*
X187054Y37600D02*
X251950D01*
X187264Y37200D02*
X251950D01*
X144710Y40000D02*
X172867D01*
X145109Y39600D02*
X172467D01*
X145510Y39200D02*
X172067D01*
X145910Y38800D02*
X171667D01*
X163417Y30550D02*
X196621Y63754D01*
X251950Y32500D02*
Y58031D01*
X168271Y25217D02*
X184754Y41700D01*
X141509Y43200D02*
X176067D01*
X141910Y42800D02*
X175667D01*
X142309Y42400D02*
X175267D01*
X142710Y42000D02*
X174867D01*
X143110Y41600D02*
X174467D01*
X143509Y41200D02*
X174067D01*
X143910Y40800D02*
X173667D01*
X144309Y40400D02*
X173267D01*
X186200Y38400D02*
X251950D01*
X181454D02*
X183800D01*
X181054Y38000D02*
X183271D01*
X180654Y37600D02*
X182946D01*
X180254Y37200D02*
X182736D01*
X187391Y36800D02*
X251950D01*
X187446Y36400D02*
X251950D01*
X179854Y36800D02*
X182609D01*
X146309Y38400D02*
X171267D01*
X146710Y38000D02*
X170867D01*
X147109Y37600D02*
X170467D01*
X147510Y37200D02*
X170067D01*
X179454Y36400D02*
X182554D01*
X171761Y25217D02*
X182562Y36018D01*
X147909Y36800D02*
X169667D01*
X148310Y36400D02*
X169267D01*
X127415Y52000D02*
X133783D01*
X126492Y51600D02*
X133383D01*
X122316Y50400D02*
X132183D01*
X122417Y50000D02*
X131783D01*
X137206Y47504D02*
X139972Y50270D01*
X139302Y49600D02*
X182467D01*
X131266Y49483D02*
X135192Y53409D01*
X122450Y49600D02*
X131383D01*
X121415Y51600D02*
X125508D01*
X120492Y52000D02*
X124585D01*
X121855Y51200D02*
X132983D01*
X118592Y52000D02*
X119508D01*
X118192Y51600D02*
X118585D01*
X122136Y50800D02*
X132583D01*
X114438Y47846D02*
X119042Y52450D01*
X117792Y51200D02*
X118145D01*
X138902Y49200D02*
X182067D01*
X138502Y48800D02*
X181667D01*
X138102Y48400D02*
X181267D01*
X122417Y49200D02*
X130983D01*
X137702Y48000D02*
X180867D01*
X137302Y47600D02*
X180467D01*
X137510Y47200D02*
X180067D01*
X137909Y46800D02*
X179667D01*
X138310Y46400D02*
X179267D01*
X122316Y48800D02*
X130583D01*
X122136Y48400D02*
X130183D01*
X122050Y48000D02*
X129783D01*
X122050Y47600D02*
X129383D01*
X122050Y47200D02*
X128983D01*
X122050Y46800D02*
X128583D01*
X122050Y46400D02*
X128183D01*
X102976Y52000D02*
X114208D01*
X102576Y51600D02*
X113808D01*
X117392Y50800D02*
X117864D01*
X102176Y51200D02*
X113408D01*
X101776Y50800D02*
X113008D01*
X116992Y50400D02*
X117684D01*
X116592Y50000D02*
X117583D01*
X112246Y50038D02*
X117304Y55096D01*
X101376Y50400D02*
X112608D01*
X82885Y52000D02*
X95056D01*
X82552Y51600D02*
X94656D01*
X82139Y51200D02*
X94256D01*
X81614Y50800D02*
X93856D01*
X80895Y50400D02*
X93456D01*
X100976Y50000D02*
X111508D01*
X79583D02*
X93056D01*
X74274Y49600D02*
X92656D01*
X115792Y49200D02*
X117583D01*
X115392Y48800D02*
X117684D01*
X114992Y48400D02*
X117864D01*
X100576Y49600D02*
X110585D01*
X116192D02*
X117550D01*
X114417Y47200D02*
X117950D01*
X114316Y46800D02*
X117950D01*
X114592Y48000D02*
X117950D01*
X114450Y47600D02*
X117950D01*
X100176Y49200D02*
X110145D01*
X99776Y48800D02*
X109864D01*
X99376Y48400D02*
X109684D01*
X98976Y48000D02*
X109583D01*
X97776Y46800D02*
X109684D01*
X97376Y46400D02*
X109864D01*
X98576Y47600D02*
X109550D01*
X98176Y47200D02*
X109583D01*
X139110Y45600D02*
X178467D01*
X138709Y46000D02*
X178867D01*
X132102Y42400D02*
X134390D01*
X132902Y43200D02*
X133590D01*
X132502Y42800D02*
X133990D01*
X137206Y47504D02*
X150480Y34230D01*
X133246Y43544D02*
X146240Y30550D01*
X128222Y38520D02*
X133246Y43544D01*
X131702Y42000D02*
X134790D01*
X122050Y46000D02*
X127783D01*
X122050Y45600D02*
X127383D01*
X122050Y45200D02*
X126983D01*
X122050Y44800D02*
X126583D01*
X125083Y43300D02*
X131266Y49483D01*
X122050Y44400D02*
X126183D01*
X122050Y44000D02*
X125783D01*
X122050Y43600D02*
X125383D01*
X130502Y40800D02*
X135990D01*
X130102Y40400D02*
X136390D01*
X129702Y40000D02*
X136790D01*
X131302Y41600D02*
X135190D01*
X130902Y41200D02*
X135590D01*
X128502Y38800D02*
X137990D01*
X128094Y38400D02*
X138390D01*
X129302Y39600D02*
X137190D01*
X128902Y39200D02*
X137590D01*
X127503Y38000D02*
X138790D01*
X120000Y37700D02*
X126242D01*
X98120Y36800D02*
X139990D01*
X97720Y36400D02*
X140390D01*
X98920Y37600D02*
X139190D01*
X98520Y37200D02*
X139590D01*
X114136Y46400D02*
X117950D01*
X113855Y46000D02*
X117950D01*
X112492Y45200D02*
X117950D01*
X96976Y46000D02*
X110145D01*
X113415Y45600D02*
X117950D01*
X122050Y43300D02*
Y48258D01*
Y43300D02*
X125083D01*
X117950D02*
Y48258D01*
X95776Y44800D02*
X117950D01*
X95376Y44400D02*
X117950D01*
X96576Y45600D02*
X110585D01*
X96176Y45200D02*
X111508D01*
X94976Y44000D02*
X117950D01*
X94576Y43600D02*
X117950D01*
X84596Y33620D02*
X107980Y57004D01*
X81456Y38400D02*
X98288Y55231D01*
X97860Y43300D02*
X117950D01*
X94176Y43200D02*
X97118D01*
X93776Y42800D02*
X96263D01*
X93376Y42400D02*
X95800D01*
X99020Y37700D02*
X120000D01*
X92976Y42000D02*
X95400D01*
X92576Y41600D02*
X95000D01*
X92176Y41200D02*
X94600D01*
X91776Y40800D02*
X94200D01*
X91376Y40400D02*
X93800D01*
X90976Y40000D02*
X93400D01*
X62924Y9524D02*
X95880Y42480D01*
X70992Y9672D02*
X99020Y37700D01*
X90576Y39600D02*
X93000D01*
X90176Y39200D02*
X92600D01*
X261078Y30800D02*
X265950D01*
X258599D02*
X258922D01*
X256999Y32400D02*
X257625D01*
X257399Y32000D02*
X257763D01*
X259799Y29600D02*
X265950D01*
X260199Y29200D02*
X265950D01*
X258999Y30400D02*
X265950D01*
X259399Y30000D02*
X265950D01*
X256050Y35600D02*
X258450D01*
X256050Y36000D02*
X258450D01*
X256050Y35200D02*
X258450D01*
X256050Y34800D02*
X258338D01*
X256050Y34400D02*
X257989D01*
X256050Y34000D02*
X257763D01*
X256050Y33600D02*
X257625D01*
X256199Y33200D02*
X257558D01*
X256599Y32800D02*
X257558D01*
X260999Y28400D02*
X265950D01*
X260599Y28800D02*
X265950D01*
X261399Y28000D02*
X265952D01*
X259492Y23200D02*
X260401D01*
X259892Y22800D02*
X260801D01*
X261092Y21600D02*
X262001D01*
X261492Y21200D02*
X262401D01*
X260292Y22400D02*
X261201D01*
X260692Y22000D02*
X261601D01*
X257092Y25600D02*
X258001D01*
X257492Y25200D02*
X258401D01*
X256292Y26400D02*
X257201D01*
X256692Y26000D02*
X257601D01*
X258692Y24000D02*
X259601D01*
X259092Y23600D02*
X260001D01*
X257892Y24800D02*
X258801D01*
X258292Y24400D02*
X259201D01*
X253892Y28800D02*
X254801D01*
X253492Y29200D02*
X254401D01*
X254292Y28400D02*
X255201D01*
X253079Y29600D02*
X254001D01*
X255492Y27200D02*
X256401D01*
X255892Y26800D02*
X256801D01*
X254692Y28000D02*
X255601D01*
X255092Y27600D02*
X256001D01*
X227408Y22450D02*
X249799D01*
X227893Y22000D02*
X250249D01*
X228161Y21600D02*
X250649D01*
X227477Y22400D02*
X249849D01*
X228450Y20400D02*
X251849D01*
X228409Y20000D02*
X252249D01*
X228300Y19600D02*
X252649D01*
X228331Y21200D02*
X251049D01*
X228424Y20800D02*
X251449D01*
X242481Y17200D02*
X255049D01*
X242892Y16800D02*
X255449D01*
X227349Y18400D02*
X253849D01*
X226158Y18000D02*
X254249D01*
X228110Y19200D02*
X253049D01*
X227816Y18800D02*
X253449D01*
X226000Y17600D02*
X254649D01*
X226000Y17550D02*
X241500D01*
X226000D02*
Y17995D01*
X256050Y33349D02*
X272613Y16786D01*
X252550Y31050D02*
X270314Y13287D01*
X253206Y29486D02*
X270142Y12550D01*
X248092Y11600D02*
X260649D01*
X248492Y11200D02*
X261049D01*
X249799Y22450D02*
X265845Y6404D01*
X249692Y10000D02*
X262249D01*
X248892Y10800D02*
X261449D01*
X249292Y10400D02*
X261849D01*
X245692Y14000D02*
X258249D01*
X246092Y13600D02*
X258649D01*
X244892Y14800D02*
X257449D01*
X245292Y14400D02*
X257849D01*
X247292Y12400D02*
X259849D01*
X247692Y12000D02*
X260249D01*
X246492Y13200D02*
X259049D01*
X246892Y12800D02*
X259449D01*
X251398Y6000D02*
X266551D01*
X251279Y6400D02*
X265849D01*
X251448Y5600D02*
X396597D01*
X250764Y7200D02*
X265049D01*
X251077Y6800D02*
X265449D01*
X251189Y4400D02*
X397491D01*
X250937Y4000D02*
X397876D01*
X251432Y5200D02*
X396857D01*
X251348Y4800D02*
X397154D01*
X250521Y8800D02*
X263449D01*
X250550Y8400D02*
X263849D01*
X250092Y9600D02*
X262649D01*
X250383Y9200D02*
X263049D01*
X250547Y3600D02*
X271317D01*
X249844Y3200D02*
X270917D01*
X250550Y8000D02*
X264249D01*
X250550Y7600D02*
X264649D01*
X244092Y15600D02*
X256649D01*
X243692Y16000D02*
X256249D01*
X244492Y15200D02*
X257049D01*
X243292Y16400D02*
X255849D01*
X197142Y14450D02*
X240858D01*
X242596Y17096D02*
X250096Y9596D01*
X240858Y14450D02*
X247450Y7858D01*
X197092Y14400D02*
X240908D01*
X196692Y14000D02*
X241308D01*
X195492Y12800D02*
X242508D01*
X195092Y12400D02*
X242908D01*
X196292Y13600D02*
X241708D01*
X195892Y13200D02*
X242108D01*
X194292Y11600D02*
X243708D01*
X193892Y11200D02*
X244108D01*
X190596Y7904D02*
X197142Y14450D01*
X194692Y12000D02*
X243308D01*
X192692Y10000D02*
X245308D01*
X193492Y10800D02*
X244508D01*
X193092Y10400D02*
X244908D01*
X250550Y7397D02*
Y8500D01*
X247450Y7397D02*
Y7858D01*
X191492Y8800D02*
X246508D01*
X191092Y8400D02*
X246908D01*
X192292Y9600D02*
X245708D01*
X191892Y9200D02*
X246108D01*
X190692Y8000D02*
X247308D01*
X190165Y7600D02*
X247450D01*
X187436Y36000D02*
X251950D01*
X187358Y35600D02*
X251950D01*
X186965Y34800D02*
X251950D01*
X179054Y36000D02*
X182544D01*
X187207Y35200D02*
X251950D01*
X184528Y33600D02*
X251950D01*
X184128Y33200D02*
X251950D01*
X186590Y34400D02*
X251950D01*
X185937Y34000D02*
X251950D01*
X178654Y35600D02*
X182144D01*
X178254Y35200D02*
X181744D01*
X177854Y34800D02*
X181344D01*
X148709Y36000D02*
X168867D01*
X177454Y34400D02*
X180944D01*
X177054Y34000D02*
X180544D01*
X176654Y33600D02*
X180144D01*
X176254Y33200D02*
X179744D01*
X175854Y32800D02*
X179344D01*
X182928Y32000D02*
X252012D01*
X182528Y31600D02*
X252158D01*
X182128Y31200D02*
X252415D01*
X183728Y32800D02*
X251950D01*
X183328Y32400D02*
X251952D01*
X186401Y30400D02*
X253201D01*
X186847Y30000D02*
X253601D01*
X181728Y30800D02*
X184560D01*
X185440D02*
X252801D01*
X175454Y32400D02*
X178944D01*
X175054Y32000D02*
X178544D01*
X174654Y31600D02*
X178144D01*
X174254Y31200D02*
X177744D01*
X173854Y30800D02*
X177344D01*
X181328Y30400D02*
X183599D01*
X173454D02*
X176944D01*
X173054Y30000D02*
X176544D01*
X149510Y35200D02*
X168067D01*
X149109Y35600D02*
X168467D01*
X149909Y34800D02*
X167667D01*
X150310Y34400D02*
X167267D01*
X150686Y34000D02*
X166867D01*
X150953Y33600D02*
X166467D01*
X151134Y33200D02*
X166067D01*
X151245Y32800D02*
X165667D01*
X96520Y35200D02*
X141590D01*
X96120Y34800D02*
X141990D01*
X97320Y36000D02*
X140790D01*
X96920Y35600D02*
X141190D01*
X94920Y33600D02*
X143190D01*
X94520Y33200D02*
X143590D01*
X95720Y34400D02*
X142390D01*
X95320Y34000D02*
X142790D01*
X151296Y32400D02*
X165267D01*
X151289Y32000D02*
X164867D01*
X151224Y31600D02*
X164467D01*
X151096Y31200D02*
X164067D01*
X150896Y30800D02*
X163667D01*
X150725Y30550D02*
X163417D01*
X142662Y30800D02*
X145990D01*
X142897Y30550D02*
X146240D01*
X93320Y32000D02*
X144790D01*
X92920Y31600D02*
X145190D01*
X94120Y32800D02*
X143990D01*
X93720Y32400D02*
X144390D01*
X92520Y31200D02*
X139922D01*
X142078D02*
X145590D01*
X92120Y30800D02*
X139338D01*
X91720Y30400D02*
X138989D01*
X186897Y29940D02*
X252110D01*
X180928Y30000D02*
X183153D01*
X180528Y29600D02*
X182870D01*
X180128Y29200D02*
X182688D01*
X179728Y28800D02*
X182585D01*
X179328Y28400D02*
X182550D01*
X178928Y28000D02*
X182418D01*
X178528Y27600D02*
X182018D01*
X177302Y22883D02*
X182562Y28144D01*
X178128Y27200D02*
X181618D01*
X177728Y26800D02*
X181218D01*
X177328Y26400D02*
X180818D01*
X136211Y7200D02*
X247236D01*
X136211Y6800D02*
X246923D01*
X173812Y22883D02*
X184754Y33826D01*
X136211Y7450D02*
X189500D01*
X136211Y2400D02*
X270116D01*
X136211Y2800D02*
X270516D01*
X136211Y2000D02*
X269717D01*
X136211Y3200D02*
X248156D01*
X136211Y1600D02*
X269317D01*
X136211Y1200D02*
X268917D01*
X136212Y800D02*
X268516D01*
X136212Y400D02*
X268116D01*
X136212Y0D02*
X267717D01*
X136211Y6400D02*
X246721D01*
X136211Y6000D02*
X246602D01*
X136211Y5600D02*
X246552D01*
X136211Y5200D02*
X246568D01*
X136211Y4000D02*
X247063D01*
X136211Y3600D02*
X247453D01*
X136211Y4800D02*
X246652D01*
X136211Y4400D02*
X246811D01*
X172654Y29600D02*
X176144D01*
X172254Y29200D02*
X175744D01*
X171854Y28800D02*
X175344D01*
X171454Y28400D02*
X174944D01*
X171054Y28000D02*
X174544D01*
X170654Y27600D02*
X174144D01*
X92502Y27550D02*
X139025D01*
X91320Y30000D02*
X138763D01*
X90920Y29600D02*
X138625D01*
X90520Y29200D02*
X138558D01*
X90120Y28800D02*
X138558D01*
X89320Y28000D02*
X138763D01*
X88920Y27600D02*
X138989D01*
X89720Y28400D02*
X138625D01*
X176928Y26000D02*
X180418D01*
X176528Y25600D02*
X180018D01*
X176128Y25200D02*
X179618D01*
X175728Y24800D02*
X179218D01*
X175328Y24400D02*
X178818D01*
X174928Y24000D02*
X178418D01*
X174528Y23600D02*
X178018D01*
X174128Y23200D02*
X177618D01*
X173812Y22883D02*
X177302D01*
X170254Y27200D02*
X173744D01*
X169854Y26800D02*
X173344D01*
X169454Y26400D02*
X172944D01*
X169054Y26000D02*
X172544D01*
X168654Y25600D02*
X172144D01*
X168271Y25217D02*
X171761D01*
X136211Y2765D02*
Y7450D01*
Y2765D02*
X136212Y0D01*
X74274Y47600D02*
X90656D01*
X74274Y48000D02*
X91056D01*
X74274Y47200D02*
X90256D01*
X74274Y46800D02*
X89856D01*
X74274Y46400D02*
X89456D01*
X74274Y46000D02*
X89056D01*
X74274Y45600D02*
X88656D01*
X74274Y44400D02*
X87456D01*
X74274Y44000D02*
X87056D01*
X74274Y48800D02*
X91856D01*
X74274Y49200D02*
X92256D01*
X74274Y48400D02*
X91456D01*
X74274Y45200D02*
X88256D01*
X74274Y44800D02*
X87856D01*
X74195Y43600D02*
X86656D01*
X73969Y43200D02*
X86256D01*
X89776Y38800D02*
X92200D01*
X89376Y38400D02*
X91800D01*
X88976Y38000D02*
X91400D01*
X73375Y42800D02*
X85856D01*
X88576Y37600D02*
X91000D01*
X88176Y37200D02*
X90600D01*
X87776Y36800D02*
X90200D01*
X87376Y36400D02*
X89800D01*
X86976Y36000D02*
X89400D01*
X48519Y41600D02*
X84656D01*
X48519Y41200D02*
X84256D01*
X48519Y40800D02*
X83856D01*
X48519Y40400D02*
X83456D01*
X48519Y40000D02*
X83056D01*
X48519Y39600D02*
X82656D01*
X48519Y39200D02*
X82256D01*
X48519Y38800D02*
X81856D01*
X74274Y50400D02*
X76585D01*
X74274Y50800D02*
X75866D01*
X74274Y50000D02*
X77898D01*
X74274Y51600D02*
X74929D01*
X74274Y51200D02*
X75341D01*
X74274Y52479D02*
X74274Y44000D01*
X74177Y43512D02*
X74274Y44000D01*
X50226Y44000D02*
X50323Y43512D01*
X50599Y43099D01*
X48519Y48400D02*
X50226D01*
X48519Y47600D02*
X50226D01*
X48519Y52000D02*
X50226D01*
X48519Y48800D02*
X50226D01*
X50226Y102400D02*
X50226Y44000D01*
X48519D02*
X50226D01*
X48519Y47200D02*
X50226D01*
X48519Y46800D02*
X50226D01*
X73901Y43099D02*
X74177Y43512D01*
X73488Y42823D02*
X73901Y43099D01*
X73000Y42726D02*
X73488Y42823D01*
X51012Y42823D02*
X51500Y42726D01*
X73000Y42726D01*
X72096Y38400D02*
X81456D01*
X72096D02*
X81456D01*
X48519D02*
X72096D01*
X48519Y38000D02*
X70654D01*
X50599Y43099D02*
X51012Y42823D01*
X48519Y37600D02*
X70136D01*
X48519Y37200D02*
X69736D01*
X48519Y36800D02*
X69336D01*
X48519Y36400D02*
X68936D01*
X48519Y36000D02*
X68536D01*
X86576Y35600D02*
X89000D01*
X86176Y35200D02*
X88600D01*
X85776Y34800D02*
X88200D01*
X85376Y34400D02*
X87800D01*
X84976Y34000D02*
X87400D01*
X84576Y33600D02*
X87000D01*
X84058Y33200D02*
X86600D01*
X82616Y32800D02*
X86200D01*
X72856Y32400D02*
X85800D01*
X73256Y32800D02*
X82616D01*
X73256D02*
X82616D01*
X72456Y32000D02*
X85400D01*
X72056Y31600D02*
X85000D01*
X71656Y31200D02*
X84600D01*
X71256Y30800D02*
X84200D01*
X88520Y27200D02*
X91515D01*
X88120Y26800D02*
X91104D01*
X87720Y26400D02*
X90704D01*
X70856Y30400D02*
X83800D01*
X87320Y26000D02*
X90304D01*
X73578Y9274D02*
X91400Y27096D01*
X86920Y25600D02*
X89904D01*
X86520Y25200D02*
X89504D01*
X86120Y24800D02*
X89104D01*
X70456Y30000D02*
X83400D01*
X70056Y29600D02*
X83000D01*
X69656Y29200D02*
X82600D01*
X69256Y28800D02*
X82200D01*
X68856Y28400D02*
X81800D01*
X68456Y28000D02*
X81400D01*
X68056Y27600D02*
X81000D01*
X67656Y27200D02*
X80600D01*
X48519Y35200D02*
X67736D01*
X48519Y35600D02*
X68136D01*
X48519Y34800D02*
X67336D01*
X48519Y34400D02*
X66936D01*
X48519Y34000D02*
X66536D01*
X48519Y33600D02*
X66136D01*
X49795Y9339D02*
X73256Y32800D01*
X48519Y33200D02*
X65736D01*
X48519Y32800D02*
X65336D01*
X48519Y32400D02*
X64936D01*
X48519Y32000D02*
X64536D01*
X48519Y31600D02*
X64136D01*
X48519Y31200D02*
X63736D01*
X48519Y30800D02*
X63336D01*
X48519Y30400D02*
X62936D01*
X48519Y30000D02*
X62536D01*
X48519Y29600D02*
X62136D01*
X67256Y26800D02*
X80200D01*
X48519Y28800D02*
X61336D01*
X66856Y26400D02*
X79800D01*
X48519Y28000D02*
X60536D01*
X48519Y27600D02*
X60136D01*
X66456Y26000D02*
X79400D01*
X66056Y25600D02*
X79000D01*
X65656Y25200D02*
X78600D01*
X65256Y24800D02*
X78200D01*
X48519Y29200D02*
X61736D01*
X48519Y28400D02*
X60936D01*
X48519Y27200D02*
X59736D01*
X48519Y26800D02*
X59336D01*
X48519Y26400D02*
X58936D01*
X48519Y26000D02*
X58536D01*
X48519Y25600D02*
X58136D01*
X48519Y25200D02*
X57736D01*
X48519Y51200D02*
X50226D01*
X48519Y51600D02*
X50226D01*
X48519Y50800D02*
X50226D01*
X24322Y51988D02*
X24599Y52401D01*
X24226Y51500D02*
X24322Y51988D01*
X48519Y49600D02*
X50226D01*
X48519Y49200D02*
X50226D01*
X48519Y50400D02*
X50226D01*
X48519Y50000D02*
X50226D01*
X15817Y51600D02*
X24245D01*
X15817Y52000D02*
X24331D01*
X15817Y51200D02*
X24226D01*
X15817Y50800D02*
X24226D01*
X15817Y50400D02*
X24226D01*
Y49774D02*
Y51500D01*
X15817Y50000D02*
X24226D01*
X18081Y49774D02*
X24226D01*
X48519Y45600D02*
X50226D01*
X48519Y46000D02*
X50226D01*
X48519Y45200D02*
X50226D01*
X48519Y48000D02*
X50226D01*
X48519Y46400D02*
X50226D01*
X48519Y43600D02*
X50305D01*
X48519Y43200D02*
X50531D01*
X48519Y44800D02*
X50226D01*
X48519Y44400D02*
X50226D01*
X18081Y44124D02*
X24226D01*
X0Y44000D02*
X24226D01*
X0Y43600D02*
X24226D01*
X48519Y42800D02*
X51126D01*
X0Y43200D02*
X24226D01*
X0Y42800D02*
X24226D01*
X15817Y49600D02*
X18081D01*
X15817Y49200D02*
X18081D01*
X15817Y47471D02*
Y55876D01*
X18081Y44124D02*
Y49774D01*
X5443Y47471D02*
Y55876D01*
X0Y51200D02*
X5443D01*
X0Y50800D02*
X5443D01*
X0Y52000D02*
X5443D01*
X0Y51600D02*
X5443D01*
X0Y49600D02*
X5443D01*
X0Y49200D02*
X5443D01*
X0Y50400D02*
X5443D01*
X0Y50000D02*
X5443D01*
X15817Y48400D02*
X18081D01*
X15817Y48800D02*
X18081D01*
X15817Y48000D02*
X18081D01*
X0Y48800D02*
X5443D01*
X0Y48400D02*
X5443D01*
X15817Y47600D02*
X18081D01*
X0Y45200D02*
X18081D01*
X0Y48000D02*
X5443D01*
Y47471D02*
X15817D01*
X0Y46800D02*
X18081D01*
X0Y46400D02*
X18081D01*
X0Y47600D02*
X5443D01*
X0Y47200D02*
X18081D01*
X0Y44800D02*
X18081D01*
X0Y44400D02*
X18081D01*
X0Y46000D02*
X18081D01*
X0Y45600D02*
X18081D01*
X48519Y42400D02*
X85456D01*
X0D02*
X24226D01*
X48519Y42000D02*
X85056D01*
X0D02*
X24226D01*
X0Y41600D02*
X24226D01*
X48519Y104000D02*
X48519Y21200D01*
X42212Y9675D02*
X70116Y37580D01*
X0Y41200D02*
X24226D01*
X0Y40800D02*
X24226D01*
X0Y39600D02*
X24226D01*
X0Y39200D02*
X24226D01*
X0Y40400D02*
X24226D01*
X0Y40000D02*
X24226D01*
X0Y37600D02*
X24226D01*
X0Y37200D02*
X24226D01*
X0Y38800D02*
X24226D01*
X0Y38000D02*
X24226D01*
X0Y32400D02*
X24226D01*
X0Y32800D02*
X24226D01*
X0Y32000D02*
X24226D01*
X0Y33600D02*
X24226D01*
X0Y33200D02*
X24226D01*
X0Y30800D02*
X24226D01*
X18081Y30679D02*
X24226D01*
X0Y31600D02*
X24226D01*
X0Y31200D02*
X24226D01*
X0Y36000D02*
X24226D01*
X0Y35600D02*
X24226D01*
X0Y36800D02*
X24226D01*
X0Y36400D02*
X24226D01*
X0Y34400D02*
X24226D01*
X0Y34000D02*
X24226D01*
X0Y35200D02*
X24226D01*
X0Y34800D02*
X24226D01*
Y30679D02*
Y44124D01*
X0Y38400D02*
X24226D01*
X0Y30400D02*
X18081D01*
Y25030D02*
Y30679D01*
X5443Y18927D02*
Y27333D01*
X15817Y18927D02*
Y27333D01*
X0Y29200D02*
X18081D01*
X0Y28800D02*
X18081D01*
X0Y30000D02*
X18081D01*
X0Y29600D02*
X18081D01*
X0Y28400D02*
X18081D01*
X0Y28000D02*
X18081D01*
X0Y5906D02*
Y122047D01*
Y27600D02*
X18081D01*
X15817Y26000D02*
X18081D01*
X15817Y26400D02*
X18081D01*
X15817Y25600D02*
X18081D01*
X15817Y27200D02*
X18081D01*
X15817Y26800D02*
X18081D01*
X24226Y21200D02*
Y25030D01*
X18081D02*
X24226D01*
X15817Y25200D02*
X18081D01*
X5443Y27333D02*
X15817D01*
X0Y27200D02*
X5443D01*
X0Y26800D02*
X5443D01*
X0Y26400D02*
X5443D01*
X0Y25200D02*
X5443D01*
X0Y24800D02*
X5443D01*
X0Y26000D02*
X5443D01*
X0Y25600D02*
X5443D01*
X85720Y24400D02*
X88704D01*
X85320Y24000D02*
X88304D01*
X84920Y23600D02*
X87904D01*
X84520Y23200D02*
X87504D01*
X84120Y22800D02*
X87104D01*
X83720Y22400D02*
X86704D01*
X83320Y22000D02*
X86304D01*
X82920Y21600D02*
X85904D01*
X82520Y21200D02*
X85504D01*
X64856Y24400D02*
X77800D01*
X64456Y24000D02*
X77400D01*
X64056Y23600D02*
X77000D01*
X63656Y23200D02*
X76600D01*
X63256Y22800D02*
X76200D01*
X62856Y22400D02*
X75800D01*
X62456Y22000D02*
X75400D01*
X62056Y21600D02*
X75000D01*
X61656Y21200D02*
X74600D01*
X82120Y20800D02*
X85104D01*
X81720Y20400D02*
X84704D01*
X81320Y20000D02*
X84304D01*
X80920Y19600D02*
X83904D01*
X80520Y19200D02*
X83504D01*
X80120Y18800D02*
X83104D01*
X79720Y18400D02*
X82704D01*
X79320Y18000D02*
X82304D01*
X78920Y17600D02*
X81904D01*
X78520Y17200D02*
X81504D01*
X78120Y16800D02*
X81104D01*
X77720Y16400D02*
X80704D01*
X77320Y16000D02*
X80304D01*
X76920Y15600D02*
X79904D01*
X76520Y15200D02*
X79504D01*
X76120Y14800D02*
X79104D01*
X75720Y14400D02*
X78704D01*
X48519Y24400D02*
X56936D01*
X48519Y24800D02*
X57336D01*
X48519Y24000D02*
X56536D01*
X48519Y23600D02*
X56136D01*
X48519Y23200D02*
X55736D01*
X61256Y20800D02*
X74200D01*
X60856Y20400D02*
X73800D01*
X48519Y22800D02*
X55336D01*
X48519Y22400D02*
X54936D01*
X48519Y22000D02*
X54536D01*
X48519Y21600D02*
X54136D01*
X48519Y21200D02*
X53736D01*
X48439Y20800D02*
X53336D01*
X48422Y20712D02*
X48519Y21200D01*
X48213Y20400D02*
X52936D01*
X48145Y20299D02*
X48422Y20712D01*
X47732Y20022D02*
X48145Y20299D01*
X60456Y20000D02*
X73400D01*
X60056Y19600D02*
X73000D01*
X59656Y19200D02*
X72600D01*
X59256Y18800D02*
X72200D01*
X58856Y18400D02*
X71800D01*
X58456Y18000D02*
X71400D01*
X58056Y17600D02*
X71000D01*
X57656Y17200D02*
X70600D01*
X57256Y16800D02*
X70200D01*
X56856Y16400D02*
X69800D01*
X56456Y16000D02*
X69400D01*
X47244Y19926D02*
X47732Y20022D01*
X47619Y20000D02*
X52536D01*
X56056Y15600D02*
X69000D01*
X55656Y15200D02*
X68600D01*
X55256Y14800D02*
X68200D01*
X54856Y14400D02*
X67800D01*
X75320Y14000D02*
X78304D01*
X74920Y13600D02*
X77904D01*
X74520Y13200D02*
X77504D01*
X74120Y12800D02*
X77104D01*
X73720Y12400D02*
X76704D01*
X73320Y12000D02*
X76304D01*
X72920Y11600D02*
X75904D01*
X72520Y11200D02*
X75504D01*
X72120Y10800D02*
X75104D01*
X54456Y14000D02*
X67400D01*
X54056Y13600D02*
X67000D01*
X53656Y13200D02*
X66600D01*
X53256Y12800D02*
X66200D01*
X52856Y12400D02*
X65800D01*
X52456Y12000D02*
X65400D01*
X52056Y11600D02*
X65000D01*
X51656Y11200D02*
X64600D01*
X71720Y10400D02*
X74704D01*
X71320Y10000D02*
X74304D01*
X72634Y9600D02*
X73904D01*
X62634D02*
X63000D01*
X61500Y0D02*
X70500D01*
X54572Y1600D02*
X58656D01*
X61500Y0D02*
Y523D01*
X51256Y10800D02*
X64200D01*
X50856Y10400D02*
X63800D01*
X50456Y10000D02*
X63400D01*
X52634Y9600D02*
X60594D01*
X53727Y9200D02*
X59501D01*
X53189Y800D02*
X60039D01*
X54366Y8800D02*
X58863D01*
X54018Y1200D02*
X59211D01*
X55195Y8000D02*
X58033D01*
X54832Y8400D02*
X58396D01*
X55483Y7600D02*
X57745D01*
X55712Y7200D02*
X57516D01*
X55892Y6800D02*
X57336D01*
X56028Y6400D02*
X57200D01*
X56125Y6000D02*
X57103D01*
X56185Y5600D02*
X57043D01*
X50056Y9600D02*
X50594D01*
X46172Y5716D02*
X47393Y6937D01*
X46856Y6400D02*
X47200D01*
X46456Y6000D02*
X47103D01*
X46185Y5600D02*
X47043D01*
X56154Y4400D02*
X57074D01*
X56073Y4000D02*
X57156D01*
X55953Y3600D02*
X57276D01*
X56210Y5200D02*
X57018D01*
X56200Y4800D02*
X57029D01*
X55321Y2400D02*
X57907D01*
X54991Y2000D02*
X58237D01*
X55791Y3200D02*
X57437D01*
X55583Y2800D02*
X57645D01*
X46210Y5200D02*
X47018D01*
X46200Y4800D02*
X47029D01*
X45953Y3600D02*
X47276D01*
X46154Y4400D02*
X47074D01*
X46073Y4000D02*
X47156D01*
X15817Y22000D02*
X24226D01*
X15817Y22400D02*
X24226D01*
Y21200D02*
X24322Y20712D01*
X15817Y24000D02*
X24226D01*
X15817Y23200D02*
X24226D01*
X25012Y20022D02*
X25500Y19926D01*
X47244Y19926D01*
X24322Y20712D02*
X24599Y20299D01*
X25012Y20022D01*
X15817Y21200D02*
X24226D01*
X15817Y21600D02*
X24226D01*
X15817Y20800D02*
X24305D01*
X15817Y24800D02*
X24226D01*
X15817Y22800D02*
X24226D01*
X15817Y19600D02*
X52136D01*
X15817Y19200D02*
X51736D01*
X15817Y20400D02*
X24531D01*
X15817Y20000D02*
X25126D01*
X15971Y15200D02*
X47736D01*
X15596Y15600D02*
X48136D01*
X16298Y14800D02*
X47336D01*
X16587Y14400D02*
X46936D01*
X16840Y14000D02*
X46536D01*
X17063Y13600D02*
X46136D01*
X17258Y13200D02*
X45736D01*
X17426Y12800D02*
X45336D01*
X17570Y12400D02*
X44936D01*
X0Y18800D02*
X51336D01*
X0Y18400D02*
X50936D01*
X0Y18000D02*
X50536D01*
X12308Y17600D02*
X50136D01*
X13324Y17200D02*
X49736D01*
X14067Y16800D02*
X49336D01*
X14665Y16400D02*
X48936D01*
X15166Y16000D02*
X48536D01*
X15817Y24400D02*
X24226D01*
X0D02*
X5443D01*
X15817Y23600D02*
X24226D01*
X0Y24000D02*
X5443D01*
X0Y23600D02*
X5443D01*
X0Y23200D02*
X5443D01*
X0Y22000D02*
X5443D01*
X0Y21600D02*
X5443D01*
X0Y22800D02*
X5443D01*
X0Y22400D02*
X5443D01*
X0Y20400D02*
X5443D01*
X0Y20000D02*
X5443D01*
X0Y21200D02*
X5443D01*
X0Y20800D02*
X5443D01*
Y18927D02*
X15817D01*
X0Y17600D02*
X7377D01*
X0Y17200D02*
X6361D01*
X0Y19600D02*
X5443D01*
X0Y19200D02*
X5443D01*
X0Y16800D02*
X5618D01*
X0Y16400D02*
X5020D01*
X0Y16000D02*
X4519D01*
X0Y15600D02*
X4089D01*
X0Y15200D02*
X3714D01*
X0Y14800D02*
X3387D01*
X0Y14400D02*
X3098D01*
X0Y14000D02*
X2845D01*
X0Y13600D02*
X2622D01*
X0Y13200D02*
X2427D01*
X0Y12800D02*
X2259D01*
X0Y12400D02*
X2115D01*
X17926Y10800D02*
X43336D01*
X17868Y11200D02*
X43736D01*
X17963Y10400D02*
X42936D01*
X17981Y10000D02*
X42536D01*
X17979Y9600D02*
X40594D01*
X17957Y9200D02*
X39501D01*
X17915Y8800D02*
X38863D01*
X17853Y8400D02*
X38396D01*
X17691Y12000D02*
X44536D01*
X17790Y11600D02*
X44136D01*
X17771Y8000D02*
X38033D01*
X17667Y7600D02*
X37745D01*
X17541Y7200D02*
X37516D01*
X17392Y6800D02*
X37337D01*
X17219Y6400D02*
X37200D01*
X15510Y4000D02*
X37156D01*
X45791Y3200D02*
X47437D01*
X45583Y2800D02*
X47645D01*
X45321Y2400D02*
X47908D01*
X15066Y3600D02*
X37276D01*
X14547Y3200D02*
X37437D01*
X44017Y1200D02*
X49211D01*
X43189Y800D02*
X50039D01*
X44991Y2000D02*
X48237D01*
X44572Y1600D02*
X48656D01*
X12022Y2000D02*
X38237D01*
X1863Y1600D02*
X38656D01*
X13924Y2800D02*
X37645D01*
X13139Y2400D02*
X37907D01*
X3769Y400D02*
X61500D01*
X5906Y0D02*
X61500D01*
X2337Y1200D02*
X39211D01*
X2938Y800D02*
X40039D01*
X0Y11600D02*
X1895D01*
X0Y12000D02*
X1994D01*
X0Y11200D02*
X1817D01*
X0Y10800D02*
X1759D01*
X0Y10400D02*
X1722D01*
X0Y10000D02*
X1704D01*
X0Y9600D02*
X1706D01*
X0Y8400D02*
X1832D01*
X0Y8000D02*
X1914D01*
X0Y9200D02*
X1728D01*
X0Y8800D02*
X1770D01*
X0Y6800D02*
X2293D01*
X0Y6400D02*
X2467D01*
X0Y7600D02*
X2018D01*
X0Y7200D02*
X2144D01*
X17018Y6000D02*
X37103D01*
X16789Y5600D02*
X37043D01*
X15895Y4400D02*
X37074D01*
X16529Y5200D02*
X37018D01*
X16232Y4800D02*
X37029D01*
X1153Y2400D02*
X6546D01*
X1476Y2000D02*
X7663D01*
X656Y3200D02*
X5138D01*
X883Y2800D02*
X5761D01*
X42Y5200D02*
X3156D01*
X104Y4800D02*
X3453D01*
X0Y6000D02*
X2667D01*
X8Y5600D02*
X2896D01*
X469Y3600D02*
X4619D01*
X195Y4400D02*
X3790D01*
X316Y4000D02*
X4175D01*
D95*
X271764Y14736D02*
X289764D01*
X254000Y32500D02*
X271764Y14736D01*
X254000Y32500D02*
Y59941D01*
X120000Y40500D02*
Y49600D01*
X289764Y14736D02*
X296236D01*
X298031Y16532D01*
X99213Y57500D02*
Y75590D01*
D97*
X73145Y111000D02*
X100000D01*
X65630Y103485D02*
X73145Y111000D01*
X65630Y86614D02*
Y103485D01*
X100000Y111000D02*
X120594Y90406D01*
X404634Y29634D02*
Y31299D01*
X392500Y17500D02*
X404634Y29634D01*
X375000Y17500D02*
X392500D01*
X370563Y21937D02*
X375000Y17500D01*
X370563Y21937D02*
Y31299D01*
X379929Y82000D02*
X382677Y79252D01*
X403700Y82000D02*
X412500Y73200D01*
X379929Y82000D02*
X403700D01*
X375315Y86614D02*
X379929Y82000D01*
X382677Y59374D02*
Y79252D01*
X384500Y32154D02*
X392520Y40173D01*
Y59374D01*
X412500Y67339D02*
Y73200D01*
X404634Y59472D02*
X412500Y67339D01*
X404634Y31299D02*
Y59472D01*
X244000Y90406D02*
X257594D01*
X120594D02*
X244000D01*
X257594D02*
X269500Y78500D01*
Y28126D02*
Y78500D01*
D98*
X133246Y47504D02*
X137992Y52250D01*
X133246Y47504D02*
X148500Y32250D01*
X106000Y58984D02*
Y83300D01*
X72096Y35600D02*
X82616D01*
X106000Y58984D01*
X97860Y40500D02*
X120000D01*
X62478Y5118D02*
X97860Y40500D01*
X61614Y5118D02*
X62478D01*
X126242Y40500D02*
X133246Y47504D01*
X120000Y40500D02*
X126242D01*
X239933Y74008D02*
X254000Y59941D01*
X137992Y74008D02*
X239933D01*
X93300Y96000D02*
X106000Y83300D01*
X85433Y96000D02*
X93300D01*
X137992Y52250D02*
Y74008D01*
X41614Y5118D02*
X72096Y35600D01*
D99*
X404724Y90551D02*
D03*
Y70866D02*
D03*
D100*
X78740Y55118D02*
D03*
D101*
X61614Y5118D02*
D03*
X71614D02*
D03*
X81614D02*
D03*
X121614D02*
D03*
X111614D02*
D03*
X101614D02*
D03*
X91614D02*
D03*
X51614D02*
D03*
X41614D02*
D03*
D102*
X131614D02*
D03*
D103*
X10630Y23130D02*
D03*
Y51673D02*
D03*
D104*
X21299Y46949D02*
D03*
Y27854D02*
D03*
D105*
X403543Y9843D02*
D03*
Y118110D02*
D03*
X9843Y9843D02*
D03*
Y118110D02*
D03*
D106*
X67000Y55200D02*
D03*
X107286Y32400D02*
D03*
X80000Y69200D02*
D03*
X146500Y2400D02*
D03*
X140500Y5600D02*
D03*
X167500Y80000D02*
D03*
X220000Y2800D02*
D03*
X212500D02*
D03*
X190000D02*
D03*
X197500D02*
D03*
X205000D02*
D03*
X57500Y104800D02*
D03*
X76500D02*
D03*
X408500Y108800D02*
D03*
X389500Y122000D02*
D03*
X390000Y27600D02*
D03*
X401000Y64400D02*
D03*
X412000Y81200D02*
D03*
X417500Y70800D02*
D03*
Y90400D02*
D03*
X407000Y21200D02*
D03*
X363500Y25200D02*
D03*
X384500Y32154D02*
D03*
X373000Y4000D02*
D03*
X382750D02*
D03*
X392500D02*
D03*
X364500Y55200D02*
D03*
X360500Y51200D02*
D03*
X368500Y59200D02*
D03*
Y51200D02*
D03*
X358596Y67200D02*
D03*
X358500Y82000D02*
D03*
X295276Y40000D02*
D03*
X320000D02*
D03*
X307677D02*
D03*
X338500Y60800D02*
D03*
X307500Y70000D02*
D03*
X295276Y60000D02*
D03*
X330500Y77200D02*
D03*
X317500D02*
D03*
X275000Y67200D02*
D03*
X226000Y37600D02*
D03*
X222969Y57200D02*
D03*
X250500Y107600D02*
D03*
X242500Y102400D02*
D03*
X224000Y120400D02*
D03*
X231000Y100400D02*
D03*
X217500Y82800D02*
D03*
X195000Y84800D02*
D03*
X200000Y96000D02*
D03*
X190000D02*
D03*
X200000Y114400D02*
D03*
X190000D02*
D03*
X195000Y120000D02*
D03*
X151500Y60800D02*
D03*
X163500D02*
D03*
X157500D02*
D03*
X82000Y19200D02*
D03*
X68500Y18800D02*
D03*
X91000Y54800D02*
D03*
X80000Y45600D02*
D03*
X130000Y50000D02*
D03*
X125984Y33500D02*
D03*
X123500Y31000D02*
D03*
X128500D02*
D03*
Y36018D02*
D03*
X123500Y36000D02*
D03*
X123000Y68800D02*
D03*
X115500Y78800D02*
D03*
X130500D02*
D03*
X150000Y102400D02*
D03*
X127500D02*
D03*
X150000Y125200D02*
D03*
X127500D02*
D03*
X77000Y124800D02*
D03*
X99000Y103200D02*
D03*
X90500D02*
D03*
X63375Y124800D02*
D03*
X49750D02*
D03*
X22500D02*
D03*
X36125D02*
D03*
X20000Y110000D02*
D03*
X10500Y90800D02*
D03*
X13000Y87600D02*
D03*
Y93600D02*
D03*
X30000Y15200D02*
D03*
Y5200D02*
D03*
X22500Y10000D02*
D03*
X272500Y87500D02*
D03*
X265000Y94800D02*
D03*
X250000Y14800D02*
D03*
X245000Y20000D02*
D03*
X212500Y35200D02*
D03*
X205000Y43200D02*
D03*
X197500Y35200D02*
D03*
X309000Y15200D02*
D03*
X303500D02*
D03*
X314500D02*
D03*
X166500Y16416D02*
D03*
X85433Y96000D02*
D03*
X173000Y102500D02*
D03*
X179000D02*
D03*
X173000Y108500D02*
D03*
X179000D02*
D03*
X182000Y105500D02*
D03*
X176000D02*
D03*
X170000D02*
D03*
X244000Y90406D02*
D03*
X269500Y28126D02*
D03*
X254000Y59941D02*
D03*
X295276Y102362D02*
D03*
X277953D02*
D03*
X266142D02*
D03*
X260000Y33000D02*
D03*
X249000Y5500D02*
D03*
X260000Y78321D02*
D03*
X141000Y29000D02*
D03*
X199059Y64000D02*
D03*
X226000Y20445D02*
D03*
X185000Y12691D02*
D03*
Y20445D02*
D03*
Y28390D02*
D03*
Y36264D02*
D03*
Y44138D02*
D03*
X33500Y89600D02*
D03*
Y86500D02*
D03*
Y83500D02*
D03*
X126000Y54000D02*
D03*
X70866Y53000D02*
D03*
Y49000D02*
D03*
X67000Y47200D02*
D03*
Y51100D02*
D03*
X148500Y32250D02*
D03*
X137992Y74008D02*
D03*
X112000Y47600D02*
D03*
X120000Y49600D02*
D03*
X28000Y23200D02*
D03*
X32500D02*
D03*
X44508Y90551D02*
D03*
X27500Y49600D02*
D03*
Y46400D02*
D03*
X29500Y43600D02*
D03*
X99213Y57500D02*
D03*
Y75590D02*
D03*
X44508Y102000D02*
D03*
X271654Y102362D02*
D03*
X283465D02*
D03*
X311024D02*
D03*
X330708D02*
D03*
X340551D02*
D03*
X355315D02*
D03*
D107*
X375315Y86614D02*
D03*
X65630D02*
D03*
D108*
X353149Y26772D02*
D03*
X350394D02*
D03*
X347638D02*
D03*
X344882D02*
D03*
X342126D02*
D03*
X339370D02*
D03*
X336614D02*
D03*
X333858D02*
D03*
X331102D02*
D03*
X328346D02*
D03*
X325590D02*
D03*
X322834D02*
D03*
X320079D02*
D03*
X317323D02*
D03*
X314567D02*
D03*
X311811D02*
D03*
X309055D02*
D03*
X306299D02*
D03*
X303543D02*
D03*
X281496D02*
D03*
X278740D02*
D03*
X355905D02*
D03*
X275984D02*
D03*
X284252D02*
D03*
X287008D02*
D03*
X289764D02*
D03*
X292520D02*
D03*
X295276D02*
D03*
X298031D02*
D03*
X300787D02*
D03*
D109*
X370563Y31299D02*
D03*
X404634D02*
D03*
D110*
X382677Y59374D02*
D03*
X392520D02*
D03*
D111*
X176000Y105500D02*
X182000D01*
X170000D02*
X176000D01*
X375315Y86614D02*
Y103685D01*
X362500Y116500D02*
X375315Y103685D01*
X234000Y116500D02*
X362500D01*
X223000Y105500D02*
X234000Y116500D01*
X182000Y105500D02*
X223000D01*
M02*
